<?xml version="1.0" encoding="UTF-8" standalone="no"?>
<svg width="217px" height="424px" viewBox="0 0 217 424" version="1.1" xmlns="http://www.w3.org/2000/svg" xmlns:xlink="http://www.w3.org/1999/xlink" xmlns:sketch="http://www.bohemiancoding.com/sketch/ns">
    <!-- Generator: Sketch 3.4.4 (17249) - http://www.bohemiancoding.com/sketch -->
    <title>board_2</title>
    <desc>Created with Sketch.</desc>
    <defs>
        <path id="path-1" d="M0,0.0689146006 L216.109833,0.0689146006 L216.109833,424 L0,424"></path>
        <path id="path-3" d="M0,0.0689146006 L216.109833,0.0689146006 L216.109833,424 L0,424 L0,0.0689146006 Z"></path>
        <path id="path-5" d="M0,0.0689146006 L216.109833,0.0689146006 L216.109833,424 L0,424 L0,0.0689146006 Z"></path>
    </defs>
    <g id="Welcome" stroke="none" stroke-width="1" fill="none" fill-rule="evenodd" sketch:type="MSPage">
        <g id="Artboard-22" sketch:type="MSArtboardGroup" transform="translate(-690.000000, -753.000000)">
            <g id="board_2" sketch:type="MSLayerGroup" transform="translate(690.000000, 753.000000)">
                <g id="Group-3">
                    <mask id="mask-2" sketch:name="Clip 2" fill="white">
                        <use xlink:href="#path-1"></use>
                    </mask>
                    <g id="Clip-2"></g>
                    <path d="M143.8521,30.4375934 C143.8521,47.2095383 130.270933,60.8067394 113.518767,60.8067394 C96.7666,60.8067394 83.1854333,47.2095383 83.1854333,30.4375934 C83.1854333,13.6656485 96.7666,0.0684473829 113.518767,0.0684473829 C130.270933,0.0684473829 143.8521,13.6656485 143.8521,30.4375934" id="Fill-1" fill="#2D1F11" sketch:type="MSShapeGroup" mask="url(#mask-2)"></path>
                </g>
                <path d="M134.126883,166.311722 C134.126883,180.273353 122.31205,191.235447 107.14305,191.235447 L43.47805,191.235447 C28.30905,191.235447 16.29355,180.273353 16.29355,166.311722 L16.29355,110.927744 C16.29355,96.9672815 28.30905,86.1114799 43.47805,86.1114799 L107.14305,86.1114799 C122.31205,86.1114799 134.126883,96.9672815 134.126883,110.927744 L134.126883,166.311722 Z" id="Fill-4" fill="#B58024" sketch:type="MSShapeGroup"></path>
                <path d="M129.460217,156.474572 C129.460217,169.266991 117.927717,179.555123 104.030383,179.555123 L45.6947167,179.555123 C31.79505,179.555123 20.9602167,169.266991 20.9602167,156.474572 L20.9602167,105.728897 C20.9602167,92.9364782 31.79505,82.6074645 45.6947167,82.6074645 L104.030383,82.6074645 C117.927717,82.6074645 129.460217,92.9364782 129.460217,105.728897 L129.460217,156.474572 Z" id="Fill-6" fill="#8E6529" sketch:type="MSShapeGroup"></path>
                <path d="M145.79355,101.216042 C145.79355,125.226356 131.69555,143.345056 115.103217,143.345056 L33.1308833,143.345056 C16.5397167,143.345056 3.46021667,125.226356 3.46021667,101.216042 L3.46021667,74.6430391 C3.46021667,44.6850446 20.86455,21.9373862 37.4568833,21.9373862 L108.92105,20.3908959 C125.513383,20.3908959 145.79355,41.7053642 145.79355,74.6430391 L145.79355,101.216042 Z" id="Fill-8" fill="#4C321B" sketch:type="MSShapeGroup"></path>
                <path d="M140.62335,201.755669 L107.10035,195.907273 L107.878517,187.730964 L141.993017,193.223107 L140.62335,201.755669 Z" id="Fill-10" fill="#D89E2A" sketch:type="MSShapeGroup"></path>
                <path d="M101.649333,291.957406 L47.8636667,291.38156 L48.9603333,314.872095 L48.9603333,314.918817 L52.5653333,410.003445 L63.6533333,410.373715 L65.1793333,314.879103 L84.756,314.902464 L83.4271667,409.634343 L94.0135,409.387885 L100.168833,314.86275 L101.649333,291.957406 Z" id="Fill-12" fill="#F7B817" sketch:type="MSShapeGroup"></path>
                <path d="M69.6525667,162.741479 L70.0854,188.908002 L76.5989,200.101369 L81.3962333,190.368057 L81.3962333,162.741479" id="Fill-14" fill="#E8C599" sketch:type="MSShapeGroup"></path>
                <path d="M75.7115333,174.594089 L76.0335333,199.641626 L81.1342,185.879731 L81.5250333,164.33399" id="Fill-16" fill="#DABB96" sketch:type="MSShapeGroup"></path>
                <path d="M135.876883,39.1945366 L136.134717,49.3903934 C136.254883,105.620035 136.292217,97.4495669 136.35755,127.891132 C136.39955,147.821468 96.1938833,176.808818 76.2718833,176.770272 C54.76905,176.727055 15.4348833,151.841875 15.3823833,127.648179 C15.2843833,81.8993961 15.2318833,93.0705697 15.1607167,59.5009829 L135.876883,39.1945366 Z" id="Fill-18" fill="#F2D2A7" sketch:type="MSShapeGroup"></path>
                <path d="M119.910467,222.705241 C119.910467,216.973648 117.768467,211.774684 114.294133,207.887434 L115.267133,188.899709 C115.267133,188.899709 112.731967,187.821604 94.0711333,186.564789 L76.0344667,187.652238 L57.7108,186.758684 C39.0476333,188.0155 35.1556333,188.350728 35.1556333,188.350728 L36.0446333,207.790486 C32.5201333,211.687081 30.3443,216.926927 30.3443,222.705241 C30.3443,229.175037 33.0661333,234.967367 37.3618,238.953902 L37.6721333,254.00415 L39.3638,302.188304 L87.0606333,302.278244 L110.017133,302.784007 L111.865133,255.342728 L112.693467,239.140789 C117.108133,235.15075 119.910467,229.275489 119.910467,222.705241" id="Fill-20" fill="#F7B817" sketch:type="MSShapeGroup"></path>
                <path d="M25.1552,107.980302 C25.1552,113.143057 21.6482,117.329327 17.3187,117.329327 C12.9915333,117.329327 9.4822,113.143057 9.4822,107.980302 C9.4822,102.817547 12.9915333,98.6312771 17.3187,98.6312771 C21.6482,98.6312771 25.1552,102.817547 25.1552,107.980302" id="Fill-22" fill="#F2D2A7" sketch:type="MSShapeGroup"></path>
                <path d="M17.1173333,118.01929 C17.1173333,119.753836 15.7126667,121.160161 13.9825,121.160161 C12.2511667,121.160161 10.8465,119.753836 10.8465,118.01929 C10.8465,116.287081 12.2511667,114.879588 13.9825,114.879588 C15.7126667,114.879588 17.1173333,116.287081 17.1173333,118.01929" id="Fill-24" fill="#21A39D" sketch:type="MSShapeGroup"></path>
                <path d="M128.355033,107.980302 C128.355033,113.143057 131.8632,117.329327 136.191533,117.329327 C140.5187,117.329327 144.028033,113.143057 144.028033,107.980302 C144.028033,102.817547 140.5187,98.6312771 136.191533,98.6312771 C131.8632,98.6312771 128.355033,102.817547 128.355033,107.980302" id="Fill-26" fill="#F2D2A7" sketch:type="MSShapeGroup"></path>
                <path d="M136.393017,118.01929 C136.393017,119.753836 137.797683,121.160161 139.530183,121.160161 C141.26035,121.160161 142.665017,119.753836 142.665017,118.01929 C142.665017,116.287081 141.26035,114.879588 139.530183,114.879588 C137.797683,114.879588 136.393017,116.287081 136.393017,118.01929" id="Fill-28" fill="#21A39D" sketch:type="MSShapeGroup"></path>
                <path d="M34.3336,261.397869 L37.6212667,253.458673 L38.3947667,262.753968 L34.3336,261.397869 Z" id="Fill-30" fill="#CE9F67" sketch:type="MSShapeGroup"></path>
                <path d="M48.0624667,266.768068 C47.4558,269.051594 44.8133,270.329435 42.1568,269.622768 L37.8448,268.478085 C35.1906333,267.77025 33.5258,265.347727 34.1313,263.064201 L34.1814667,262.880818 C34.7846333,260.597291 37.4306333,259.319451 40.0871333,260.02495 L44.3968,261.171969 C47.0533,261.877468 48.7169667,264.299991 48.1103,266.584685 L48.0624667,266.768068 Z" id="Fill-32" fill="#F2D2A7" sketch:type="MSShapeGroup"></path>
                <path d="M36.1132333,258.06941 C21.7550667,255.651559 10.9027333,243.055372 11.0987333,228.026149 C11.2924,212.995758 21.4085667,200.337664 35.8239,198.290083 L35.5940667,188.314986 C15.0222333,190.43849 0.276733333,207.211603 0.00373333333,228.417444 C-0.270433333,249.624452 15.4504,267.307471 35.9604,269.961267 L36.1132333,258.06941 Z" id="Fill-34" fill="#D89E2A" sketch:type="MSShapeGroup"></path>
                <path d="M129.143467,113.560399 C129.143467,119.705479 123.739467,124.656818 117.073133,124.656818 L104.4778,124.656818 C97.8126333,124.656818 92.4074667,119.705479 92.4074667,113.560399 C92.4074667,107.414151 97.8126333,102.46398 104.4778,102.46398 L117.073133,102.46398 C123.739467,102.46398 129.143467,107.414151 129.143467,113.560399" id="Fill-36" fill="#FFFFFF" sketch:type="MSShapeGroup"></path>
                <path d="M112.998083,113.9573 C112.998083,115.200099 111.99475,116.202281 110.754583,116.202281 C109.517917,116.202281 108.513417,115.200099 108.513417,113.9573 C108.513417,112.719174 109.517917,111.71232 110.754583,111.71232 C111.99475,111.71232 112.998083,112.719174 112.998083,113.9573" id="Fill-38" fill="#000000" sketch:type="MSShapeGroup"></path>
                <path d="M58.8883167,113.560399 C58.8883167,119.705479 53.48315,124.656818 46.8168167,124.656818 L34.2214833,124.656818 C27.5563167,124.656818 22.15115,119.705479 22.15115,113.560399 C22.15115,107.414151 27.5563167,102.46398 34.2214833,102.46398 L46.8168167,102.46398 C53.48315,102.46398 58.8883167,107.414151 58.8883167,113.560399" id="Fill-40" fill="#FFFFFF" sketch:type="MSShapeGroup"></path>
                <path d="M42.7417667,113.9573 C42.7417667,115.200099 41.7384333,116.202281 40.4994333,116.202281 C39.2604333,116.202281 38.2571,115.200099 38.2571,113.9573 C38.2571,112.719174 39.2604333,111.71232 40.4994333,111.71232 C41.7384333,111.71232 42.7417667,112.719174 42.7417667,113.9573" id="Fill-42" fill="#000000" sketch:type="MSShapeGroup"></path>
                <path d="M36.1268833,135.340333 C36.1268833,137.18117 34.63705,138.673931 32.7972167,138.673931 L28.95655,138.673931 C27.1167167,138.673931 25.6268833,137.18117 25.6268833,135.340333 L25.6268833,134.998096 C25.6268833,133.157258 27.1167167,131.665666 28.95655,131.665666 L32.7972167,131.665666 C34.63705,131.665666 36.1268833,133.157258 36.1268833,134.998096 L36.1268833,135.340333 Z" id="Fill-44" fill="#E16C58" sketch:type="MSShapeGroup"></path>
                <path d="M125.960217,135.340333 C125.960217,137.18117 124.470383,138.673931 122.63055,138.673931 L118.789883,138.673931 C116.95005,138.673931 115.460217,137.18117 115.460217,135.340333 L115.460217,134.998096 C115.460217,133.157258 116.95005,131.665666 118.789883,131.665666 L122.63055,131.665666 C124.470383,131.665666 125.960217,133.157258 125.960217,134.998096 L125.960217,135.340333 Z" id="Fill-46" fill="#E16C58" sketch:type="MSShapeGroup"></path>
                <path d="M45.4784167,93.3135229 C45.54725,94.2257653 44.68275,95.0340518 43.54875,95.118151 L30.0539167,96.1285091 C28.92225,96.2126083 27.95975,95.5398149 27.95975,94.6299085 L27.95975,94.6112198 C27.95975,93.6989774 28.67375,92.8906909 29.8065833,92.8042556 L43.3434167,91.7938975 C44.4774167,91.7097983 45.4305833,92.3825917 45.49825,93.2948342 L45.4784167,93.3135229 Z" id="Fill-48" fill="#704B25" sketch:type="MSShapeGroup"></path>
                <path d="M102.64625,93.3135229 C102.578583,94.2257653 103.441917,95.0340518 104.57475,95.118151 L118.052083,96.1285091 C119.184917,96.2126083 120.126417,95.5398149 120.126417,94.6299085 L120.126417,94.6112198 C120.126417,93.6989774 119.43225,92.8906909 118.299417,92.8042556 L104.77075,91.7938975 C103.639083,91.7097983 102.689417,92.3825917 102.622917,93.2948342 L102.64625,93.3135229 Z" id="Fill-50" fill="#704B25" sketch:type="MSShapeGroup"></path>
                <path d="M60.5938667,149.185743 C63.4965333,152.689875 69.0195333,156.63436 75.3533667,156.63436 C81.6883667,156.63436 87.2102,152.689875 90.1128667,149.185743 L60.5938667,149.185743 Z" id="Fill-52" fill="#DD423A" sketch:type="MSShapeGroup"></path>
                <g id="Group-56">
                    <mask id="mask-4" sketch:name="Clip 55" fill="white">
                        <use xlink:href="#path-3"></use>
                    </mask>
                    <g id="Clip-55"></g>
                    <path d="M174.764217,400.933466 C172.46005,414.684848 160.849383,424.197399 148.830383,422.179019 L124.18105,418.039471 C112.160883,416.019923 104.285883,403.236848 106.588883,389.484298 L147.534217,145.107284 C149.838383,131.355901 161.450217,121.844518 173.469217,123.862898 L198.11855,128.003614 C210.13755,130.021994 218.013717,142.806237 215.70955,156.556452 L174.764217,400.933466 Z" id="Fill-54" fill="#1C1F27" sketch:type="MSShapeGroup" mask="url(#mask-4)"></path>
                </g>
                <path d="M138.3788,199.748152 L211.634967,180.841023 L213.5378,169.494642 L140.280467,188.399436 L138.3788,199.748152 Z" id="Fill-57" fill="#FFFFFF" sketch:type="MSShapeGroup"></path>
                <path d="M136.607217,210.324441 L209.865717,191.418479 L211.767383,180.069763 L138.508883,198.975725 L136.607217,210.324441 Z" id="Fill-59" fill="#B5B5B5" sketch:type="MSShapeGroup"></path>
                <path d="M109.14155,374.252068 L182.397717,355.346107 L184.299383,343.996223 L111.04205,362.903352 L109.14155,374.252068 Z" id="Fill-61" fill="#FFFFFF" sketch:type="MSShapeGroup"></path>
                <path d="M111.023733,363.015367 L184.282233,344.109406 L186.182733,332.76069 L112.9254,351.665483 L111.023733,363.015367 Z" id="Fill-63" fill="#B5B5B5" sketch:type="MSShapeGroup"></path>
                <mask id="mask-6" sketch:name="Clip 66" fill="white">
                    <use xlink:href="#path-5"></use>
                </mask>
                <g id="Clip-66"></g>
                <path d="M65.2936667,423.676452 L47.7936667,423.676452 L47.7936667,390.971218 L65.2936667,390.971218 L65.2936667,423.676452 Z" id="Fill-65" fill="#373E46" sketch:type="MSShapeGroup" mask="url(#mask-6)"></path>
                <path d="M64.85605,424 C64.85605,424 38.29105,395.394601 28.5318833,424" id="Fill-67" fill="#474F56" sketch:type="MSShapeGroup" mask="url(#mask-6)"></path>
                <path d="M80.4603333,423.676452 L97.9603333,423.676452 L97.9603333,390.971218 L80.4603333,390.971218 L80.4603333,423.676452 Z" id="Fill-68" fill="#373E46" sketch:type="MSShapeGroup" mask="url(#mask-6)"></path>
                <path d="M81.1984833,424 C81.1984833,424 107.76115,395.394601 117.52265,424" id="Fill-69" fill="#474F56" sketch:type="MSShapeGroup" mask="url(#mask-6)"></path>
                <path d="M65.2936667,395.643394 L47.7936667,395.643394 L47.7936667,390.971218 L65.2936667,390.971218 L65.2936667,395.643394 Z" id="Fill-70" fill="#6F7B84" sketch:type="MSShapeGroup" mask="url(#mask-6)"></path>
                <path d="M97.9603333,395.643394 L80.4603333,395.643394 L80.4603333,390.971218 L97.9603333,390.971218 L97.9603333,395.643394 Z" id="Fill-71" fill="#6F7B84" sketch:type="MSShapeGroup" mask="url(#mask-6)"></path>
                <path d="M100.876883,302.783539 L84.12355,390.970867 L95.2512167,390.970867 L100.876883,302.783539 Z" id="Fill-72" fill="#D89E2A" sketch:type="MSShapeGroup" mask="url(#mask-6)"></path>
                <path d="M103.638617,300.307169 L110.016783,300.447334 L111.864783,253.007224 L111.996617,250.428183 L103.638617,300.307169 Z" id="Fill-73" fill="#D89E2A" sketch:type="MSShapeGroup" mask="url(#mask-6)"></path>
                <path d="M37.1967167,238.833126 L37.4872167,243.090647 C37.4872167,243.090647 44.9748833,247.658867 50.1268833,240.325887 L37.1967167,238.833126 Z" id="Fill-74" fill="#D89E2A" sketch:type="MSShapeGroup" mask="url(#mask-6)"></path>
                <path d="M113.126883,238.73501 L98.8783833,240.3656 L112.446717,243.213291 L113.126883,238.73501 Z" id="Fill-75" fill="#D89E2A" sketch:type="MSShapeGroup" mask="url(#mask-6)"></path>
                <path d="M112.446717,243.213291 C112.446717,243.213291 104.075883,247.667044 98.8783833,240.3656" id="Fill-76" fill="#D89E2A" sketch:type="MSShapeGroup" mask="url(#mask-6)"></path>
                <path d="M73.4385167,187.731198 C73.4466833,187.731198 73.4606833,187.775583 73.4606833,187.599209 L73.4606833,187.251132 C73.4606833,182.355859 70.12985,178.386845 66.0231833,178.386845 L50.56485,178.386845 C46.4570167,178.386845 43.12735,182.355859 43.12735,187.251132 L43.12735,187.599209 C43.12735,187.775583 43.1401833,187.731198 43.14835,187.731198 L73.4385167,187.731198 Z" id="Fill-77" fill="#D89E2A" sketch:type="MSShapeGroup" mask="url(#mask-6)"></path>
                <path d="M107.27185,187.731198 C107.280017,187.731198 107.294017,187.775583 107.294017,187.599209 L107.294017,187.251132 C107.294017,182.355859 103.963183,178.386845 99.8565167,178.386845 L84.3981833,178.386845 C80.29035,178.386845 76.9606833,182.355859 76.9606833,187.251132 L76.9606833,187.599209 C76.9606833,187.775583 76.9735167,187.731198 76.9816833,187.731198 L107.27185,187.731198 Z" id="Fill-78" fill="#D89E2A" sketch:type="MSShapeGroup" mask="url(#mask-6)"></path>
                <path d="M62.9603333,291.687471 L46.627,291.687471 L46.627,271.830722 L62.9603333,271.830722 L62.9603333,291.687471 Z" id="Fill-79" fill="#D89E2A" sketch:type="MSShapeGroup" mask="url(#mask-6)"></path>
                <path d="M46.90035,271.830371 C46.8980167,271.830371 46.62735,271.63414 46.62735,271.732256 L46.62735,271.73576 C46.62735,274.850933 48.70285,277.670592 50.9311833,277.670592 L58.57985,277.670592 C60.8081833,277.670592 62.9606833,274.850933 62.9606833,271.73576 L62.9606833,271.732256 C62.9606833,271.63414 62.6130167,271.830371 62.6095167,271.830371 L46.90035,271.830371 Z" id="Fill-80" fill="#F4C04E" sketch:type="MSShapeGroup" mask="url(#mask-6)"></path>
                <path d="M56.7383833,281.759914 C56.7383833,282.727055 55.95555,283.51198 54.9883833,283.51198 C54.0212167,283.51198 53.2383833,282.727055 53.2383833,281.759914 C53.2383833,280.792774 54.0212167,280.007848 54.9883833,280.007848 C55.95555,280.007848 56.7383833,280.792774 56.7383833,281.759914" id="Fill-81" fill="#FFFFFF" sketch:type="MSShapeGroup" mask="url(#mask-6)"></path>
                <path d="M139.9363,78.8179791 L139.749633,60.4142766 L139.959633,60.4142766 L139.959633,50.8678523 C139.959633,49.6811196 139.800967,54.9022766 139.7088,53.7599295 L139.863967,52.4155107 L139.959633,52.4201829 L139.959633,52.0604253 C139.959633,28.9354887 110.775467,10.1883813 75.0509667,10.1883813 C39.3241333,10.1883813 9.99646667,30.0135934 9.99646667,53.137362 C9.99646667,53.216789 9.89496667,53.4060121 9.89613333,53.4060121 L9.88563333,53.4060121 L9.7678,58.5874556 C9.62896667,62.8811857 9.5648,66.4308716 9.6558,69.4023758 L9.54846667,79.9159405 L9.92413333,79.6566347 L9.54846667,80.0128882 C10.9706333,80.9987174 12.5969667,81.7544419 14.3411333,82.3069267 C14.6409667,82.4821333 14.9583,82.6433234 15.2978,82.791665 C34.4544667,91.1490204 60.2378,77.7398744 73.8493,62.9442601 C85.3211333,77.3672683 106.487967,83.3850314 116.8223,83.3850314 C126.542967,83.3850314 136.724467,81.3246017 139.9363,79.0983096 L139.559467,78.6509488 L139.9363,78.8179791 Z" id="Fill-82" fill="#4C321B" sketch:type="MSShapeGroup" mask="url(#mask-6)"></path>
                <path d="M77.3498833,121.152685 L72.93055,121.152685 L70.41755,132.833126 C70.5412167,136.337258 72.7812167,137.651308 75.5333833,137.651308 C78.2867167,137.651308 80.5267167,136.337258 80.65155,132.833126 L80.6632167,132.833126 L77.3498833,121.152685 Z" id="Fill-83" fill="#EDA769" sketch:type="MSShapeGroup" mask="url(#mask-6)"></path>
                <path d="M212.875717,204.727174 L210.033717,192.727857 L206.81255,205.715339 L212.875717,204.727174 Z" id="Fill-84" fill="#CE9F67" sketch:type="MSShapeGroup" mask="url(#mask-6)"></path>
                <path d="M194.835667,212.936538 C196.123667,216.072736 200.125333,217.392626 203.771167,215.891689 L209.689667,213.451645 C213.3355,211.948372 215.248833,208.191943 213.960833,205.055744 L213.855833,204.803447 C212.569,201.669585 208.567333,200.347359 204.920333,201.848295 L199.001833,204.289507 C195.356,205.791612 193.445,209.548042 194.731833,212.68424 L194.835667,212.936538 Z" id="Fill-85" fill="#F2D2A7" sketch:type="MSShapeGroup" mask="url(#mask-6)"></path>
                <path d="M37.29355,269.494283 C37.29355,270.140212 36.77205,270.662327 36.1268833,270.662327 C35.4817167,270.662327 34.9602167,270.140212 34.9602167,269.494283 L34.9602167,258.981887 C34.9602167,258.335958 35.4817167,257.813842 36.1268833,257.813842 C36.77205,257.813842 37.29355,258.335958 37.29355,258.981887 L37.29355,269.494283 Z" id="Fill-86" fill="#C3D0D1" sketch:type="MSShapeGroup" mask="url(#mask-6)"></path>
                <path d="M48.3403667,302.27252 L100.876533,302.782955 L100.584867,305.898129 L48.5713667,306.19014 L48.3403667,302.27252 Z" id="Fill-87" fill="#D89E2A" sketch:type="MSShapeGroup" mask="url(#mask-6)"></path>
                <path d="M76.9603333,193.571769 L73.4603333,193.571769 L73.4603333,187.731548 L76.9603333,187.731548 L76.9603333,193.571769 Z" id="Fill-88" fill="#C3D0D1" sketch:type="MSShapeGroup" mask="url(#mask-6)"></path>
            </g>
        </g>
    </g>
</svg>