<?xml version="1.0" encoding="UTF-8" standalone="no"?>
<svg width="226px" height="414px" viewBox="0 0 226 414" version="1.1" xmlns="http://www.w3.org/2000/svg" xmlns:xlink="http://www.w3.org/1999/xlink" xmlns:sketch="http://www.bohemiancoding.com/sketch/ns">
    <!-- Generator: Sketch 3.4.4 (17249) - http://www.bohemiancoding.com/sketch -->
    <title>board_1</title>
    <desc>Created with Sketch.</desc>
    <defs>
        <path id="path-1" d="M0,0.843160563 L225.733227,0.843160563 L225.733227,414 L0,414 L0,0.843160563 Z"></path>
        <path id="path-3" d="M0,0.843160563 L225.733227,0.843160563 L225.733227,414 L0,414 L0,0.843160563 Z"></path>
    </defs>
    <g id="Welcome" stroke="none" stroke-width="1" fill="none" fill-rule="evenodd" sketch:type="MSPage">
        <g id="Artboard-22" sketch:type="MSArtboardGroup" transform="translate(-1016.000000, -763.000000)">
            <g id="board_1" sketch:type="MSLayerGroup" transform="translate(1016.000000, 763.000000)">
                <path d="M143.871134,156.719175 C143.871134,170.65873 132.073701,181.603491 116.927041,181.603491 L53.3558041,181.603491 C38.2091443,181.603491 26.2113402,170.65873 26.2113402,156.719175 L26.2113402,101.42277 C26.2113402,87.4843808 38.2091443,76.6457442 53.3558041,76.6457442 L116.927041,76.6457442 C132.073701,76.6457442 143.871134,87.4843808 143.871134,101.42277 L143.871134,156.719175 Z" id="Fill-1" fill="#1F8986" sketch:type="MSShapeGroup"></path>
                <path d="M139.21134,146.897579 C139.21134,159.669771 127.695825,169.941635 113.818959,169.941635 L55.5692062,169.941635 C41.6900103,169.941635 30.871134,159.669771 30.871134,146.897579 L30.871134,96.2321425 C30.871134,83.459951 41.6900103,73.1472693 55.5692062,73.1472693 L113.818959,73.1472693 C127.695825,73.1472693 139.21134,83.459951 139.21134,96.2321425 L139.21134,146.897579 Z" id="Fill-3" fill="#326B68" sketch:type="MSShapeGroup"></path>
                <path d="M155.520619,91.7264231 C155.520619,115.698772 141.443381,133.788823 124.875485,133.788823 L43.0238763,133.788823 C26.4571443,133.788823 13.3969072,115.698772 13.3969072,91.7264231 L13.3969072,65.1954372 C13.3969072,35.2848118 30.7756082,12.5731217 47.3435052,12.5731217 L118.702423,11.0290766 C135.27032,11.0290766 155.520619,32.3098428 155.520619,65.1954372 L155.520619,91.7264231 Z" id="Fill-5" fill="#704B25" sketch:type="MSShapeGroup"></path>
                <path d="M0,136.121684 C0,136.121684 13.3969072,136.472709 13.3969072,80.8089515 C14.5618557,75.1214079 59.7036082,155.947036 59.7036082,155.947036 C59.7036082,155.947036 12.814433,157.249678 0,136.121684" id="Fill-7" fill="#4C321B" sketch:type="MSShapeGroup"></path>
                <path d="M173.286082,136.066989 C173.286082,136.066989 155.520619,136.472826 155.520619,80.8090682 C154.35567,75.1215245 115.03866,154.780955 115.03866,154.780955 C115.03866,154.780955 160.471649,157.194984 173.286082,136.066989" id="Fill-9" fill="#4C321B" sketch:type="MSShapeGroup"></path>
                <path d="M150.358033,192.107079 L116.884404,186.26793 L117.661425,178.104549 L151.725682,183.588008 L150.358033,192.107079 Z" id="Fill-11" fill="#21A39D" sketch:type="MSShapeGroup"></path>
                <path d="M111.441415,282.16619 L57.7349619,281.591255 L58.8300134,305.044646 L58.8300134,305.091294 L62.4297041,400.025576 L73.5013742,400.39526 L75.0251268,305.051643 L94.5729619,305.074967 L93.2460856,399.657057 L103.816828,399.41099 L109.963096,305.035317 L111.441415,282.16619 Z" id="Fill-13" fill="#23C1C9" sketch:type="MSShapeGroup"></path>
                <path d="M79.4917722,153.154577 L79.923968,179.279726 L86.4278753,190.455394 L91.2181433,180.737473 L91.2181433,153.154577" id="Fill-15" fill="#E8C599" sketch:type="MSShapeGroup"></path>
                <path d="M85.5418155,164.988446 L85.8633412,189.996379 L90.9564959,176.256243 L91.3467536,154.74457" id="Fill-17" fill="#DABB96" sketch:type="MSShapeGroup"></path>
                <path d="M146.080459,27.6722265 L146.337912,37.8507955 C146.457902,93.9926941 146.49518,85.8351448 146.560418,116.22741 C146.602356,136.127398 106.455902,165.068914 86.5632423,165.030429 C65.0920773,164.98728 25.8158402,140.141449 25.7634175,115.984841 C25.6655619,70.3083955 25.6131392,81.4630715 25.5420773,47.9465645 L146.080459,27.6722265 Z" id="Fill-19" fill="#F2D2A7" sketch:type="MSShapeGroup"></path>
                <path d="M129.675655,213.023525 C129.675655,207.300995 127.536809,202.110252 124.067593,198.229148 L125.03916,179.271446 C125.03916,179.271446 122.507727,178.195046 103.874376,176.940218 L85.8642732,178.025948 L67.5675928,177.133807 C48.9319124,178.388635 45.0456443,178.723334 45.0456443,178.723334 L45.9333351,198.132353 C42.4140258,202.022787 40.2413969,207.254348 40.2413969,213.023525 C40.2413969,219.483091 42.9592216,225.266263 47.2485619,229.246494 L47.5584381,244.272945 L49.2476134,292.380911 L96.874201,292.470708 L119.796892,292.975672 L121.64217,245.609407 L122.469284,229.433086 C126.877448,225.449356 129.675655,219.583384 129.675655,213.023525" id="Fill-21" fill="#23C1C9" sketch:type="MSShapeGroup"></path>
                <path d="M35.0599392,98.4799876 C35.0599392,103.634579 31.5581041,107.81423 27.2349804,107.81423 C22.9141866,107.81423 19.4100216,103.634579 19.4100216,98.4799876 C19.4100216,93.3253961 22.9141866,89.1457454 27.2349804,89.1457454 C31.5581041,89.1457454 35.0599392,93.3253961 35.0599392,98.4799876" id="Fill-23" fill="#F2D2A7" sketch:type="MSShapeGroup"></path>
                <path d="M27.0339103,108.503103 C27.0339103,110.234905 25.6313124,111.639007 23.9036938,111.639007 C22.1749103,111.639007 20.7723124,110.234905 20.7723124,108.503103 C20.7723124,106.773632 22.1749103,105.368365 23.9036938,105.368365 C25.6313124,105.368365 27.0339103,106.773632 27.0339103,108.503103" id="Fill-25" fill="#C3D0D1" sketch:type="MSShapeGroup"></path>
                <path d="M138.107785,98.4799876 C138.107785,103.634579 141.610785,107.81423 145.932743,107.81423 C150.253537,107.81423 153.757702,103.634579 153.757702,98.4799876 C153.757702,93.3253961 150.253537,89.1457454 145.932743,89.1457454 C141.610785,89.1457454 138.107785,93.3253961 138.107785,98.4799876" id="Fill-27" fill="#F2D2A7" sketch:type="MSShapeGroup"></path>
                <path d="M146.13393,108.503103 C146.13393,110.234905 147.536528,111.639007 149.266476,111.639007 C150.994095,111.639007 152.396693,110.234905 152.396693,108.503103 C152.396693,106.773632 150.994095,105.368365 149.266476,105.368365 C147.536528,105.368365 146.13393,106.773632 146.13393,108.503103" id="Fill-29" fill="#C3D0D1" sketch:type="MSShapeGroup"></path>
                <path d="M44.2248216,251.654973 L47.5076464,243.728331 L48.2800072,253.008928 L44.2248216,251.654973 Z" id="Fill-31" fill="#CE9F67" sketch:type="MSShapeGroup"></path>
                <path d="M57.9334691,257.016681 C57.3276959,259.296597 54.6890876,260.572416 52.0365,259.866867 L47.7308505,258.723994 C45.0805928,258.017278 43.4182113,255.598585 44.0228196,253.31867 L44.0729124,253.135577 C44.6751907,250.855661 47.3172938,249.579842 49.9698814,250.284225 L54.273201,251.42943 C56.9257887,252.133814 58.5870052,254.552506 57.981232,256.833588 L57.9334691,257.016681 Z" id="Fill-33" fill="#F2D2A7" sketch:type="MSShapeGroup"></path>
                <path d="M46.001834,248.331777 C31.6648134,245.917749 20.8284629,233.341479 21.0241742,218.33602 C21.2175557,203.329394 31.3188237,190.691315 45.7129268,188.646972 L45.483432,178.687648 C24.9418959,180.807794 10.2181124,197.554386 9.94551443,218.726696 C9.67175155,239.900172 25.369432,257.555231 45.8492258,260.204831 L46.001834,248.331777 Z" id="Fill-35" fill="#21A39D" sketch:type="MSShapeGroup"></path>
                <path d="M138.895057,104.051261 C138.895057,110.186625 133.499015,115.130135 126.8425,115.130135 L114.265716,115.130135 C107.610366,115.130135 102.21316,110.186625 102.21316,104.051261 C102.21316,97.9147318 107.610366,92.9723882 114.265716,92.9723882 L126.8425,92.9723882 C133.499015,92.9723882 138.895057,97.9147318 138.895057,104.051261" id="Fill-37" fill="#FFFFFF" sketch:type="MSShapeGroup"></path>
                <path d="M122.773452,104.447535 C122.773452,105.688369 121.771596,106.688966 120.533256,106.688966 C119.29841,106.688966 118.29539,105.688369 118.29539,104.447535 C118.29539,103.211366 119.29841,102.206104 120.533256,102.206104 C121.771596,102.206104 122.773452,103.211366 122.773452,104.447535" id="Fill-39" fill="#000000" sketch:type="MSShapeGroup"></path>
                <path d="M68.7433753,104.051261 C68.7433753,110.186625 63.3461691,115.130135 56.6896536,115.130135 L44.1128701,115.130135 C37.4575196,115.130135 32.0603134,110.186625 32.0603134,104.051261 C32.0603134,97.9147318 37.4575196,92.9723882 44.1128701,92.9723882 L56.6896536,92.9723882 C63.3461691,92.9723882 68.7433753,97.9147318 68.7433753,104.051261" id="Fill-41" fill="#FFFFFF" sketch:type="MSShapeGroup"></path>
                <path d="M52.6206052,104.447535 C52.6206052,105.688369 51.6187495,106.688966 50.3815742,106.688966 C49.144399,106.688966 48.1425433,105.688369 48.1425433,104.447535 C48.1425433,103.211366 49.144399,102.206104 50.3815742,102.206104 C51.6187495,102.206104 52.6206052,103.211366 52.6206052,104.447535" id="Fill-43" fill="#000000" sketch:type="MSShapeGroup"></path>
                <path d="M46.0154639,125.796757 C46.0154639,127.634684 44.5278247,129.125084 42.690701,129.125084 L38.8556907,129.125084 C37.018567,129.125084 35.5309278,127.634684 35.5309278,125.796757 L35.5309278,125.455061 C35.5309278,123.617135 37.018567,122.127901 38.8556907,122.127901 L42.690701,122.127901 C44.5278247,122.127901 46.0154639,123.617135 46.0154639,125.455061 L46.0154639,125.796757 Z" id="Fill-45" fill="#E16C58" sketch:type="MSShapeGroup"></path>
                <path d="M135.716495,125.796757 C135.716495,127.634684 134.228856,129.125084 132.391732,129.125084 L128.556722,129.125084 C126.719598,129.125084 125.231959,127.634684 125.231959,125.796757 L125.231959,125.455061 C125.231959,123.617135 126.719598,122.127901 128.556722,122.127901 L132.391732,122.127901 C134.228856,122.127901 135.716495,123.617135 135.716495,125.455061 L135.716495,125.796757 Z" id="Fill-47" fill="#E16C58" sketch:type="MSShapeGroup"></path>
                <path d="M55.3532247,83.8363994 C55.4219567,84.7471994 54.5587299,85.5542079 53.4264,85.6381741 L39.9514412,86.6469346 C38.8214412,86.7309008 37.8603588,86.0591713 37.8603588,85.1507037 L37.8603588,85.1320445 C37.8603588,84.2212445 38.5733072,83.4142361 39.7044722,83.3279375 L53.2213691,82.3191769 C54.353699,82.2352107 55.3054619,82.9069403 55.3730289,83.8177403 L55.3532247,83.8363994 Z" id="Fill-49" fill="#704B25" sketch:type="MSShapeGroup"></path>
                <path d="M112.436864,83.8363994 C112.369297,84.7471994 113.231359,85.5542079 114.362524,85.6381741 L127.820008,86.6469346 C128.951173,86.7309008 129.891287,86.0591713 129.891287,85.1507037 L129.891287,85.1320445 C129.891287,84.2212445 129.198142,83.4142361 128.066977,83.3279375 L114.558235,82.3191769 C113.428235,82.2352107 112.479967,82.9069403 112.413565,83.8177403 L112.436864,83.8363994 Z" id="Fill-51" fill="#704B25" sketch:type="MSShapeGroup"></path>
                <path d="M70.4464134,139.620275 C73.3448052,143.118867 78.8596711,147.057115 85.1841763,147.057115 C91.5098464,147.057115 97.0235474,143.118867 99.9219392,139.620275 L70.4464134,139.620275 Z" id="Fill-53" fill="#DD423A" sketch:type="MSShapeGroup"></path>
                <g id="Group-57">
                    <mask id="mask-2" sketch:name="Clip 56" fill="white">
                        <use xlink:href="#path-1"></use>
                    </mask>
                    <g id="Clip-56"></g>
                    <path d="M184.448619,392.136135 C182.147845,405.865775 170.554278,415.363285 158.551814,413.348096 L133.939948,409.215093 C121.937485,407.198738 114.074082,394.435876 116.373691,380.70507 L157.258722,136.714462 C159.559495,122.984823 171.154227,113.488479 183.155526,115.503668 L207.768557,119.637837 C219.769856,121.653025 227.634423,134.417054 225.333649,148.145527 L184.448619,392.136135 Z" id="Fill-55" fill="#F06B39" sketch:type="MSShapeGroup" mask="url(#mask-2)"></path>
                </g>
                <path d="M148.116789,191.268933 L221.265067,172.391699 L223.165098,161.06326 L150.015655,179.938161 L148.116789,191.268933 Z" id="Fill-58" fill="#FFFFFF" sketch:type="MSShapeGroup"></path>
                <path d="M146.347814,201.828499 L219.498423,182.952431 L221.397289,171.621659 L148.24668,190.497727 L146.347814,201.828499 Z" id="Fill-60" fill="#C24026" sketch:type="MSShapeGroup"></path>
                <path d="M118.922598,365.496926 L192.070876,346.620859 L193.969742,335.288921 L120.820299,354.166154 L118.922598,365.496926 Z" id="Fill-62" fill="#FFFFFF" sketch:type="MSShapeGroup"></path>
                <path d="M120.802009,354.277993 L193.952618,335.401925 L195.850319,324.071153 L122.700875,342.946055 L120.802009,354.277993 Z" id="Fill-64" fill="#C24026" sketch:type="MSShapeGroup"></path>
                <mask id="mask-4" sketch:name="Clip 67" fill="white">
                    <use xlink:href="#path-3"></use>
                </mask>
                <g id="Clip-67"></g>
                <path d="M75.1391753,413.676963 L57.6649485,413.676963 L57.6649485,381.023442 L75.1391753,381.023442 L75.1391753,413.676963 Z" id="Fill-66" fill="#2D1F11" sketch:type="MSShapeGroup" mask="url(#mask-4)"></path>
                <path d="M74.7023196,414 C74.7023196,414 48.1764433,385.439831 38.4316495,414" id="Fill-68" fill="#704B25" sketch:type="MSShapeGroup" mask="url(#mask-4)"></path>
                <path d="M90.2835052,413.676963 L107.757732,413.676963 L107.757732,381.023442 L90.2835052,381.023442 L90.2835052,413.676963 Z" id="Fill-69" fill="#2D1F11" sketch:type="MSShapeGroup" mask="url(#mask-4)"></path>
                <path d="M91.0206845,414 C91.0206845,414 117.544231,385.439831 127.291355,414" id="Fill-70" fill="#704B25" sketch:type="MSShapeGroup" mask="url(#mask-4)"></path>
                <path d="M75.1391753,385.688231 L57.6649485,385.688231 L57.6649485,381.023442 L75.1391753,381.023442 L75.1391753,385.688231 Z" id="Fill-71" fill="#C6C0A1" sketch:type="MSShapeGroup" mask="url(#mask-4)"></path>
                <path d="M107.757732,385.688231 L90.2835052,385.688231 L90.2835052,381.023442 L107.757732,381.023442 L107.757732,385.688231 Z" id="Fill-72" fill="#C6C0A1" sketch:type="MSShapeGroup" mask="url(#mask-4)"></path>
                <path d="M110.670103,292.975205 L93.9414433,381.023092 L105.052722,381.023092 L110.670103,292.975205 Z" id="Fill-73" fill="#1FA0A0" sketch:type="MSShapeGroup" mask="url(#mask-4)"></path>
                <path d="M113.427769,292.835145 L119.796542,292.975088 L121.641821,245.60999 L121.77346,243.035026 L113.427769,292.835145 Z" id="Fill-74" fill="#1FA0A0" sketch:type="MSShapeGroup" mask="url(#mask-4)"></path>
                <path d="M47.0837216,229.125909 L47.3737938,233.376698 C47.3737938,233.376698 54.850433,237.937695 59.9948454,230.616309 L47.0837216,229.125909 Z" id="Fill-75" fill="#1FA0A0" sketch:type="MSShapeGroup" mask="url(#mask-4)"></path>
                <path d="M122.902062,229.027949 L108.674546,230.65596 L122.222897,233.499149 L122.902062,229.027949 Z" id="Fill-76" fill="#1FA0A0" sketch:type="MSShapeGroup" mask="url(#mask-4)"></path>
                <path d="M122.222897,233.499149 C122.222897,233.499149 113.864392,237.945859 108.674546,230.65596" id="Fill-77" fill="#1FA0A0" sketch:type="MSShapeGroup" mask="url(#mask-4)"></path>
                <path d="M72.8092784,281.896682 L56.5,281.896682 L56.5,262.07133 L72.8092784,262.07133 L72.8092784,281.896682 Z" id="Fill-78" fill="#21A39D" sketch:type="MSShapeGroup" mask="url(#mask-4)"></path>
                <path d="M56.7730639,262.07098 C56.770734,262.07098 56.500466,261.875059 56.500466,261.973019 L56.500466,261.976518 C56.500466,265.086766 58.5729093,267.901966 60.7979608,267.901966 L68.4353629,267.901966 C70.6604144,267.901966 72.8097443,265.086766 72.8097443,261.976518 L72.8097443,261.973019 C72.8097443,261.875059 72.4625897,262.07098 72.4590948,262.07098 L56.7730639,262.07098 Z" id="Fill-79" fill="#C3D0D1" sketch:type="MSShapeGroup" mask="url(#mask-4)"></path>
                <path d="M66.5966082,271.984822 C66.5966082,272.950433 65.8149278,273.734118 64.8491856,273.734118 C63.8834433,273.734118 63.1017629,272.950433 63.1017629,271.984822 C63.1017629,271.019211 63.8834433,270.235526 64.8491856,270.235526 C65.8149278,270.235526 66.5966082,271.019211 66.5966082,271.984822" id="Fill-80" fill="#1F8986" sketch:type="MSShapeGroup" mask="url(#mask-4)"></path>
                <path d="M149.671995,69.3637758 L149.485603,50.989173 L149.695294,50.989173 L149.695294,41.4578434 C149.695294,40.272987 149.536861,45.4858885 149.44483,44.3453476 L149.599768,43.0030546 L149.695294,43.0077194 L149.695294,42.6485307 C149.695294,19.5601589 120.554108,0.842694085 84.8822216,0.842694085 C49.2080052,0.842694085 19.9235309,20.6365589 19.9235309,43.7237645 C19.9235309,43.8030659 19.8221804,43.9919899 19.8233454,43.9919899 L19.8128608,43.9919899 L19.695201,49.1652406 C19.5565722,53.4521814 19.4925,56.9962546 19.583366,59.9630603 L19.4761907,70.4600011 L19.8513041,70.2011054 L19.4761907,70.5567955 C20.8962629,71.5410659 22.520201,72.2955955 24.261799,72.8472068 C24.5611907,73.0221363 24.8780567,73.1830715 25.2170567,73.3311786 C44.3455103,81.6753194 102.315675,68.8238265 118.287119,56.2195673 C118.651747,65.5258208 127.591562,72.9918152 137.90951,72.9918152 C142.253603,72.9918152 146.464892,71.8664349 149.671995,69.6436631 L149.295716,69.1970096 L149.671995,69.3637758 Z" id="Fill-81" fill="#704B25" sketch:type="MSShapeGroup" mask="url(#mask-4)"></path>
                <path d="M116.524435,47.6228282 C116.524435,47.6228282 74.6457031,71.8797296 30.0631258,64.4417239 C30.0631258,64.4417239 19.2570639,59.5401972 28.3762804,50.6642704 C28.3762804,50.6642704 44.0797856,72.4733239 116.524435,47.6228282" id="Fill-82" fill="#916433" sketch:type="MSShapeGroup" mask="url(#mask-4)"></path>
                <path d="M87.1777526,111.631543 L82.7649278,111.631543 L80.2556289,123.293515 C80.3791134,126.792106 82.6158144,128.104078 85.3639278,128.104078 C88.1132062,128.104078 90.3499072,126.792106 90.4745567,123.293515 L90.4862062,123.293515 L87.1777526,111.631543 Z" id="Fill-83" fill="#EDA769" sketch:type="MSShapeGroup" mask="url(#mask-4)"></path>
                <path d="M222.50399,195.073885 L219.666175,183.093541 L216.449753,196.060487 L222.50399,195.073885 Z" id="Fill-84" fill="#CE9F67" sketch:type="MSShapeGroup" mask="url(#mask-4)"></path>
                <path d="M204.490508,203.270268 C205.776611,206.401508 209.772385,207.71931 213.412848,206.220747 L219.322632,203.784561 C222.963096,202.283665 224.873611,198.533175 223.587508,195.401936 L223.482663,195.150037 C222.197725,192.02113 218.201952,190.700995 214.560323,192.199558 L208.650539,194.63691 C205.010075,196.13664 203.10189,199.88713 204.386828,203.01837 L204.490508,203.270268 Z" id="Fill-85" fill="#F2D2A7" sketch:type="MSShapeGroup" mask="url(#mask-4)"></path>
                <path d="M47.1804124,259.738585 C47.1804124,260.383492 46.6596804,260.904783 46.0154639,260.904783 C45.3712474,260.904783 44.8505155,260.383492 44.8505155,259.738585 L44.8505155,249.242811 C44.8505155,248.597904 45.3712474,248.076614 46.0154639,248.076614 C46.6596804,248.076614 47.1804124,248.597904 47.1804124,249.242811 L47.1804124,259.738585 Z" id="Fill-86" fill="#C3D0D1" sketch:type="MSShapeGroup" mask="url(#mask-4)"></path>
                <path d="M58.2109598,292.464994 L110.669754,292.974622 L110.378516,296.08487 L58.4416196,296.376419 L58.2109598,292.464994 Z" id="Fill-87" fill="#1FA0A0" sketch:type="MSShapeGroup" mask="url(#mask-4)"></path>
                <path d="M86.7886598,182.769921 L83.2938144,182.769921 L83.2938144,176.938935 L86.7886598,176.938935 L86.7886598,182.769921 Z" id="Fill-88" fill="#C3D0D1" sketch:type="MSShapeGroup" mask="url(#mask-4)"></path>
                <path d="M83.2721464,178.104783 C83.280301,178.104783 83.2942804,178.149098 83.2942804,177.973002 L83.2942804,177.625475 C83.2942804,172.737943 79.9683526,168.775205 75.867734,168.775205 L60.432167,168.775205 C56.3303835,168.775205 53.0056206,172.737943 53.0056206,177.625475 L53.0056206,177.973002 C53.0056206,178.149098 53.0184351,178.104783 53.0265897,178.104783 L83.2721464,178.104783 Z" id="Fill-89" fill="#21A39D" sketch:type="MSShapeGroup" mask="url(#mask-4)"></path>
                <path d="M117.055652,178.104783 C117.063806,178.104783 117.077786,178.149098 117.077786,177.973002 L117.077786,177.625475 C117.077786,172.737943 113.751858,168.775205 109.651239,168.775205 L94.2156722,168.775205 C90.1138887,168.775205 86.7891258,172.737943 86.7891258,177.625475 L86.7891258,177.973002 C86.7891258,178.149098 86.8019402,178.104783 86.8100948,178.104783 L117.055652,178.104783 Z" id="Fill-90" fill="#21A39D" sketch:type="MSShapeGroup" mask="url(#mask-4)"></path>
            </g>
        </g>
    </g>
</svg>