<?xml version="1.0" encoding="UTF-8" standalone="no"?>
<svg width="207px" height="209px" viewBox="0 0 207 209" version="1.1" xmlns="http://www.w3.org/2000/svg" xmlns:xlink="http://www.w3.org/1999/xlink" xmlns:sketch="http://www.bohemiancoding.com/sketch/ns">
    <!-- Generator: Sketch 3.4.4 (17249) - http://www.bohemiancoding.com/sketch -->
    <title>dog_2</title>
    <desc>Created with Sketch.</desc>
    <defs>
        <path id="path-1" d="M0,0.451 L206.895,0.451 L206.895,209 L0,209 L0,0.451 Z"></path>
    </defs>
    <g id="Welcome" stroke="none" stroke-width="1" fill="none" fill-rule="evenodd" sketch:type="MSPage">
        <g id="Artboard-22" sketch:type="MSArtboardGroup" transform="translate(-1319.000000, -968.000000)">
            <g id="dog_2" sketch:type="MSLayerGroup" transform="translate(1319.000000, 968.000000)">
                <path d="M187.8369,176.3271 C187.3539,192.9301 171.3069,200.0801 140.1739,199.1741 L130.7599,198.8441 C99.6249,197.9371 75.7759,189.6821 76.2599,173.0791 L75.9119,144.8111 C76.3959,128.2091 102.0259,115.4841 133.1599,116.3911 C164.2949,117.2981 189.1429,131.4921 188.6579,148.0951 L187.8369,176.3271 Z" id="Fill-1" fill="#130E07" sketch:type="MSShapeGroup"></path>
                <path d="M196.8945,138.2168 C196.8945,172.3788 169.5515,185.9508 135.8945,185.9508 C102.2385,185.9508 74.8945,172.3788 74.8945,138.2168 L74.8945,117.7358 C74.8945,83.5718 102.2385,55.8788 135.8945,55.8788 C169.5515,55.8788 196.8945,83.5718 196.8945,117.7358 L196.8945,138.2168 Z" id="Fill-3" fill="#2D1F11" sketch:type="MSShapeGroup"></path>
                <path d="M120.0664,128.6602 C120.0664,128.6602 95.7934,124.8112 101.4174,98.7622" id="Stroke-5" stroke="#0B0D19" stroke-width="14" sketch:type="MSShapeGroup"></path>
                <path d="M149.414,129.5479 C149.414,129.5479 173.688,125.6989 168.064,99.6499" id="Stroke-7" stroke="#0B0D19" stroke-width="14" sketch:type="MSShapeGroup"></path>
                <path d="M187.8945,119.416 C187.8945,140.25 164.5925,157.139 136.3945,157.139 C108.1965,157.139 84.8945,140.25 84.8945,119.416 L84.8945,112.95 C84.8945,92.117 108.1965,75.227 136.3945,75.227 C164.5925,75.227 187.8945,92.117 187.8945,112.95 L187.8945,119.416 Z" id="Fill-9" fill="#E2DCB7" sketch:type="MSShapeGroup"></path>
                <path d="M176.9804,106.5 C176.9804,122.029 158.1644,134.619 134.9514,134.619 C111.7404,134.619 92.9234,122.029 92.9234,106.5 C92.9234,90.969 111.7404,78.378 134.9514,78.378 C158.1644,78.378 176.9804,90.969 176.9804,106.5" id="Fill-11" fill="#E2DCB7" sketch:type="MSShapeGroup"></path>
                <path d="M102.3418,144.498 C102.3418,146.159 100.7048,147.506 98.6858,147.506 C96.6658,147.506 95.0298,146.159 95.0298,144.498 C95.0298,142.836 96.6658,141.49 98.6858,141.49 C100.7048,141.49 102.3418,142.836 102.3418,144.498" id="Fill-13" fill="#E2DCB7" sketch:type="MSShapeGroup"></path>
                <path d="M109.0859,148.4199 C109.0859,150.0809 107.4489,151.4289 105.4309,151.4289 C103.4119,151.4289 101.7749,150.0809 101.7749,148.4199 C101.7749,146.7579 103.4119,145.4119 105.4309,145.4119 C107.4489,145.4119 109.0859,146.7579 109.0859,148.4199" id="Fill-15" fill="#E2DCB7" sketch:type="MSShapeGroup"></path>
                <path d="M114.0937,150.9697 C114.0937,152.6317 112.4557,153.9787 110.4377,153.9787 C108.4177,153.9787 106.7817,152.6317 106.7817,150.9697 C106.7817,149.3087 108.4177,147.9617 110.4377,147.9617 C112.4557,147.9617 114.0937,149.3087 114.0937,150.9697" id="Fill-17" fill="#E2DCB7" sketch:type="MSShapeGroup"></path>
                <path d="M119.5771,153.7168 C119.5771,155.3788 117.9401,156.7248 115.9211,156.7248 C113.9021,156.7248 112.2651,155.3788 112.2651,153.7168 C112.2651,152.0558 113.9021,150.7088 115.9211,150.7088 C117.9401,150.7088 119.5771,152.0558 119.5771,153.7168" id="Fill-19" fill="#E2DCB7" sketch:type="MSShapeGroup"></path>
                <path d="M124.583,154.8945 C124.583,156.5545 122.947,157.9025 120.928,157.9025 C118.908,157.9025 117.272,156.5545 117.272,154.8945 C117.272,153.2325 118.908,151.8845 120.928,151.8845 C122.947,151.8845 124.583,153.2325 124.583,154.8945" id="Fill-21" fill="#E2DCB7" sketch:type="MSShapeGroup"></path>
                <path d="M129.5898,156.0723 C129.5898,157.7323 127.9528,159.0783 125.9348,159.0783 C123.9158,159.0783 122.2788,157.7323 122.2788,156.0723 C122.2788,154.4103 123.9158,153.0623 125.9348,153.0623 C127.9528,153.0623 129.5898,154.4103 129.5898,156.0723" id="Fill-23" fill="#E2DCB7" sketch:type="MSShapeGroup"></path>
                <path d="M135.3125,156.4639 C135.3125,158.1229 133.6755,159.4709 131.6565,159.4709 C129.6365,159.4709 128.0005,158.1229 128.0005,156.4639 C128.0005,154.8029 129.6365,153.4549 131.6565,153.4549 C133.6755,153.4549 135.3125,154.8029 135.3125,156.4639" id="Fill-25" fill="#E2DCB7" sketch:type="MSShapeGroup"></path>
                <path d="M141.2724,156.6602 C141.2724,158.3202 139.6354,159.6682 137.6174,159.6682 C135.5974,159.6682 133.9604,158.3202 133.9604,156.6602 C133.9604,154.9972 135.5974,153.6502 137.6174,153.6502 C139.6354,153.6502 141.2724,154.9972 141.2724,156.6602" id="Fill-27" fill="#E2DCB7" sketch:type="MSShapeGroup"></path>
                <path d="M147.4707,156.2666 C147.4707,157.9276 145.8337,159.2756 143.8167,159.2756 C141.7967,159.2756 140.1597,157.9276 140.1597,156.2666 C140.1597,154.6056 141.7967,153.2586 143.8167,153.2586 C145.8337,153.2586 147.4707,154.6056 147.4707,156.2666" id="Fill-29" fill="#E2DCB7" sketch:type="MSShapeGroup"></path>
                <path d="M153.6699,156.0723 C153.6699,157.7323 152.0329,159.0783 150.0149,159.0783 C147.9959,159.0783 146.3589,157.7323 146.3589,156.0723 C146.3589,154.4103 147.9959,153.0623 150.0149,153.0623 C152.0329,153.0623 153.6699,154.4103 153.6699,156.0723" id="Fill-31" fill="#E2DCB7" sketch:type="MSShapeGroup"></path>
                <path d="M159.3925,154.3047 C159.3925,155.9657 157.7555,157.3137 155.7365,157.3137 C153.7165,157.3137 152.0805,155.9657 152.0805,154.3047 C152.0805,152.6447 153.7165,151.2967 155.7365,151.2967 C157.7555,151.2967 159.3925,152.6447 159.3925,154.3047" id="Fill-33" fill="#E2DCB7" sketch:type="MSShapeGroup"></path>
                <path d="M164.875,152.1465 C164.875,153.8085 163.238,155.1545 161.221,155.1545 C159.201,155.1545 157.564,153.8085 157.564,152.1465 C157.564,150.4855 159.201,149.1385 161.221,149.1385 C163.238,149.1385 164.875,150.4855 164.875,152.1465" id="Fill-35" fill="#E2DCB7" sketch:type="MSShapeGroup"></path>
                <path d="M170.3593,148.8125 C170.3593,150.4735 168.7223,151.8205 166.7033,151.8205 C164.6843,151.8205 163.0473,150.4735 163.0473,148.8125 C163.0473,147.1515 164.6843,145.8025 166.7033,145.8025 C168.7223,145.8025 170.3593,147.1515 170.3593,148.8125" id="Fill-37" fill="#E2DCB7" sketch:type="MSShapeGroup"></path>
                <path d="M176.3535,144.6914 C176.3535,146.3534 174.7165,147.7014 172.6985,147.7014 C170.6795,147.7014 169.0425,146.3534 169.0425,144.6914 C169.0425,143.0314 170.6795,141.6834 172.6985,141.6834 C174.7165,141.6834 176.3535,143.0314 176.3535,144.6914" id="Fill-39" fill="#E2DCB7" sketch:type="MSShapeGroup"></path>
                <path d="M99.8847,141.166 C99.8847,142.597 98.4747,143.756 96.7367,143.756 C94.9977,143.756 93.5877,142.597 93.5877,141.166 C93.5877,139.736 94.9977,138.576 96.7367,138.576 C98.4747,138.576 99.8847,139.736 99.8847,141.166" id="Fill-41" fill="#E2DCB7" sketch:type="MSShapeGroup"></path>
                <path d="M179.209,140.2793 C179.209,141.7093 177.8,142.8683 176.061,142.8683 C174.322,142.8683 172.913,141.7093 172.913,140.2793 C172.913,138.8473 174.322,137.6873 176.061,137.6873 C177.8,137.6873 179.209,138.8473 179.209,140.2793" id="Fill-43" fill="#E2DCB7" sketch:type="MSShapeGroup"></path>
                <path d="M119.8867,129.3779 C119.4227,129.3049 108.4507,127.4719 102.2167,118.3689 C98.1817,112.4759 97.0997,105.0219 99.0007,96.2139 L104.3277,97.3629 C102.7547,104.6489 103.5577,110.6819 106.7127,115.2889 C111.6357,122.4779 120.6507,123.9809 120.7407,123.9949 L119.8867,129.3779 Z" id="Fill-45" fill="#0B0D19" sketch:type="MSShapeGroup"></path>
                <path d="M163.8945,95.3486 C163.8945,101.2316 159.1245,105.9996 153.2425,105.9996 L119.5465,105.9996 C113.6645,105.9996 108.8945,101.2316 108.8945,95.3486 L108.8945,94.6516 C108.8945,88.7686 113.6645,83.9996 119.5465,83.9996 L153.2425,83.9996 C159.1245,83.9996 163.8945,88.7686 163.8945,94.6516 L163.8945,95.3486 Z" id="Fill-47" fill="#C6C0A1" sketch:type="MSShapeGroup"></path>
                <path d="M150.0888,129.5225 L149.2288,124.1415 C149.3188,124.1265 158.4138,122.5585 163.2908,115.3945 C166.4238,110.7915 167.2168,104.7735 165.6488,97.5085 L170.9748,96.3585 C172.8768,105.1675 171.7948,112.6205 167.7598,118.5125 C161.5258,127.6175 150.5528,129.4505 150.0888,129.5225" id="Fill-49" fill="#0B0D19" sketch:type="MSShapeGroup"></path>
                <path d="M75.3457,203 L76.0807,195.048 L74.3467,199.759 C74.3467,199.759 2.1697,172.716 0.2077,203 L75.3457,203 Z" id="Fill-51" fill="#704B25" sketch:type="MSShapeGroup"></path>
                <path d="M0,203 L12.895,203 L12.895,189.615 C5.895,191.308 0.522,195.309 0,203" id="Fill-53" fill="#E2DCB7" sketch:type="MSShapeGroup"></path>
                <mask id="mask-2" sketch:name="Clip 56" fill="white">
                    <use xlink:href="#path-1"></use>
                </mask>
                <g id="Clip-56"></g>
                <path d="M161.895,200 L109.895,200 L109.895,176 L161.895,176 L161.895,200 Z" id="Fill-55" fill="#2D1F11" sketch:type="MSShapeGroup" mask="url(#mask-2)"></path>
                <path d="M109.8945,175.9375 L109.8945,168.0095 C109.8945,156.8595 100.5445,147.8205 89.3945,147.8205 C78.2445,147.8205 68.8945,156.8595 68.8945,168.0095 L68.8945,175.9375 C68.8945,180.0245 70.8375,183.8245 72.9235,187.0025 C67.9015,187.9685 64.8945,191.2715 64.8945,195.1975 L64.8945,195.3245 C64.8945,200.0085 69.6265,203.9995 76.1095,203.9995 L103.6095,203.9995 C105.9825,203.9995 108.1245,203.4605 109.8945,202.5535 L109.8945,175.9375 Z" id="Fill-57" fill="#130E07" sketch:type="MSShapeGroup" mask="url(#mask-2)"></path>
                <path d="M161.8945,175.9375 L161.8945,168.0095 C161.8945,156.8595 171.2445,147.8205 182.3945,147.8205 C193.5445,147.8205 202.8945,156.8595 202.8945,168.0095 L202.8945,175.9375 C202.8945,180.0245 200.9515,183.8245 198.8655,187.0025 C203.8875,187.9685 206.8945,191.2715 206.8945,195.1975 L206.8945,195.3245 C206.8945,200.0085 202.1625,203.9995 195.6795,203.9995 L168.1795,203.9995 C165.8065,203.9995 163.6645,203.4605 161.8945,202.5535 L161.8945,175.9375 Z" id="Fill-58" fill="#130E07" sketch:type="MSShapeGroup" mask="url(#mask-2)"></path>
                <path d="M96.8945,196.0254 C96.8945,202.3704 91.8455,207.5134 85.8945,207.5134 C79.9435,207.5134 74.8945,202.3704 74.8945,196.0254 L74.8945,123.1324 C74.8945,116.7884 79.9435,111.6434 85.8945,111.6434 C91.8455,111.6434 96.8945,116.7884 96.8945,123.1324 L96.8945,196.0254 Z" id="Fill-59" fill="#C6C0A1" sketch:type="MSShapeGroup" mask="url(#mask-2)"></path>
                <path d="M84.999,111.666 C79.999,111.75 74.895,116.9 74.895,122.692 L74.895,197.25 C74.895,203.041 79.895,206.547 84.895,207.38 L84.999,111.666 Z" id="Fill-60" fill="#704B25" sketch:type="MSShapeGroup" mask="url(#mask-2)"></path>
                <path d="M99.7812,206 C99.7872,206 99.7942,205.438 99.7942,205.271 C99.7942,197.746 94.3362,190.171 87.2222,190.171 C80.1072,190.171 74.0302,197.804 74.0302,205.328 C74.0302,205.495 74.0372,206 74.0422,206 L99.7812,206 Z" id="Fill-61" fill="#2D1F11" sketch:type="MSShapeGroup" mask="url(#mask-2)"></path>
                <path d="M101.8945,204 C101.8945,206.762 99.6565,209 96.8945,209 L76.8945,209 C74.1325,209 71.8945,206.762 71.8945,204 C71.8945,201.238 74.1325,199 76.8945,199 L96.8945,199 C99.6565,199 101.8945,201.238 101.8945,204" id="Fill-62" fill="#2D1F11" sketch:type="MSShapeGroup" mask="url(#mask-2)"></path>
                <path d="M196.8945,196.0254 C196.8945,202.3704 191.8455,207.5134 185.8945,207.5134 C179.9435,207.5134 174.8945,202.3704 174.8945,196.0254 L174.8945,123.1324 C174.8945,116.7884 179.9435,111.6434 185.8945,111.6434 C191.8455,111.6434 196.8945,116.7884 196.8945,123.1324 L196.8945,196.0254 Z" id="Fill-63" fill="#C6C0A1" sketch:type="MSShapeGroup" mask="url(#mask-2)"></path>
                <path d="M184.999,111.666 C179.999,111.75 174.895,116.9 174.895,122.692 L174.895,197.25 C174.895,203.041 179.895,206.547 184.895,207.38 L184.999,111.666 Z" id="Fill-64" fill="#704B25" sketch:type="MSShapeGroup" mask="url(#mask-2)"></path>
                <path d="M199.7812,206 C199.7872,206 199.7942,205.438 199.7942,205.271 C199.7942,197.746 194.3362,190.171 187.2222,190.171 C180.1072,190.171 174.0302,197.804 174.0302,205.328 C174.0302,205.495 174.0372,206 174.0422,206 L199.7812,206 Z" id="Fill-65" fill="#2D1F11" sketch:type="MSShapeGroup" mask="url(#mask-2)"></path>
                <path d="M201.8945,204 C201.8945,206.762 199.6565,209 196.8945,209 L176.8945,209 C174.1325,209 171.8945,206.762 171.8945,204 C171.8945,201.238 174.1325,199 176.8945,199 L196.8945,199 C199.6565,199 201.8945,201.238 201.8945,204" id="Fill-66" fill="#2D1F11" sketch:type="MSShapeGroup" mask="url(#mask-2)"></path>
                <path d="M168.8945,145.0771 C168.8945,157.1841 159.0795,167.0001 146.9715,167.0001 L125.8175,167.0001 C113.7095,167.0001 103.8945,157.1841 103.8945,145.0771 L103.8945,144.9231 C103.8945,132.8151 113.7095,123.0001 125.8175,123.0001 L146.9715,123.0001 C159.0795,123.0001 168.8945,132.8151 168.8945,144.9231 L168.8945,145.0771 Z" id="Fill-67" fill="#D89E2A" sketch:type="MSShapeGroup" mask="url(#mask-2)"></path>
                <path d="M108.8828,159 C112.9038,163.885 118.9968,167 125.8178,167 L146.9718,167 C153.7918,167 159.8848,163.885 163.9058,159 L108.8828,159 Z" id="Fill-68" fill="#AD7D27" sketch:type="MSShapeGroup" mask="url(#mask-2)"></path>
                <path d="M163.9062,131 C159.8852,126.115 153.7922,123 146.9712,123 L125.8172,123 C118.9972,123 112.9042,126.115 108.8832,131 L163.9062,131 Z" id="Fill-69" fill="#AD7D27" sketch:type="MSShapeGroup" mask="url(#mask-2)"></path>
                <path d="M150.8945,123.3574 C149.6215,123.1274 148.3115,123.0004 146.9715,123.0004 L125.8175,123.0004 C124.1245,123.0004 122.4775,123.1984 120.8945,123.5624 L120.8945,166.4374 C122.4775,166.8014 124.1245,167.0004 125.8175,167.0004 L146.9715,167.0004 C148.3115,167.0004 149.6215,166.8734 150.8945,166.6424 L150.8945,123.3574 Z" id="Fill-70" fill="#E23C2B" sketch:type="MSShapeGroup" mask="url(#mask-2)"></path>
                <path d="M148.8945,142 L139.8945,142 L139.8945,133 L131.8945,133 L131.8945,142 L122.8945,142 L122.8945,150 L131.8945,150 L131.8945,159 L139.8945,159 L139.8945,150 L148.8945,150 L148.8945,142 Z" id="Fill-71" fill="#FFFFFF" sketch:type="MSShapeGroup" mask="url(#mask-2)"></path>
                <path d="M186.0859,44.5342 C186.5939,70.8792 164.2739,92.6742 136.2319,93.2152 C108.1929,93.7552 85.0489,72.8362 84.5409,46.4912 C84.0329,20.1442 106.4189,1.7002 134.4589,1.1592 C162.4989,0.6192 185.5789,18.1872 186.0859,44.5342" id="Fill-72" fill="#916433" sketch:type="MSShapeGroup" mask="url(#mask-2)"></path>
                <path d="M148.2216,54.2695 C148.7406,81.1405 134.2726,106.9335 116.6226,103.5495 C80.4026,96.6015 86.1976,88.6825 85.6786,61.8125 C85.1606,34.9435 96.7796,6.5935 114.7486,6.2475 C132.7166,5.9005 147.7026,27.4025 148.2216,54.2695" id="Fill-73" fill="#916433" sketch:type="MSShapeGroup" mask="url(#mask-2)"></path>
                <path d="M125.0683,54.7168 C125.5863,81.5858 141.0333,106.8028 158.5413,102.7408 C194.4653,94.4048 188.3713,86.7128 187.8543,59.8438 C187.3373,32.9748 172.4433,5.6318 154.4733,5.9768 C136.5063,6.3228 124.5503,27.8478 125.0683,54.7168" id="Fill-74" fill="#916433" sketch:type="MSShapeGroup" mask="url(#mask-2)"></path>
                <path d="M127.8134,54.3633 C124.9344,65.6373 117.9654,72.2133 109.5194,71.7283 C101.0724,71.2433 94.7564,61.5743 95.4124,50.1333 C96.0684,38.6913 114.8034,29.3553 123.1784,28.1493 C155.0604,23.5573 130.6484,43.2583 127.8134,54.3633" id="Fill-75" fill="#4C321B" sketch:type="MSShapeGroup" mask="url(#mask-2)"></path>
                <path d="M144.3593,54.0439 C147.6683,65.1979 154.8873,71.5009 163.3083,70.6919 C171.7303,69.8819 177.6703,59.9779 176.5723,48.5689 C175.4763,37.1609 156.3953,28.5549 147.9793,27.6719 C115.9453,24.3119 141.0973,43.0579 144.3593,54.0439" id="Fill-76" fill="#4C321B" sketch:type="MSShapeGroup" mask="url(#mask-2)"></path>
                <path d="M150.4297,76.3018 C150.5607,83.0778 144.4577,88.6908 136.6687,88.8408 C128.8787,88.9908 122.5667,83.6168 122.4347,76.8418 L122.1277,60.8708 C121.9957,54.0968 128.0987,48.4828 135.8877,48.3318 C143.6777,48.1838 149.9927,53.5558 150.1217,60.3318 L150.4297,76.3018 Z" id="Fill-77" fill="#E2DCB7" sketch:type="MSShapeGroup" mask="url(#mask-2)"></path>
                <path d="M139.041,84.6875 C139.185,92.1675 135.642,98.3015 131.13,98.3885 C126.616,98.4755 122.557,91.7665 122.355,81.2685 C121.873,56.3075 126.094,71.3875 130.607,71.3015 C135.12,71.2135 138.896,77.2075 139.041,84.6875" id="Fill-78" fill="#E2DCB7" sketch:type="MSShapeGroup" mask="url(#mask-2)"></path>
                <path d="M134.5351,84.5264 C134.6791,92.0064 138.4531,97.9994 142.9661,97.9124 C147.4781,97.8264 151.0751,94.6334 150.8751,84.2124 C150.2611,52.3094 146.9571,70.7394 142.4431,70.8264 C137.9311,70.9134 134.3901,77.0474 134.5351,84.5264" id="Fill-79" fill="#E2DCB7" sketch:type="MSShapeGroup" mask="url(#mask-2)"></path>
                <path d="M115.0703,48.5859 C115.0893,49.5839 114.2993,50.4039 113.3003,50.4239 C112.3063,50.4419 111.4823,49.6519 111.4653,48.6559 C111.4443,47.6609 112.2373,46.8379 113.2323,46.8189 C114.2283,46.7999 115.0503,47.5909 115.0703,48.5859" id="Fill-80" fill="#000000" sketch:type="MSShapeGroup" mask="url(#mask-2)"></path>
                <path d="M158.414,47.752 C158.434,48.748 157.642,49.568 156.644,49.589 C155.651,49.608 154.828,48.817 154.81,47.821 C154.791,46.825 155.582,46.003 156.576,45.983 C157.572,45.965 158.396,46.756 158.414,47.752" id="Fill-81" fill="#000000" sketch:type="MSShapeGroup" mask="url(#mask-2)"></path>
                <path d="M136.3584,70.6318 C136.2184,70.6348 136.0754,70.6338 135.9344,70.6268 C131.5384,70.4548 128.6934,66.3718 128.5724,66.1978 L129.3984,65.6338 C129.4234,65.6718 132.0874,69.4798 135.9804,69.6288 C138.5904,69.7358 141.1794,68.1908 143.7014,65.0618 L144.4804,65.6898 C141.8764,68.9178 139.1474,70.5778 136.3584,70.6318" id="Fill-82" fill="#000000" sketch:type="MSShapeGroup" mask="url(#mask-2)"></path>
                <path d="M103.0341,10.9326 L86.2551,85.1306 C50.8191,90.1736 73.0841,35.4906 86.6361,21.4086 C91.9781,15.8536 100.6601,11.5656 103.0341,10.9326" id="Fill-83" fill="#2D1F11" sketch:type="MSShapeGroup" mask="url(#mask-2)"></path>
                <path d="M167.0449,10.1953 L188.3209,83.3103 C223.9259,86.9833 197.9169,33.5813 183.8339,20.0293 C178.2799,14.6853 169.4399,10.7363 167.0449,10.1953" id="Fill-84" fill="#2D1F11" sketch:type="MSShapeGroup" mask="url(#mask-2)"></path>
                <path d="M150.4316,2.8809 C131.9866,-2.8751 119.1456,3.4009 119.1456,3.4009 C119.9456,4.8029 128.8536,24.2129 130.0026,33.2649 C131.1456,42.2379 129.0706,50.6139 129.0706,50.6139 L142.9396,50.3189 C142.9396,50.3189 140.6736,42.2109 141.4586,33.3259 C142.1566,25.4419 150.4316,2.8809 150.4316,2.8809" id="Fill-85" fill="#E2DCB7" sketch:type="MSShapeGroup" mask="url(#mask-2)"></path>
                <path d="M144.959,51.8125 C145.014,54.6395 142.765,56.9745 139.938,57.0305 L132.456,57.1725 C129.629,57.2275 127.293,54.9805 127.238,52.1545 C127.184,49.3265 129.432,46.9895 132.26,46.9345 L139.742,46.7915 C142.568,46.7365 144.904,48.9855 144.959,51.8125" id="Fill-86" fill="#000000" sketch:type="MSShapeGroup" mask="url(#mask-2)"></path>
                <path d="M139.0381,56.084 C139.0581,57.11 138.2421,57.958 137.2171,57.977 L134.9331,58.021 C133.9071,58.042 133.0581,57.226 133.0391,56.199 L133.0331,55.916 C133.0131,54.891 133.8301,54.042 134.8551,54.023 L137.1401,53.98 C138.1651,53.959 139.0131,54.774 139.0321,55.801 L139.0381,56.084 Z" id="Fill-87" fill="#000000" sketch:type="MSShapeGroup" mask="url(#mask-2)"></path>
            </g>
        </g>
    </g>
</svg>