<?xml version="1.0" encoding="UTF-8" standalone="no"?>
<svg width="258px" height="207px" viewBox="0 0 258 207" version="1.1" xmlns="http://www.w3.org/2000/svg" xmlns:xlink="http://www.w3.org/1999/xlink" xmlns:sketch="http://www.bohemiancoding.com/sketch/ns">
    <!-- Generator: Sketch 3.4.4 (17249) - http://www.bohemiancoding.com/sketch -->
    <title>dog_1</title>
    <desc>Created with Sketch.</desc>
    <defs>
        <path id="path-1" d="M0,0.878 L207.944,0.878 L207.944,207 L0,207 L0,0.878 Z"></path>
    </defs>
    <g id="Welcome" stroke="none" stroke-width="1" fill="none" fill-rule="evenodd" sketch:type="MSPage">
        <g id="Artboard-22" sketch:type="MSArtboardGroup" transform="translate(-1635.000000, -970.000000)">
            <g id="dog_1" sketch:type="MSLayerGroup" transform="translate(1635.000000, 970.000000)">
                <path d="M187.8369,174.3271 C187.3539,190.9301 171.3069,198.0801 140.1739,197.1741 L130.7599,196.8441 C99.6249,195.9371 75.7759,187.6821 76.2599,171.0791 L75.9119,142.8111 C76.3959,126.2091 102.0259,113.4841 133.1599,114.3911 C164.2949,115.2981 189.1429,129.4921 188.6579,146.0951 L187.8369,174.3271 Z" id="Fill-1" fill="#130E07" sketch:type="MSShapeGroup"></path>
                <path d="M196.8945,136.2168 C196.8945,170.3788 169.5515,183.9508 135.8945,183.9508 C102.2385,183.9508 74.8945,170.3788 74.8945,136.2168 L74.8945,115.7358 C74.8945,81.5718 102.2385,53.8788 135.8945,53.8788 C169.5515,53.8788 196.8945,81.5718 196.8945,115.7358 L196.8945,136.2168 Z" id="Fill-3" fill="#2D1F11" sketch:type="MSShapeGroup"></path>
                <path d="M120.0664,126.6602 C120.0664,126.6602 95.7934,122.8112 101.4174,96.7622" id="Stroke-5" stroke="#0B0D19" stroke-width="14" sketch:type="MSShapeGroup"></path>
                <path d="M149.414,127.5479 C149.414,127.5479 173.688,123.6989 168.064,97.6499" id="Stroke-7" stroke="#0B0D19" stroke-width="14" sketch:type="MSShapeGroup"></path>
                <path d="M187.8945,117.416 C187.8945,138.25 164.5925,155.139 136.3945,155.139 C108.1965,155.139 84.8945,138.25 84.8945,117.416 L84.8945,110.95 C84.8945,90.117 108.1965,73.227 136.3945,73.227 C164.5925,73.227 187.8945,90.117 187.8945,110.95 L187.8945,117.416 Z" id="Fill-9" fill="#E2DCB7" sketch:type="MSShapeGroup"></path>
                <path d="M176.9804,104.5 C176.9804,120.029 158.1644,132.619 134.9514,132.619 C111.7404,132.619 92.9234,120.029 92.9234,104.5 C92.9234,88.969 111.7404,76.378 134.9514,76.378 C158.1644,76.378 176.9804,88.969 176.9804,104.5" id="Fill-11" fill="#E2DCB7" sketch:type="MSShapeGroup"></path>
                <path d="M102.3418,142.498 C102.3418,144.159 100.7048,145.506 98.6858,145.506 C96.6658,145.506 95.0298,144.159 95.0298,142.498 C95.0298,140.836 96.6658,139.49 98.6858,139.49 C100.7048,139.49 102.3418,140.836 102.3418,142.498" id="Fill-13" fill="#E2DCB7" sketch:type="MSShapeGroup"></path>
                <path d="M109.0859,146.4199 C109.0859,148.0809 107.4489,149.4289 105.4309,149.4289 C103.4119,149.4289 101.7749,148.0809 101.7749,146.4199 C101.7749,144.7579 103.4119,143.4119 105.4309,143.4119 C107.4489,143.4119 109.0859,144.7579 109.0859,146.4199" id="Fill-15" fill="#E2DCB7" sketch:type="MSShapeGroup"></path>
                <path d="M114.0937,148.9697 C114.0937,150.6317 112.4557,151.9787 110.4377,151.9787 C108.4177,151.9787 106.7817,150.6317 106.7817,148.9697 C106.7817,147.3087 108.4177,145.9617 110.4377,145.9617 C112.4557,145.9617 114.0937,147.3087 114.0937,148.9697" id="Fill-17" fill="#E2DCB7" sketch:type="MSShapeGroup"></path>
                <path d="M119.5771,151.7168 C119.5771,153.3788 117.9401,154.7248 115.9211,154.7248 C113.9021,154.7248 112.2651,153.3788 112.2651,151.7168 C112.2651,150.0558 113.9021,148.7088 115.9211,148.7088 C117.9401,148.7088 119.5771,150.0558 119.5771,151.7168" id="Fill-19" fill="#E2DCB7" sketch:type="MSShapeGroup"></path>
                <path d="M124.583,152.8945 C124.583,154.5545 122.947,155.9025 120.928,155.9025 C118.908,155.9025 117.272,154.5545 117.272,152.8945 C117.272,151.2325 118.908,149.8845 120.928,149.8845 C122.947,149.8845 124.583,151.2325 124.583,152.8945" id="Fill-21" fill="#E2DCB7" sketch:type="MSShapeGroup"></path>
                <path d="M129.5898,154.0723 C129.5898,155.7323 127.9528,157.0783 125.9348,157.0783 C123.9158,157.0783 122.2788,155.7323 122.2788,154.0723 C122.2788,152.4103 123.9158,151.0623 125.9348,151.0623 C127.9528,151.0623 129.5898,152.4103 129.5898,154.0723" id="Fill-23" fill="#E2DCB7" sketch:type="MSShapeGroup"></path>
                <path d="M135.3125,154.4639 C135.3125,156.1229 133.6755,157.4709 131.6565,157.4709 C129.6365,157.4709 128.0005,156.1229 128.0005,154.4639 C128.0005,152.8029 129.6365,151.4549 131.6565,151.4549 C133.6755,151.4549 135.3125,152.8029 135.3125,154.4639" id="Fill-25" fill="#E2DCB7" sketch:type="MSShapeGroup"></path>
                <path d="M141.2724,154.6602 C141.2724,156.3202 139.6354,157.6682 137.6174,157.6682 C135.5974,157.6682 133.9604,156.3202 133.9604,154.6602 C133.9604,152.9972 135.5974,151.6502 137.6174,151.6502 C139.6354,151.6502 141.2724,152.9972 141.2724,154.6602" id="Fill-27" fill="#E2DCB7" sketch:type="MSShapeGroup"></path>
                <path d="M147.4707,154.2666 C147.4707,155.9276 145.8337,157.2756 143.8167,157.2756 C141.7967,157.2756 140.1597,155.9276 140.1597,154.2666 C140.1597,152.6056 141.7967,151.2586 143.8167,151.2586 C145.8337,151.2586 147.4707,152.6056 147.4707,154.2666" id="Fill-29" fill="#E2DCB7" sketch:type="MSShapeGroup"></path>
                <path d="M153.6699,154.0723 C153.6699,155.7323 152.0329,157.0783 150.0149,157.0783 C147.9959,157.0783 146.3589,155.7323 146.3589,154.0723 C146.3589,152.4103 147.9959,151.0623 150.0149,151.0623 C152.0329,151.0623 153.6699,152.4103 153.6699,154.0723" id="Fill-31" fill="#E2DCB7" sketch:type="MSShapeGroup"></path>
                <path d="M159.3925,152.3047 C159.3925,153.9657 157.7555,155.3137 155.7365,155.3137 C153.7165,155.3137 152.0795,153.9657 152.0795,152.3047 C152.0795,150.6447 153.7165,149.2967 155.7365,149.2967 C157.7555,149.2967 159.3925,150.6447 159.3925,152.3047" id="Fill-33" fill="#E2DCB7" sketch:type="MSShapeGroup"></path>
                <path d="M164.875,150.1465 C164.875,151.8085 163.238,153.1545 161.221,153.1545 C159.201,153.1545 157.564,151.8085 157.564,150.1465 C157.564,148.4855 159.201,147.1385 161.221,147.1385 C163.238,147.1385 164.875,148.4855 164.875,150.1465" id="Fill-35" fill="#E2DCB7" sketch:type="MSShapeGroup"></path>
                <path d="M170.3593,146.8125 C170.3593,148.4735 168.7223,149.8205 166.7033,149.8205 C164.6843,149.8205 163.0473,148.4735 163.0473,146.8125 C163.0473,145.1515 164.6843,143.8025 166.7033,143.8025 C168.7223,143.8025 170.3593,145.1515 170.3593,146.8125" id="Fill-37" fill="#E2DCB7" sketch:type="MSShapeGroup"></path>
                <path d="M176.3535,142.6914 C176.3535,144.3534 174.7165,145.7014 172.6985,145.7014 C170.6795,145.7014 169.0425,144.3534 169.0425,142.6914 C169.0425,141.0314 170.6795,139.6834 172.6985,139.6834 C174.7165,139.6834 176.3535,141.0314 176.3535,142.6914" id="Fill-39" fill="#E2DCB7" sketch:type="MSShapeGroup"></path>
                <path d="M99.8847,139.166 C99.8847,140.597 98.4747,141.756 96.7367,141.756 C94.9977,141.756 93.5877,140.597 93.5877,139.166 C93.5877,137.736 94.9977,136.576 96.7367,136.576 C98.4747,136.576 99.8847,137.736 99.8847,139.166" id="Fill-41" fill="#E2DCB7" sketch:type="MSShapeGroup"></path>
                <path d="M179.209,138.2793 C179.209,139.7093 177.8,140.8683 176.061,140.8683 C174.322,140.8683 172.913,139.7093 172.913,138.2793 C172.913,136.8473 174.322,135.6873 176.061,135.6873 C177.8,135.6873 179.209,136.8473 179.209,138.2793" id="Fill-43" fill="#E2DCB7" sketch:type="MSShapeGroup"></path>
                <path d="M119.8867,127.3779 C119.4227,127.3049 108.4507,125.4719 102.2167,116.3689 C98.1817,110.4759 97.0997,103.0219 99.0007,94.2139 L104.3277,95.3629 C102.7547,102.6489 103.5577,108.6819 106.7127,113.2889 C111.6357,120.4779 120.6507,121.9809 120.7407,121.9949 L119.8867,127.3779 Z" id="Fill-45" fill="#0B0D19" sketch:type="MSShapeGroup"></path>
                <path d="M171.3535,79.918 C173.3675,85.445 170.5165,91.559 164.9895,93.571 L133.3285,105.101 C127.7995,107.113 121.6865,104.265 119.6735,98.737 L119.4355,98.082 C117.4215,92.555 120.2725,86.441 125.7995,84.429 L157.4605,72.899 C162.9895,70.887 169.1025,73.735 171.1155,79.263 L171.3535,79.918 Z" id="Fill-47" fill="#C6C0A1" sketch:type="MSShapeGroup"></path>
                <path d="M150.0888,127.5225 L149.2288,122.1415 C149.3188,122.1265 158.4138,120.5585 163.2908,113.3945 C166.4238,108.7915 167.2168,102.7735 165.6488,95.5085 L170.9748,94.3585 C172.8768,103.1675 171.7948,110.6205 167.7598,116.5125 C161.5258,125.6175 150.5528,127.4505 150.0888,127.5225" id="Fill-49" fill="#0B0D19" sketch:type="MSShapeGroup"></path>
                <path d="M75.3457,201 L76.0807,193.048 L74.3467,197.759 C74.3467,197.759 2.1697,170.716 0.2077,201 L75.3457,201 Z" id="Fill-51" fill="#191203" sketch:type="MSShapeGroup"></path>
                <path d="M0,201 L12.895,201 L12.895,187.615 C5.895,189.308 0.522,193.309 0,201" id="Fill-53" fill="#E2DCB7" sketch:type="MSShapeGroup"></path>
                <mask id="mask-2" sketch:name="Clip 56" fill="white">
                    <use xlink:href="#path-1"></use>
                </mask>
                <g id="Clip-56"></g>
                <path d="M161.895,198 L109.895,198 L109.895,174 L161.895,174 L161.895,198 Z" id="Fill-55" fill="#2D1F11" sketch:type="MSShapeGroup" mask="url(#mask-2)"></path>
                <path d="M173.895,198 L96.895,198 L96.895,136 L173.895,136 L173.895,198 Z" id="Fill-57" fill="#916433" sketch:type="MSShapeGroup" mask="url(#mask-2)"></path>
                <path d="M109.8945,173.9375 L109.8945,166.0095 C109.8945,154.8595 100.5445,145.8205 89.3945,145.8205 C78.2445,145.8205 68.8945,154.8595 68.8945,166.0095 L68.8945,173.9375 C68.8945,178.0245 70.8375,181.8245 72.9235,185.0025 C67.9015,185.9685 64.8945,189.2715 64.8945,193.1975 L64.8945,193.3245 C64.8945,198.0085 69.6265,201.9995 76.1095,201.9995 L103.6095,201.9995 C105.9825,201.9995 108.1245,201.4605 109.8945,200.5535 L109.8945,173.9375 Z" id="Fill-58" fill="#2D1F11" sketch:type="MSShapeGroup" mask="url(#mask-2)"></path>
                <path d="M161.8945,173.9375 L161.8945,166.0095 C161.8945,154.8595 171.2445,145.8205 182.3945,145.8205 C193.5445,145.8205 202.8945,154.8595 202.8945,166.0095 L202.8945,173.9375 C202.8945,178.0245 200.9515,181.8245 198.8655,185.0025 C203.8875,185.9685 206.8945,189.2715 206.8945,193.1975 L206.8945,193.3245 C206.8945,198.0085 202.1625,201.9995 195.6795,201.9995 L168.1795,201.9995 C165.8065,201.9995 163.6635,201.4605 161.8945,200.5535 L161.8945,173.9375 Z" id="Fill-59" fill="#2D1F11" sketch:type="MSShapeGroup" mask="url(#mask-2)"></path>
                <path d="M96.8945,194.0254 C96.8945,200.3704 91.8455,205.5134 85.8945,205.5134 C79.9435,205.5134 74.8945,200.3704 74.8945,194.0254 L74.8945,121.1324 C74.8945,114.7884 79.9435,109.6434 85.8945,109.6434 C91.8455,109.6434 96.8945,114.7884 96.8945,121.1324 L96.8945,194.0254 Z" id="Fill-60" fill="#4C321B" sketch:type="MSShapeGroup" mask="url(#mask-2)"></path>
                <path d="M84.999,109.666 C79.999,109.75 74.895,114.9 74.895,120.692 L74.895,195.25 C74.895,201.041 79.895,204.547 84.895,205.38 L84.999,109.666 Z" id="Fill-61" fill="#916433" sketch:type="MSShapeGroup" mask="url(#mask-2)"></path>
                <path d="M99.7812,204 C99.7872,204 99.7942,203.438 99.7942,203.271 C99.7942,195.746 94.3362,188.171 87.2222,188.171 C80.1072,188.171 74.0302,195.804 74.0302,203.328 C74.0302,203.495 74.0372,204 74.0422,204 L99.7812,204 Z" id="Fill-62" fill="#E2DCB7" sketch:type="MSShapeGroup" mask="url(#mask-2)"></path>
                <path d="M101.8945,202 C101.8945,204.762 99.6565,207 96.8945,207 L76.8945,207 C74.1325,207 71.8945,204.762 71.8945,202 C71.8945,199.238 74.1325,197 76.8945,197 L96.8945,197 C99.6565,197 101.8945,199.238 101.8945,202" id="Fill-63" fill="#E2DCB7" sketch:type="MSShapeGroup" mask="url(#mask-2)"></path>
                <path d="M196.8945,194.0254 C196.8945,200.3704 191.8455,205.5134 185.8945,205.5134 C179.9435,205.5134 174.8945,200.3704 174.8945,194.0254 L174.8945,121.1324 C174.8945,114.7884 179.9435,109.6434 185.8945,109.6434 C191.8455,109.6434 196.8945,114.7884 196.8945,121.1324 L196.8945,194.0254 Z" id="Fill-64" fill="#916433" sketch:type="MSShapeGroup" mask="url(#mask-2)"></path>
                <path d="M184.999,109.666 C179.999,109.75 174.895,114.9 174.895,120.692 L174.895,195.25 C174.895,201.041 179.895,204.547 184.895,205.38 L184.999,109.666 Z" id="Fill-65" fill="#4C321B" sketch:type="MSShapeGroup" mask="url(#mask-2)"></path>
                <path d="M199.7812,204 C199.7872,204 199.7942,203.438 199.7942,203.271 C199.7942,195.746 194.3362,188.171 187.2222,188.171 C180.1072,188.171 174.0302,195.804 174.0302,203.328 C174.0302,203.495 174.0372,204 174.0422,204 L199.7812,204 Z" id="Fill-66" fill="#E2DCB7" sketch:type="MSShapeGroup" mask="url(#mask-2)"></path>
                <path d="M201.8945,202 C201.8945,204.762 199.6565,207 196.8945,207 L176.8945,207 C174.1325,207 171.8945,204.762 171.8945,202 C171.8945,199.238 174.1325,197 176.8945,197 L196.8945,197 C199.6565,197 201.8945,199.238 201.8945,202" id="Fill-67" fill="#E2DCB7" sketch:type="MSShapeGroup" mask="url(#mask-2)"></path>
                <path d="M168.8945,143.0771 C168.8945,155.1841 159.0795,165.0001 146.9715,165.0001 L125.8175,165.0001 C113.7095,165.0001 103.8945,155.1841 103.8945,143.0771 L103.8945,142.9231 C103.8945,130.8151 113.7095,121.0001 125.8175,121.0001 L146.9715,121.0001 C159.0795,121.0001 168.8945,130.8151 168.8945,142.9231 L168.8945,143.0771 Z" id="Fill-68" fill="#D89E2A" sketch:type="MSShapeGroup" mask="url(#mask-2)"></path>
                <path d="M108.8828,157 C112.9038,161.885 118.9968,165 125.8178,165 L146.9718,165 C153.7918,165 159.8848,161.885 163.9058,157 L108.8828,157 Z" id="Fill-69" fill="#AD7D27" sketch:type="MSShapeGroup" mask="url(#mask-2)"></path>
                <path d="M163.9062,129 C159.8852,124.115 153.7922,121 146.9712,121 L125.8172,121 C118.9972,121 112.9042,124.115 108.8832,129 L163.9062,129 Z" id="Fill-70" fill="#AD7D27" sketch:type="MSShapeGroup" mask="url(#mask-2)"></path>
                <path d="M150.8945,121.3574 C149.6215,121.1274 148.3115,121.0004 146.9715,121.0004 L125.8175,121.0004 C124.1235,121.0004 122.4775,121.1984 120.8945,121.5624 L120.8945,164.4374 C122.4775,164.8014 124.1235,165.0004 125.8175,165.0004 L146.9715,165.0004 C148.3115,165.0004 149.6215,164.8734 150.8945,164.6424 L150.8945,121.3574 Z" id="Fill-71" fill="#E23C2B" sketch:type="MSShapeGroup" mask="url(#mask-2)"></path>
                <path d="M148.8945,140 L139.8945,140 L139.8945,131 L131.8945,131 L131.8945,140 L122.8945,140 L122.8945,148 L131.8945,148 L131.8945,157 L139.8945,157 L139.8945,148 L148.8945,148 L148.8945,140 Z" id="Fill-72" fill="#FFFFFF" sketch:type="MSShapeGroup" mask="url(#mask-2)"></path>
                <path d="M181.4345,32.0049 C188.7045,57.3319 172.7445,84.1369 145.7875,91.8739 C118.8295,99.6109 91.0815,85.3529 83.8125,60.0259 C76.5415,34.6969 93.4275,11.1129 120.3855,3.3749 C147.3415,-4.3621 174.1645,6.6769 181.4345,32.0049" id="Fill-73" fill="#916433" sketch:type="MSShapeGroup" mask="url(#mask-2)"></path>
                <path d="M147.3506,51.1563 C154.7656,76.9883 147.4226,105.6353 129.4966,106.9073 C92.7076,109.5133 96.2696,100.3703 88.8546,74.5383 C81.4406,48.7083 85.3726,18.3223 102.6476,13.3633 C119.9216,8.4053 139.9366,25.3263 147.3506,51.1563" id="Fill-74" fill="#916433" sketch:type="MSShapeGroup" mask="url(#mask-2)"></path>
                <path d="M125.0918,57.5459 C132.5058,83.3769 153.9228,103.7699 169.7948,95.3399 C202.3648,78.0389 194.4968,72.1759 187.0828,46.3439 C179.6688,20.5139 158.2408,-2.0771 140.9658,2.8809 C123.6928,7.8389 117.6778,31.7149 125.0918,57.5459" id="Fill-75" fill="#916433" sketch:type="MSShapeGroup" mask="url(#mask-2)"></path>
                <path d="M127.6533,56.4971 C127.7723,68.1331 122.7303,76.2801 114.4443,77.9851 C106.1563,79.6901 97.5663,71.9731 95.2553,60.7471 C92.9453,49.5211 108.6473,35.6801 116.4293,32.3591 C146.0563,19.7181 127.5363,45.0371 127.6533,56.4971" id="Fill-76" fill="#4C321B" sketch:type="MSShapeGroup" mask="url(#mask-2)"></path>
                <path d="M143.5605,51.9316 C149.6275,61.8596 158.2255,66.0916 166.1555,63.1426 C174.0845,60.1936 177.2755,49.0936 173.2795,38.3516 C169.2855,27.6106 148.6315,24.2026 140.2725,25.5156 C108.4525,30.5116 137.5805,42.1546 143.5605,51.9316" id="Fill-77" fill="#4C321B" sketch:type="MSShapeGroup" mask="url(#mask-2)"></path>
                <path d="M155.1533,71.8779 C157.0233,78.3929 152.5713,85.3869 145.0833,87.5359 C137.5933,89.6859 130.1103,86.1169 128.2403,79.6039 L123.8343,64.2499 C121.9643,57.7359 126.4163,50.7419 133.9043,48.5929 C141.3933,46.4439 148.8773,50.0109 150.7473,56.5259 L155.1533,71.8779 Z" id="Fill-78" fill="#E2DCB7" sketch:type="MSShapeGroup" mask="url(#mask-2)"></path>
                <path d="M146.3056,82.9121 C148.3696,90.1031 146.5246,96.9421 142.1866,98.1871 C137.8476,99.4331 132.1986,93.9941 129.3016,83.9021 C122.4136,59.9051 130.3726,73.3921 134.7116,72.1461 C139.0496,70.9011 144.2416,75.7211 146.3056,82.9121" id="Fill-79" fill="#E2DCB7" sketch:type="MSShapeGroup" mask="url(#mask-2)"></path>
                <path d="M141.9101,83.916 C143.9741,91.107 149.1631,95.927 153.5021,94.682 C157.8411,93.436 160.4951,89.427 157.6191,79.407 C148.8161,48.737 150.3661,67.396 146.0271,68.642 C141.6891,69.887 139.8461,76.725 141.9101,83.916" id="Fill-80" fill="#E2DCB7" sketch:type="MSShapeGroup" mask="url(#mask-2)"></path>
                <path d="M113.8525,54.1943 C114.1275,55.1533 113.5755,56.1503 112.6165,56.4243 C111.6605,56.6993 110.6615,56.1483 110.3865,55.1893 C110.1115,54.2333 110.6645,53.2343 111.6215,52.9603 C112.5795,52.6843 113.5785,53.2383 113.8525,54.1943" id="Fill-81" fill="#000000" sketch:type="MSShapeGroup" mask="url(#mask-2)"></path>
                <path d="M155.5224,42.2344 C155.7974,43.1924 155.2444,44.1894 154.2854,44.4644 C153.3304,44.7394 152.3324,44.1874 152.0574,43.2284 C151.7834,42.2724 152.3344,41.2734 153.2914,40.9994 C154.2494,40.7244 155.2484,41.2774 155.5224,42.2344" id="Fill-82" fill="#000000" sketch:type="MSShapeGroup" mask="url(#mask-2)"></path>
                <path d="M140.0976,70.0195 C139.9626,70.0585 139.8246,70.0935 139.6866,70.1235 C135.3946,71.0895 131.5936,67.8765 131.4326,67.7395 L132.0846,66.9815 C132.1206,67.0115 135.6736,70.0055 139.4736,69.1475 C142.0236,68.5795 144.1266,66.4195 145.7596,62.7475 L146.6736,63.1535 C144.9896,66.9435 142.7786,69.2495 140.0976,70.0195" id="Fill-83" fill="#000000" sketch:type="MSShapeGroup" mask="url(#mask-2)"></path>
                <path d="M92.5332,20.9063 L95.4112,96.9243 C62.4672,110.9143 69.9112,52.3433 79.3822,35.2483 C83.1162,28.5063 90.4022,22.1293 92.5332,20.9063" id="Fill-84" fill="#191203" sketch:type="MSShapeGroup" mask="url(#mask-2)"></path>
                <path d="M154.1982,3.7227 L193.5732,68.9007 C228.9232,63.2877 190.0492,18.3767 172.9532,8.9057 C166.2112,5.1697 156.6522,3.6287 154.1982,3.7227" id="Fill-85" fill="#191203" sketch:type="MSShapeGroup" mask="url(#mask-2)"></path>
                <path d="M136.2627,0.9287 C116.9567,0.1127 106.1627,9.4817 106.1627,9.4817 C107.2967,10.6307 120.9007,27.0957 124.3407,35.5467 C127.7527,43.9237 127.9037,52.5517 127.9037,52.5517 L141.2307,48.6977 C141.2307,48.6977 136.9537,41.4457 135.4267,32.6577 C134.0717,24.8597 136.2627,0.9287 136.2627,0.9287" id="Fill-86" fill="#E2DCB7" sketch:type="MSShapeGroup" mask="url(#mask-2)"></path>
                <path d="M143.5654,49.6211 C144.3454,52.3391 142.7734,55.1741 140.0564,55.9541 L132.8634,58.0191 C130.1444,58.7991 127.3094,57.2281 126.5294,54.5111 C125.7494,51.7921 127.3194,48.9561 130.0384,48.1761 L137.2314,46.1111 C139.9484,45.3311 142.7854,46.9021 143.5654,49.6211" id="Fill-87" fill="#000000" sketch:type="MSShapeGroup" mask="url(#mask-2)"></path>
                <path d="M138.9433,55.2725 C139.2263,56.2585 138.6563,57.2885 137.6713,57.5715 L135.4743,58.2015 C134.4883,58.4845 133.4593,57.9145 133.1753,56.9275 L133.0973,56.6555 C132.8143,55.6685 133.3843,54.6395 134.3713,54.3565 L136.5673,53.7265 C137.5523,53.4435 138.5823,54.0135 138.8653,54.9995 L138.9433,55.2725 Z" id="Fill-88" fill="#000000" sketch:type="MSShapeGroup" mask="url(#mask-2)"></path>
                <path d="M169.2832,11.2002 L85.7392,32.3752 C82.0332,33.3142 79.7892,37.0802 80.7292,40.7862 L86.0872,61.9242 C87.0262,65.6302 90.7932,67.8732 94.4972,66.9332 L129.8032,57.9852 C129.6822,57.6932 129.5752,57.3952 129.4932,57.0812 L129.1952,55.9072 C128.3162,52.4332 130.4182,48.9012 133.8932,48.0212 L134.0602,47.9792 C137.5352,47.0982 141.0652,49.2002 141.9452,52.6752 L142.2442,53.8482 C142.3232,54.1632 142.3712,54.4782 142.4022,54.7902 L178.0432,45.7582 C181.7502,44.8192 183.9922,41.0522 183.0532,37.3462 L177.6952,16.2092 C176.7572,12.5042 172.9902,10.2612 169.2832,11.2002" id="Fill-89" fill="#F7B817" sketch:type="MSShapeGroup" mask="url(#mask-2)"></path>
                <path d="M165.039,16.2031 L153.108,19.2261 L142.017,22.0381 L115.549,28.7471 L110.16,30.1111 L92.527,34.5821 C88.554,35.5891 86.154,39.6501 87.17,43.6521 L90.383,56.3351 C91.397,60.3381 95.441,62.7651 99.416,61.7591 L122.437,55.9241 C126.41,54.9171 128.643,50.8981 127.625,46.8951 L127.061,44.6641 L126.998,44.4131 L127.01,44.4101 C126.34,41.2051 128.303,38.0121 131.507,37.2011 L131.675,37.1581 C134.879,36.3461 138.127,38.2171 139.063,41.3551 L139.076,41.3521 L139.141,41.6031 L139.704,43.8341 C140.718,47.8371 144.93,50.2241 148.904,49.2161 L171.926,43.3811 C175.9,42.3731 178.297,38.3121 177.283,34.3101 L174.068,21.6281 C173.055,17.6251 169.013,15.1961 165.039,16.2031" id="Fill-90" fill="#14AEB4" sketch:type="MSShapeGroup" mask="url(#mask-2)"></path>
                <path d="M168.8574,22.1982 C169.3504,24.1432 168.1734,26.1202 166.2284,26.6142 L151.8004,30.2682 C149.8554,30.7642 147.8774,29.5872 147.3844,27.6392 C146.8924,25.6952 148.0684,23.7182 150.0144,23.2232 L164.4414,19.5672 C166.3884,19.0752 168.3624,20.2522 168.8574,22.1982" id="Fill-91" fill="#FFFFFF" sketch:type="MSShapeGroup" mask="url(#mask-2)"></path>
                <path d="M143.5654,49.6211 C144.3454,52.3391 142.7734,55.1741 140.0564,55.9541 L132.8634,58.0191 C130.1444,58.7991 127.3094,57.2281 126.5294,54.5111 C125.7494,51.7921 127.3194,48.9561 130.0384,48.1761 L137.2314,46.1111 C139.9484,45.3311 142.7854,46.9021 143.5654,49.6211" id="Fill-92" fill="#000000" sketch:type="MSShapeGroup" mask="url(#mask-2)"></path>
                <path d="M138.9433,55.2725 C139.2263,56.2585 138.6563,57.2885 137.6713,57.5715 L135.4743,58.2015 C134.4883,58.4845 133.4593,57.9145 133.1753,56.9275 L133.0973,56.6555 C132.8143,55.6685 133.3843,54.6395 134.3713,54.3565 L136.5673,53.7265 C137.5523,53.4435 138.5823,54.0135 138.8653,54.9995 L138.9433,55.2725 Z" id="Fill-93" fill="#000000" sketch:type="MSShapeGroup" mask="url(#mask-2)"></path>
            </g>
        </g>
    </g>
</svg>