<?xml version="1.0" encoding="UTF-8" standalone="no"?>
<svg width="235px" height="414px" viewBox="0 0 235 414" version="1.1" xmlns="http://www.w3.org/2000/svg" xmlns:xlink="http://www.w3.org/1999/xlink" xmlns:sketch="http://www.bohemiancoding.com/sketch/ns">
    <!-- Generator: Sketch 3.4.4 (17249) - http://www.bohemiancoding.com/sketch -->
    <title>ligi_1</title>
    <desc>Created with Sketch.</desc>
    <defs>
        <path id="path-1" d="M0,0.234447514 L234.932366,0.234447514 L234.932366,414 L0,414"></path>
        <path id="path-3" d="M0,0.234447514 L234.932366,0.234447514 L234.932366,414 L0,414 L0,0.234447514 Z"></path>
    </defs>
    <g id="Welcome" stroke="none" stroke-width="1" fill="none" fill-rule="evenodd" sketch:type="MSPage">
        <g id="Artboard-22" sketch:type="MSArtboardGroup" transform="translate(-2198.000000, -763.000000)">
            <g id="ligi_1" sketch:type="MSLayerGroup" transform="translate(2198.000000, 763.000000)">
                <path d="M43.8487073,267.051501 C30.0479024,262.874904 20.9746098,249.175164 23.0598049,234.483882 C25.1472927,219.793744 34.3913902,208.379009 48.8123659,208.193738 L49.2410976,198.184545 C28.760561,197.671048 15.0549024,212.74202 12.1099512,233.470611 C9.16729268,254.198059 22.3811707,273.491373 42.199122,278.673235 L43.8487073,267.051501 Z" id="Fill-1" fill="#ED4E31" sketch:type="MSShapeGroup"></path>
                <path d="M204.73842,203.427249 C200.55198,217.195608 186.81881,226.247569 172.094054,224.167276 C157.370444,222.084696 145.92881,212.862331 145.741956,198.47526 L145.441615,198.461536 L144.004102,221.727878 C150.311273,228.048812 160.706298,233.624088 171.078395,235.090243 C191.853541,238.028271 211.194615,224.844315 216.386395,205.072956 L204.73842,203.427249 Z" id="Fill-3" fill="#ED4E31" sketch:type="MSShapeGroup"></path>
                <g id="Group-7">
                    <mask id="mask-2" sketch:name="Clip 6" fill="white">
                        <use xlink:href="#path-1"></use>
                    </mask>
                    <g id="Clip-6"></g>
                    <path d="M196.142005,101.725404 C196.142005,155.760409 152.233688,199.565498 98.0702,199.565498 C43.9067122,199.565498 -0.000458536585,155.760409 -0.000458536585,101.725404 C-0.000458536585,47.6903983 43.9067122,0.234790608 98.0702,0.234790608 C152.233688,0.234790608 196.142005,47.6903983 196.142005,101.725404" id="Fill-5" fill="#C24026" sketch:type="MSShapeGroup" mask="url(#mask-2)"></path>
                </g>
                <mask id="mask-4" sketch:name="Clip 9" fill="white">
                    <use xlink:href="#path-3"></use>
                </mask>
                <g id="Clip-9"></g>
                <path d="M117.56878,259.805586 L72.8614634,259.805586 L72.8614634,206.054204 L117.56878,206.054204 L117.56878,259.805586 Z" id="Fill-8" fill="#E5E5E4" sketch:type="MSShapeGroup" mask="url(#mask-4)"></path>
                <path d="M88.099322,250.993561 L96.0297122,218.859385 L105.301322,251.237158 L88.099322,250.993561 Z" id="Fill-10" fill="#000000" sketch:type="MSShapeGroup" mask="url(#mask-4)"></path>
                <path d="M140.026756,268.134762 L120.353244,268.134762 L120.353244,239.088431 L140.026756,239.088431 L140.026756,268.134762 Z" id="Fill-11" fill="#E5E5E4" sketch:type="MSShapeGroup" mask="url(#mask-4)"></path>
                <path d="M172.320685,74.4777994 C173.578222,69.4709155 174.346271,57.4157387 162.862222,54.5451862 C154.366685,52.4214348 145.618954,58.1007829 143.325124,67.2293685 C141.034734,76.3590978 146.063734,85.4796779 154.560417,87.6034293" id="Fill-12" fill="#916433" sketch:type="MSShapeGroup" mask="url(#mask-4)"></path>
                <path d="M140.173832,249.553939 L140.289612,243.595541" id="Fill-13" fill="#CCCBCB" sketch:type="MSShapeGroup" mask="url(#mask-4)"></path>
                <path d="M81.3286854,197.505791 L72.7804171,208.068509" id="Fill-14" fill="#D5D5D5" sketch:type="MSShapeGroup" mask="url(#mask-4)"></path>
                <path d="M96.9988293,323.441503 L93.6182683,323.441503 L93.6182683,315.156928 L96.9988293,315.156928 L96.9988293,323.441503 Z" id="Fill-15" fill="#545456" sketch:type="MSShapeGroup" mask="url(#mask-4)"></path>
                <path d="M92.4954268,179.267718 L92.9126951,204.440519 L99.2015244,215.20795 L103.832744,205.843773 L103.832744,179.267718" id="Fill-16" fill="#E8C599" sketch:type="MSShapeGroup" mask="url(#mask-4)"></path>
                <path d="M98.3436024,190.670673 L98.654261,214.765016 L103.578944,201.526165 L103.95609,180.799861" id="Fill-17" fill="#DABB96" sketch:type="MSShapeGroup" mask="url(#mask-4)"></path>
                <path d="M171.4654,64.6127055 L171.193717,74.0157663 C171.804717,128.415595 180.175302,122.225037 171.613278,150.410203 C166.262156,168.025788 124.889546,189.239286 100.346376,189.035717 C73.8509854,188.818424 34.7916927,169.250634 26.748961,149.928728 C9.73381463,109.049087 22.4708146,102.22838 22.1074244,69.7522525 L171.4654,64.6127055 Z" id="Fill-18" fill="#F2D2A7" sketch:type="MSShapeGroup" mask="url(#mask-4)"></path>
                <path d="M129.904905,312.41881 L66.381539,311.930473 L67.979539,331.808191 L67.9806854,331.808191 L72.2943683,412.310606 L78.8227829,413.128313 L83.9973683,331.819628 L112.389954,331.841357 L117.950856,412.959053 L124.092954,412.310606 L128.403198,331.805904 L129.904905,312.41881 Z" id="Fill-19" fill="#ED4E31" sketch:type="MSShapeGroup" mask="url(#mask-4)"></path>
                <path d="M78.8233561,413.127855 C78.8233561,413.127855 53.1751122,385.604861 43.7498927,413.127855 L78.8233561,413.127855 Z" id="Fill-20" fill="#E9E6D5" sketch:type="MSShapeGroup" mask="url(#mask-4)"></path>
                <path d="M117.9512,412.959167 C117.9512,412.959167 143.598298,385.435029 153.022371,412.959167 L117.9512,412.959167 Z" id="Fill-21" fill="#E9E6D5" sketch:type="MSShapeGroup" mask="url(#mask-4)"></path>
                <path d="M84.3244195,40.2253608 L84.3244195,39.0817144 L93.4951512,39.0817144 L93.4951512,40.2253608" id="Fill-22" fill="#F7B817" sketch:type="MSShapeGroup" mask="url(#mask-4)"></path>
                <path d="M64.0642098,135.719836 C64.0642098,137.736085 62.0156976,139.722598 59.489161,139.722598 L52.1686244,139.722598 C49.6432341,139.722598 47.594722,137.736085 47.594722,135.719836 C47.594722,133.703587 49.6432341,131.717073 52.1686244,131.717073 L59.489161,131.717073 C62.0156976,131.717073 64.0642098,133.703587 64.0642098,135.719836" id="Fill-23" fill="#E16C58" sketch:type="MSShapeGroup" mask="url(#mask-4)"></path>
                <path d="M143.00048,136.291659 C143.00048,138.307908 140.951968,139.722598 138.425432,139.722598 L131.104895,139.722598 C128.577212,139.722598 126.530993,138.307908 126.530993,136.291659 C126.530993,134.274267 128.577212,132.86072 131.104895,132.86072 L138.425432,132.86072 C140.951968,132.86072 143.00048,134.274267 143.00048,136.291659" id="Fill-24" fill="#E16C58" sketch:type="MSShapeGroup" mask="url(#mask-4)"></path>
                <path d="M151.958566,115.134201 C151.958566,121.13377 147.082029,125.998841 141.068322,125.998841 L128.458566,125.998841 C122.444859,125.998841 117.568322,121.13377 117.568322,115.134201 C117.568322,109.134631 122.444859,104.26956 128.458566,104.26956 L141.068322,104.26956 C147.082029,104.26956 151.958566,109.134631 151.958566,115.134201" id="Fill-25" fill="#FFFFFF" sketch:type="MSShapeGroup" mask="url(#mask-4)"></path>
                <path d="M137.19942,114.507597 C137.19942,115.667254 136.25942,116.606188 135.095883,116.606188 C133.933493,116.606188 132.9912,115.667254 132.9912,114.507597 C132.9912,113.347939 133.933493,112.409006 135.095883,112.409006 C136.25942,112.409006 137.19942,113.347939 137.19942,114.507597" id="Fill-26" fill="#000000" sketch:type="MSShapeGroup" mask="url(#mask-4)"></path>
                <path d="M72.8610049,115.134201 C72.8610049,121.13377 67.9844683,125.998841 61.970761,125.998841 L49.3610049,125.998841 C43.3472976,125.998841 38.470761,121.13377 38.470761,115.134201 C38.470761,109.134631 43.3472976,104.26956 49.3610049,104.26956 L61.970761,104.26956 C67.9844683,104.26956 72.8610049,109.134631 72.8610049,115.134201" id="Fill-27" fill="#FFFFFF" sketch:type="MSShapeGroup" mask="url(#mask-4)"></path>
                <path d="M58.3123268,114.507597 C58.3123268,115.667254 57.3711805,116.606188 56.2076439,116.606188 C55.0464,116.606188 54.1041073,115.667254 54.1041073,114.507597 C54.1041073,113.347939 55.0464,112.409006 56.2076439,112.409006 C57.3711805,112.409006 58.3123268,113.347939 58.3123268,114.507597" id="Fill-28" fill="#000000" sketch:type="MSShapeGroup" mask="url(#mask-4)"></path>
                <path d="M116.483539,140.866245 C111.496954,146.584477 104.373588,151.193372 96.4741488,151.193372 C88.5747098,151.193372 81.4501976,146.584477 76.4636122,140.866245 L74.7601488,140.866245 C75.2163927,142.009891 75.6955634,142.021328 76.197661,142.610306 C81.6061,148.963261 88.8074171,152.425079 96.4741488,152.425079 C104.14088,152.425079 111.342198,148.98156 116.750637,142.628604 C117.252734,142.038482 117.731905,142.009891 118.190441,140.866245 L116.483539,140.866245 Z" id="Fill-29" fill="#000000" sketch:type="MSShapeGroup" mask="url(#mask-4)"></path>
                <path d="M104.060751,116.665429 L95.999678,104.095611 L88.4280927,116.275445 C87.8193854,117.467125 87.7632146,118.816628 87.7632146,120.247329 L87.7632146,129.28671 C87.7632146,134.126622 91.054361,138.578838 95.905678,138.578838 L95.9091171,138.578838 C100.758141,138.578838 104.958337,134.126622 104.958337,129.28671 L104.958337,120.247329 C104.958337,118.969876 104.551385,117.758755 104.060751,116.665429" id="Fill-30" fill="#EDA769" sketch:type="MSShapeGroup" mask="url(#mask-4)"></path>
                <path d="M89.1169293,131.061535 C88.8578561,131.061535 88.6079537,131.099276 88.3729537,131.172469 C88.6400512,132.898231 89.4126854,134.458165 90.5349537,135.697878 C91.2112951,135.240419 91.6560756,134.468458 91.6560756,133.593569 C91.6560756,132.194889 90.5200512,131.061535 89.1169293,131.061535" id="Fill-31" fill="#916433" sketch:type="MSShapeGroup" mask="url(#mask-4)"></path>
                <path d="M103.765224,130.526538 C104.025444,130.526538 104.273054,130.565422 104.5092,130.636328 C104.242102,132.363234 103.469468,133.924311 102.3472,135.161736 C101.670859,134.705422 101.226078,133.934604 101.226078,133.059714 C101.226078,131.659891 102.363249,130.526538 103.765224,130.526538" id="Fill-32" fill="#916433" sketch:type="MSShapeGroup" mask="url(#mask-4)"></path>
                <path d="M65.9829561,96.6661409 C65.9829561,98.0705387 64.7701268,99.1970304 63.3624195,99.1810193 L46.0400537,99.0014669 C44.6323463,98.9854558 43.0561268,97.8338039 43.0561268,96.4294061 L43.0561268,96.4042459 C43.0561268,94.9998481 44.6632976,93.8745 46.0710049,93.8882238 L63.1973463,94.0700635 C64.6062,94.0849309 65.9829561,95.2365829 65.9829561,96.639837 L65.9829561,96.6661409 Z" id="Fill-33" fill="#916433" sketch:type="MSShapeGroup" mask="url(#mask-4)"></path>
                <path d="M123.300029,96.6661409 C123.300029,98.0705387 124.512859,99.1970304 125.920566,99.1810193 L143.244078,99.0014669 C144.650639,98.9854558 146.226859,97.8338039 146.226859,96.4294061 L146.226859,96.4042459 C146.226859,94.9998481 144.619688,93.8745 143.21198,93.8882238 L126.085639,94.0700635 C124.676785,94.0849309 123.300029,95.2365829 123.300029,96.639837 L123.300029,96.6661409 Z" id="Fill-34" fill="#916433" sketch:type="MSShapeGroup" mask="url(#mask-4)"></path>
                <path d="M172.28148,64.0375657 C168.138602,35.9370298 133.632578,25.466947 99.5598707,25.466947 C66.9028951,25.466947 33.0342366,35.5550519 27.2234317,57.2923392 C24.0159683,59.1450464 21.9731878,61.9138144 21.9731878,65.0119525 C21.9731878,70.589516 28.5829927,75.1137812 36.7357732,75.1137812 C40.5576756,75.1137812 44.0276512,74.1130906 46.6493341,72.4822508 C48.935139,76.0367039 54.1211878,78.5218475 60.1601146,78.5218475 C65.4974805,78.5218475 70.1585049,76.576505 72.7515293,73.6727867 C75.4156268,75.4648807 79.065578,76.5742177 83.097261,76.5742177 C87.8029927,76.5742177 91.9837,75.0623171 94.6879195,72.7155547 C97.3898463,75.0623171 101.570554,76.5742177 106.277432,76.5742177 C110.262115,76.5742177 113.87309,75.4888972 116.528017,73.7311127 C118.555895,77.6526762 124.007895,80.4694773 130.433139,80.4694773 C136.05709,80.4694773 140.946237,78.3148475 143.437237,75.1492343 C146.126554,77.0728475 149.904895,78.2782508 154.102798,78.2782508 C162.255578,78.2782508 168.864237,73.7551293 168.864237,68.1752785 C168.864237,66.6496541 168.355261,65.2063724 167.470285,63.910621 L172.28148,64.0375657 Z" id="Fill-35" fill="#916433" sketch:type="MSShapeGroup" mask="url(#mask-4)"></path>
                <path d="M116.42198,194.199966 C116.42198,196.957298 114.182029,199.191983 111.4182,199.191983 L84.7428341,199.191983 C81.9790049,199.191983 79.7390537,196.957298 79.7390537,194.199966 L79.7390537,193.891182 C79.7390537,191.13385 81.9790049,188.899165 84.7428341,188.899165 L111.4182,188.899165 C114.182029,188.899165 116.42198,191.13385 116.42198,193.891182 L116.42198,194.199966 Z" id="Fill-36" fill="#ED4E31" sketch:type="MSShapeGroup" mask="url(#mask-4)"></path>
                <path d="M142.634454,301.031523 L145.642454,198.048451 L47.5717951,198.048451 L51.6206732,301.276263 C51.5404293,301.930429 51.499161,302.625766 51.499161,303.301661 C51.499161,312.307876 58.8185512,319.62607 67.8459902,319.62607 L126.40799,319.390478 C135.437722,319.390478 142.757112,312.061992 142.757112,303.054633 C142.757112,302.378738 142.713551,301.684545 142.634454,301.031523" id="Fill-37" fill="#F06B39" sketch:type="MSShapeGroup" mask="url(#mask-4)"></path>
                <path d="M149.665883,189.591872 C149.665883,194.665087 145.545932,199.192783 140.011395,199.192783 L52.4710293,199.192783 C46.9364927,199.192783 40.7634439,194.665087 40.7634439,189.591872 L40.7634439,189.580435 C40.7634439,184.510651 46.9364927,180.894441 52.4710293,180.894441 L140.011395,180.894441 C145.545932,180.894441 149.665883,184.510651 149.665883,189.580435 L149.665883,189.591872 Z" id="Fill-38" fill="#C24026" sketch:type="MSShapeGroup" mask="url(#mask-4)"></path>
                <path d="M64.8366146,180.878201 C64.8366146,183.996925 62.1541756,186.612444 59.0464439,186.612444 L52.111078,186.612444 C49.0044927,186.612444 46.4951512,183.996925 46.4951512,180.878201 L46.4951512,180.39787 C46.4951512,177.281433 49.0044927,174.032334 52.111078,174.032334 L59.0464439,174.032334 C62.1541756,174.032334 64.8366146,177.281433 64.8366146,180.39787 L64.8366146,180.878201 Z" id="Fill-39" fill="#C24026" sketch:type="MSShapeGroup" mask="url(#mask-4)"></path>
                <path d="M149.665883,179.876481 C149.665883,182.964327 147.156541,185.468912 144.059127,185.468912 L134.638493,185.468912 C131.541078,185.468912 129.031737,182.964327 129.031737,179.876481 L129.031737,179.623735 C129.031737,176.53589 131.541078,174.032448 134.638493,174.032448 L144.059127,174.032448 C147.156541,174.032448 149.665883,176.53589 149.665883,179.623735 L149.665883,179.876481 Z" id="Fill-40" fill="#C24026" sketch:type="MSShapeGroup" mask="url(#mask-4)"></path>
                <path d="M98.0715756,171.090189 C57.5552829,171.090189 23.6109659,144.275112 23.6109659,103.682526 C23.6109659,63.0887967 57.5552829,38.2041945 98.0715756,38.2041945 C138.587868,38.2041945 170.333502,63.0887967 170.333502,103.682526 C170.333502,144.275112 138.587868,171.090189 98.0715756,171.090189 M97.3390634,19.2196641 C48.548478,19.2196641 9.76316098,53.8572829 9.76316098,102.739018 C9.76316098,151.62304 49.3165268,188.327228 98.1071122,188.327228 C146.898844,188.327228 186.451063,151.62304 186.451063,102.739018 C186.451063,53.8572829 146.130795,19.2196641 97.3390634,19.2196641" id="Fill-41" fill="#E9E6D5" sketch:type="MSShapeGroup" mask="url(#mask-4)"></path>
                <path d="M66.1508951,198.198269 C66.1508951,198.198269 69.8111634,211.345628 95.8010171,211.345628 C95.8010171,195.276252 96.8980659,194.181782 96.8980659,194.181782" id="Fill-42" fill="#C24026" sketch:type="MSShapeGroup" mask="url(#mask-4)"></path>
                <path d="M129.595966,198.198269 C129.595966,198.198269 125.935698,211.345628 99.9458439,211.345628 C99.9458439,195.276252 98.8487951,194.181782 98.8487951,194.181782" id="Fill-43" fill="#C24026" sketch:type="MSShapeGroup" mask="url(#mask-4)"></path>
                <path d="M78.5927122,236.899034 C78.5927122,237.787648 77.7020049,238.075846 76.7929561,238.075846 L76.1498585,238.075846 C75.2408098,238.075846 75.1536878,237.787648 75.1536878,236.899034 L75.1536878,196.471134 C75.1536878,195.58252 75.2408098,194.617283 76.1498585,194.617283 L76.7929561,194.617283 C77.7020049,194.617283 78.5927122,195.58252 78.5927122,196.471134 L78.5927122,236.899034 Z" id="Fill-44" fill="#B5B5B5" sketch:type="MSShapeGroup" mask="url(#mask-4)"></path>
                <path d="M119.861005,236.899034 C119.861005,237.787648 119.479273,238.075846 118.561054,238.075846 L117.952346,238.075846 C117.035273,238.075846 116.42198,237.787648 116.42198,236.899034 L116.42198,196.471134 C116.42198,195.58252 117.035273,194.617283 117.952346,194.617283 L118.561054,194.617283 C119.479273,194.617283 119.861005,195.58252 119.861005,196.471134 L119.861005,236.899034 Z" id="Fill-45" fill="#B5B5B5" sketch:type="MSShapeGroup" mask="url(#mask-4)"></path>
                <path d="M99.2273171,319.275199 L95.7882927,319.275199 L95.7882927,217.490669 L99.2273171,217.490669 L99.2273171,319.275199 Z" id="Fill-46" fill="#E9E6D5" sketch:type="MSShapeGroup" mask="url(#mask-4)"></path>
                <path d="M79.0639732,196.600023 C79.0639732,198.162244 77.7938268,199.430548 76.2279244,199.430548 C74.6608756,199.430548 73.3918756,198.162244 73.3918756,196.600023 C73.3918756,195.037802 74.6608756,193.769498 76.2279244,193.769498 C77.7938268,193.769498 79.0639732,195.037802 79.0639732,196.600023" id="Fill-47" fill="#E9E6D5" sketch:type="MSShapeGroup" mask="url(#mask-4)"></path>
                <path d="M120.54388,196.600023 C120.54388,198.162244 119.27488,199.430548 117.708978,199.430548 C116.141929,199.430548 114.871783,198.162244 114.871783,196.600023 C114.871783,195.037802 116.141929,193.769498 117.708978,193.769498 C119.27488,193.769498 120.54388,195.037802 120.54388,196.600023" id="Fill-48" fill="#E9E6D5" sketch:type="MSShapeGroup" mask="url(#mask-4)"></path>
                <path d="M43.2464195,277.322017 C43.0240293,278.749288 41.6828098,279.727106 40.2510293,279.504094 C38.8203951,279.283371 37.8402732,277.945304 38.0638098,276.515746 L39.6193951,266.534001 C39.8417854,265.105586 41.1830049,264.127769 42.613639,264.35078 C44.0454195,264.572647 45.0266878,265.90957 44.8020049,267.337984 L43.2464195,277.322017 Z" id="Fill-49" fill="#E9E6D5" sketch:type="MSShapeGroup" mask="url(#mask-4)"></path>
                <path d="M215.153963,204.721742 C216.67172,204.957333 217.681646,206.557294 217.409963,208.296781 C217.139427,210.035123 215.690451,211.25425 214.172695,211.018659 L203.569037,209.372952 C202.052427,209.136217 201.043646,207.537399 201.314183,205.799057 C201.58472,204.059571 203.033695,202.841587 204.551451,203.076035 L215.153963,204.721742 Z" id="Fill-50" fill="#E9E6D5" sketch:type="MSShapeGroup" mask="url(#mask-4)"></path>
                <path d="M44.6547,266.801385 C44.6547,266.801385 48.3619683,267.62138 50.8334805,268.580899 C52.2331634,269.126418 55.2136512,270.839601 55.5564073,272.301181 C56.0287,274.322004 53.9228707,279.037258 51.9867,279.803501 C48.9076268,281.021485 43.0051146,278.424264 43.0051146,278.424264 L44.6547,266.801385 Z" id="Fill-51" fill="#E8C599" sketch:type="MSShapeGroup" mask="url(#mask-4)"></path>
                <path d="M134.763902,302.120503 L114.129756,302.120503 L114.129756,266.667464 L134.763902,266.667464 L134.763902,302.120503 Z" id="Fill-52" fill="#C24026" sketch:type="MSShapeGroup" mask="url(#mask-4)"></path>
                <path d="M83.1785366,302.120503 L64.8370732,302.120503 L64.8370732,266.667464 L83.1785366,266.667464 L83.1785366,302.120503 Z" id="Fill-53" fill="#C24026" sketch:type="MSShapeGroup" mask="url(#mask-4)"></path>
                <path d="M193.779854,158.020941 C193.546,159.164587 193.227317,159.457361 193.227317,160.343687 L193.227317,404.750073 C193.227317,409.858742 197.276195,413.999886 202.398049,413.999886 C207.51761,413.999886 211.56878,409.859886 211.56878,404.750073 L211.56878,160.343687 C211.56878,159.457361 211.834732,159.164587 211.600878,158.020941 L193.779854,158.020941 Z" id="Fill-54" fill="#137777" sketch:type="MSShapeGroup" mask="url(#mask-4)"></path>
                <path d="M211.399237,160.317154 C211.751163,159.895149 211.96209,159.628679 211.96209,159.037414 C211.96209,157.691342 210.869627,156.877066 209.521529,156.877066 L195.979798,156.877066 C194.632846,156.877066 193.540383,157.691342 193.540383,159.037414 C193.540383,159.717883 193.818944,160.194784 194.270602,160.633944 L202.782188,175.274906 L211.399237,160.317154 Z" id="Fill-55" fill="#61B5B3" sketch:type="MSShapeGroup" mask="url(#mask-4)"></path>
                <path d="M184.604651,160.854325 C184.468237,161.607988 184.541602,162.453143 184.657383,163.33375 L216.466066,405.668993 C217.129798,410.735347 221.786237,414.304667 226.863383,413.640209 C231.940529,412.978038 235.518261,408.332546 234.853383,403.26848 L203.043554,160.929806 C202.927773,160.051485 202.601066,159.238352 202.274359,158.545303 L184.604651,160.854325 Z" id="Fill-56" fill="#14AEB4" sketch:type="MSShapeGroup" mask="url(#mask-4)"></path>
                <path d="M202.391973,160.98836 C202.685437,160.525183 202.831022,160.005968 202.753071,159.419277 C202.578827,158.085786 201.35912,157.192598 200.023632,157.366432 L186.595388,159.120786 C185.2599,159.295764 184.313022,160.471432 184.488412,161.806067 C184.575534,162.479675 184.9309,163.030913 185.43529,163.408316 L195.786754,176.880471 L202.391973,160.98836 Z" id="Fill-57" fill="#6AD3D3" sketch:type="MSShapeGroup" mask="url(#mask-4)"></path>
                <path d="M213.103159,203.766797 C213.103159,207.734107 210.578915,210.628676 207.464305,210.628676 L202.877793,210.628676 C199.763183,210.628676 197.238939,207.734107 197.238939,203.766797 C197.238939,199.799488 199.763183,196.904919 202.877793,196.904919 L207.464305,196.904919 C210.578915,196.904919 213.103159,199.799488 213.103159,203.766797" id="Fill-58" fill="#137777" sketch:type="MSShapeGroup" mask="url(#mask-4)"></path>
                <path d="M217.300029,201.696225 C217.300029,205.998623 213.803688,209.485601 209.491151,209.485601 L206.766298,209.485601 C202.454907,209.485601 198.958566,205.998623 198.958566,201.696225 L198.958566,201.262783 C198.958566,196.960386 202.454907,193.474551 206.766298,193.474551 L209.491151,193.474551 C213.803688,193.474551 217.300029,196.960386 217.300029,201.262783 L217.300029,201.696225 Z" id="Fill-59" fill="#E8C599" sketch:type="MSShapeGroup" mask="url(#mask-4)"></path>
                <path d="M215.293932,196.047184 L211.568322,187.563615 L211.568322,194.638212 L215.293932,196.047184 Z" id="Fill-60" fill="#E8C599" sketch:type="MSShapeGroup" mask="url(#mask-4)"></path>
                <path d="M83.4893098,266.66735 L73.939139,283.172455 L64.3889683,266.66735 L83.4893098,266.66735 Z" id="Fill-61" fill="#ED4E31" sketch:type="MSShapeGroup" mask="url(#mask-4)"></path>
                <path d="M133.877895,266.66735 L124.325432,283.172455 L114.775261,266.66735 L133.877895,266.66735 Z" id="Fill-62" fill="#ED4E31" sketch:type="MSShapeGroup" mask="url(#mask-4)"></path>
            </g>
        </g>
    </g>
</svg>