<?xml version="1.0" encoding="UTF-8" standalone="no"?>
<svg width="206px" height="413px" viewBox="0 0 206 413" version="1.1" xmlns="http://www.w3.org/2000/svg" xmlns:xlink="http://www.w3.org/1999/xlink" xmlns:sketch="http://www.bohemiancoding.com/sketch/ns">
    <!-- Generator: Sketch 3.4.4 (17249) - http://www.bohemiancoding.com/sketch -->
    <title>pilot_2</title>
    <desc>Created with Sketch.</desc>
    <defs>
        <path id="path-1" d="M0,0.679 L205.877,0.679 L205.877,413 L0,413 L0,0.679 Z"></path>
    </defs>
    <g id="Welcome" stroke="none" stroke-width="1" fill="none" fill-rule="evenodd" sketch:type="MSPage">
        <g id="Artboard-22" sketch:type="MSArtboardGroup" transform="translate(-3037.000000, -764.000000)">
            <g id="pilot_2" sketch:type="MSLayerGroup" transform="translate(3037.000000, 764.000000)">
                <path d="M52.1328,267.1084 L55.4088,259.2084 L56.1798,268.4584 L52.1328,267.1084 Z" id="Fill-1" fill="#CE9F67" sketch:type="MSShapeGroup"></path>
                <path d="M155.3896,267.6055 L155.7326,259.0605 L159.6546,267.4725 L155.3896,267.6055 Z" id="Fill-2" fill="#CE9F67" sketch:type="MSShapeGroup"></path>
                <g id="Group-67">
                    <path d="M54.3848,71.1533 C54.3848,82.4883 47.0568,91.6763 38.0178,91.6763 C28.9778,91.6763 24.0418,81.9833 24.0418,70.6503 C24.0418,59.3153 28.9778,50.6313 38.0178,50.6313 C47.0568,50.6313 54.3848,59.8183 54.3848,71.1533" id="Fill-3" fill="#916433" sketch:type="MSShapeGroup"></path>
                    <mask id="mask-2" sketch:name="Clip 6" fill="white">
                        <use xlink:href="#path-1"></use>
                    </mask>
                    <g id="Clip-6"></g>
                    <path d="M126.758,255.083 L81.758,255.083 L81.758,200.083 L126.758,200.083 L126.758,255.083 Z" id="Fill-5" fill="#E5E5E4" sketch:type="MSShapeGroup" mask="url(#mask-2)"></path>
                    <path d="M96.8164,246.1279 L105.0004,212.8889 L114.5684,246.3799 L96.8164,246.1279 Z" id="Fill-7" fill="#000000" sketch:type="MSShapeGroup" mask="url(#mask-2)"></path>
                    <path d="M150.406,263.86 L130.101,263.86 L130.101,233.813 L150.406,233.813 L150.406,263.86 Z" id="Fill-8" fill="#E5E5E4" sketch:type="MSShapeGroup" mask="url(#mask-2)"></path>
                    <path d="M152.8447,69.7685 C152.8447,79.5025 160.1717,87.3955 169.2127,87.3955 C178.2517,87.3955 183.6917,79.5025 183.6917,69.7685 C183.6917,60.0335 178.2517,52.1415 169.2127,52.1415 C160.1717,52.1415 152.8447,60.0335 152.8447,69.7685" id="Fill-9" fill="#916433" sketch:type="MSShapeGroup" mask="url(#mask-2)"></path>
                    <path d="M150.5576,244.6396 L150.6766,238.4756" id="Fill-10" fill="#CCCBCB" sketch:type="MSShapeGroup" mask="url(#mask-2)"></path>
                    <path d="M89.8301,190.7988 L81.0061,201.7258" id="Fill-11" fill="#D5D5D5" sketch:type="MSShapeGroup" mask="url(#mask-2)"></path>
                    <path d="M106,321.072 L102.512,321.072 L102.512,312.502 L106,312.502 L106,321.072 Z" id="Fill-12" fill="#545456" sketch:type="MSShapeGroup" mask="url(#mask-2)"></path>
                    <path d="M97.9531,171.9326 L98.3841,197.9726 L104.8741,209.1116 L109.6541,199.4246 L109.6541,171.9326" id="Fill-13" fill="#E8C599" sketch:type="MSShapeGroup" mask="url(#mask-2)"></path>
                    <path d="M103.9902,183.7285 L104.3102,208.6535 L109.3922,194.9575 L109.7822,173.5185" id="Fill-14" fill="#DABB96" sketch:type="MSShapeGroup" mask="url(#mask-2)"></path>
                    <path d="M87.7871,190.0586 L82.5741,201.7156 L105.1051,210.2276 L105.0621,199.9196 L87.7871,190.0586 Z" id="Fill-15" fill="#B5B5B5" sketch:type="MSShapeGroup" mask="url(#mask-2)"></path>
                    <path d="M123.2432,189.9268 L127.5782,201.7768 L105.0472,210.2898 L105.0622,199.9198 L123.2432,189.9268 Z" id="Fill-16" fill="#E2E2E2" sketch:type="MSShapeGroup" mask="url(#mask-2)"></path>
                    <path d="M180.2207,29.709 L178.8777,60.986 C179.4377,117.258 179.4237,109.08 179.7267,139.543 C179.9257,159.489 130.6307,177.934 106.0347,177.749 C79.4867,177.548 30.6107,162.627 30.3697,138.416 C29.9147,92.635 29.8247,90.31 29.4907,56.716 L180.2207,29.709 Z" id="Fill-17" fill="#F2D2A7" sketch:type="MSShapeGroup" mask="url(#mask-2)"></path>
                    <path d="M59.2949,61.9619 C59.2949,67.7339 52.4749,72.4129 44.0609,72.4129 C35.6469,72.4129 28.8259,67.7339 28.8259,61.9619 C28.8259,56.1899 35.6469,51.5129 44.0609,51.5129 C52.4749,51.5129 59.2949,56.1899 59.2949,61.9619" id="Fill-18" fill="#916433" sketch:type="MSShapeGroup" mask="url(#mask-2)"></path>
                    <path d="M83.4697,63.4736 C83.4697,69.2446 76.6487,73.9236 68.2357,73.9236 C59.8217,73.9236 53.0007,69.2446 53.0007,63.4736 C53.0007,57.7016 59.8217,53.0226 68.2357,53.0226 C76.6487,53.0226 83.4697,57.7016 83.4697,63.4736" id="Fill-19" fill="#916433" sketch:type="MSShapeGroup" mask="url(#mask-2)"></path>
                    <path d="M107.1406,62.9697 C107.1406,68.7417 100.3196,73.4197 91.9066,73.4197 C83.4926,73.4197 76.6706,68.7417 76.6706,62.9697 C76.6706,57.1987 83.4926,52.5197 91.9066,52.5197 C100.3196,52.5197 107.1406,57.1987 107.1406,62.9697" id="Fill-20" fill="#916433" sketch:type="MSShapeGroup" mask="url(#mask-2)"></path>
                    <path d="M131.0625,62.9697 C131.0625,68.7417 124.2425,73.4197 115.8285,73.4197 C107.4145,73.4197 100.5935,68.7417 100.5935,62.9697 C100.5935,57.1987 107.4145,52.5197 115.8285,52.5197 C124.2425,52.5197 131.0625,57.1987 131.0625,62.9697" id="Fill-21" fill="#916433" sketch:type="MSShapeGroup" mask="url(#mask-2)"></path>
                    <path d="M155.9922,63.4736 C155.9922,69.2446 149.1722,73.9236 140.7582,73.9236 C132.3442,73.9236 125.5222,69.2446 125.5222,63.4736 C125.5222,57.7016 132.3442,53.0226 140.7582,53.0226 C149.1722,53.0226 155.9922,57.7016 155.9922,63.4736" id="Fill-22" fill="#916433" sketch:type="MSShapeGroup" mask="url(#mask-2)"></path>
                    <path d="M180.418,61.207 C180.418,66.978 173.598,71.657 165.184,71.657 C156.77,71.657 149.949,66.978 149.949,61.207 C149.949,55.435 156.77,50.757 165.184,50.757 C173.598,50.757 180.418,55.435 180.418,61.207" id="Fill-23" fill="#916433" sketch:type="MSShapeGroup" mask="url(#mask-2)"></path>
                    <path d="M139.959,309.6689 L74.404,309.1649 L76.054,329.7259 L76.055,329.7259 L80.505,411.7079 L86.863,412.9999 L92.584,329.7369 L121.883,329.7599 L127.603,412.9999 L134.008,412.2079 L138.411,329.7239 L139.959,309.6689 Z" id="Fill-24" fill="#000000" sketch:type="MSShapeGroup" mask="url(#mask-2)"></path>
                    <path d="M86.8633,413 C86.8633,413 60.3963,384.492 50.6723,412.964 L86.8633,413 Z" id="Fill-25" fill="#1C1F27" sketch:type="MSShapeGroup" mask="url(#mask-2)"></path>
                    <path d="M127.5762,412.9639 C127.5762,412.9639 154.0442,384.4919 163.7692,412.9639 L127.5762,412.9639 Z" id="Fill-26" fill="#1C1F27" sketch:type="MSShapeGroup" mask="url(#mask-2)"></path>
                    <path d="M25.9766,49.3623 L0.3506,31.1793 L-0.0004,19.8643 C-0.0004,19.8643 39.2296,0.6673 102.9106,0.6783 C133.5116,0.6843 161.1906,5.1533 205.8766,18.3683 L205.8766,30.6883 L182.1566,49.1733 L25.9766,49.3623 Z" id="Fill-27" fill="#000000" sketch:type="MSShapeGroup" mask="url(#mask-2)"></path>
                    <path d="M182.6758,48.751 C172.2448,34.499 141.8398,29.273 104.8188,29.273 C67.8578,29.273 35.6588,34.466 25.1778,48.682 L25.7128,56.817 C36.4078,45.54 68.4648,40.755 105.5328,40.755 C142.4958,40.755 170.9058,45.647 181.0688,56.817 L182.6758,48.751 Z" id="Fill-28" fill="#B5B5B5" sketch:type="MSShapeGroup" mask="url(#mask-2)"></path>
                    <path d="M181.0683,56.8174 C181.0683,63.6274 103.2773,63.3674 103.2773,63.3674 C103.2773,63.3674 25.7133,63.6274 25.7133,56.8174 C25.7133,50.0064 58.8943,38.6134 101.7953,38.6134 C144.6943,38.6134 181.0683,50.0064 181.0683,56.8174" id="Fill-29" fill="#000000" sketch:type="MSShapeGroup" mask="url(#mask-2)"></path>
                    <path d="M160.8945,193.2471 C160.8945,193.2471 141.8345,191.1781 123.2435,189.9271 L105.3105,245.6241 L87.3775,189.9271 C68.7865,191.1781 49.7265,193.2471 49.7265,193.2471 L60.0395,315.7561 L104.1775,315.6421 L152.9705,315.6281 L160.8945,193.2471 Z" id="Fill-30" fill="#1C1F27" sketch:type="MSShapeGroup" mask="url(#mask-2)"></path>
                    <path d="M69.9609,131.583 C69.9609,133.728 67.7859,136.083 65.1039,136.083 L57.3319,136.083 C54.6499,136.083 52.4749,133.728 52.4749,131.583 C52.4749,129.436 54.6499,127.083 57.3319,127.083 L65.1039,127.083 C67.7859,127.083 69.9609,129.436 69.9609,131.583" id="Fill-31" fill="#E16C58" sketch:type="MSShapeGroup" mask="url(#mask-2)"></path>
                    <path d="M153.7637,131.583 C153.7637,133.729 151.5887,136.083 148.9067,136.083 L141.1347,136.083 C138.4517,136.083 136.2777,133.729 136.2777,131.583 C136.2777,129.436 138.4517,127.083 141.1347,127.083 L148.9067,127.083 C151.5887,127.083 153.7637,129.436 153.7637,131.583" id="Fill-32" fill="#E16C58" sketch:type="MSShapeGroup" mask="url(#mask-2)"></path>
                    <path d="M36.1289,103.7627 C36.1289,108.4917 32.2959,112.3257 27.5669,112.3257 C22.8389,112.3257 19.0059,108.4917 19.0059,103.7627 C19.0059,99.0347 22.8389,95.2017 27.5669,95.2017 C32.2959,95.2017 36.1289,99.0347 36.1289,103.7627" id="Fill-33" fill="#F2D2A7" sketch:type="MSShapeGroup" mask="url(#mask-2)"></path>
                    <path d="M188.7285,103.7627 C188.7285,108.4917 184.8945,112.3257 180.1655,112.3257 C175.4375,112.3257 171.6045,108.4917 171.6045,103.7627 C171.6045,99.0347 175.4375,95.2017 180.1655,95.2017 C184.8945,95.2017 188.7285,99.0347 188.7285,103.7627" id="Fill-34" fill="#F2D2A7" sketch:type="MSShapeGroup" mask="url(#mask-2)"></path>
                    <path d="M80.7578,109.2529 C80.7578,115.7859 75.4608,121.0829 68.9278,121.0829 L56.5878,121.0829 C50.0548,121.0829 44.7578,115.7859 44.7578,109.2529 L44.7578,108.9129 C44.7578,102.3799 50.0548,97.0829 56.5878,97.0829 L68.9278,97.0829 C75.4608,97.0829 80.7578,102.3799 80.7578,108.9129 L80.7578,109.2529 Z" id="Fill-35" fill="#FFFFFF" sketch:type="MSShapeGroup" mask="url(#mask-2)"></path>
                    <path d="M65.1504,109.2471 C65.1504,110.4821 64.1504,111.4811 62.9164,111.4811 C61.6814,111.4811 60.6814,110.4821 60.6814,109.2471 C60.6814,108.0141 61.6814,107.0131 62.9164,107.0131 C64.1504,107.0131 65.1504,108.0141 65.1504,109.2471" id="Fill-36" fill="#000000" sketch:type="MSShapeGroup" mask="url(#mask-2)"></path>
                    <path d="M163.7578,109.2529 C163.7578,115.7859 158.4608,121.0829 151.9278,121.0829 L139.5878,121.0829 C133.0548,121.0829 127.7578,115.7859 127.7578,109.2529 L127.7578,108.9129 C127.7578,102.3799 133.0548,97.0829 139.5878,97.0829 L151.9278,97.0829 C158.4608,97.0829 163.7578,102.3799 163.7578,108.9129 L163.7578,109.2529 Z" id="Fill-37" fill="#FFFFFF" sketch:type="MSShapeGroup" mask="url(#mask-2)"></path>
                    <path d="M148.4785,109.2471 C148.4785,110.4821 147.4785,111.4811 146.2435,111.4811 C145.0095,111.4811 144.0095,110.4821 144.0095,109.2471 C144.0095,108.0141 145.0095,107.0131 146.2435,107.0131 C147.4785,107.0131 148.4785,108.0141 148.4785,109.2471" id="Fill-38" fill="#000000" sketch:type="MSShapeGroup" mask="url(#mask-2)"></path>
                    <path d="M103.1113,244.2393 L93.0783,270.4683 L94.2113,315.6883 L104.1773,315.6423 L152.9703,315.6283 L160.8943,193.2473 C160.8943,193.2473 141.8353,191.1773 123.2433,189.9263 L103.1113,244.2393 Z" id="Fill-39" fill="#121419" sketch:type="MSShapeGroup" mask="url(#mask-2)"></path>
                    <path d="M102.1435,274.9394 C102.1435,276.5024 100.8755,277.7714 99.3105,277.7714 C97.7465,277.7714 96.4785,276.5024 96.4785,274.9394 C96.4785,273.3744 97.7465,272.1054 99.3105,272.1054 C100.8755,272.1054 102.1435,273.3744 102.1435,274.9394" id="Fill-40" fill="#F7B817" sketch:type="MSShapeGroup" mask="url(#mask-2)"></path>
                    <path d="M68.4394,274.3906 C67.6084,277.5236 64.3934,279.3896 61.2614,278.5576 L56.1754,277.2066 C53.0434,276.3746 51.1774,273.1616 52.0084,270.0286 L52.0764,269.7756 C52.9074,266.6426 56.1224,264.7766 59.2544,265.6086 L64.3394,266.9586 C67.4724,267.7906 69.3374,271.0036 68.5054,274.1376 L68.4394,274.3906 Z" id="Fill-41" fill="#F2D2A7" sketch:type="MSShapeGroup" mask="url(#mask-2)"></path>
                    <path d="M159.5361,270.1504 C160.3211,273.2954 158.4081,276.4814 155.2641,277.2664 L150.1581,278.5424 C147.0141,279.3274 143.8281,277.4144 143.0431,274.2694 L142.9791,274.0154 C142.1941,270.8704 144.1071,267.6844 147.2521,266.8994 L152.3571,265.6244 C155.5021,264.8384 158.6871,266.7524 159.4721,269.8964 L159.5361,270.1504 Z" id="Fill-42" fill="#F2D2A7" sketch:type="MSShapeGroup" mask="url(#mask-2)"></path>
                    <path d="M102.1435,287.7812 C102.1435,289.3462 100.8755,290.6142 99.3105,290.6142 C97.7465,290.6142 96.4785,289.3462 96.4785,287.7812 C96.4785,286.2172 97.7465,284.9482 99.3105,284.9482 C100.8755,284.9482 102.1435,286.2172 102.1435,287.7812" id="Fill-43" fill="#F7B817" sketch:type="MSShapeGroup" mask="url(#mask-2)"></path>
                    <path d="M102.1435,299.4912 C102.1435,301.0552 100.8755,302.3242 99.3105,302.3242 C97.7465,302.3242 96.4785,301.0552 96.4785,299.4912 C96.4785,297.9252 97.7465,296.6572 99.3105,296.6572 C100.8755,296.6572 102.1435,297.9252 102.1435,299.4912" id="Fill-44" fill="#F7B817" sketch:type="MSShapeGroup" mask="url(#mask-2)"></path>
                    <path d="M125.6123,138.083 C120.3193,145.083 112.7553,149.073 104.3693,149.073 C95.9823,149.073 88.4193,145.083 83.1253,138.083 L81.3143,138.083 C81.8003,138.083 82.3093,139.079 82.8413,139.704 C88.5843,146.466 96.2303,150.034 104.3693,150.034 C112.5073,150.034 120.1533,146.543 125.8963,139.782 C126.4273,139.156 126.9363,138.083 127.4233,138.083 L125.6123,138.083 Z" id="Fill-45" fill="#000000" sketch:type="MSShapeGroup" mask="url(#mask-2)"></path>
                    <path d="M112.1133,111.8623 L103.7113,98.4873 L95.0683,111.4463 C94.4223,112.7153 93.7583,114.1513 93.7583,115.6723 L93.7583,125.2943 C93.7583,130.4443 98.6153,135.0833 103.7653,135.0833 L103.7683,135.0833 C108.9183,135.0833 112.7583,130.4443 112.7583,125.2943 L112.7583,115.6723 C112.7583,114.3153 112.6353,113.0253 112.1133,111.8623" id="Fill-46" fill="#EDA769" sketch:type="MSShapeGroup" mask="url(#mask-2)"></path>
                    <path d="M95.3398,126.6123 C95.0658,126.6123 94.8008,126.6533 94.5508,126.7293 C94.8348,128.5673 95.6558,130.2273 96.8468,131.5443 C97.5648,131.0603 98.0368,130.2393 98.0368,129.3083 C98.0368,127.8193 96.8298,126.6123 95.3398,126.6123" id="Fill-47" fill="#916433" sketch:type="MSShapeGroup" mask="url(#mask-2)"></path>
                    <path d="M112.1094,126.6123 C112.3844,126.6123 112.6504,126.6533 112.8994,126.7293 C112.6154,128.5673 111.7954,130.2273 110.6034,131.5443 C109.8864,131.0603 109.4144,130.2393 109.4144,129.3083 C109.4144,127.8193 110.6214,126.6123 112.1094,126.6123" id="Fill-48" fill="#916433" sketch:type="MSShapeGroup" mask="url(#mask-2)"></path>
                    <path d="M157.3262,264.6123 C172.0052,262.1423 183.0982,249.2813 182.9002,233.9343 C182.7032,218.5873 174.7462,205.6613 160.0092,203.5713 L160.8892,193.2473 C181.9222,195.4143 193.9632,212.6803 194.2422,234.3343 C194.5212,255.9883 178.4512,274.0443 157.4832,276.7533 L157.3262,264.6123 Z" id="Fill-49" fill="#1C1F27" sketch:type="MSShapeGroup" mask="url(#mask-2)"></path>
                    <path d="M160.7578,263.792 C162.7578,263.322 164.2888,262.489 165.7378,261.937 L165.7168,274.855 C163.7998,275.459 162.7998,275.872 160.7998,276.209 L160.7578,263.792 Z" id="Fill-50" fill="#F7B817" sketch:type="MSShapeGroup" mask="url(#mask-2)"></path>
                    <path d="M53.416,264.6123 C38.738,262.1423 27.643,249.2813 27.842,233.9343 C28.041,218.5873 35.997,205.6613 50.734,203.5713 L49.853,193.2473 C28.822,195.4143 16.779,212.6803 16.5,234.3343 C16.221,255.9883 32.291,274.0443 53.26,276.7533 L53.416,264.6123 Z" id="Fill-51" fill="#1C1F27" sketch:type="MSShapeGroup" mask="url(#mask-2)"></path>
                    <path d="M49.7578,263.792 C47.9458,263.084 46.7168,262.521 44.7998,261.834 L44.7378,274.792 C46.7168,275.48 48.7378,275.98 49.7578,276.171 L49.7578,263.792 Z" id="Fill-52" fill="#F7B817" sketch:type="MSShapeGroup" mask="url(#mask-2)"></path>
                    <path d="M69.1328,92.0693 C69.1988,92.9773 68.3398,93.7813 67.2088,93.8653 L53.8028,94.8713 C52.6738,94.9553 51.7578,94.2863 51.7578,93.3793 L51.7578,93.3623 C51.7578,92.4543 52.4278,91.6483 53.5578,91.5633 L67.0258,90.5583 C68.1538,90.4733 69.0938,91.1423 69.1618,92.0513 L69.1328,92.0693 Z" id="Fill-53" fill="#916433" sketch:type="MSShapeGroup" mask="url(#mask-2)"></path>
                    <path d="M140.7871,92.0693 C140.7211,92.9773 141.5801,93.7813 142.7111,93.8653 L155.9151,94.8713 C157.0441,94.9553 157.7581,94.2863 157.7581,93.3793 L157.7581,93.3623 C157.7581,92.4543 157.2911,91.6483 156.1601,91.5633 L142.7931,90.5583 C141.6641,90.4733 140.7751,91.1423 140.7081,92.0513 L140.7871,92.0693 Z" id="Fill-54" fill="#916433" sketch:type="MSShapeGroup" mask="url(#mask-2)"></path>
                    <path d="M80.758,240.083 L67.758,240.083 L67.758,222.083 L80.758,222.083 L80.758,240.083 Z" id="Fill-55" fill="#121419" sketch:type="MSShapeGroup" mask="url(#mask-2)"></path>
                    <path d="M70.123,221.083 L74.26,217.18 L78.396,221.083 L70.123,221.083 Z" id="Fill-56" fill="#E5E5E4" sketch:type="MSShapeGroup" mask="url(#mask-2)"></path>
                    <path d="M108.3994,208.9853 L109.7874,215.0913 L105.0294,218.5513 L100.2714,215.0893 L101.8944,209.0693 L105.1054,210.2273 L108.3994,208.9853 Z" id="Fill-57" fill="#000000" sketch:type="MSShapeGroup" mask="url(#mask-2)"></path>
                    <path d="M31.2178,104.082 C31.2178,106.177 29.5208,107.874 27.4258,107.874 C25.3318,107.874 23.6348,106.177 23.6348,104.082 C23.6348,101.989 25.3318,100.291 27.4258,100.291 C29.5208,100.291 31.2178,101.989 31.2178,104.082" id="Fill-58" fill="#C1AA8E" sketch:type="MSShapeGroup" mask="url(#mask-2)"></path>
                    <path d="M184.2178,104.082 C184.2178,106.177 182.5208,107.874 180.4258,107.874 C178.3318,107.874 176.6348,106.177 176.6348,104.082 C176.6348,101.989 178.3318,100.291 180.4258,100.291 C182.5208,100.291 184.2178,101.989 184.2178,104.082" id="Fill-59" fill="#C1AA8E" sketch:type="MSShapeGroup" mask="url(#mask-2)"></path>
                    <path d="M108.0117,17.209 C108.0117,20.706 105.1757,23.541 101.6777,23.541 C98.1817,23.541 95.3457,20.706 95.3457,17.209 C95.3457,13.711 98.1817,10.876 101.6777,10.876 C105.1757,10.876 108.0117,13.711 108.0117,17.209" id="Fill-60" fill="#F7B817" sketch:type="MSShapeGroup" mask="url(#mask-2)"></path>
                    <path d="M128.7578,18.083 C128.7578,18.636 128.3108,19.083 127.7578,19.083 L113.7578,19.083 C113.2048,19.083 112.7578,18.636 112.7578,18.083 C112.7578,17.53 113.2048,17.083 113.7578,17.083 L127.7578,17.083 C128.3108,17.083 128.7578,17.53 128.7578,18.083" id="Fill-61" fill="#F7B817" sketch:type="MSShapeGroup" mask="url(#mask-2)"></path>
                    <path d="M119.7578,22.083 C119.7578,22.636 119.3108,23.083 118.7578,23.083 L108.7578,23.083 C108.2048,23.083 107.7578,22.636 107.7578,22.083 C107.7578,21.53 108.2048,21.083 108.7578,21.083 L118.7578,21.083 C119.3108,21.083 119.7578,21.53 119.7578,22.083" id="Fill-62" fill="#F7B817" sketch:type="MSShapeGroup" mask="url(#mask-2)"></path>
                    <path d="M110.7578,26.083 C110.7578,26.636 110.3108,27.083 109.7578,27.083 L104.7578,27.083 C104.2048,27.083 103.7578,26.636 103.7578,26.083 C103.7578,25.53 104.2048,25.083 104.7578,25.083 L109.7578,25.083 C110.3108,25.083 110.7578,25.53 110.7578,26.083" id="Fill-63" fill="#F7B817" sketch:type="MSShapeGroup" mask="url(#mask-2)"></path>
                    <path d="M74.7578,18.083 C74.7578,18.636 75.2048,19.083 75.7578,19.083 L89.7578,19.083 C90.3108,19.083 90.7578,18.636 90.7578,18.083 C90.7578,17.53 90.3108,17.083 89.7578,17.083 L75.7578,17.083 C75.2048,17.083 74.7578,17.53 74.7578,18.083" id="Fill-64" fill="#F7B817" sketch:type="MSShapeGroup" mask="url(#mask-2)"></path>
                    <path d="M83.7578,22.083 C83.7578,22.636 84.2048,23.083 84.7578,23.083 L94.7578,23.083 C95.3108,23.083 95.7578,22.636 95.7578,22.083 C95.7578,21.53 95.3108,21.083 94.7578,21.083 L84.7578,21.083 C84.2048,21.083 83.7578,21.53 83.7578,22.083" id="Fill-65" fill="#F7B817" sketch:type="MSShapeGroup" mask="url(#mask-2)"></path>
                    <path d="M92.7578,26.083 C92.7578,26.636 93.2048,27.083 93.7578,27.083 L98.7578,27.083 C99.3108,27.083 99.7578,26.636 99.7578,26.083 C99.7578,25.53 99.3108,25.083 98.7578,25.083 L93.7578,25.083 C93.2048,25.083 92.7578,25.53 92.7578,26.083" id="Fill-66" fill="#F7B817" sketch:type="MSShapeGroup" mask="url(#mask-2)"></path>
                </g>
            </g>
        </g>
    </g>
</svg>