<?xml version="1.0" encoding="UTF-8" standalone="no"?>
<svg width="252px" height="410px" viewBox="0 0 252 410" version="1.1" xmlns="http://www.w3.org/2000/svg" xmlns:xlink="http://www.w3.org/1999/xlink" xmlns:sketch="http://www.bohemiancoding.com/sketch/ns">
    <!-- Generator: Sketch 3.4.4 (17249) - http://www.bohemiancoding.com/sketch -->
    <title>pilot_1</title>
    <desc>Created with Sketch.</desc>
    <defs>
        <path id="path-1" d="M0,0.173 L221.955,0.173 L221.955,410 L0,410 L0,0.173 Z"></path>
    </defs>
    <g id="Welcome" stroke="none" stroke-width="1" fill="none" fill-rule="evenodd" sketch:type="MSPage">
        <g id="Artboard-22" sketch:type="MSArtboardGroup" transform="translate(-3312.000000, -767.000000)">
            <g id="pilot_1" sketch:type="MSLayerGroup" transform="translate(3312.000000, 767.000000)">
                <path d="M79.8418,264.1084 L83.1178,256.2084 L83.8888,265.4584 L79.8418,264.1084 Z" id="Fill-1" fill="#CE9F67" sketch:type="MSShapeGroup"></path>
                <path d="M183.0986,264.6055 L183.4416,256.0605 L187.3636,264.4725 L183.0986,264.6055 Z" id="Fill-2" fill="#CE9F67" sketch:type="MSShapeGroup"></path>
                <path d="M154.467,252.083 L109.467,252.083 L109.467,197.083 L154.467,197.083 L154.467,252.083 Z" id="Fill-3" fill="#E5E5E4" sketch:type="MSShapeGroup"></path>
                <path d="M124.5254,243.1279 L132.7094,209.8889 L142.2774,243.3799 L124.5254,243.1279 Z" id="Fill-4" fill="#000000" sketch:type="MSShapeGroup"></path>
                <path d="M178.115,260.86 L157.81,260.86 L157.81,230.813 L178.115,230.813 L178.115,260.86 Z" id="Fill-5" fill="#E5E5E4" sketch:type="MSShapeGroup"></path>
                <path d="M178.2666,241.6397 L178.3856,235.4757 L178.2666,241.6397 Z" id="Fill-6" fill="#CCCBCB" sketch:type="MSShapeGroup"></path>
                <path d="M117.5391,187.7988 L108.7151,198.7258" id="Fill-7" fill="#D5D5D5" sketch:type="MSShapeGroup"></path>
                <path d="M133.709,318.072 L130.221,318.072 L130.221,309.502 L133.709,309.502 L133.709,318.072 Z" id="Fill-8" fill="#545456" sketch:type="MSShapeGroup"></path>
                <path d="M125.6621,168.9326 L126.0931,194.9726 L132.5831,206.1116 L137.3631,196.4246 L137.3631,168.9326" id="Fill-9" fill="#E8C599" sketch:type="MSShapeGroup"></path>
                <path d="M131.6992,180.7285 L132.0192,205.6535 L137.1012,191.9575 L137.4912,170.5185" id="Fill-10" fill="#DABB96" sketch:type="MSShapeGroup"></path>
                <path d="M115.4961,187.0586 L110.2831,198.7156 L132.8141,207.2276 L132.7711,196.9196 L115.4961,187.0586 Z" id="Fill-11" fill="#B5B5B5" sketch:type="MSShapeGroup"></path>
                <path d="M150.9522,186.9268 L155.2872,198.7768 L132.7562,207.2898 L132.7712,196.9198 L150.9522,186.9268 Z" id="Fill-12" fill="#E2E2E2" sketch:type="MSShapeGroup"></path>
                <path d="M103.7628,326.7257 L103.7638,326.7257 L108.2138,408.7077 L114.5728,409.9997 L120.2928,326.7377 L149.5918,326.7597 L155.3108,409.9997 L161.7168,409.2077 L166.1198,326.7237 L167.6678,306.6697 L102.1128,306.1647 L103.7628,326.7257 Z" id="Fill-13" fill="#000000" sketch:type="MSShapeGroup"></path>
                <g id="Group-73">
                    <path d="M114.5723,410 C114.5723,410 88.1053,381.492 78.3813,409.964 L114.5723,410 Z" id="Fill-14" fill="#1C1F27" sketch:type="MSShapeGroup"></path>
                    <path d="M155.2852,409.9639 C155.2852,409.9639 181.7532,381.4919 191.4782,409.9639 L155.2852,409.9639 Z" id="Fill-16" fill="#1C1F27" sketch:type="MSShapeGroup"></path>
                    <path d="M188.6035,190.2471 C188.6035,190.2471 169.5435,188.1781 150.9525,186.9271 L133.0195,242.6241 L115.0865,186.9271 C96.4955,188.1781 77.4355,190.2471 77.4355,190.2471 L87.7485,312.7561 L131.8865,312.6421 L180.6795,312.6281 L188.6035,190.2471 Z" id="Fill-18" fill="#1C1F27" sketch:type="MSShapeGroup"></path>
                    <path d="M130.8203,241.2393 L120.7873,267.4683 L121.9203,312.6883 L131.8863,312.6423 L180.6793,312.6283 L188.6033,190.2473 C188.6033,190.2473 169.5443,188.1773 150.9523,186.9263 L130.8203,241.2393 Z" id="Fill-20" fill="#121419" sketch:type="MSShapeGroup"></path>
                    <path d="M129.8525,271.9394 C129.8525,273.5024 128.5855,274.7714 127.0195,274.7714 C125.4555,274.7714 124.1875,273.5024 124.1875,271.9394 C124.1875,270.3744 125.4555,269.1054 127.0195,269.1054 C128.5855,269.1054 129.8525,270.3744 129.8525,271.9394" id="Fill-22" fill="#F7B817" sketch:type="MSShapeGroup"></path>
                    <path d="M96.1484,271.3906 C95.3174,274.5236 92.1024,276.3896 88.9704,275.5576 L83.8844,274.2066 C80.7524,273.3746 78.8864,270.1616 79.7174,267.0286 L79.7854,266.7756 C80.6164,263.6426 83.8314,261.7766 86.9634,262.6086 L92.0484,263.9586 C95.1814,264.7906 97.0464,268.0036 96.2144,271.1376 L96.1484,271.3906 Z" id="Fill-24" fill="#F2D2A7" sketch:type="MSShapeGroup"></path>
                    <path d="M187.2451,267.1504 C188.0301,270.2954 186.1171,273.4814 182.9731,274.2664 L177.8671,275.5424 C174.7231,276.3274 171.5371,274.4144 170.7521,271.2694 L170.6881,271.0154 C169.9031,267.8704 171.8161,264.6844 174.9611,263.8994 L180.0661,262.6244 C183.2111,261.8384 186.3961,263.7524 187.1811,266.8964 L187.2451,267.1504 Z" id="Fill-26" fill="#F2D2A7" sketch:type="MSShapeGroup"></path>
                    <path d="M129.8525,284.7812 C129.8525,286.3462 128.5855,287.6142 127.0195,287.6142 C125.4555,287.6142 124.1875,286.3462 124.1875,284.7812 C124.1875,283.2172 125.4555,281.9482 127.0195,281.9482 C128.5855,281.9482 129.8525,283.2172 129.8525,284.7812" id="Fill-28" fill="#F7B817" sketch:type="MSShapeGroup"></path>
                    <path d="M129.8525,296.4912 C129.8525,298.0552 128.5855,299.3242 127.0195,299.3242 C125.4555,299.3242 124.1875,298.0552 124.1875,296.4912 C124.1875,294.9252 125.4555,293.6572 127.0195,293.6572 C128.5855,293.6572 129.8525,294.9252 129.8525,296.4912" id="Fill-30" fill="#F7B817" sketch:type="MSShapeGroup"></path>
                    <path d="M185.0352,261.6123 C199.7142,259.1423 210.8072,246.2813 210.6092,230.9343 C210.4122,215.5873 202.4552,202.6613 187.7182,200.5713 L188.5982,190.2473 C209.6312,192.4143 221.6722,209.6803 221.9512,231.3343 C222.2302,252.9883 206.1602,271.0443 185.1922,273.7533 L185.0352,261.6123 Z" id="Fill-32" fill="#1C1F27" sketch:type="MSShapeGroup"></path>
                    <path d="M188.4668,260.792 C190.4668,260.322 191.9978,259.489 193.4468,258.937 L193.4258,271.855 C191.5088,272.459 190.5088,272.872 188.5088,273.209 L188.4668,260.792 Z" id="Fill-34" fill="#F7B817" sketch:type="MSShapeGroup"></path>
                    <path d="M81.125,261.6123 C66.447,259.1423 55.353,246.2813 55.551,230.9343 C55.75,215.5873 63.706,202.6613 78.443,200.5713 L77.562,190.2473 C56.531,192.4143 44.488,209.6803 44.209,231.3343 C43.93,252.9883 60,271.0443 80.969,273.7533 L81.125,261.6123 Z" id="Fill-36" fill="#1C1F27" sketch:type="MSShapeGroup"></path>
                    <path d="M77.4668,260.792 C75.6548,260.084 74.4258,259.521 72.5088,258.834 L72.4468,271.792 C74.4258,272.48 76.4468,272.98 77.4668,273.171 L77.4668,260.792 Z" id="Fill-38" fill="#F7B817" sketch:type="MSShapeGroup"></path>
                    <mask id="mask-2" sketch:name="Clip 41" fill="white">
                        <use xlink:href="#path-1"></use>
                    </mask>
                    <g id="Clip-41"></g>
                    <path d="M108.467,237.083 L95.467,237.083 L95.467,219.083 L108.467,219.083 L108.467,237.083 Z" id="Fill-40" fill="#121419" sketch:type="MSShapeGroup" mask="url(#mask-2)"></path>
                    <path d="M97.832,218.083 L101.969,214.18 L106.105,218.083 L97.832,218.083 Z" id="Fill-42" fill="#E5E5E4" sketch:type="MSShapeGroup" mask="url(#mask-2)"></path>
                    <path d="M136.1084,205.9853 L137.4964,212.0913 L132.7384,215.5513 L127.9804,212.0893 L129.6034,206.0693 L132.8144,207.2273 L136.1084,205.9853 Z" id="Fill-43" fill="#000000" sketch:type="MSShapeGroup" mask="url(#mask-2)"></path>
                    <path d="M174.0772,13.7988 L180.1222,44.5158 C193.8892,99.0798 188.5152,92.0438 195.9672,121.5828 C200.8482,140.9238 154.6502,175.8558 141.4672,178.5828 C126.9672,181.5828 64.3902,174.0598 58.4672,150.5828 C47.2662,106.1908 42.1332,108.0438 33.9142,75.4698 L174.0772,13.7988 Z" id="Fill-44" fill="#F2D2A7" sketch:type="MSShapeGroup" mask="url(#mask-2)"></path>
                    <path d="M32.1807,73.4795 L2.9997,61.8275 L-0.0003,50.9115 C-0.0003,50.9115 33.6187,23.0335 95.5197,8.0805 C125.2657,0.8955 153.2197,-1.2655 199.7597,1.0795 L202.6557,13.0535 L183.9437,36.5955 L32.1807,73.4795 Z" id="Fill-45" fill="#000000" sketch:type="MSShapeGroup" mask="url(#mask-2)"></path>
                    <path d="M184.3486,36.0625 C170.8616,24.6615 140.0786,26.7265 104.0936,35.4255 C68.1676,44.1115 38.0916,56.7245 31.2436,73.0055 L33.6756,80.7885 C41.4216,67.3125 71.4566,55.1285 107.4876,46.4175 C143.4146,37.7325 172.1786,35.8105 184.6816,44.2815 L184.3486,36.0625 Z" id="Fill-46" fill="#B5B5B5" sketch:type="MSShapeGroup" mask="url(#mask-2)"></path>
                    <path d="M92.8438,137.2295 C93.3488,139.3145 91.7878,142.1155 89.1808,142.7455 L81.6268,144.5715 C79.0198,145.2025 76.3518,143.4235 75.8478,141.3385 C75.3438,139.2525 76.9048,136.4545 79.5118,135.8235 L87.0658,133.9975 C89.6728,133.3675 92.3398,135.1435 92.8438,137.2295" id="Fill-47" fill="#E16C58" sketch:type="MSShapeGroup" mask="url(#mask-2)"></path>
                    <path d="M177.2168,116.832 C177.7208,118.919 176.1598,121.718 173.5528,122.348 L165.9978,124.174 C163.3908,124.805 160.7248,123.028 160.2198,120.941 C159.7148,118.855 161.2768,116.057 163.8838,115.426 L171.4378,113.6 C174.0448,112.97 176.7118,114.746 177.2168,116.832" id="Fill-48" fill="#E16C58" sketch:type="MSShapeGroup" mask="url(#mask-2)"></path>
                    <path d="M53.4219,118.1387 C54.5329,122.7357 51.7089,127.3627 47.1119,128.4737 C42.5169,129.5847 37.8909,126.7597 36.7779,122.1617 C35.6679,117.5667 38.4919,112.9407 43.0889,111.8287 C47.6849,110.7177 52.3109,113.5427 53.4219,118.1387" id="Fill-49" fill="#F2D2A7" sketch:type="MSShapeGroup" mask="url(#mask-2)"></path>
                    <path d="M201.749,82.2793 C202.86,86.8773 200.034,91.5033 195.439,92.6143 C190.842,93.7253 186.216,90.9003 185.105,86.3033 C183.993,81.7083 186.818,77.0813 191.414,75.9693 C196.01,74.8583 200.638,77.6833 201.749,82.2793" id="Fill-50" fill="#F2D2A7" sketch:type="MSShapeGroup" mask="url(#mask-2)"></path>
                    <path d="M97.4365,110.2773 C98.6195,115.1723 94.5475,120.8713 88.1975,122.4073 L76.2035,125.3063 C69.8535,126.8413 63.6275,123.6313 62.4445,118.7363 L62.3825,118.4823 C61.1995,113.5873 65.3885,108.3743 71.7385,106.8393 L83.7325,103.9383 C90.0825,102.4033 96.1915,105.1283 97.3745,110.0223 L97.4365,110.2773 Z" id="Fill-51" fill="#FFFFFF" sketch:type="MSShapeGroup" mask="url(#mask-2)"></path>
                    <path d="M82.4502,114.706 C82.7402,115.906 82.0032,117.112 80.8022,117.402 C79.6032,117.692 78.3962,116.957 78.1062,115.756 C77.8162,114.558 78.5522,113.35 79.7532,113.06 C80.9532,112.769 82.1602,113.507 82.4502,114.706" id="Fill-52" fill="#000000" sketch:type="MSShapeGroup" mask="url(#mask-2)"></path>
                    <path d="M180.0566,90.3027 C181.2396,95.1987 177.1676,100.8977 170.8176,102.4327 L158.8236,105.3327 C152.4726,106.8677 146.2476,103.6577 145.0646,98.7627 L145.0026,98.5077 C143.8196,93.6137 148.0076,88.3997 154.3586,86.8647 L166.3526,83.9647 C172.7026,82.4297 178.8106,85.1537 179.9946,90.0487 L180.0566,90.3027 Z" id="Fill-53" fill="#FFFFFF" sketch:type="MSShapeGroup" mask="url(#mask-2)"></path>
                    <path d="M165.0693,94.7314 C165.3603,95.9324 164.6233,97.1384 163.4233,97.4284 C162.2223,97.7184 161.0163,96.9824 160.7263,95.7824 C160.4363,94.5834 161.1733,93.3754 162.3733,93.0854 C163.5723,92.7944 164.7793,93.5334 165.0693,94.7314" id="Fill-54" fill="#000000" sketch:type="MSShapeGroup" mask="url(#mask-2)"></path>
                    <path d="M146.5684,136.0264 C143.8174,142.6954 138.6324,147.4444 131.9634,149.1904 C125.2934,150.9384 118.4484,149.3394 112.7794,144.8754 L111.3394,145.2534 C111.7274,145.1514 112.3384,145.8374 112.8924,146.2234 C118.8674,150.4044 125.6914,151.6504 132.1644,149.9554 C138.6354,148.2594 143.9894,143.8904 147.1494,137.3184 C147.4404,136.7104 147.6224,135.7504 148.0094,135.6494 L146.5684,136.0264 Z" id="Fill-55" fill="#000000" sketch:type="MSShapeGroup" mask="url(#mask-2)"></path>
                    <path d="M82.9893,99.9893 C83.2673,100.8563 82.6213,101.8403 81.5413,102.1863 L68.7473,106.3153 C67.6693,106.6623 66.6213,106.2263 66.4083,105.3443 L66.4043,105.3293 C66.1913,104.4463 66.6523,103.5063 67.7313,103.1573 L80.5863,99.0163 C81.6633,98.6683 82.7333,99.0973 83.0133,99.9653 L82.9893,99.9893 Z" id="Fill-56" fill="#916433" sketch:type="MSShapeGroup" mask="url(#mask-2)"></path>
                    <path d="M150.458,83.083 C150.607,83.083 151.631,84.344 152.75,84.16 L165.82,81.926 C166.938,81.742 167.475,80.87 167.262,79.989 L167.258,79.945 C167.044,79.062 166.4,78.376 165.281,78.559 L152.053,80.933 C150.936,81.115 150.229,82.083 150.377,83.083 L150.458,83.083 Z" id="Fill-57" fill="#916433" sketch:type="MSShapeGroup" mask="url(#mask-2)"></path>
                    <path d="M48.7236,119.6035 C49.2156,121.6395 47.9646,123.6875 45.9286,124.1795 C43.8936,124.6715 41.8456,123.4205 41.3536,121.3845 C40.8616,119.3505 42.1116,117.3015 44.1466,116.8095 C46.1836,116.3175 48.2326,117.5695 48.7236,119.6035" id="Fill-58" fill="#C1AA8E" sketch:type="MSShapeGroup" mask="url(#mask-2)"></path>
                    <path d="M197.4395,83.6504 C197.9315,85.6864 196.6805,87.7344 194.6445,88.2264 C192.6095,88.7184 190.5605,87.4674 190.0685,85.4314 C189.5775,83.3974 190.8285,81.3484 192.8635,80.8564 C194.8985,80.3644 196.9475,81.6164 197.4395,83.6504" id="Fill-59" fill="#C1AA8E" sketch:type="MSShapeGroup" mask="url(#mask-2)"></path>
                    <path d="M104.3633,22.9492 C105.1843,26.3482 103.0943,29.7702 99.6943,30.5922 C96.2963,31.4142 92.8733,29.3242 92.0523,25.9262 C91.2293,22.5252 93.3203,19.1032 96.7193,18.2822 C100.1183,17.4602 103.5413,19.5492 104.3633,22.9492" id="Fill-60" fill="#F7B817" sketch:type="MSShapeGroup" mask="url(#mask-2)"></path>
                    <path d="M124.7334,18.9238 C124.8634,19.4608 124.5344,20.0008 123.9964,20.1308 L110.3884,23.4208 C109.8514,23.5498 109.3114,23.2208 109.1814,22.6838 C109.0514,22.1468 109.3814,21.6068 109.9194,21.4768 L123.5264,18.1868 C124.0644,18.0568 124.6034,18.3868 124.7334,18.9238" id="Fill-61" fill="#F7B817" sketch:type="MSShapeGroup" mask="url(#mask-2)"></path>
                    <path d="M116.9258,24.9268 C117.0558,25.4638 116.7258,26.0038 116.1888,26.1338 L106.4688,28.4838 C105.9318,28.6138 105.3918,28.2828 105.2618,27.7458 C105.1318,27.2088 105.4608,26.6688 105.9978,26.5388 L115.7188,24.1898 C116.2558,24.0598 116.7958,24.3898 116.9258,24.9268" id="Fill-62" fill="#F7B817" sketch:type="MSShapeGroup" mask="url(#mask-2)"></path>
                    <path d="M109.1172,30.9297 C109.2472,31.4667 108.9182,32.0067 108.3812,32.1367 L103.5202,33.3117 C102.9832,33.4417 102.4432,33.1117 102.3132,32.5747 C102.1832,32.0367 102.5132,31.4967 103.0512,31.3667 L107.9102,30.1927 C108.4472,30.0627 108.9872,30.3917 109.1172,30.9297" id="Fill-63" fill="#F7B817" sketch:type="MSShapeGroup" mask="url(#mask-2)"></path>
                    <path d="M72.2461,31.6133 C72.3751,32.1503 72.9161,32.4793 73.4531,32.3493 L87.0601,29.0603 C87.5981,28.9303 87.9281,28.3903 87.7981,27.8533 C87.6681,27.3153 87.1281,26.9863 86.5911,27.1163 L72.9821,30.4063 C72.4451,30.5363 72.1151,31.0753 72.2461,31.6133" id="Fill-64" fill="#F7B817" sketch:type="MSShapeGroup" mask="url(#mask-2)"></path>
                    <path d="M81.9336,33.3857 C82.0636,33.9227 82.6036,34.2527 83.1406,34.1227 L92.8606,31.7737 C93.3986,31.6437 93.7276,31.1037 93.5976,30.5667 C93.4676,30.0297 92.9276,29.6987 92.3906,29.8287 L82.6706,32.1787 C82.1326,32.3087 81.8036,32.8487 81.9336,33.3857" id="Fill-65" fill="#F7B817" sketch:type="MSShapeGroup" mask="url(#mask-2)"></path>
                    <path d="M91.6211,35.1592 C91.7521,35.6962 92.2911,36.0262 92.8281,35.8962 L97.6881,34.7222 C98.2251,34.5912 98.5561,34.0522 98.4261,33.5142 C98.2961,32.9762 97.7561,32.6472 97.2191,32.7772 L92.3581,33.9522 C91.8211,34.0822 91.4921,34.6222 91.6211,35.1592" id="Fill-66" fill="#F7B817" sketch:type="MSShapeGroup" mask="url(#mask-2)"></path>
                    <path d="M33.8008,79.75 C33.8008,79.75 32.4668,100.833 47.6328,112.795 C45.0488,102.103 46.2078,94.493 50.9538,89.294 C57.0548,82.61 53.7168,78.083 53.7168,78.083 L46.4028,80.042 L33.8008,79.75 Z" id="Fill-67" fill="#4C321B" sketch:type="MSShapeGroup" mask="url(#mask-2)"></path>
                    <path d="M184.3359,44.1963 C184.3359,44.1963 199.3419,64.2083 186.8419,78.7083 C185.9079,67.7483 179.9839,58.6333 172.6529,56.5593 C162.2309,53.6123 162.8319,47.2983 162.8319,47.2983 L174.0419,46.3433 L184.3359,44.1963 Z" id="Fill-68" fill="#4C321B" sketch:type="MSShapeGroup" mask="url(#mask-2)"></path>
                    <path d="M184.6816,44.2812 C186.2826,50.9002 110.6076,68.9282 110.6076,68.9282 C110.6076,68.9282 35.2766,87.4072 33.6756,80.7882 C32.0766,74.1682 61.6506,55.2962 103.3496,45.2152 C145.0486,35.1342 183.0816,37.6612 184.6816,44.2812" id="Fill-69" fill="#000000" sketch:type="MSShapeGroup" mask="url(#mask-2)"></path>
                    <path d="M116.457,98.2617 L115.238,131.3017 C115.238,131.3017 127.418,137.4777 135.817,125.3797 C126.578,108.4967 119.352,97.4137 119.352,97.4137 L116.457,98.2617 Z" id="Fill-70" fill="#EDA769" sketch:type="MSShapeGroup" mask="url(#mask-2)"></path>
                    <path d="M117.1807,131.2685 C117.0407,131.4545 116.9357,131.6555 116.8597,131.8635 C118.2497,132.6055 119.7917,132.8915 121.2887,132.7525 C121.3257,132.0205 121.0097,131.2835 120.3787,130.8105 C119.3687,130.0535 117.9377,130.2595 117.1807,131.2685" id="Fill-71" fill="#916433" sketch:type="MSShapeGroup" mask="url(#mask-2)"></path>
                    <path d="M134.4844,126.1494 C134.7044,126.2334 134.9014,126.3464 135.0764,126.4804 C134.2954,127.8494 133.1444,128.9154 131.8024,129.5964 C131.3824,128.9974 131.2574,128.2054 131.5394,127.4684 C131.9884,126.2894 133.3084,125.7004 134.4844,126.1494" id="Fill-72" fill="#916433" sketch:type="MSShapeGroup" mask="url(#mask-2)"></path>
                </g>
            </g>
        </g>
    </g>
</svg>