<?xml version="1.0" encoding="UTF-8" standalone="no"?>
<svg width="157px" height="444px" viewBox="0 0 157 444" version="1.1" xmlns="http://www.w3.org/2000/svg" xmlns:xlink="http://www.w3.org/1999/xlink" xmlns:sketch="http://www.bohemiancoding.com/sketch/ns">
    <!-- Generator: Sketch 3.4.4 (17249) - http://www.bohemiancoding.com/sketch -->
    <title>stew_1</title>
    <desc>Created with Sketch.</desc>
    <defs>
        <path id="path-1" d="M0,0.619 L156.889,0.619 L156.889,444 L0,444 L0,0.619 Z"></path>
        <path id="path-3" d="M0,0.619 L156.889,0.619 L156.889,444 L0,444"></path>
        <path id="path-5" d="M0,0.619 L156.889,0.619 L156.889,444 L0,444"></path>
    </defs>
    <g id="Welcome" stroke="none" stroke-width="1" fill="none" fill-rule="evenodd" sketch:type="MSPage">
        <g id="Artboard-22" sketch:type="MSArtboardGroup" transform="translate(-2811.000000, -733.000000)">
            <g id="stew_1" sketch:type="MSLayerGroup" transform="translate(2811.000000, 733.000000)">
                <path d="M101.667,255 L59.667,255 L59.667,204 L101.667,204 L101.667,255 Z" id="Fill-1" fill="#E2E2E2" sketch:type="MSShapeGroup"></path>
                <path d="M104.2715,320.5762 L53.0895,320.0522 L54.6675,341.4052 L54.6675,341.4482 L57.5965,428.0002 L62.5885,428.0002 L67.0795,341.4732 L90.0815,341.5252 L94.5715,428.0002 L99.5625,428.0002 L103.0555,341.4592 L104.2715,320.5762 Z" id="Fill-2" fill="#F2D2A7" sketch:type="MSShapeGroup"></path>
                <path d="M113.667,349 L42.667,349 L42.667,300 L113.667,300 L113.667,349 Z" id="Fill-3" fill="#000000" sketch:type="MSShapeGroup"></path>
                <path d="M74.1475,172.3438 L74.5945,199.3868 L81.3345,210.9528 L86.2995,200.8948 L86.2995,172.3438" id="Fill-4" fill="#E8C599" sketch:type="MSShapeGroup"></path>
                <path d="M80.417,184.5938 L80.751,210.4788 L86.028,196.2558 L86.433,173.9898" id="Fill-5" fill="#DABB96" sketch:type="MSShapeGroup"></path>
                <path d="M70.667,193.2695 L70.667,200.5395 L81.004,209.7555 L89.741,200.6685 L89.292,192.2315 L70.667,193.2695 Z" id="Fill-6" fill="#D1D1D1" sketch:type="MSShapeGroup"></path>
                <path d="M70.6358,194.7188 L79.6538,196.2728 L89.3938,192.2318 L89.4478,194.5938 L79.8298,199.0688 L70.6978,197.0628 L70.6358,194.7188 Z" id="Fill-7" fill="#E23C2B" sketch:type="MSShapeGroup"></path>
                <path d="M70.667,199.125 L79.738,201.351 L89.604,196.92 L89.701,199.063 L80.226,203.882 L70.698,202.094 L70.667,199.125 Z" id="Fill-8" fill="#121419" sketch:type="MSShapeGroup"></path>
                <g id="Group-98">
                    <path d="M35.6934,198.8086 C35.6934,198.8086 42.8194,197.5216 62.1274,196.2226 L80.7514,254.0646 L99.3744,196.2226 C118.6814,197.5216 125.3514,199.5006 125.3514,199.5006 L117.8224,268.0426 L113.5384,316.5866 L92.1594,316.5466 L42.8094,316.4546 L41.5794,267.0046 L35.6934,198.8086 Z" id="Fill-9" fill="#1C1F27" sketch:type="MSShapeGroup"></path>
                    <path d="M83.0342,252.627 L93.4542,279.867 L92.2772,316.518 L81.9272,316.469 L42.8092,316.454 L41.0592,266.658 L36.2122,198.809 C36.2122,198.809 42.8192,197.522 62.1272,196.223 L83.0342,252.627 Z" id="Fill-11" fill="#121419" sketch:type="MSShapeGroup"></path>
                    <path d="M62.127,196.2227 L65.507,205.2127 L81.049,213.6077 L81.014,204.9907 L62.127,196.2227 Z" id="Fill-13" fill="#B5B5B5" sketch:type="MSShapeGroup"></path>
                    <path d="M99.374,196.2227 L96.014,206.3807 L81.001,213.6597 L81.014,204.9907 L99.374,196.2227 Z" id="Fill-15" fill="#E2E2E2" sketch:type="MSShapeGroup"></path>
                    <path d="M87.6191,199.9336 L85.4561,205.2996 L88.7441,213.4346 L89.9561,200.1076 L87.7061,199.5876 L87.6191,199.9336 Z" id="Fill-17" fill="#BC2B24" sketch:type="MSShapeGroup"></path>
                    <path d="M90.3887,197.6836 L89.8697,199.2426 L92.8117,202.7036 L97.0187,202.0066 L94.0237,198.9826 L90.3887,197.6836 Z" id="Fill-19" fill="#121419" sketch:type="MSShapeGroup"></path>
                    <path d="M91.3408,198.4199 C91.3408,199.8769 90.1588,201.0589 88.6998,201.0589 C87.2428,201.0589 86.0618,199.8769 86.0618,198.4199 C86.0618,196.9609 87.2428,195.7789 88.6998,195.7789 C90.1588,195.7789 91.3408,196.9609 91.3408,198.4199" id="Fill-21" fill="#BC2B24" sketch:type="MSShapeGroup"></path>
                    <path d="M37.6045,274.2998 L41.0075,266.0958 L41.8075,275.7008 L37.6045,274.2998 Z" id="Fill-23" fill="#CE9F67" sketch:type="MSShapeGroup"></path>
                    <path d="M51.8096,279.8496 C51.1826,282.2086 48.4486,283.5296 45.6996,282.8006 L41.2386,281.6156 C38.4906,280.8856 36.7696,278.3826 37.3956,276.0226 L37.4466,275.8316 C38.0726,273.4726 40.8096,272.1516 43.5576,272.8806 L48.0186,274.0666 C50.7656,274.7946 52.4856,277.2986 51.8606,279.6596 L51.8096,279.8496 Z" id="Fill-25" fill="#F2D2A7" sketch:type="MSShapeGroup"></path>
                    <path d="M39.4463,270.8594 C24.5913,268.3614 13.3623,255.3434 13.5633,239.8124 C13.7643,224.2794 21.8173,211.1974 36.7323,209.0824 L35.8213,198.8084 C14.5353,201.0024 2.3683,218.3004 2.0853,240.2154 C1.8013,262.1324 18.0663,280.4064 39.2883,283.1474 L39.4463,270.8594 Z" id="Fill-27" fill="#1C1F27" sketch:type="MSShapeGroup"></path>
                    <path d="M121.3652,274.2998 L117.9632,266.0958 L117.1632,275.7008 L121.3652,274.2998 Z" id="Fill-29" fill="#CE9F67" sketch:type="MSShapeGroup"></path>
                    <path d="M107.1611,279.8496 C107.7871,282.2086 110.5221,283.5296 113.2701,282.8006 L117.7311,281.6156 C120.4791,280.8856 122.2011,278.3826 121.5741,276.0226 L121.5231,275.8316 C120.8971,273.4726 118.1611,272.1516 115.4131,272.8806 L110.9521,274.0666 C108.2041,274.7946 106.4841,277.2986 107.1101,279.6596 L107.1611,279.8496 Z" id="Fill-31" fill="#F2D2A7" sketch:type="MSShapeGroup"></path>
                    <g id="Group-35">
                        <mask id="mask-2" sketch:name="Clip 34" fill="white">
                            <use xlink:href="#path-1"></use>
                        </mask>
                        <g id="Clip-34"></g>
                        <path d="M119.5234,270.8594 C134.3784,268.3614 145.6074,255.3434 145.4064,239.8124 C145.2064,224.2794 137.1534,211.1974 122.2374,209.0824 L123.3764,199.1254 C144.6614,201.3184 156.6024,218.3004 156.8854,240.2154 C157.1694,262.1324 140.9034,280.4064 119.6824,283.1474 L119.5234,270.8594 Z" id="Fill-33" fill="#1C1F27" sketch:type="MSShapeGroup" mask="url(#mask-2)"></path>
                    </g>
                    <path d="M117.667,266.666 L105.454,268.062 L117.084,270.5 L117.667,266.666 Z" id="Fill-36" fill="#121419" sketch:type="MSShapeGroup"></path>
                    <path d="M117.209,270.458 C117.209,270.458 109.909,274.313 105.454,268.063" id="Fill-38" fill="#121419" sketch:type="MSShapeGroup"></path>
                    <path d="M78.501,247.917 C78.501,261.058 67.849,271.711 54.708,271.711 C41.566,271.711 30.913,261.058 30.913,247.917 C30.913,234.775 41.566,224.123 54.708,224.123 C67.849,224.123 78.501,234.775 78.501,247.917" id="Fill-40" fill="#121419" sketch:type="MSShapeGroup"></path>
                    <path d="M131.501,247.417 C131.501,260.281 121.072,270.711 108.208,270.711 C95.343,270.711 84.913,260.281 84.913,247.417 C84.913,234.552 95.343,224.123 108.208,224.123 C121.072,224.123 131.501,234.552 131.501,247.417" id="Fill-42" fill="#121419" sketch:type="MSShapeGroup"></path>
                    <path d="M78.4727,249 C78.4907,249 78.5007,248.273 78.5007,247.894 C78.5007,234.752 67.8487,224.111 54.7077,224.111 C41.5667,224.111 30.9127,234.746 30.9127,247.888 C30.9127,248.268 30.9247,249 30.9427,249 L78.4727,249 Z" id="Fill-44" fill="#1C1F27" sketch:type="MSShapeGroup"></path>
                    <path d="M131.4736,248 C131.4906,247 131.5006,247.026 131.5006,246.655 C131.5006,233.79 121.0726,223.242 108.2076,223.242 C95.3426,223.242 84.9126,233.85 84.9126,246.715 C84.9126,247.086 84.9236,247 84.9406,248 L131.4736,248 Z" id="Fill-46" fill="#1C1F27" sketch:type="MSShapeGroup"></path>
                    <path d="M62.667,422 L62.667,422.007 L62.585,422 L56.397,422 L53.558,430.566 L35.5,444 L48.917,444 L61.917,438.25 L61.954,444 L62.667,444 L64.353,444 L64.667,444 L64.667,422 L62.667,422 Z" id="Fill-48" fill="#1C1F27" sketch:type="MSShapeGroup"></path>
                    <path d="M94.667,422 L94.667,422.007 L94.581,422 L100.769,422 L103.608,430.566 L121.666,444 L108.249,444 L95.249,438.25 L95.212,444 L94.499,444 L92.813,444 L92.667,444 L92.667,422 L94.667,422 Z" id="Fill-50" fill="#1C1F27" sketch:type="MSShapeGroup"></path>
                    <g id="Group-54">
                        <mask id="mask-4" sketch:name="Clip 53" fill="white">
                            <use xlink:href="#path-3"></use>
                        </mask>
                        <g id="Clip-53"></g>
                        <path d="M154.6152,35.5078 C154.6152,54.7758 138.9952,70.3968 119.7272,70.3968 C100.4602,70.3968 84.8392,54.7758 84.8392,35.5078 C84.8392,16.2398 100.4602,0.6188 119.7272,0.6188 C138.9952,0.6188 154.6152,16.2398 154.6152,35.5078" id="Fill-52" fill="#190E0B" sketch:type="MSShapeGroup" mask="url(#mask-4)"></path>
                    </g>
                    <path d="M152.334,89.9707 C152.334,133.3707 124.083,160.6667 81.649,160.6667 C39.216,160.6667 10.333,133.9087 10.333,90.5087 C10.333,47.1087 39.216,22.3337 81.649,22.3337 C124.083,22.3337 152.334,46.5707 152.334,89.9707" id="Fill-55" fill="#2C1913" sketch:type="MSShapeGroup"></path>
                    <path d="M21.335,95.6611 C21.334,95.6641 21.334,95.6641 21.333,95.6671 L21.334,95.6671 C21.334,95.6651 21.335,95.6631 21.335,95.6611" id="Fill-57" fill="#2C1913" sketch:type="MSShapeGroup"></path>
                    <path d="M142.667,83 C142.667,83 143.576,102.664 143.644,134.121 C143.688,154.72 102.089,184.677 81.476,184.637 C59.228,184.592 18.529,158.874 18.476,133.871 C18.406,101.587 17.905,103.674 19.167,97 C19.753,93.9 22.69,88.667 22.667,77.664 L142.667,83 Z" id="Fill-59" fill="#F2D2A7" sketch:type="MSShapeGroup"></path>
                    <path d="M28.1094,115.751 C28.1094,121.087 24.4794,125.412 20.0014,125.412 C15.5244,125.412 11.8934,121.087 11.8934,115.751 C11.8934,110.416 15.5244,102.334 20.0014,102.334 C24.4794,102.334 28.1094,110.416 28.1094,115.751" id="Fill-61" fill="#F2D2A7" sketch:type="MSShapeGroup"></path>
                    <path d="M19.792,125.127 C19.792,126.918 18.339,128.371 16.548,128.371 C14.757,128.371 13.304,126.918 13.304,125.127 C13.304,123.334 14.757,121.883 16.548,121.883 C18.339,121.883 19.792,123.334 19.792,125.127" id="Fill-63" fill="#B5B5B5" sketch:type="MSShapeGroup"></path>
                    <path d="M133.8858,115.751 C133.8858,121.087 137.5148,125.412 141.9928,125.412 C146.4708,125.412 150.1008,121.087 150.1008,115.751 C150.1008,110.416 146.4708,106.09 141.9928,106.09 C137.5148,106.09 133.8858,110.416 133.8858,115.751" id="Fill-65" fill="#F2D2A7" sketch:type="MSShapeGroup"></path>
                    <path d="M82.7979,123 L77.5319,123 L74.5369,138 C74.6859,142 77.3549,143.831 80.6349,143.831 C83.9159,143.831 86.5849,142 86.7339,138 L86.7469,138 L82.7979,123 Z" id="Fill-67" fill="#EDA769" sketch:type="MSShapeGroup"></path>
                    <path d="M135.7022,121.5 C135.7022,127.851 130.1102,133 123.2132,133 L110.1812,133 C103.2832,133 97.6912,127.851 97.6912,121.5 C97.6912,115.148 103.2832,110 110.1812,110 L123.2132,110 C130.1102,110 135.7022,115.148 135.7022,121.5" id="Fill-69" fill="#FFFFFF" sketch:type="MSShapeGroup"></path>
                    <path d="M118.9961,121.4785 C118.9961,122.7615 117.9581,123.7985 116.6761,123.7985 C115.3941,123.7985 114.3561,122.7615 114.3561,121.4785 C114.3561,120.1985 115.3941,119.1595 116.6761,119.1595 C117.9581,119.1595 118.9961,120.1985 118.9961,121.4785" id="Fill-71" fill="#000000" sketch:type="MSShapeGroup"></path>
                    <path d="M61.7022,121.5 C61.7022,127.851 56.1102,133 49.2132,133 L36.1802,133 C29.2832,133 23.6912,127.851 23.6912,121.5 C23.6912,115.148 29.2832,110 36.1802,110 L49.2132,110 C56.1102,110 61.7022,115.148 61.7022,121.5" id="Fill-73" fill="#FFFFFF" sketch:type="MSShapeGroup"></path>
                    <path d="M44.9961,121.4785 C44.9961,122.7615 43.9581,123.7985 42.6761,123.7985 C41.3941,123.7985 40.3561,122.7615 40.3561,121.4785 C40.3561,120.1985 41.3941,119.1595 42.6761,119.1595 C43.9581,119.1595 44.9961,120.1985 44.9961,121.4785" id="Fill-75" fill="#000000" sketch:type="MSShapeGroup"></path>
                    <path d="M134.667,140.6426 C134.667,142.4966 133.164,143.9996 131.31,143.9996 L126.024,143.9996 C124.17,143.9996 122.667,142.4966 122.667,140.6426 L122.667,140.3576 C122.667,138.5026 124.17,136.9996 126.024,136.9996 L131.31,136.9996 C133.164,136.9996 134.667,138.5026 134.667,140.3576 L134.667,140.6426 Z" id="Fill-77" fill="#E16C58" sketch:type="MSShapeGroup"></path>
                    <path d="M37.667,139.6426 C37.667,141.4966 36.164,142.9996 34.31,142.9996 L29.024,142.9996 C27.17,142.9996 25.667,141.4966 25.667,139.6426 L25.667,139.3576 C25.667,137.5026 27.17,135.9996 29.024,135.9996 L34.31,135.9996 C36.164,135.9996 37.667,137.5026 37.667,139.3576 L37.667,139.6426 Z" id="Fill-79" fill="#E16C58" sketch:type="MSShapeGroup"></path>
                    <path d="M108.5928,103.3516 C108.5228,104.2936 109.4148,105.1286 110.5888,105.2156 L124.0268,106.2596 C125.1978,106.3476 125.6668,105.6526 125.6668,104.7106 L125.6668,104.6936 C125.6668,103.7496 125.4538,102.9146 124.2818,102.8266 L110.5378,101.7826 C109.3658,101.6946 108.5108,102.3886 108.4408,103.3316 L108.5928,103.3516 Z" id="Fill-81" fill="#2C1913" sketch:type="MSShapeGroup"></path>
                    <path d="M49.501,104.1914 C49.589,105.1324 48.712,105.9844 47.54,106.0934 L34.23,107.3934 C33.061,107.5024 32.667,106.8154 32.667,105.8734 L32.667,105.8554 C32.667,104.9134 32.739,104.0754 33.911,103.9644 L47.579,102.6594 C48.749,102.5484 49.591,103.2274 49.679,104.1694 L49.501,104.1914 Z" id="Fill-83" fill="#2C1913" sketch:type="MSShapeGroup"></path>
                    <path d="M65.1553,154 C68.2923,158 74.2613,162.69 81.1103,162.69 C87.9593,162.69 93.9273,158 97.0653,154 L65.1553,154 Z" id="Fill-85" fill="#DD423A" sketch:type="MSShapeGroup"></path>
                    <path d="M148.792,125.127 C148.792,126.918 147.339,128.371 145.548,128.371 C143.757,128.371 142.304,126.918 142.304,125.127 C142.304,123.334 143.757,121.883 145.548,121.883 C147.339,121.883 148.792,123.334 148.792,125.127" id="Fill-87" fill="#B5B5B5" sketch:type="MSShapeGroup"></path>
                    <path d="M139.9004,97.0869 L101.3344,58.6669 L46.6674,59.6639 L20.6674,98.9979 L139.9004,97.0869 Z" id="Fill-89" fill="#F2D2A7" sketch:type="MSShapeGroup"></path>
                    <g id="Group-93">
                        <mask id="mask-6" sketch:name="Clip 92" fill="white">
                            <use xlink:href="#path-5"></use>
                        </mask>
                        <g id="Clip-92"></g>
                        <path d="M87.3887,22.0645 C85.9947,21.9145 84.5917,21.7955 83.1667,21.7495 C2.5007,19.1655 7.0007,93.1655 11.6427,109.2985 C11.4557,109.9395 12.5417,111.8745 9.5417,112.8745 C6.3727,113.7985 2.7327,110.2935 1.5267,106.3245 C1.4377,106.0315 0.6997,103.8125 0.4667,102.9165 C0.1667,104.0685 -0.0003,105.2945 -0.0003,106.5725 C-0.0003,113.0685 3.1897,116.4995 8.3587,116.4995 C11.9707,116.4995 16.6677,110.3345 21.3327,95.6665 C21.3697,95.5515 21.3307,95.6075 21.3337,95.6665 C68.1747,93.0385 107.2137,64.4565 107.2297,64.4995 C106.2897,47.6215 98.2407,33.1035 87.3887,22.0645" id="Fill-91" fill="#4C321B" sketch:type="MSShapeGroup" mask="url(#mask-6)"></path>
                    </g>
                    <path d="M21.334,95.667 L21.333,95.667 C21.338,95.776 21.336,95.723 21.334,95.667" id="Fill-94" fill="#4C321B" sketch:type="MSShapeGroup"></path>
                    <path d="M107.2295,64.5 L143.2925,106 L148.6675,102.875 L145.7925,77.25 L117.7925,63.25 L107.2295,64.5 Z" id="Fill-96" fill="#2C1913" sketch:type="MSShapeGroup"></path>
                </g>
            </g>
        </g>
    </g>
</svg>