<?xml version="1.0" encoding="UTF-8" standalone="no"?>
<svg width="162px" height="421px" viewBox="0 0 162 421" version="1.1" xmlns="http://www.w3.org/2000/svg" xmlns:xlink="http://www.w3.org/1999/xlink" xmlns:sketch="http://www.bohemiancoding.com/sketch/ns">
    <!-- Generator: Sketch 3.4.4 (17249) - http://www.bohemiancoding.com/sketch -->
    <title>stew_2</title>
    <desc>Created with Sketch.</desc>
    <defs>
        <path id="path-1" d="M0,0.949 L161.324,0.949 L161.324,422 L0,422 L0,0.949 Z"></path>
    </defs>
    <g id="Welcome" stroke="none" stroke-width="1" fill="none" fill-rule="evenodd" sketch:type="MSPage">
        <g id="Artboard-22" sketch:type="MSArtboardGroup" transform="translate(-2540.000000, -756.000000)">
            <g id="stew_2" sketch:type="MSLayerGroup" transform="translate(2540.000000, 755.000000)">
                <path d="M2.3004,125.2256 C2.3004,125.2256 13.6934,126.8126 18.6714,83.5686 C20.1734,79.2646 51.4414,146.4886 51.4414,146.4886 C51.4414,146.4886 11.3374,142.8976 2.3004,125.2256" id="Fill-1" fill="#C24026" sketch:type="MSShapeGroup"></path>
                <path d="M157.609,143.3223 C157.609,143.3223 141.459,141.7833 146.466,98.3023 C145.921,93.7393 103.096,151.8583 103.096,151.8583 C103.096,151.8583 144.086,158.4883 157.609,143.3223" id="Fill-3" fill="#C24026" sketch:type="MSShapeGroup"></path>
                <mask id="mask-2" sketch:name="Clip 6" fill="white">
                    <use xlink:href="#path-1"></use>
                </mask>
                <g id="Clip-6"></g>
                <path d="M99.586,233 L57.586,233 L57.586,182 L99.586,182 L99.586,233 Z" id="Fill-5" fill="#E2E2E2" sketch:type="MSShapeGroup" mask="url(#mask-2)"></path>
                <path d="M102.1901,298.5762 L51.0081,298.0522 L52.5861,319.4052 L52.5861,319.4482 L55.5151,406.0002 L60.5071,406.0002 L64.9981,319.4732 L88.0001,319.5252 L92.4901,406.0002 L97.4811,406.0002 L100.9741,319.4592 L102.1901,298.5762 Z" id="Fill-7" fill="#F2D2A7" sketch:type="MSShapeGroup" mask="url(#mask-2)"></path>
                <path d="M111.586,327 L40.586,327 L40.586,278 L111.586,278 L111.586,327 Z" id="Fill-8" fill="#000000" sketch:type="MSShapeGroup" mask="url(#mask-2)"></path>
                <path d="M72.0661,150.3438 L72.5131,177.3868 L79.2531,188.9528 L84.2181,178.8948 L84.2181,150.3438" id="Fill-9" fill="#E8C599" sketch:type="MSShapeGroup" mask="url(#mask-2)"></path>
                <path d="M78.3356,162.5938 L78.6696,188.4788 L83.9466,174.2558 L84.3516,151.9898" id="Fill-10" fill="#DABB96" sketch:type="MSShapeGroup" mask="url(#mask-2)"></path>
                <path d="M68.5856,171.2695 L68.5856,178.5395 L78.9226,187.7555 L87.6596,178.6685 L87.2106,170.2315 L68.5856,171.2695 Z" id="Fill-11" fill="#D1D1D1" sketch:type="MSShapeGroup" mask="url(#mask-2)"></path>
                <path d="M68.5544,172.7188 L77.5724,174.2728 L87.3124,170.2318 L87.3664,172.5938 L77.7484,177.0688 L68.6164,175.0628 L68.5544,172.7188 Z" id="Fill-12" fill="#E23C2B" sketch:type="MSShapeGroup" mask="url(#mask-2)"></path>
                <path d="M68.5856,177.125 L77.6566,179.351 L87.5226,174.92 L87.6196,177.063 L78.1446,181.882 L68.6166,180.094 L68.5856,177.125 Z" id="Fill-13" fill="#121419" sketch:type="MSShapeGroup" mask="url(#mask-2)"></path>
                <path d="M33.612,176.8086 C33.612,176.8086 40.738,175.5216 60.046,174.2226 L78.67,232.0646 L97.293,174.2226 C116.6,175.5216 123.27,177.5006 123.27,177.5006 L115.741,246.0426 L111.457,294.5866 L90.078,294.5466 L40.728,294.4546 L39.498,245.0046 L33.612,176.8086 Z" id="Fill-14" fill="#1C1F27" sketch:type="MSShapeGroup" mask="url(#mask-2)"></path>
                <path d="M80.9529,230.627 L91.3729,257.867 L90.1959,294.518 L79.8459,294.469 L40.7279,294.454 L38.9779,244.658 L34.1309,176.809 C34.1309,176.809 40.7379,175.522 60.0459,174.223 L80.9529,230.627 Z" id="Fill-15" fill="#121419" sketch:type="MSShapeGroup" mask="url(#mask-2)"></path>
                <path d="M60.0456,174.2227 L63.4256,183.2127 L78.9676,191.6077 L78.9326,182.9907 L60.0456,174.2227 Z" id="Fill-16" fill="#B5B5B5" sketch:type="MSShapeGroup" mask="url(#mask-2)"></path>
                <path d="M97.2926,174.2227 L93.9326,184.3807 L78.9196,191.6597 L78.9326,182.9907 L97.2926,174.2227 Z" id="Fill-17" fill="#E2E2E2" sketch:type="MSShapeGroup" mask="url(#mask-2)"></path>
                <path d="M85.5378,177.9336 L83.3748,183.2996 L86.6628,191.4346 L87.8748,178.1076 L85.6248,177.5876 L85.5378,177.9336 Z" id="Fill-18" fill="#BC2B24" sketch:type="MSShapeGroup" mask="url(#mask-2)"></path>
                <path d="M88.3073,175.6836 L87.7883,177.2426 L90.7303,180.7036 L94.9373,180.0066 L91.9423,176.9826 L88.3073,175.6836 Z" id="Fill-19" fill="#121419" sketch:type="MSShapeGroup" mask="url(#mask-2)"></path>
                <path d="M89.2594,176.4199 C89.2594,177.8769 88.0774,179.0589 86.6184,179.0589 C85.1614,179.0589 83.9804,177.8769 83.9804,176.4199 C83.9804,174.9609 85.1614,173.7789 86.6184,173.7789 C88.0774,173.7789 89.2594,174.9609 89.2594,176.4199" id="Fill-20" fill="#BC2B24" sketch:type="MSShapeGroup" mask="url(#mask-2)"></path>
                <path d="M35.5231,252.2998 L38.9261,244.0958 L39.7261,253.7008 L35.5231,252.2998 Z" id="Fill-21" fill="#CE9F67" sketch:type="MSShapeGroup" mask="url(#mask-2)"></path>
                <path d="M49.7282,257.8496 C49.1012,260.2086 46.3672,261.5296 43.6182,260.8006 L39.1572,259.6156 C36.4092,258.8856 34.6882,256.3826 35.3142,254.0226 L35.3652,253.8316 C35.9912,251.4726 38.7282,250.1516 41.4762,250.8806 L45.9372,252.0666 C48.6842,252.7946 50.4042,255.2986 49.7792,257.6596 L49.7282,257.8496 Z" id="Fill-22" fill="#F2D2A7" sketch:type="MSShapeGroup" mask="url(#mask-2)"></path>
                <path d="M37.3649,248.8594 C22.5099,246.3614 11.2809,233.3434 11.4819,217.8124 C11.6829,202.2794 19.7359,189.1974 34.6509,187.0824 L33.7399,176.8084 C12.4539,179.0024 0.2869,196.3004 0.0039,218.2154 C-0.2801,240.1324 15.9849,258.4064 37.2069,261.1474 L37.3649,248.8594 Z" id="Fill-23" fill="#1C1F27" sketch:type="MSShapeGroup" mask="url(#mask-2)"></path>
                <path d="M119.2838,252.2998 L115.8818,244.0958 L115.0818,253.7008 L119.2838,252.2998 Z" id="Fill-24" fill="#CE9F67" sketch:type="MSShapeGroup" mask="url(#mask-2)"></path>
                <path d="M105.0797,257.8496 C105.7057,260.2086 108.4407,261.5296 111.1887,260.8006 L115.6497,259.6156 C118.3977,258.8856 120.1197,256.3826 119.4927,254.0226 L119.4417,253.8316 C118.8157,251.4726 116.0797,250.1516 113.3317,250.8806 L108.8707,252.0666 C106.1227,252.7946 104.4027,255.2986 105.0287,257.6596 L105.0797,257.8496 Z" id="Fill-25" fill="#F2D2A7" sketch:type="MSShapeGroup" mask="url(#mask-2)"></path>
                <path d="M117.442,248.8594 C132.297,246.3614 143.526,233.3434 143.325,217.8124 C143.125,202.2794 135.072,189.1974 120.156,187.0824 L121.295,177.1254 C142.58,179.3184 154.521,196.3004 154.804,218.2154 C155.088,240.1324 138.822,258.4064 117.601,261.1474 L117.442,248.8594 Z" id="Fill-26" fill="#1C1F27" sketch:type="MSShapeGroup" mask="url(#mask-2)"></path>
                <path d="M115.5856,244.666 L103.3726,246.062 L115.0026,248.5 L115.5856,244.666 Z" id="Fill-27" fill="#121419" sketch:type="MSShapeGroup" mask="url(#mask-2)"></path>
                <path d="M115.1276,248.458 C115.1276,248.458 107.8276,252.313 103.3726,246.063" id="Fill-28" fill="#121419" sketch:type="MSShapeGroup" mask="url(#mask-2)"></path>
                <path d="M76.4196,225.917 C76.4196,239.058 65.7676,249.711 52.6266,249.711 C39.4846,249.711 28.8316,239.058 28.8316,225.917 C28.8316,212.775 39.4846,202.123 52.6266,202.123 C65.7676,202.123 76.4196,212.775 76.4196,225.917" id="Fill-29" fill="#121419" sketch:type="MSShapeGroup" mask="url(#mask-2)"></path>
                <path d="M129.4196,225.417 C129.4196,238.281 118.9906,248.711 106.1266,248.711 C93.2616,248.711 82.8316,238.281 82.8316,225.417 C82.8316,212.552 93.2616,202.123 106.1266,202.123 C118.9906,202.123 129.4196,212.552 129.4196,225.417" id="Fill-30" fill="#121419" sketch:type="MSShapeGroup" mask="url(#mask-2)"></path>
                <path d="M76.3913,227 C76.4093,227 76.4193,226.273 76.4193,225.894 C76.4193,212.752 65.7673,202.111 52.6263,202.111 C39.4853,202.111 28.8313,212.746 28.8313,225.888 C28.8313,226.268 28.8433,227 28.8613,227 L76.3913,227 Z" id="Fill-31" fill="#1C1F27" sketch:type="MSShapeGroup" mask="url(#mask-2)"></path>
                <path d="M129.3922,226 C129.4092,225 129.4192,225.026 129.4192,224.655 C129.4192,211.79 118.9912,201.242 106.1262,201.242 C93.2612,201.242 82.8312,211.85 82.8312,224.715 C82.8312,225.086 82.8422,225 82.8592,226 L129.3922,226 Z" id="Fill-32" fill="#1C1F27" sketch:type="MSShapeGroup" mask="url(#mask-2)"></path>
                <path d="M60.5856,400 L60.5856,400.007 L60.5036,400 L54.3156,400 L51.4766,408.566 L33.4186,422 L46.8356,422 L59.8356,416.25 L59.8726,422 L60.5856,422 L62.2716,422 L62.5856,422 L62.5856,400 L60.5856,400 Z" id="Fill-33" fill="#1C1F27" sketch:type="MSShapeGroup" mask="url(#mask-2)"></path>
                <path d="M92.5856,400 L92.5856,400.007 L92.4996,400 L98.6876,400 L101.5266,408.566 L119.5846,422 L106.1676,422 L93.1676,416.25 L93.1306,422 L92.4176,422 L90.7316,422 L90.5856,422 L90.5856,400 L92.5856,400 Z" id="Fill-34" fill="#1C1F27" sketch:type="MSShapeGroup" mask="url(#mask-2)"></path>
                <path d="M159.5026,83.3389 C150.8396,125.8669 117.7086,146.9739 76.1286,138.5039 C34.5496,130.0329 11.5886,98.0479 20.2516,55.5229 C28.9146,12.9949 62.1616,-5.5141 103.7416,2.9549 C145.3196,11.4249 168.1656,40.8129 159.5026,83.3389" id="Fill-35" fill="#C24026" sketch:type="MSShapeGroup" mask="url(#mask-2)"></path>
                <path d="M151.4215,74.5801 L152.1515,74.7281 C140.6755,131.6951 150.4165,94.2881 140.8355,124.2501 C133.9975,145.6341 92.4425,159.8201 72.2515,155.6671 C50.4605,151.1821 16.8455,127.6131 20.3355,100.7501 C24.4945,68.7361 25.0445,69.9331 27.6125,63.6451 C28.8045,60.7251 32.7285,56.1831 34.9015,45.3971 L151.4215,74.5801 Z" id="Fill-36" fill="#F2D2A7" sketch:type="MSShapeGroup" mask="url(#mask-2)"></path>
                <path d="M32.6325,83.8047 C31.5665,89.0337 27.1475,92.5467 22.7585,91.6527 C18.3715,90.7587 15.6775,85.7967 16.7415,80.5687 C17.8085,75.3407 22.2285,71.8267 26.6145,72.7197 C31.0035,73.6137 33.6965,78.5767 32.6325,83.8047" id="Fill-37" fill="#F2D2A7" sketch:type="MSShapeGroup" mask="url(#mask-2)"></path>
                <path d="M22.611,91.332 C22.254,93.087 20.539,94.221 18.785,93.863 C17.029,93.506 15.895,91.792 16.253,90.037 C16.61,88.279 18.324,87.148 20.079,87.505 C21.835,87.863 22.968,89.574 22.611,91.332" id="Fill-38" fill="#F6F6F6" sketch:type="MSShapeGroup" mask="url(#mask-2)"></path>
                <path d="M136.2799,104.918 C135.2149,110.147 137.9069,115.11 142.2959,116.004 C146.6829,116.897 151.1029,113.384 152.1689,108.155 C153.2329,102.928 150.5399,97.964 146.1519,97.07 C141.7629,96.176 137.3459,99.69 136.2799,104.918" id="Fill-39" fill="#F2D2A7" sketch:type="MSShapeGroup" mask="url(#mask-2)"></path>
                <path d="M64.7439,97.6152 C63.5989,103.2392 57.3789,106.5902 50.8219,105.2552 L38.4329,102.7312 C31.8749,101.3962 27.4629,95.8782 28.6079,90.2532 C29.7539,84.6292 35.9729,81.2772 42.5319,82.6132 L54.9199,85.1362 C61.4779,86.4722 65.8899,91.9902 64.7439,97.6152" id="Fill-40" fill="#FFFFFF" sketch:type="MSShapeGroup" mask="url(#mask-2)"></path>
                <path d="M48.9694,93.8555 C48.7054,95.1445 47.5074,95.9885 46.2874,95.7385 C45.0704,95.4915 44.2964,94.2475 44.5584,92.9565 C44.8224,91.6675 46.0214,90.8245 47.2394,91.0715 C48.4574,91.3205 49.2314,92.5665 48.9694,93.8555" id="Fill-41" fill="#000000" sketch:type="MSShapeGroup" mask="url(#mask-2)"></path>
                <path d="M137.7438,111.6152 C136.5988,117.2392 130.3788,120.5902 123.8218,119.2552 L111.4338,116.7312 C104.8748,115.3962 100.4628,109.8782 101.6078,104.2532 C102.7538,98.6292 108.9728,95.2772 115.5318,96.6132 L127.9198,99.1362 C134.4778,100.4722 138.8898,105.9902 137.7438,111.6152" id="Fill-42" fill="#FFFFFF" sketch:type="MSShapeGroup" mask="url(#mask-2)"></path>
                <path d="M120.9695,107.8555 C120.7055,109.1445 119.5075,109.9885 118.2875,109.7385 C117.0705,109.4915 116.2965,108.2475 116.5585,106.9565 C116.8215,105.6675 118.0215,104.8245 119.2395,105.0715 C120.4575,105.3205 121.2315,106.5665 120.9695,107.8555" id="Fill-43" fill="#000000" sketch:type="MSShapeGroup" mask="url(#mask-2)"></path>
                <path d="M129.0768,133.4648 C128.7068,135.2818 126.9338,136.4548 125.1168,136.0848 L119.9368,135.0288 C118.1208,134.6598 116.9478,132.8868 117.3178,131.0688 L117.3748,130.7898 C117.7458,128.9728 119.5168,127.8008 121.3358,128.1708 L126.5138,129.2258 C128.3308,129.5968 129.5038,131.3688 129.1338,133.1858 L129.0768,133.4648 Z" id="Fill-44" fill="#E16C58" sketch:type="MSShapeGroup" mask="url(#mask-2)"></path>
                <path d="M37.2282,114.123 C36.8582,115.94 35.0852,117.113 33.2682,116.743 L28.0892,115.688 C26.2732,115.317 25.0992,113.545 25.4702,111.728 L25.5272,111.448 C25.8972,109.631 27.6692,108.458 29.4862,108.829 L34.6652,109.884 C36.4832,110.254 37.6552,112.026 37.2852,113.844 L37.2282,114.123 Z" id="Fill-45" fill="#E16C58" sketch:type="MSShapeGroup" mask="url(#mask-2)"></path>
                <path d="M56.944,79.0049 C56.926,79.9499 55.96,80.6989 54.783,80.6759 L41.19,80.4799 C40.015,80.4559 39.586,79.7299 39.586,78.7929 L39.586,78.7749 C40.586,77.8389 40.08,77.0149 41.255,77.0359 L55.095,77.2679 C56.27,77.2889 57.087,78.0569 57.068,79.0019 L56.944,79.0049 Z" id="Fill-46" fill="#935F4E" sketch:type="MSShapeGroup" mask="url(#mask-2)"></path>
                <path d="M117.6432,90.9287 C117.3162,91.8167 117.9462,92.8647 119.0512,93.2697 L131.5842,97.9327 C132.6882,98.3377 133.2442,97.7737 133.4852,96.8627 L133.4902,96.8447 C133.7312,95.9347 133.8742,95.1057 132.7712,94.6987 L119.8912,89.9397 C118.7882,89.5327 117.8022,89.9737 117.4762,90.8617 L117.6432,90.9287 Z" id="Fill-47" fill="#935F4E" sketch:type="MSShapeGroup" mask="url(#mask-2)"></path>
                <path d="M62.1774,128.2656 C64.1974,132.6146 68.6054,138.1296 74.6984,139.3696 C80.7904,140.6116 87.0034,137.2596 90.5654,134.0486 L62.1774,128.2656 Z" id="Fill-48" fill="#DD423A" sketch:type="MSShapeGroup" mask="url(#mask-2)"></path>
                <path d="M149.0143,117.0811 C148.6573,118.8361 146.9433,119.9701 145.1873,119.6131 C143.4333,119.2551 142.2983,117.5411 142.6563,115.7861 C143.0143,114.0291 144.7283,112.8971 146.4833,113.2551 C148.2383,113.6121 149.3723,115.3241 149.0143,117.0811" id="Fill-49" fill="#F6F6F6" sketch:type="MSShapeGroup" mask="url(#mask-2)"></path>
                <path d="M145.8981,87.8311 L115.7781,42.4851 L62.0111,32.5511 L28.6831,65.9031 L145.8981,87.8311 Z" id="Fill-50" fill="#F2D2A7" sketch:type="MSShapeGroup" mask="url(#mask-2)"></path>
                <path d="M135.0807,37.0625 C135.0807,37.0625 111.6547,61.8865 32.7747,45.8185 C34.2547,43.5675 31.7227,10.9055 135.0807,37.0625" id="Fill-51" fill="#C24026" sketch:type="MSShapeGroup" mask="url(#mask-2)"></path>
                <path d="M24.445,71.6748 L39.861,38.5868 L30.933,39.8298 L24.445,71.6748 Z" id="Fill-52" fill="#C24026" sketch:type="MSShapeGroup" mask="url(#mask-2)"></path>
                <path d="M117.2077,44.6475 C117.2077,44.6475 111.9087,73.1645 155.0967,89.1055 C155.0967,89.1055 177.6517,61.0435 117.2077,44.6475" id="Fill-53" fill="#C24026" sketch:type="MSShapeGroup" mask="url(#mask-2)"></path>
                <path d="M101.9586,24.6934 C101.9586,24.6934 50.2806,71.0974 23.0116,73.0884 C30.0696,44.4394 49.0826,27.2764 49.0826,27.2764 L101.9586,24.6934 Z" id="Fill-54" fill="#C24026" sketch:type="MSShapeGroup" mask="url(#mask-2)"></path>
                <path d="M20.0856,73.25 C20.0856,73.25 25.3356,78 117.8356,46 C123.3356,38.75 67.0856,36.5 67.0856,36.5 L20.0856,73.25 Z" id="Fill-55" fill="#C24026" sketch:type="MSShapeGroup" mask="url(#mask-2)"></path>
                <path d="M80.9186,98.333 L74.5856,112 C74.5856,112 76.0886,117.019 77.5856,117.333 C79.2166,117.676 83.2516,115 83.2516,115 L84.5856,99.333 L80.9186,98.333 Z" id="Fill-56" fill="#EDA769" sketch:type="MSShapeGroup" mask="url(#mask-2)"></path>
                <path d="M22.2516,73.001 C22.2516,73.001 115.6686,63.833 127.3356,52.5 C139.0026,41.167 32.5856,28 32.5856,28 L22.2516,73.001 Z" id="Fill-57" fill="#C24026" sketch:type="MSShapeGroup" mask="url(#mask-2)"></path>
                <path d="M18.5856,76.5 C18.5856,76.5 20.0016,74.744 21.0856,74.75 C33.2596,74.817 107.2966,74.446 118.0856,57 C129.8356,38 137.8356,17.25 137.8356,17.25 C137.8356,17.25 25.3356,25.5 18.5856,76.5" id="Fill-58" fill="#F06B39" sketch:type="MSShapeGroup" mask="url(#mask-2)"></path>
            </g>
        </g>
    </g>
</svg>