<?xml version="1.0" encoding="UTF-8" standalone="no"?>
<svg width="558px" height="332px" viewBox="0 0 558 332" version="1.1" xmlns="http://www.w3.org/2000/svg" xmlns:xlink="http://www.w3.org/1999/xlink" xmlns:sketch="http://www.bohemiancoding.com/sketch/ns">
    <!-- Generator: Sketch 3.4.4 (17249) - http://www.bohemiancoding.com/sketch -->
    <title>bubble_ copy</title>
    <desc>Created with Sketch.</desc>
    <defs></defs>
    <g id="Welcome" stroke="none" stroke-width="1" fill="none" fill-rule="evenodd" sketch:type="MSPage">
        <g id="Artboard-19-Copy" sketch:type="MSArtboardGroup" transform="translate(-364.000000, -163.000000)">
            <g id="bubble_-copy" sketch:type="MSLayerGroup" transform="translate(360.000000, 163.000000)">
                <path d="M48.82456,139.864619 C72.1262679,65.8053368 177.067032,9.92139734 303,9.92139734 C446.04175,9.92139734 562,82.0211484 562,170.960699 C562,259.900249 446.04175,332 303,332 C166.613082,332 54.8482358,266.452887 44.7440097,183.259179 L5.77985524,112.865498 L48.82456,139.864619 Z" id="Oval-4" fill="#C5C9CA" sketch:type="MSShapeGroup"></path>
                <path d="M47.7068661,134.711992 C68.563037,58.7756262 174.925382,0.974769485 303,0.974769485 C446.04175,0.974769485 562,73.0745206 562,162.014071 C562,250.953621 446.04175,323.053372 303,323.053372 C168.264194,323.053372 57.5579146,259.083691 45.1555384,177.326159 L4.03006143,112.890223 L47.7068661,134.711992 Z" id="Oval-4-Copy" fill="#FFFFFF" sketch:type="MSShapeGroup"></path>
            </g>
        </g>
    </g>
</svg>