<?xml version="1.0" encoding="UTF-8" standalone="no"?>
<svg width="314px" height="243px" viewBox="0 0 314 243" version="1.1" xmlns="http://www.w3.org/2000/svg" xmlns:xlink="http://www.w3.org/1999/xlink" xmlns:sketch="http://www.bohemiancoding.com/sketch/ns">
    <!-- Generator: Sketch 3.4.4 (17249) - http://www.bohemiancoding.com/sketch -->
    <title>bubble__</title>
    <desc>Created with Sketch.</desc>
    <defs></defs>
    <g id="Welcome" stroke="none" stroke-width="1" fill="none" fill-rule="evenodd" sketch:type="MSPage">
        <g id="m_advice_-copy" sketch:type="MSArtboardGroup" transform="translate(-3.000000, -188.000000)">
            <g id="bubble__" sketch:type="MSLayerGroup" transform="translate(3.000000, 188.000000)">
                <path d="M156.86174,242.887769 C302.000002,242.887767 313.723477,199.93685 313.723477,133.246575 C313.723477,66.5563004 302.000002,25.246686 156.86174,25.246686 C11.7234781,25.246686 -1.13686838e-13,66.5563004 -1.13686838e-13,133.246575 C-1.13686838e-13,199.93685 11.7234781,242.887771 156.86174,242.887769 Z" id="Oval-4-Copy" fill="#C4C9CA" sketch:type="MSShapeGroup" transform="translate(156.861738, 134.067227) scale(1, -1) rotate(-180.000000) translate(-156.861738, -134.067227) "></path>
                <path d="M183.770797,20.7769157 C303.489603,25.7833063 313.723477,65.9370613 313.723477,128.246575 C313.723477,194.93685 302.000002,237.887767 156.86174,237.887769 C11.7234781,237.887771 -1.13686838e-13,194.93685 -1.13686838e-13,128.246575 C-1.13686838e-13,61.5563004 11.7234781,20.246686 156.86174,20.246686 C157.183226,20.246686 157.504058,20.2468886 157.824236,20.2472938 L144.291884,2.13162821e-14 L183.770754,20.7769139 Z" id="Oval-4-Copy-2" fill="#FFFFFF" sketch:type="MSShapeGroup" transform="translate(156.861738, 118.943884) scale(1, -1) rotate(-180.000000) translate(-156.861738, -118.943884) "></path>
            </g>
        </g>
    </g>
</svg>