<?xml version="1.0" encoding="UTF-8" standalone="no"?>
<svg width="461px" height="360px" viewBox="0 0 461 360" version="1.1" xmlns="http://www.w3.org/2000/svg" xmlns:xlink="http://www.w3.org/1999/xlink" xmlns:sketch="http://www.bohemiancoding.com/sketch/ns">
    <!-- Generator: Sketch 3.4.4 (17249) - http://www.bohemiancoding.com/sketch -->
    <title>door_</title>
    <desc>Created with Sketch.</desc>
    <defs></defs>
    <g id="Welcome" stroke="none" stroke-width="1" fill="none" fill-rule="evenodd" sketch:type="MSPage">
        <g id="advice_-copy-4" sketch:type="MSArtboardGroup" transform="translate(-335.000000, -289.000000)">
            <g id="door_" sketch:type="MSLayerGroup" transform="translate(335.000000, 289.000000)">
                <g id="Group-24" sketch:type="MSShapeGroup">
                    <path d="M451,292.5654 C451,311.5834 435.582,327.0004 416.565,327.0004 L256.435,327.0004 C237.417,327.0004 222,311.5834 222,292.5654 L222,43.4344 C222,24.4174 237.417,9.0004 256.435,9.0004 L416.565,9.0004 C435.582,9.0004 451,24.4174 451,43.4344 L451,292.5654 Z" id="Fill-2" fill="#5FA283"></path>
                    <path d="M447,254 L447,15 L313,15 L313,254 L313.747,254 C316.461,268 326.031,281.068 337.422,281.068 C346.92,281.068 355.147,273.002 359.194,261.283 C363.241,273.002 371.468,281.008 380.966,281.008 C390.172,281.008 398.186,273.457 402.355,262.324 C406.525,273.457 414.539,281.073 423.745,281.073 C435.136,281.073 444.706,268 447.42,254 L447,254 Z" id="Fill-4" fill="#346B6B"></path>
                    <path d="M404,254 L404,15 L270,15 L270,254 L270.747,254 C273.461,268 283.031,281.068 294.422,281.068 C303.92,281.068 312.147,273.002 316.194,261.283 C320.241,273.002 328.468,281.008 337.966,281.008 C347.172,281.008 355.186,273.457 359.355,262.324 C363.525,273.457 371.539,281.073 380.745,281.073 C392.136,281.073 401.706,268 404.42,254 L404,254 Z" id="Fill-6" fill="#346B6B"></path>
                    <path d="M360,254 L360,15 L226,19.905 L226,254 L226.747,254 C229.461,268 239.031,281.068 250.422,281.068 C259.92,281.068 268.147,273.002 272.194,261.283 C276.241,273.002 284.468,281.008 293.966,281.008 C303.172,281.008 311.186,273.457 315.355,262.324 C319.525,273.457 327.539,281.073 336.745,281.073 C348.136,281.073 357.706,268 360.42,254 L360,254 Z" id="Fill-8" fill="#346B6B"></path>
                    <path d="M454,26.5752 C454,36.8342 401.841,45.1502 337.5,45.1502 C273.159,45.1502 221,36.8342 221,26.5752 C221,16.3162 273.159,8.0002 337.5,8.0002 C401.841,8.0002 454,16.3162 454,26.5752" id="Fill-10" fill="#2E5958"></path>
                    <path d="M443,43.6143 C443,29.4683 431.532,18.0003 417.386,18.0003 L256.614,18.0003 C242.468,18.0003 231,29.4683 231,43.6143 L231,293.3853 C231,307.5323 242.468,319.0003 256.614,319.0003 L417.386,319.0003 C431.532,319.0003 443,307.5323 443,293.3853 L443,43.6143 Z M461,292.7453 C461,316.6353 441.634,336.0003 417.745,336.0003 L257.255,336.0003 C233.366,336.0003 214,316.6353 214,292.7453 L214,43.2553 C214,19.3653 233.366,0.0003 257.255,0.0003 L417.745,0.0003 C441.634,0.0003 461,19.3653 461,43.2553 L461,292.7453 Z" id="Fill-12" fill="#D5D5D5"></path>
                    <path d="M451,360 L223,360 L223,350 L451,350 L451,360 Z" id="Fill-14" fill="#88A39B"></path>
                    <path d="M229,296.5654 C229,315.5834 213.583,331.0004 194.565,331.0004 L34.435,331.0004 C15.417,331.0004 0,315.5834 0,296.5654 L0,47.4344 C0,28.4174 15.417,13.0004 34.435,13.0004 L194.565,13.0004 C213.583,13.0004 229,28.4174 229,47.4344 L229,296.5654 Z" id="Fill-16" fill="#88A39B"></path>
                    <path d="M229,292.5654 C229,311.5834 213.583,327.0004 194.565,327.0004 L34.435,327.0004 C15.417,327.0004 0,311.5834 0,292.5654 L0,43.4344 C0,24.4174 15.417,9.0004 34.435,9.0004 L194.565,9.0004 C213.583,9.0004 229,24.4174 229,43.4344 L229,292.5654 Z" id="Fill-17" fill="#D5D5D5"></path>
                    <path d="M62,209.5 C62,213.643 57.411,217 51.75,217 C46.089,217 41.5,213.643 41.5,209.5 C41.5,205.357 46.089,202 51.75,202 C57.411,202 62,205.357 62,209.5" id="Fill-18" fill="#7C7C7C"></path>
                    <path d="M52,207 C52,209.762 49.762,212 47,212 C44.238,212 42,209.762 42,207 L42,156 C42,153.238 44.238,151 47,151 C49.762,151 52,153.238 52,156 L52,207 Z" id="Fill-19" fill="#F6F6F6"></path>
                    <path d="M62,207 C62,209.762 59.762,212 57,212 C54.238,212 52,209.762 52,207 L52,156 C52,153.238 54.238,151 57,151 C59.762,151 62,153.238 62,156 L62,207 Z" id="Fill-20" fill="#B5B5B5"></path>
                    <path d="M423,334 L250,334 L250,317 L423,317 L423,334 Z" id="Fill-21" fill="#918A7E"></path>
                    <path d="M413,317 L259,317 L259,301 L413,301 L413,317 Z" id="Fill-22" fill="#B7AE9E"></path>
                    <path d="M443,350 L232,350 L232,333 L443,333 L443,350 Z" id="Fill-23" fill="#7C7C7C"></path>
                </g>
            </g>
        </g>
    </g>
</svg>