<?xml version="1.0" encoding="UTF-8" standalone="no"?>
<svg width="250px" height="60px" viewBox="0 0 250 60" version="1.1" xmlns="http://www.w3.org/2000/svg" xmlns:xlink="http://www.w3.org/1999/xlink" xmlns:sketch="http://www.bohemiancoding.com/sketch/ns">
    <!-- Generator: Sketch 3.4.4 (17249) - http://www.bohemiancoding.com/sketch -->
    <title>[AS] Logo Landscape</title>
    <desc>Created with Sketch.</desc>
    <defs>
        <path id="path-1" d="M0.06,0 L249.2,0 L249.2,59.94 L0.06,59.94 L0.06,0 Z"></path>
    </defs>
    <g id="Welcome" stroke="none" stroke-width="1" fill="none" fill-rule="evenodd" sketch:type="MSPage">
        <g id="[AS]-Logo-Landscape" sketch:type="MSLayerGroup">
            <g id="Group-3">
                <mask id="mask-2" sketch:name="Clip 2" fill="white">
                    <use xlink:href="#path-1"></use>
                </mask>
                <g id="Clip-2"></g>
                <path d="M58.309,47.929 C58.309,53.591 53.591,58.31 46.986,58.31 L12.071,58.31 C6.409,58.31 1.69,53.591 1.69,47.929 L1.69,12.071 C1.69,6.409 6.409,1.69 12.071,1.69 L46.986,1.69 C52.648,1.69 58.309,6.409 58.309,12.071 L58.309,47.929 L58.309,47.929 Z M47.241,0 L11.801,0 C5.404,0 0,5.404 0,11.801 L0,48.199 C0,54.596 5.404,60 11.801,60 L47.241,60 C54.396,60 60,54.817 60,48.199 L60,11.801 C60,5.625 53.919,0 47.241,0 L47.241,0 Z" id="Fill-1" fill="#FFFFFF" sketch:type="MSShapeGroup" mask="url(#mask-2)"></path>
            </g>
            <path d="M46.986,1.69 L12.071,1.69 C6.409,1.69 1.69,6.409 1.69,12.071 L1.69,47.929 C1.69,53.591 6.409,58.31 12.071,58.31 L46.986,58.31 C53.591,58.31 58.309,53.591 58.309,47.929 L58.309,12.071 C58.309,6.409 52.648,1.69 46.986,1.69" id="Fill-4" fill="#23A7CB" sketch:type="MSShapeGroup"></path>
            <path d="M37.52,33.274 C37.52,36.677 34.652,39.289 31.078,39.289 L28.921,39.289 C25.348,39.289 22.48,36.677 22.48,33.274 L22.48,26.726 C22.48,23.323 25.348,20.711 28.921,20.711 L31.078,20.711 C34.652,20.711 37.52,23.323 37.52,26.726 L37.52,33.274 L37.52,33.274 Z M31.887,16.73 L28.113,16.73 C22.909,16.73 18.499,21.022 18.499,26.225 L18.499,38.493 C18.499,43.696 22.909,48.136 28.113,48.136 L31.887,48.136 C37.091,48.136 41.501,43.696 41.501,38.493 L41.501,26.225 C41.501,21.022 37.091,16.73 31.887,16.73 L31.887,16.73 Z" id="Fill-5" fill="#FFFFFF" sketch:type="MSShapeGroup"></path>
            <path d="M43.159,38.442 C43.159,44.644 38.073,49.759 31.871,49.759 L28.129,49.759 C21.927,49.759 16.841,44.644 16.841,38.442 L16.841,26.277 C16.841,20.076 21.927,15.107 28.129,15.107 L31.871,15.107 C38.073,15.107 43.159,20.076 43.159,26.277 L43.159,38.442 L43.159,38.442 Z M45.539,5.672 L13.643,5.672 C8.736,5.672 5.672,8.736 5.672,13.643 L5.672,20.711 L7.487,20.711 C11.061,20.711 14.076,23.323 14.076,26.726 L14.076,33.274 C14.076,36.677 11.061,39.289 7.487,39.289 L5.672,39.289 L5.672,46.357 C5.672,51.264 8.736,54.329 13.643,54.329 L45.539,54.329 C51.264,54.329 54.328,51.264 54.328,46.357 L54.328,39.289 L52.513,39.289 C48.939,39.289 45.924,36.677 45.924,33.274 L45.924,26.726 C45.924,23.323 48.939,20.711 52.513,20.711 L54.328,20.711 L54.328,13.643 C54.328,8.736 50.446,5.672 45.539,5.672 L45.539,5.672 Z" id="Fill-6" fill="#FFFFFF" sketch:type="MSShapeGroup"></path>
            <path d="M30,36.055 L29.818,36.055 C27.339,36.055 25.77,35.007 25.77,32.433 L25.77,30 C25.77,30 25.77,29.108 24.957,29.108 C24.144,29.108 24.156,30 24.156,30 L24.156,32.433 C24.156,35.896 26.449,37.669 29.818,37.669 L30,37.669 C30,37.669 30.794,37.66 30.794,36.877 C30.794,36.093 30,36.055 30,36.055" id="Fill-7" fill="#FFFFFF" sketch:type="MSShapeGroup"></path>
            <path d="M82.836,37.09 C84.762,37.09 86.281,36.539 87.393,35.437 C88.505,34.337 89.061,32.806 89.061,30.847 L89.061,29.071 L85.907,29.204 C83.373,29.326 81.566,29.721 80.487,30.391 C79.408,31.06 78.868,32.103 78.868,33.52 C78.868,34.649 79.214,35.526 79.906,36.152 C80.597,36.777 81.574,37.09 82.836,37.09 L82.836,37.09 Z M89.477,38.252 L89.061,35.396 L88.929,35.396 C88.021,36.558 87.088,37.381 86.131,37.861 C85.174,38.343 84.042,38.584 82.736,38.584 C80.965,38.584 79.587,38.13 78.603,37.222 C77.617,36.315 77.125,35.058 77.125,33.454 C77.125,31.694 77.858,30.327 79.325,29.353 C80.791,28.38 82.913,27.865 85.691,27.809 L89.128,27.71 L89.128,26.514 C89.128,24.799 88.779,23.504 88.082,22.63 C87.385,21.756 86.261,21.318 84.712,21.318 C83.04,21.318 81.309,21.783 79.516,22.713 L78.901,21.285 C80.882,20.355 82.841,19.89 84.778,19.89 C86.759,19.89 88.24,20.405 89.219,21.434 C90.199,22.464 90.688,24.069 90.688,26.249 L90.688,38.252 L89.477,38.252 L89.477,38.252 Z" id="Fill-8" fill="#5C5D5C" sketch:type="MSShapeGroup"></path>
            <path d="M100.483,38.252 L93.511,20.206 L95.204,20.206 L99.869,32.474 C100.489,34.046 100.954,35.419 101.264,36.591 L101.363,36.591 C101.817,35.087 102.282,33.703 102.758,32.441 L107.423,20.206 L109.116,20.206 L102.144,38.252 L100.483,38.252" id="Fill-9" fill="#5C5D5C" sketch:type="MSShapeGroup"></path>
            <path d="M112.138,20.206 L113.781,20.206 L113.781,38.252 L112.138,38.252 L112.138,20.206 Z M111.905,15.192 C111.905,14.13 112.254,13.598 112.951,13.598 C113.294,13.598 113.562,13.737 113.756,14.013 C113.95,14.29 114.047,14.683 114.047,15.192 C114.047,15.69 113.95,16.083 113.756,16.371 C113.562,16.659 113.294,16.802 112.951,16.802 C112.254,16.802 111.905,16.266 111.905,15.192 L111.905,15.192 Z" id="Fill-10" fill="#5C5D5C" sketch:type="MSShapeGroup"></path>
            <path d="M124.141,37.09 C126.066,37.09 127.586,36.539 128.697,35.437 C129.811,34.337 130.366,32.806 130.366,30.847 L130.366,29.071 L127.212,29.204 C124.678,29.326 122.871,29.721 121.791,30.391 C120.712,31.06 120.173,32.103 120.173,33.52 C120.173,34.649 120.519,35.526 121.21,36.152 C121.902,36.777 122.879,37.09 124.141,37.09 L124.141,37.09 Z M130.781,38.252 L130.366,35.396 L130.233,35.396 C129.326,36.558 128.394,37.381 127.435,37.861 C126.478,38.343 125.347,38.584 124.041,38.584 C122.27,38.584 120.892,38.13 119.907,37.222 C118.922,36.315 118.43,35.058 118.43,33.454 C118.43,31.694 119.163,30.327 120.629,29.353 C122.096,28.38 124.218,27.865 126.996,27.809 L130.433,27.71 L130.433,26.514 C130.433,24.799 130.084,23.504 129.387,22.63 C128.689,21.756 127.566,21.318 126.017,21.318 C124.346,21.318 122.613,21.783 120.82,22.713 L120.206,21.285 C122.187,20.355 124.146,19.89 126.083,19.89 C128.064,19.89 129.545,20.405 130.523,21.434 C131.504,22.464 131.993,24.069 131.993,26.249 L131.993,38.252 L130.781,38.252 L130.781,38.252 Z" id="Fill-11" fill="#5C5D5C" sketch:type="MSShapeGroup"></path>
            <path d="M149.026,33.553 C149.026,35.17 148.412,36.412 147.184,37.281 C145.955,38.149 144.212,38.584 141.954,38.584 C139.541,38.584 137.627,38.213 136.21,37.471 L136.21,35.695 C138.025,36.602 139.939,37.056 141.954,37.056 C143.736,37.056 145.089,36.76 146.013,36.168 C146.938,35.576 147.399,34.788 147.399,33.802 C147.399,32.895 147.031,32.132 146.296,31.511 C145.56,30.892 144.351,30.283 142.668,29.685 C140.864,29.032 139.597,28.471 138.866,28 C138.136,27.53 137.585,26.999 137.214,26.406 C136.844,25.815 136.658,25.093 136.658,24.24 C136.658,22.89 137.226,21.822 138.36,21.036 C139.494,20.25 141.08,19.857 143.116,19.857 C145.064,19.857 146.912,20.222 148.661,20.953 L148.047,22.447 C146.276,21.716 144.633,21.351 143.116,21.351 C141.645,21.351 140.477,21.595 139.613,22.082 C138.75,22.569 138.318,23.244 138.318,24.107 C138.318,25.048 138.653,25.801 139.323,26.365 C139.992,26.929 141.301,27.56 143.249,28.258 C144.876,28.844 146.06,29.373 146.802,29.843 C147.543,30.314 148.1,30.847 148.47,31.445 C148.841,32.043 149.026,32.746 149.026,33.553" id="Fill-12" fill="#5C5D5C" sketch:type="MSShapeGroup"></path>
            <path d="M157.991,37.09 C159.917,37.09 161.436,36.539 162.548,35.437 C163.661,34.337 164.217,32.806 164.217,30.847 L164.217,29.071 L161.063,29.204 C158.528,29.326 156.722,29.721 155.642,30.391 C154.563,31.06 154.023,32.103 154.023,33.52 C154.023,34.649 154.369,35.526 155.061,36.152 C155.753,36.777 156.729,37.09 157.991,37.09 L157.991,37.09 Z M164.632,38.252 L164.217,35.396 L164.084,35.396 C163.177,36.558 162.244,37.381 161.286,37.861 C160.329,38.343 159.197,38.584 157.892,38.584 C156.121,38.584 154.743,38.13 153.758,37.222 C152.772,36.315 152.28,35.058 152.28,33.454 C152.28,31.694 153.014,30.327 154.479,29.353 C155.946,28.38 158.068,27.865 160.847,27.809 L164.283,27.71 L164.283,26.514 C164.283,24.799 163.935,23.504 163.237,22.63 C162.54,21.756 161.417,21.318 159.867,21.318 C158.196,21.318 156.464,21.783 154.671,22.713 L154.057,21.285 C156.038,20.355 157.997,19.89 159.934,19.89 C161.915,19.89 163.395,20.405 164.374,21.434 C165.354,22.464 165.844,24.069 165.844,26.249 L165.844,38.252 L164.632,38.252 L164.632,38.252 Z" id="Fill-13" fill="#5C5D5C" sketch:type="MSShapeGroup"></path>
            <path d="M171.688,12.42 L173.331,12.42 L173.331,38.252 L171.688,38.252 L171.688,12.42 Z" id="Fill-14" fill="#5C5D5C" sketch:type="MSShapeGroup"></path>
            <path d="M186.181,21.318 C184.443,21.318 183.049,21.891 181.997,23.036 C180.945,24.182 180.331,25.834 180.154,27.992 L191.31,27.992 C191.31,25.9 190.856,24.265 189.949,23.086 C189.042,21.907 187.785,21.318 186.181,21.318 L186.181,21.318 Z M186.662,38.584 C184.039,38.584 181.994,37.776 180.528,36.16 C179.061,34.544 178.328,32.281 178.328,29.37 C178.328,26.492 179.036,24.188 180.453,22.455 C181.87,20.723 183.779,19.857 186.181,19.857 C188.306,19.857 189.982,20.599 191.211,22.082 C192.439,23.565 193.054,25.579 193.054,28.125 L193.054,29.453 L180.055,29.453 C180.077,31.932 180.655,33.825 181.79,35.131 C182.924,36.436 184.548,37.09 186.662,37.09 C187.691,37.09 188.597,37.017 189.376,36.874 C190.157,36.73 191.144,36.42 192.34,35.944 L192.34,37.438 C191.321,37.881 190.381,38.182 189.518,38.343 C188.654,38.504 187.702,38.584 186.662,38.584 L186.662,38.584 Z" id="Fill-15" fill="#5C5D5C" sketch:type="MSShapeGroup"></path>
            <path d="M209.224,33.553 C209.224,35.17 208.609,36.412 207.381,37.281 C206.152,38.149 204.409,38.584 202.151,38.584 C199.738,38.584 197.824,38.213 196.407,37.471 L196.407,35.695 C198.223,36.602 200.137,37.056 202.151,37.056 C203.934,37.056 205.286,36.76 206.21,36.168 C207.135,35.576 207.597,34.788 207.597,33.802 C207.597,32.895 207.228,32.132 206.493,31.511 C205.757,30.892 204.548,30.283 202.865,29.685 C201.061,29.032 199.794,28.471 199.063,28 C198.333,27.53 197.782,26.999 197.411,26.406 C197.041,25.815 196.855,25.093 196.855,24.24 C196.855,22.89 197.423,21.822 198.558,21.036 C199.691,20.25 201.277,19.857 203.313,19.857 C205.262,19.857 207.109,20.222 208.858,20.953 L208.244,22.447 C206.474,21.716 204.83,21.351 203.313,21.351 C201.842,21.351 200.674,21.595 199.81,22.082 C198.947,22.569 198.516,23.244 198.516,24.107 C198.516,25.048 198.851,25.801 199.52,26.365 C200.189,26.929 201.498,27.56 203.446,28.258 C205.073,28.844 206.258,29.373 206.999,29.843 C207.74,30.314 208.297,30.847 208.667,31.445 C209.038,32.043 209.224,32.746 209.224,33.553" id="Fill-16" fill="#5C5D5C" sketch:type="MSShapeGroup"></path>
            <path d="M213.54,36.957 C213.54,35.872 213.982,35.33 214.868,35.33 C215.775,35.33 216.229,35.872 216.229,36.957 C216.229,38.042 215.775,38.584 214.868,38.584 C213.982,38.584 213.54,38.042 213.54,36.957" id="Fill-17" fill="#5C5D5C" sketch:type="MSShapeGroup"></path>
            <path d="M229.062,19.857 C229.826,19.857 230.645,19.935 231.519,20.09 L231.204,21.667 C230.451,21.479 229.671,21.385 228.863,21.385 C227.325,21.385 226.063,22.038 225.078,23.343 C224.093,24.65 223.601,26.299 223.601,28.291 L223.601,38.252 L221.957,38.252 L221.957,20.206 L223.352,20.206 L223.518,23.46 L223.634,23.46 C224.375,22.132 225.167,21.199 226.008,20.662 C226.849,20.126 227.867,19.857 229.062,19.857" id="Fill-18" fill="#5C5D5C" sketch:type="MSShapeGroup"></path>
            <path d="M236.616,20.206 L236.616,31.893 C236.616,33.709 236.998,35.028 237.762,35.853 C238.525,36.677 239.71,37.09 241.314,37.09 C243.462,37.09 245.042,36.548 246.054,35.463 C247.067,34.378 247.573,32.613 247.573,30.167 L247.573,20.206 L249.2,20.206 L249.2,38.252 L247.806,38.252 L247.507,35.761 L247.407,35.761 C246.234,37.643 244.147,38.584 241.148,38.584 C237.042,38.584 234.989,36.386 234.989,31.993 L234.989,20.206 L236.616,20.206" id="Fill-19" fill="#5C5D5C" sketch:type="MSShapeGroup"></path>
        </g>
    </g>
</svg>