<?xml version="1.0" encoding="UTF-8" standalone="no"?>
<svg width="1130px" height="320px" viewBox="0 0 1130 320" version="1.1" xmlns="http://www.w3.org/2000/svg" xmlns:xlink="http://www.w3.org/1999/xlink" xmlns:sketch="http://www.bohemiancoding.com/sketch/ns">
    <!-- Generator: Sketch 3.4.4 (17249) - http://www.bohemiancoding.com/sketch -->
    <title>main_bgd_</title>
    <desc>Created with Sketch.</desc>
    <defs>
        <path id="path-1" d="M0,0.710967742 L1130,0.710967742 L1130,320 L0,320 L0,0.710967742 Z"></path>
    </defs>
    <g id="Welcome" stroke="none" stroke-width="1" fill="none" fill-rule="evenodd" sketch:type="MSPage">
        <g id="layers_-copy" sketch:type="MSArtboardGroup" transform="translate(-157.000000, -324.000000)">
            <g id="main_bgd_" sketch:type="MSLayerGroup" transform="translate(157.000000, 324.000000)">
                <path d="M1130,291.079871 C1130,297.786968 1124.56284,303.225677 1117.85637,303.225677 L515.225822,303.225677 C508.519349,303.225677 503.082192,297.786968 503.082192,291.079871 L503.082192,256.016645 C503.082192,249.309548 508.519349,243.870839 515.225822,243.870839 L1117.85637,243.870839 C1124.56284,243.870839 1130,249.309548 1130,256.016645 L1130,291.079871 Z" id="Fill-1" fill="#DCE8E1" sketch:type="MSShapeGroup"></path>
                <path d="M1130,260.645161 L514.971701,260.645161 C508.263938,260.645161 503.082192,266.527742 503.082192,273.236129 L503.082192,307.864516 C503.082192,314.571613 508.263938,320 514.971701,320 L1117.85637,320 C1124.56284,320 1130,314.344516 1130,307.636129 L1130,260.645161 Z" id="Fill-3" fill="#4F7C32" sketch:type="MSShapeGroup"></path>
                <path d="M404.795024,54.3308387 L258.238152,12.1889032 L258.549031,11.1076129 L405.105903,53.2508387 L404.795024,54.3308387 Z" id="Fill-5" fill="#F7B817" sketch:type="MSShapeGroup"></path>
                <path d="M402.995409,57.704129 L256.439826,15.5647742 L256.749416,14.4834839 L403.306288,56.624129 L402.995409,57.704129 Z" id="Fill-7" fill="#F7B817" sketch:type="MSShapeGroup"></path>
                <path d="M598.296946,63.9957419 C596.990223,60.0047742 653.183213,28.0834839 653.183213,28.0834839 L709.374914,73.304129 L794.319697,122.517032 L846.591227,93.2550968 L880.568624,118.527355 L934.148168,79.9544516 L952.44488,119.856387 L995.569344,146.457677 L1009.9433,183.700258 L1026.00066,182.839613 L1046.23746,243.569935 L603.523841,236.900258 L598.296946,63.9957419 Z" id="Fill-9" fill="#373E46" sketch:type="MSShapeGroup"></path>
                <path d="M664.289978,73.1652903 L614.821519,23.1962581 L577.593437,32.2788387 L546.372672,22.1743226 L492.345515,37.3227097 L451.52233,7.01690323 L421.507672,36.3110968 L387.939191,74.6969032 L385.003255,110.952387 L391.749716,133.895613 L685.878654,148.742065 L664.289978,73.1652903 Z" id="Fill-11" fill="#FCFADF" sketch:type="MSShapeGroup"></path>
                <path d="M867.593748,239.090194 L995.768771,194.552129 L1021.40403,217.495355 L1049.73659,204.001161 L1075.71498,243.979226 L998.533143,244.731484 L868.421898,244.838581 L867.593748,239.090194 Z" id="Fill-13" fill="#8FB1B5" sketch:type="MSShapeGroup"></path>
                <path d="M76.952613,239.027226 L122.825969,125.660774 L164.651449,143.204 L191.999771,106.068516 L258.574314,8.87883871 L312.958789,61.4581935 L336.844873,42.8491613 L376.336825,82.0994839 L564.458606,241.169161 L76.952613,239.027226 Z" id="Fill-15" fill="#99AAA1" sketch:type="MSShapeGroup"></path>
                <path d="M264.210124,14.492129 L252.278047,43.9747097 L260.798195,56.376 L212.212065,90.8018065 L242.380227,100.670194 L218.090387,112.368258 L140.720216,162.763097 L120.927156,163.662452 L258.574314,8.87922581 L264.210124,14.492129 Z" id="Fill-17" fill="#373E46" sketch:type="MSShapeGroup"></path>
                <path d="M258.574701,8.87858065 L259.711151,26.0230968 L276.017463,36.0889032 L312.959176,61.4579355 L258.574701,8.87858065 Z" id="Fill-19" fill="#FEFFF6" sketch:type="MSShapeGroup"></path>
                <path d="M144.474886,204.947097 L169.752831,180.181935 L198.089258,182.543226 L243.632386,139.349677 L312.383082,122.581935 L269.946164,158.584516 L241.271769,164.656774 L203.487717,202.451613 L166.325422,198.80129 L144.474886,204.947097 Z" id="Fill-21" fill="#ABC9BA" sketch:type="MSShapeGroup"></path>
                <path d="M187.256221,240.139871 L247.302306,174.194065 L271.619235,174.194065 L341.100046,72.7785806 L428.82597,181.352774 L461.89137,239.352774 L235.154806,239.954065 L187.256221,240.139871 Z" id="Fill-23" fill="#ABC9BA" sketch:type="MSShapeGroup"></path>
                <path d="M312.958789,61.4579355 L337.754291,57.3482581 L376.21299,91.7689032 L380.779428,95.3482581 L448.069896,148.122452 L444.358697,140.025677 L376.336825,82.0992258 L336.844873,42.8489032 L312.958789,61.4579355 Z" id="Fill-25" fill="#FEFFF6" sketch:type="MSShapeGroup"></path>
                <mask id="mask-2" sketch:name="Clip 28" fill="white">
                    <use xlink:href="#path-1"></use>
                </mask>
                <g id="Clip-28"></g>
                <path d="M543.070776,114.83871 L540.490868,114.83871 L540.490868,87.7419355 L543.070776,87.7419355 L543.070776,114.83871 Z" id="Fill-27" fill="#A37321" sketch:type="MSShapeGroup" mask="url(#mask-2)"></path>
                <path d="M758.334486,191.56129 L718.749658,130.366452 L664.771518,135.766452 L660.597226,132.450323 L688.577626,131.196129 L693.973505,90.7109677 L654.84532,70.4658065 L611.532523,93.4541935 L557.704018,50.6722581 L497.433482,85.3703226 L415.244041,102.952258 L326.499053,240.156129 L773.220559,245.215484 L774.745285,236.126452 L758.334486,191.56129 Z" id="Fill-29" fill="#373E46" sketch:type="MSShapeGroup" mask="url(#mask-2)"></path>
                <path d="M692.705479,82.5806452 L690.184909,82.5806452 L690.310034,55.3354839 L692.705479,54.7729032 L692.705479,82.5806452 Z" id="Fill-30" fill="#F06B39" sketch:type="MSShapeGroup" mask="url(#mask-2)"></path>
                <path d="M509.283131,94.5779355 L509.04707,93.4772903 L730.741202,46.0179355 L730.977264,47.1172903 L509.283131,94.5779355 Z" id="Fill-31" fill="#F7B817" sketch:type="MSShapeGroup" mask="url(#mask-2)"></path>
                <path d="M509.283131,98.6290323 L509.04707,97.5270968 L730.741202,50.0651613 L730.977264,51.1670968 L509.283131,98.6290323 Z" id="Fill-32" fill="#F7B817" sketch:type="MSShapeGroup" mask="url(#mask-2)"></path>
                <path d="M584.933793,151.208387 L622.467595,118.174839 L653.497446,116.814839 L704.206841,60.0225806 L760.085083,15.5851613 L803.261145,66.8690323 L863.974136,74.9645161 L892.307983,127.598065 L977.309524,170.832903 L997.995232,244.730968 L569.855517,246.454839 L584.933793,151.208387 Z" id="Fill-33" fill="#ABC9BA" sketch:type="MSShapeGroup" mask="url(#mask-2)"></path>
                <path d="M746.593838,245.013806 L784.371441,107.354452 L819.450459,106.006065 L828.895505,77.664129 L849.133598,96.5570323 L864.34474,75.3221935 L889.685893,122.268 L977.308621,170.833161 L997.995619,244.731226 L890.960368,211.275742 L832.942091,231.519613 L822.149043,193.728645 L746.593838,245.013806 Z" id="Fill-34" fill="#99AAA1" sketch:type="MSShapeGroup" mask="url(#mask-2)"></path>
                <path d="M729.040913,56.1290323 L759.999817,60.8606452 L758.064886,54.6232258 L757.203196,54.1935484 L736.780639,50.7522581 L729.040913,56.1290323 Z" id="Fill-35" fill="#FCFADF" sketch:type="MSShapeGroup" mask="url(#mask-2)"></path>
                <path d="M704.206712,60.0227097 L760.084954,15.5852903 L796.217865,58.8110968 L764.132831,35.8265806 L746.593322,53.3723871 L740.004235,49.2472258 L714.212888,74.9646452 L718.259475,57.4188387 L704.206712,60.0227097 Z" id="Fill-36" fill="#FCFADF" sketch:type="MSShapeGroup" mask="url(#mask-2)"></path>
                <path d="M845.150606,122.717935 L829.856908,109.668903 L801.519191,155.112774 C801.519191,155.112774 777.665355,191.539871 777.665355,193.790194 C777.665355,196.039226 865.844054,151.514065 865.844054,151.514065 L930.822924,162.408258 L977.309008,170.832774 L845.150606,122.717935 Z" id="Fill-37" fill="#DCE8E1" sketch:type="MSShapeGroup" mask="url(#mask-2)"></path>
                <path d="M550.518199,101.780516 L463.153461,78.8772903 L420.637856,16.7418065 L470.227571,66.0089032 L550.518199,101.780516 Z" id="Fill-38" fill="#DCE8E1" sketch:type="MSShapeGroup" mask="url(#mask-2)"></path>
                <path d="M194.361677,211.62671 L148.192921,227.150581 L94.2367112,196.510581 L37.9947021,239.091226 L275.716517,245.914452 L266.542362,215.678323 L208.667271,223.776387 L194.361677,211.62671 Z" id="Fill-39" fill="#ABC9BA" sketch:type="MSShapeGroup" mask="url(#mask-2)"></path>
                <path d="M324.281105,144.697548 L299.995135,170.340129 L322.931813,171.691097 L304.043011,197.332387 L290.550089,227.024 L352.614952,189.235613 L341.820614,179.786581 L351.26566,158.194323 L340.472612,147.396903 L345.693057,120.998194 L324.281105,144.697548 Z" id="Fill-40" fill="#C7CCAC" sketch:type="MSShapeGroup" mask="url(#mask-2)"></path>
                <path d="M710.76484,54.1935484 L757.203196,54.1935484 L747.743961,48.6025806 L717.430034,49.2477419 L710.76484,54.1935484 Z" id="Fill-41" fill="#99AAA1" sketch:type="MSShapeGroup" mask="url(#mask-2)"></path>
                <path d="M712.861016,250.322581 L657.122089,175.685161 L584.928505,149.362581 L550.517683,101.780645 L470.228345,66.0090323 L420.63734,16.7419355 L370.708368,3.58193548 L361.88637,25.9780645 L339.8604,75.1225806 L292.819635,163.532903 L292.819635,194.260645 L273.74121,208.752258 L272.164886,244.655484 L712.861016,250.322581 Z" id="Fill-42" fill="#DCE8E1" sketch:type="MSShapeGroup" mask="url(#mask-2)"></path>
                <path d="M340.443975,91.6708387 L370.132274,54.3237419 L397.121989,56.5740645 L419.613632,26.4269677 L426.811578,61.9727742 L374.180151,69.1714839 L371.184877,89.032129 L360.685938,82.6708387 L340.443975,91.6708387 Z" id="Fill-43" fill="#FCFADF" sketch:type="MSShapeGroup" mask="url(#mask-2)"></path>
                <path d="M388.021748,111.078581 L417.484305,118.841161 L429.179031,109.390839 L434.351748,136.389548 L476.315252,136.774065 L505.75846,161.696645 L643.835172,170.842452 L480.793974,176.206323 L399.8287,139.425677 L411.298974,135.712129 L388.021748,111.078581 Z" id="Fill-44" fill="#99AAA1" sketch:type="MSShapeGroup" mask="url(#mask-2)"></path>
                <path d="M635.625,260.645161 L592.797226,227.92 L502.392066,207.487742 L480.790491,215.483871 L448.416507,215.483871 L428.179703,198.092903 L371.512009,221.099355 L353.97379,210.371613 L274.760274,247.501935 L392.146119,263.859355 L635.625,260.645161 Z" id="Fill-45" fill="#99AAA1" sketch:type="MSShapeGroup" mask="url(#mask-2)"></path>
                <path d="M657.571896,175.685548 L646.407341,202.245548 L656.89983,201.57071 L614.555789,248.760387 L707.278997,240.023613 L657.571896,175.685548 Z" id="Fill-46" fill="#99AAA1" sketch:type="MSShapeGroup" mask="url(#mask-2)"></path>
                <path d="M715.924658,255.483871 L692.705479,255.483871 L692.705479,236.129032 L715.924658,236.129032 L715.924658,255.483871 Z" id="Fill-47" fill="#F7B817" sketch:type="MSShapeGroup" mask="url(#mask-2)"></path>
                <path d="M733.984018,255.483871 L715.924658,255.483871 L715.924658,243.870968 L729.278265,243.870968 L733.984018,248.976774 L733.984018,255.483871 Z" id="Fill-48" fill="#475A63" sketch:type="MSShapeGroup" mask="url(#mask-2)"></path>
                <path d="M692.372929,236.129032 L704.079265,222.864516 L715.78818,236.129032 L692.372929,236.129032 Z" id="Fill-49" fill="#ED2D32" sketch:type="MSShapeGroup" mask="url(#mask-2)"></path>
                <path d="M708.184932,247.741935 L700.445205,247.741935 L700.445205,241.290323 L708.184932,241.290323 L708.184932,247.741935 Z" id="Fill-50" fill="#FCFADF" sketch:type="MSShapeGroup" mask="url(#mask-2)"></path>
                <path d="M723.664384,250.322581 L719.794521,250.322581 L719.794521,247.741935 L723.664384,247.741935 L723.664384,250.322581 Z" id="Fill-51" fill="#FCFADF" sketch:type="MSShapeGroup" mask="url(#mask-2)"></path>
                <path d="M728.824201,250.322581 L726.244292,250.322581 L726.244292,247.741935 L728.824201,247.741935 L728.824201,250.322581 Z" id="Fill-52" fill="#FCFADF" sketch:type="MSShapeGroup" mask="url(#mask-2)"></path>
                <path d="M670.776256,254.193548 L669.486301,254.193548 L669.486301,246.451613 L670.776256,246.451613 L670.776256,254.193548 Z" id="Fill-53" fill="#3A2309" sketch:type="MSShapeGroup" mask="url(#mask-2)"></path>
                <path d="M669.708045,234.957161 L674.825293,250.322323 L664.497919,250.322323 L669.708045,234.957161 Z" id="Fill-54" fill="#243F12" sketch:type="MSShapeGroup" mask="url(#mask-2)"></path>
                <path d="M669.589627,231.12271 L674.419216,245.161419 L664.671031,245.161419 L669.589627,231.12271 Z" id="Fill-55" fill="#33591B" sketch:type="MSShapeGroup" mask="url(#mask-2)"></path>
                <path d="M669.631163,227.711742 L674.388515,238.709161 L664.786095,238.709161 L669.631163,227.711742 Z" id="Fill-56" fill="#3D6821" sketch:type="MSShapeGroup" mask="url(#mask-2)"></path>
                <path d="M656.586758,254.193548 L655.296804,254.193548 L655.296804,246.451613 L656.586758,246.451613 L656.586758,254.193548 Z" id="Fill-57" fill="#3A2309" sketch:type="MSShapeGroup" mask="url(#mask-2)"></path>
                <path d="M655.722618,234.957161 L660.839866,250.322323 L650.512492,250.322323 L655.722618,234.957161 Z" id="Fill-58" fill="#243F12" sketch:type="MSShapeGroup" mask="url(#mask-2)"></path>
                <path d="M655.6042,231.12271 L660.435079,245.161419 L650.685604,245.161419 L655.6042,231.12271 Z" id="Fill-59" fill="#33591B" sketch:type="MSShapeGroup" mask="url(#mask-2)"></path>
                <path d="M655.645736,227.711742 L660.404378,238.709161 L650.801958,238.709161 L655.645736,227.711742 Z" id="Fill-60" fill="#3D6821" sketch:type="MSShapeGroup" mask="url(#mask-2)"></path>
                <path d="M642.39726,254.193548 L641.107306,254.193548 L641.107306,246.451613 L642.39726,246.451613 L642.39726,254.193548 Z" id="Fill-61" fill="#3A2309" sketch:type="MSShapeGroup" mask="url(#mask-2)"></path>
                <path d="M642.055938,234.957161 L647.173187,250.322323 L636.845813,250.322323 L642.055938,234.957161 Z" id="Fill-62" fill="#243F12" sketch:type="MSShapeGroup" mask="url(#mask-2)"></path>
                <path d="M641.937521,231.12271 L646.76711,245.161419 L637.017635,245.161419 L641.937521,231.12271 Z" id="Fill-63" fill="#33591B" sketch:type="MSShapeGroup" mask="url(#mask-2)"></path>
                <path d="M641.977767,227.711742 L646.737699,238.709161 L637.135279,238.709161 L641.977767,227.711742 Z" id="Fill-64" fill="#3D6821" sketch:type="MSShapeGroup" mask="url(#mask-2)"></path>
                <path d="M743.013699,254.193548 L741.723744,254.193548 L741.723744,246.451613 L743.013699,246.451613 L743.013699,254.193548 Z" id="Fill-65" fill="#3A2309" sketch:type="MSShapeGroup" mask="url(#mask-2)"></path>
                <path d="M742.939397,234.957161 L748.056646,250.322323 L737.727982,250.322323 L742.939397,234.957161 Z" id="Fill-66" fill="#243F12" sketch:type="MSShapeGroup" mask="url(#mask-2)"></path>
                <path d="M742.819689,231.12271 L747.651858,245.161419 L737.901094,245.161419 L742.819689,231.12271 Z" id="Fill-67" fill="#33591B" sketch:type="MSShapeGroup" mask="url(#mask-2)"></path>
                <path d="M742.861226,227.711742 L747.619868,238.709161 L738.017447,238.709161 L742.861226,227.711742 Z" id="Fill-68" fill="#3D6821" sketch:type="MSShapeGroup" mask="url(#mask-2)"></path>
                <path d="M757.203196,254.193548 L755.913242,254.193548 L755.913242,246.451613 L757.203196,246.451613 L757.203196,254.193548 Z" id="Fill-69" fill="#3A2309" sketch:type="MSShapeGroup" mask="url(#mask-2)"></path>
                <path d="M757.128895,234.957161 L762.246144,250.322323 L751.917479,250.322323 L757.128895,234.957161 Z" id="Fill-70" fill="#243F12" sketch:type="MSShapeGroup" mask="url(#mask-2)"></path>
                <path d="M757.009187,231.12271 L761.841356,245.161419 L752.090591,245.161419 L757.009187,231.12271 Z" id="Fill-71" fill="#33591B" sketch:type="MSShapeGroup" mask="url(#mask-2)"></path>
                <path d="M757.050724,227.711742 L761.809365,238.709161 L752.206945,238.709161 L757.050724,227.711742 Z" id="Fill-72" fill="#3D6821" sketch:type="MSShapeGroup" mask="url(#mask-2)"></path>
                <path d="M684.965753,254.193548 L683.675799,254.193548 L683.675799,246.451613 L684.965753,246.451613 L684.965753,254.193548 Z" id="Fill-73" fill="#3A2309" sketch:type="MSShapeGroup" mask="url(#mask-2)"></path>
                <path d="M684.327097,234.957161 L689.446926,250.322323 L679.118261,250.322323 L684.327097,234.957161 Z" id="Fill-74" fill="#243F12" sketch:type="MSShapeGroup" mask="url(#mask-2)"></path>
                <path d="M684.209969,231.12271 L689.040848,245.161419 L679.291373,245.161419 L684.209969,231.12271 Z" id="Fill-75" fill="#33591B" sketch:type="MSShapeGroup" mask="url(#mask-2)"></path>
                <path d="M684.251506,227.711742 L689.008857,238.709161 L679.407727,238.709161 L684.251506,227.711742 Z" id="Fill-76" fill="#3D6821" sketch:type="MSShapeGroup" mask="url(#mask-2)"></path>
                <path d="M784.37157,107.353806 L815.912243,85.1460645 L828.895634,77.6634839 L833.456912,102.244129 L812.313271,116.641548 L784.37157,107.353806 Z" id="Fill-77" fill="#99AAA1" sketch:type="MSShapeGroup" mask="url(#mask-2)"></path>
                <path d="M809.020533,69.6774194 L816.697051,56.3767742 L824.37486,69.6774194 L809.020533,69.6774194 Z" id="Fill-78" fill="#4F7C32" sketch:type="MSShapeGroup" mask="url(#mask-2)"></path>
                <path d="M812.523791,69.6774194 L816.765161,62.1974194 L821.009111,69.6774194 L812.523791,69.6774194 Z" id="Fill-79" fill="#373E46" sketch:type="MSShapeGroup" mask="url(#mask-2)"></path>
                <path d="M468.688655,161.290323 L477.533872,145.963871 L486.380379,161.290323 L468.688655,161.290323 Z" id="Fill-80" fill="#4F7C32" sketch:type="MSShapeGroup" mask="url(#mask-2)"></path>
                <path d="M472.725438,161.290323 L477.613075,152.669677 L482.500712,161.290323 L472.725438,161.290323 Z" id="Fill-81" fill="#373E46" sketch:type="MSShapeGroup" mask="url(#mask-2)"></path>
                <path d="M259.026959,121.290323 L266.798934,107.824516 L274.572199,121.290323 L259.026959,121.290323 Z" id="Fill-82" fill="#4F7C32" sketch:type="MSShapeGroup" mask="url(#mask-2)"></path>
                <path d="M262.573043,121.290323 L266.868591,113.717419 L271.164139,121.290323 L262.573043,121.290323 Z" id="Fill-83" fill="#373E46" sketch:type="MSShapeGroup" mask="url(#mask-2)"></path>
                <path d="M824.92954,72.2580645 L832.042348,59.9354839 L839.152576,72.2580645 L824.92954,72.2580645 Z" id="Fill-84" fill="#F7B817" sketch:type="MSShapeGroup" mask="url(#mask-2)"></path>
                <path d="M828.174678,72.2580645 L832.105169,65.3290323 L836.03566,72.2580645 L828.174678,72.2580645 Z" id="Fill-85" fill="#373E46" sketch:type="MSShapeGroup" mask="url(#mask-2)"></path>
                <path d="M840.213822,73.5483871 L847.32663,61.2270968 L854.436858,73.5483871 L840.213822,73.5483871 Z" id="Fill-86" fill="#ED2D32" sketch:type="MSShapeGroup" mask="url(#mask-2)"></path>
                <path d="M843.458831,73.5483871 L847.389322,66.6193548 L851.319813,73.5483871 L843.458831,73.5483871 Z" id="Fill-87" fill="#373E46" sketch:type="MSShapeGroup" mask="url(#mask-2)"></path>
                <path d="M443.894185,200.970323 L449.95955,209.032258 L472.243511,209.032258 L478.977073,200.389677 L443.894185,200.970323 Z" id="Fill-88" fill="#99AAA1" sketch:type="MSShapeGroup" mask="url(#mask-2)"></path>
                <path d="M461.313599,203.870968 L468.297412,191.772903 L475.281225,203.870968 L461.313599,203.870968 Z" id="Fill-89" fill="#F7B817" sketch:type="MSShapeGroup" mask="url(#mask-2)"></path>
                <path d="M464.4994,203.870968 L468.358943,197.067097 L472.217196,203.870968 L464.4994,203.870968 Z" id="Fill-90" fill="#373E46" sketch:type="MSShapeGroup" mask="url(#mask-2)"></path>
                <path d="M273.263153,99.3548387 L281.81297,84.5419355 L290.362788,99.3548387 L273.263153,99.3548387 Z" id="Fill-91" fill="#F7B817" sketch:type="MSShapeGroup" mask="url(#mask-2)"></path>
                <path d="M277.164491,99.3548387 L281.889594,91.0245161 L286.614696,99.3548387 L277.164491,99.3548387 Z" id="Fill-92" fill="#373E46" sketch:type="MSShapeGroup" mask="url(#mask-2)"></path>
                <path d="M446.992526,203.870968 L453.975049,191.772903 L460.958862,203.870968 L446.992526,203.870968 Z" id="Fill-93" fill="#14AEB4" sketch:type="MSShapeGroup" mask="url(#mask-2)"></path>
                <path d="M450.178971,203.870968 L454.037225,197.067097 L457.896768,203.870968 L450.178971,203.870968 Z" id="Fill-94" fill="#373E46" sketch:type="MSShapeGroup" mask="url(#mask-2)"></path>
                <path d="M444.616688,156.129032 L453.461905,140.805161 L462.305832,156.129032 L444.616688,156.129032 Z" id="Fill-95" fill="#F7B817" sketch:type="MSShapeGroup" mask="url(#mask-2)"></path>
                <path d="M448.652182,156.129032 L453.539818,147.509677 L458.427455,156.129032 L448.652182,156.129032 Z" id="Fill-96" fill="#373E46" sketch:type="MSShapeGroup" mask="url(#mask-2)"></path>
                <path d="M701.316957,132.903226 L710.162174,117.579355 L719.00739,132.903226 L701.316957,132.903226 Z" id="Fill-97" fill="#F7B817" sketch:type="MSShapeGroup" mask="url(#mask-2)"></path>
                <path d="M705.353095,132.903226 L710.240732,124.283871 L715.128369,132.903226 L705.353095,132.903226 Z" id="Fill-98" fill="#373E46" sketch:type="MSShapeGroup" mask="url(#mask-2)"></path>
                <path d="M384.466892,14.1935484 L393.074757,0.710967742 L401.683912,14.1935484 L384.466892,14.1935484 Z" id="Fill-99" fill="#F7B817" sketch:type="MSShapeGroup" mask="url(#mask-2)"></path>
                <path d="M388.394674,14.1935484 L393.152025,6.61032258 L397.908087,14.1935484 L388.394674,14.1935484 Z" id="Fill-100" fill="#373E46" sketch:type="MSShapeGroup" mask="url(#mask-2)"></path>
                <path d="M944.286822,242.023742 L944.286822,240.959226 L944.286822,227.539871 L917.307427,227.539871 C917.307427,227.539871 914.152199,227.585032 912.965441,231.752774 C911.598089,236.545032 910.514527,242.142452 912.12826,242.142452 L944.286822,242.023742 Z" id="Fill-101" fill="#F06B39" sketch:type="MSShapeGroup" mask="url(#mask-2)"></path>
                <path d="M913.053416,236.854839 L919.580584,236.854839 L919.580584,229.094839 L917.774648,229.094839 C916.04353,229.094839 914.082799,230.656129 913.053416,236.854839" id="Fill-102" fill="#FFFFFF" sketch:type="MSShapeGroup" mask="url(#mask-2)"></path>
                <path d="M917.708087,242.138323 L944.286306,242.023484 L944.282436,238.699613 L913.359651,238.699613 L917.708087,242.138323 Z" id="Fill-103" fill="#F7B817" sketch:type="MSShapeGroup" mask="url(#mask-2)"></path>
                <path d="M937.079976,242.002323 C937.079976,243.372645 938.191917,244.487484 939.564428,244.487484 C940.93565,244.487484 942.04888,243.372645 942.04888,242.002323 C942.04888,240.629419 940.93565,239.517161 939.564428,239.517161 C938.191917,239.517161 937.079976,240.629419 937.079976,242.002323" id="Fill-104" fill="#475A63" sketch:type="MSShapeGroup" mask="url(#mask-2)"></path>
                <path d="M938.186112,242.002323 C938.186112,242.762323 938.80271,243.380387 939.563783,243.380387 C940.324856,243.380387 940.944034,242.762323 940.944034,242.002323 C940.944034,241.241032 940.324856,240.622968 939.563783,240.622968 C938.80271,240.622968 938.186112,241.241032 938.186112,242.002323" id="Fill-105" fill="#FFFFFF" sketch:type="MSShapeGroup" mask="url(#mask-2)"></path>
                <path d="M917.604761,242.188774 C917.604761,243.560387 918.716702,244.673935 920.087924,244.673935 C921.460435,244.673935 922.572376,243.560387 922.572376,242.188774 C922.572376,240.815871 921.460435,239.703613 920.087924,239.703613 C918.716702,239.703613 917.604761,240.815871 917.604761,242.188774" id="Fill-106" fill="#475A63" sketch:type="MSShapeGroup" mask="url(#mask-2)"></path>
                <path d="M918.709478,242.142194 C918.709478,242.902194 919.327366,243.520258 920.08715,243.520258 C920.849513,243.520258 921.467401,242.902194 921.467401,242.142194 C921.467401,241.380903 920.849513,240.764129 920.08715,240.764129 C919.327366,240.764129 918.709478,241.380903 918.709478,242.142194" id="Fill-107" fill="#FFFFFF" sketch:type="MSShapeGroup" mask="url(#mask-2)"></path>
                <path d="M580.567685,167.741935 L584.811635,160.389677 L589.054295,167.741935 L580.567685,167.741935 Z" id="Fill-108" fill="#F7B817" sketch:type="MSShapeGroup" mask="url(#mask-2)"></path>
                <path d="M582.580659,166.451613 L584.894837,162.44129 L587.210305,166.451613 L582.580659,166.451613 Z" id="Fill-109" fill="#F06B39" sketch:type="MSShapeGroup" mask="url(#mask-2)"></path>
                <path d="M587.276866,167.139613 L588.560371,164.916387 L589.842586,167.139613 L587.276866,167.139613 Z" id="Fill-110" fill="#F7B817" sketch:type="MSShapeGroup" mask="url(#mask-2)"></path>
                <path d="M587.886628,167.067742 L588.585783,165.856129 L589.286228,167.067742 L587.886628,167.067742 Z" id="Fill-111" fill="#F06B39" sketch:type="MSShapeGroup" mask="url(#mask-2)"></path>
                <path d="M590.799087,167.741935 L579.189498,167.741935 L579.189498,166.451613 L590.799087,166.451613 L590.799087,167.741935 Z" id="Fill-112" fill="#FCFADF" sketch:type="MSShapeGroup" mask="url(#mask-2)"></path>
                <path d="M590.799087,169.032258 L579.189498,169.032258 L579.189498,167.741935 L590.799087,167.741935 L590.799087,169.032258 Z" id="Fill-113" fill="#373E46" sketch:type="MSShapeGroup" mask="url(#mask-2)"></path>
                <path d="M564.579217,167.007355 C564.098064,168.439613 562.684274,169.256387 561.422699,168.833161 C560.162413,168.408645 559.529046,166.901548 560.011489,165.470581 L565.247413,149.90671 C565.728566,148.477032 567.142356,147.658968 568.405221,148.083484 C569.664217,148.508 570.296295,150.015097 569.815142,151.443484 L564.579217,167.007355 Z" id="Fill-114" fill="#14AEB4" sketch:type="MSShapeGroup" mask="url(#mask-2)"></path>
                <path d="M537.910959,135.483871 L537.910959,169.032258 L541.780822,169.032258 L541.780822,139.354839 L570.159817,139.354839 L570.159817,169.032258 L574.02968,169.032258 L574.02968,135.483871 L537.910959,135.483871 Z" id="Fill-115" fill="#373E46" sketch:type="MSShapeGroup" mask="url(#mask-2)"></path>
                <path d="M558.550228,158.709677 L544.360731,158.709677 L544.360731,169.032258 L558.550228,169.032258 L558.550228,158.709677 Z" id="Fill-116" fill="#373E46" sketch:type="MSShapeGroup" mask="url(#mask-2)"></path>
                <path d="M548.230594,150.967742 L546.940639,150.967742 L546.940639,158.709677 L548.230594,158.709677 L548.230594,150.967742 Z" id="Fill-117" fill="#F7B817" sketch:type="MSShapeGroup" mask="url(#mask-2)"></path>
                <path d="M549.520548,150.967742 L548.230594,150.967742 L548.230594,158.709677 L549.520548,158.709677 L549.520548,150.967742 Z" id="Fill-118" fill="#CF2929" sketch:type="MSShapeGroup" mask="url(#mask-2)"></path>
                <path d="M546.940639,150.967742 L544.360731,150.967742 L544.360731,158.709677 L546.940639,158.709677 L546.940639,150.967742 Z" id="Fill-119" fill="#4F7C32" sketch:type="MSShapeGroup" mask="url(#mask-2)"></path>
                <path d="M530.171233,169.032258 L503.082192,169.032258 L503.082192,152.258065 L530.171233,152.258065 L530.171233,169.032258 Z" id="Fill-120" fill="#373E46" sketch:type="MSShapeGroup" mask="url(#mask-2)"></path>
                <path d="M534.041096,153.548387 L500.502283,153.548387 L500.502283,147.096774 L534.041096,147.096774 L534.041096,153.548387 Z" id="Fill-121" fill="#CF2929" sketch:type="MSShapeGroup" mask="url(#mask-2)"></path>
                <path d="M514.691781,169.032258 L506.952055,169.032258 L506.952055,154.83871 L514.691781,154.83871 L514.691781,169.032258 Z" id="Fill-122" fill="#99AAA1" sketch:type="MSShapeGroup" mask="url(#mask-2)"></path>
                <path d="M526.30137,162.580645 L517.271689,162.580645 L517.271689,154.83871 L526.30137,154.83871 L526.30137,162.580645 Z" id="Fill-123" fill="#DCE8E1" sketch:type="MSShapeGroup" mask="url(#mask-2)"></path>
                <path d="M303.139269,36.1290323 L295.399543,36.1290323 L295.399543,37.4193548 L303.139269,37.4193548 L303.139269,36.1290323 Z" id="Fill-124" fill="#373E46" sketch:type="MSShapeGroup" mask="url(#mask-2)"></path>
                <path d="M299.44097,32.6658065 L298.108447,32.6658065 L298.108447,23.9987097 L299.44097,23.9987097 L299.44097,32.6658065 Z" id="Fill-125" fill="#ED2D32" sketch:type="MSShapeGroup" mask="url(#mask-2)"></path>
                <path d="M300.107748,23.4677419 C300.107748,24.1296774 299.571127,24.6677419 298.90938,24.6677419 L298.64107,24.6677419 C297.979323,24.6677419 297.442702,24.1296774 297.442702,23.4677419 L297.442702,23.1993548 C297.442702,22.536129 297.979323,21.9993548 298.64107,21.9993548 L298.90938,21.9993548 C299.571127,21.9993548 300.107748,22.536129 300.107748,23.1993548 L300.107748,23.4677419 Z" id="Fill-126" fill="#ED2D32" sketch:type="MSShapeGroup" mask="url(#mask-2)"></path>
                <path d="M302.774212,38 L295.442112,38 L295.442112,32.6658065 L302.774212,32.6658065 L302.774212,38 Z M294.109589,40 L304.106735,40 L304.106735,31.3329032 L294.109589,31.3329032 L294.109589,40 Z" id="Fill-127" fill="#ED2D32" sketch:type="MSShapeGroup" mask="url(#mask-2)"></path>
                <path d="M612.728311,85.1612903 L604.988584,85.1612903 L604.988584,86.4516129 L612.728311,86.4516129 L612.728311,85.1612903 Z" id="Fill-128" fill="#373E46" sketch:type="MSShapeGroup" mask="url(#mask-2)"></path>
                <path d="M609.030011,81.6980645 L607.697489,81.6980645 L607.697489,73.0309677 L609.030011,73.0309677 L609.030011,81.6980645 Z" id="Fill-129" fill="#ED2D32" sketch:type="MSShapeGroup" mask="url(#mask-2)"></path>
                <path d="M609.697434,72.5 C609.697434,73.1619355 609.160813,73.7 608.497776,73.7 L608.229466,73.7 C607.569009,73.7 607.032388,73.1619355 607.032388,72.5 L607.032388,72.2316129 C607.032388,71.5683871 607.569009,71.0316129 608.229466,71.0316129 L608.497776,71.0316129 C609.160813,71.0316129 609.697434,71.5683871 609.697434,72.2316129 L609.697434,72.5 Z" id="Fill-130" fill="#ED2D32" sketch:type="MSShapeGroup" mask="url(#mask-2)"></path>
                <path d="M612.363253,87.0322581 L605.031153,87.0322581 L605.031153,81.6980645 L612.363253,81.6980645 L612.363253,87.0322581 Z M603.69863,89.0322581 L613.695776,89.0322581 L613.695776,80.3651613 L603.69863,80.3651613 L603.69863,89.0322581 Z" id="Fill-131" fill="#ED2D32" sketch:type="MSShapeGroup" mask="url(#mask-2)"></path>
                <path d="M628.207763,82.5806452 L620.468037,82.5806452 L620.468037,83.8709677 L628.207763,83.8709677 L628.207763,82.5806452 Z" id="Fill-132" fill="#373E46" sketch:type="MSShapeGroup" mask="url(#mask-2)"></path>
                <path d="M624.509463,79.1174194 L623.176941,79.1174194 L623.176941,70.4503226 L624.509463,70.4503226 L624.509463,79.1174194 Z" id="Fill-133" fill="#ED2D32" sketch:type="MSShapeGroup" mask="url(#mask-2)"></path>
                <path d="M625.176886,69.9193548 C625.176886,70.5812903 624.640265,71.1193548 623.977228,71.1193548 L623.708918,71.1193548 C623.048461,71.1193548 622.51184,70.5812903 622.51184,69.9193548 L622.51184,69.6509677 C622.51184,68.9877419 623.048461,68.4509677 623.708918,68.4509677 L623.977228,68.4509677 C624.640265,68.4509677 625.176886,68.9877419 625.176886,69.6509677 L625.176886,69.9193548 Z" id="Fill-134" fill="#ED2D32" sketch:type="MSShapeGroup" mask="url(#mask-2)"></path>
                <path d="M627.842705,84.4516129 L620.510605,84.4516129 L620.510605,79.1174194 L627.842705,79.1174194 L627.842705,84.4516129 Z M619.178082,86.4516129 L629.175228,86.4516129 L629.175228,77.7845161 L619.178082,77.7845161 L619.178082,86.4516129 Z" id="Fill-135" fill="#ED2D32" sketch:type="MSShapeGroup" mask="url(#mask-2)"></path>
                <path d="M733.984018,54.1935484 L715.924658,54.1935484 L715.924658,43.8709677 L733.984018,43.8709677 L733.984018,54.1935484 Z" id="Fill-136" fill="#373E46" sketch:type="MSShapeGroup" mask="url(#mask-2)"></path>
                <path d="M735.273973,43.8709677 L713.344749,43.8709677 L713.344749,38.7096774 L735.273973,38.7096774 L735.273973,43.8709677 Z" id="Fill-137" fill="#CF2929" sketch:type="MSShapeGroup" mask="url(#mask-2)"></path>
                <path d="M718.504566,43.8709677 L715.924658,43.8709677 L715.924658,38.7096774 L718.504566,38.7096774 L718.504566,43.8709677 Z" id="Fill-138" fill="#FCFADF" sketch:type="MSShapeGroup" mask="url(#mask-2)"></path>
                <path d="M723.664384,43.8709677 L721.084475,43.8709677 L721.084475,38.7096774 L723.664384,38.7096774 L723.664384,43.8709677 Z" id="Fill-139" fill="#FCFADF" sketch:type="MSShapeGroup" mask="url(#mask-2)"></path>
                <path d="M728.824201,43.8709677 L726.244292,43.8709677 L726.244292,38.7096774 L728.824201,38.7096774 L728.824201,43.8709677 Z" id="Fill-140" fill="#FCFADF" sketch:type="MSShapeGroup" mask="url(#mask-2)"></path>
                <path d="M733.984018,43.8709677 L731.40411,43.8709677 L731.40411,38.7096774 L733.984018,38.7096774 L733.984018,43.8709677 Z" id="Fill-141" fill="#FCFADF" sketch:type="MSShapeGroup" mask="url(#mask-2)"></path>
                <path d="M736.563927,43.8709677 L735.273973,43.8709677 L735.273973,38.7096774 L736.563927,38.7096774 L736.563927,43.8709677 Z" id="Fill-142" fill="#CF2929" sketch:type="MSShapeGroup" mask="url(#mask-2)"></path>
                <path d="M745.593607,52.9032258 C745.593607,53.6167742 745.016998,54.1935484 744.303653,54.1935484 C743.590308,54.1935484 743.013699,53.6167742 743.013699,52.9032258 L743.013699,40 C743.013699,39.2864516 743.590308,38.7096774 744.303653,38.7096774 C745.016998,38.7096774 745.593607,39.2864516 745.593607,40 L745.593607,52.9032258 Z" id="Fill-143" fill="#F7B817" sketch:type="MSShapeGroup" mask="url(#mask-2)"></path>
                <path d="M749.758225,52.636129 C750.014926,53.4232258 749.584081,54.2709677 748.795919,54.5277419 L748.628225,54.5819355 C747.840063,54.84 746.993853,54.4064516 746.735862,53.6193548 L742.886638,41.7922581 C742.631227,41 743.062072,40.1548387 743.851524,39.8980645 L744.015348,39.843871 C744.8048,39.5870968 745.6523,40.0193548 745.910291,40.8064516 L749.758225,52.636129 Z" id="Fill-144" fill="#F06B39" sketch:type="MSShapeGroup" mask="url(#mask-2)"></path>
                <path d="M739.143836,38.7096774 L738.498858,37.8025806 L737.853881,38.7096774 L737.853881,54.1935484 L739.143836,54.1935484 L739.143836,38.7096774 Z" id="Fill-145" fill="#3D6821" sketch:type="MSShapeGroup" mask="url(#mask-2)"></path>
                <path d="M741.723744,38.7096774 L741.078767,37.8025806 L740.43379,38.7096774 L740.43379,54.1935484 L741.723744,54.1935484 L741.723744,38.7096774 Z" id="Fill-146" fill="#3D6821" sketch:type="MSShapeGroup" mask="url(#mask-2)"></path>
                <path d="M743.013699,132.903226 L672.06621,132.903226 L726.244292,150.967742 L743.013699,132.903226 Z" id="Fill-147" fill="#8DA096" sketch:type="MSShapeGroup" mask="url(#mask-2)"></path>
                <path d="M719.633276,47.5806452 L717.214612,47.5806452 L717.214612,45.1612903 L719.633276,45.1612903 L719.633276,47.5806452 Z" id="Fill-148" fill="#ABC9BA" sketch:type="MSShapeGroup" mask="url(#mask-2)"></path>
                <path d="M723.503139,47.5806452 L721.084475,47.5806452 L721.084475,45.1612903 L723.503139,45.1612903 L723.503139,47.5806452 Z" id="Fill-149" fill="#ABC9BA" sketch:type="MSShapeGroup" mask="url(#mask-2)"></path>
                <path d="M468.253425,136.774194 L466.96347,136.774194 L466.96347,129.032258 L468.253425,129.032258 L468.253425,136.774194 Z" id="Fill-150" fill="#3A2309" sketch:type="MSShapeGroup" mask="url(#mask-2)"></path>
                <path d="M467.185213,117.537806 L472.302462,132.902968 L461.975088,132.902968 L467.185213,117.537806 Z" id="Fill-151" fill="#243F12" sketch:type="MSShapeGroup" mask="url(#mask-2)"></path>
                <path d="M467.066796,113.703355 L471.896385,127.742065 L462.1482,127.742065 L467.066796,113.703355 Z" id="Fill-152" fill="#33591B" sketch:type="MSShapeGroup" mask="url(#mask-2)"></path>
                <path d="M467.108332,110.292387 L471.866974,121.289806 L462.263264,121.289806 L467.108332,110.292387 Z" id="Fill-153" fill="#3D6821" sketch:type="MSShapeGroup" mask="url(#mask-2)"></path>
                <path d="M454.063927,136.774194 L452.773973,136.774194 L452.773973,129.032258 L454.063927,129.032258 L454.063927,136.774194 Z" id="Fill-154" fill="#3A2309" sketch:type="MSShapeGroup" mask="url(#mask-2)"></path>
                <path d="M453.199787,117.537806 L458.317035,132.902968 L447.989661,132.902968 L453.199787,117.537806 Z" id="Fill-155" fill="#243F12" sketch:type="MSShapeGroup" mask="url(#mask-2)"></path>
                <path d="M453.081369,113.703355 L457.912248,127.742065 L448.162773,127.742065 L453.081369,113.703355 Z" id="Fill-156" fill="#33591B" sketch:type="MSShapeGroup" mask="url(#mask-2)"></path>
                <path d="M453.122905,110.292387 L457.881547,121.289806 L448.279127,121.289806 L453.122905,110.292387 Z" id="Fill-157" fill="#3D6821" sketch:type="MSShapeGroup" mask="url(#mask-2)"></path>
                <path d="M439.874429,136.774194 L438.584475,136.774194 L438.584475,129.032258 L439.874429,129.032258 L439.874429,136.774194 Z" id="Fill-158" fill="#3A2309" sketch:type="MSShapeGroup" mask="url(#mask-2)"></path>
                <path d="M439.533107,117.537806 L444.650356,132.902968 L434.322982,132.902968 L439.533107,117.537806 Z" id="Fill-159" fill="#243F12" sketch:type="MSShapeGroup" mask="url(#mask-2)"></path>
                <path d="M439.414689,113.703355 L444.244279,127.742065 L434.494804,127.742065 L439.414689,113.703355 Z" id="Fill-160" fill="#33591B" sketch:type="MSShapeGroup" mask="url(#mask-2)"></path>
                <path d="M439.454936,110.292387 L444.213578,121.289806 L434.612447,121.289806 L439.454936,110.292387 Z" id="Fill-161" fill="#3D6821" sketch:type="MSShapeGroup" mask="url(#mask-2)"></path>
                <path d="M1000.91014,320 L884.423395,289.032258 L621.037938,289.032258 L505.949502,237.703226 L189.89134,238.828387 C188.823258,238.500645 187.698418,238.709677 186.531009,238.709677 L11.6196507,238.709677 C4.91188813,238.709677 -0.000257990868,244.094194 -0.000257990868,250.858065 L-0.000257990868,307.384516 C-0.000257990868,314.149677 4.91188813,320 11.6196507,320 L36.1184635,320 L1000.91014,320 Z" id="Fill-162" fill="#FCFADF" sketch:type="MSShapeGroup" mask="url(#mask-2)"></path>
                <path d="M881.081639,320 L1117.85663,320 C1124.5631,320 1130.00026,314.344516 1130.00026,307.636129 L1130.00026,289.032258 L884.908934,289.032258 L881.081639,320 Z" id="Fill-163" fill="#FCFADF" sketch:type="MSShapeGroup" mask="url(#mask-2)"></path>
                <path d="M219.305524,250.967742 C219.305524,252.769032 218.101997,254.193548 216.618549,254.193548 L198.828789,254.193548 C197.344051,254.193548 196.141814,252.769032 196.141814,250.967742 C196.141814,249.166452 197.344051,247.741935 198.828789,247.741935 L216.618549,247.741935 C218.101997,247.741935 219.305524,249.166452 219.305524,250.967742" id="Fill-164" fill="#B5B4A7" sketch:type="MSShapeGroup" mask="url(#mask-2)"></path>
                <path d="M301.849315,250.967742 C301.849315,252.769032 300.645788,254.193548 299.16105,254.193548 L281.37129,254.193548 C279.887842,254.193548 278.685605,252.769032 278.685605,250.967742 C278.685605,249.166452 279.887842,247.741935 281.37129,247.741935 L299.16105,247.741935 C300.645788,247.741935 301.849315,249.166452 301.849315,250.967742" id="Fill-165" fill="#B5B4A7" sketch:type="MSShapeGroup" mask="url(#mask-2)"></path>
                <path d="M219.292237,254.193548 L211.552511,254.193548 L211.552511,205.16129 L219.292237,205.16129 L219.292237,254.193548 Z" id="Fill-166" fill="#3A2309" sketch:type="MSShapeGroup" mask="url(#mask-2)"></path>
                <path d="M301.849315,254.193548 L294.109589,254.193548 L294.109589,205.16129 L301.849315,205.16129 L301.849315,254.193548 Z" id="Fill-167" fill="#3A2309" sketch:type="MSShapeGroup" mask="url(#mask-2)"></path>
                <path d="M215.861991,137.253032 L245.787642,227.096903 L185.393269,227.096903 L215.861991,137.253032 Z" id="Fill-168" fill="#33511B" sketch:type="MSShapeGroup" mask="url(#mask-2)"></path>
                <path d="M215.172897,114.034839 L243.419027,196.129032 L186.410785,196.129032 L215.172897,114.034839 Z" id="Fill-169" fill="#446D29" sketch:type="MSShapeGroup" mask="url(#mask-2)"></path>
                <path d="M215.417344,96.9833548 L243.239079,161.290452 L187.087366,161.290452 L215.417344,96.9833548 Z" id="Fill-170" fill="#4F7C32" sketch:type="MSShapeGroup" mask="url(#mask-2)"></path>
                <path d="M297.731265,137.253032 L327.656916,227.096903 L267.262543,227.096903 L297.731265,137.253032 Z" id="Fill-171" fill="#33511B" sketch:type="MSShapeGroup" mask="url(#mask-2)"></path>
                <path d="M297.042171,114.034839 L325.288301,196.129032 L268.278769,196.129032 L297.042171,114.034839 Z" id="Fill-172" fill="#446D29" sketch:type="MSShapeGroup" mask="url(#mask-2)"></path>
                <path d="M297.285973,96.9833548 L325.107708,161.290452 L268.955995,161.290452 L297.285973,96.9833548 Z" id="Fill-173" fill="#4F7C32" sketch:type="MSShapeGroup" mask="url(#mask-2)"></path>
                <path d="M233.079914,161.290323 C233.19214,161.290323 233.251478,160.313548 233.251478,159.832258 C233.251478,156.68129 230.697369,154.095484 227.54601,154.095484 C226.087072,154.095484 224.755839,154.628387 223.747095,155.530323 C222.704812,154.405161 221.214914,153.690323 219.559903,153.690323 C217.777186,153.690323 216.187962,154.503226 215.140519,155.783226 C214.105976,154.725161 212.662517,154.064516 211.064264,154.064516 C207.912905,154.064516 205.358796,156.682581 205.358796,159.834839 C205.358796,160.316129 205.419424,161.290323 205.53165,161.290323 L233.079914,161.290323 Z" id="Fill-174" fill="#FFFFFF" sketch:type="MSShapeGroup" mask="url(#mask-2)"></path>
                <path d="M219.585186,196.129032 C219.697412,194.83871 219.75675,194.749677 219.75675,194.268387 C219.75675,191.116129 217.20264,188.326452 214.051282,188.326452 C212.592344,188.326452 211.261111,188.76129 210.251076,189.663226 C209.208793,188.536774 207.720186,187.772903 206.063885,187.772903 C204.282458,187.772903 202.693234,188.56129 201.645791,189.84 C200.609958,188.781935 199.166499,188.109677 197.569535,188.109677 C194.418177,188.109677 191.864067,191.123871 191.864067,194.274839 C191.864067,194.756129 191.924695,194.83871 192.035631,196.129032 L219.585186,196.129032 Z" id="Fill-175" fill="#FFFFFF" sketch:type="MSShapeGroup" mask="url(#mask-2)"></path>
                <path d="M240.951861,227.096774 C241.064087,225.806452 241.123425,225.652903 241.123425,225.171613 C241.123425,222.020645 238.569315,219.2 235.419247,219.2 C233.959018,219.2 232.627785,219.616774 231.619041,220.52 C230.576758,219.392258 229.086861,218.620645 227.431849,218.620645 C225.649132,218.620645 224.059909,219.405161 223.013756,220.683871 C221.976632,219.627097 220.533174,218.952258 218.93621,218.952258 C215.786142,218.952258 213.230742,222.027097 213.230742,225.181935 C213.230742,225.661935 213.29137,225.806452 213.403596,227.096774 L240.951861,227.096774 Z" id="Fill-176" fill="#FFFFFF" sketch:type="MSShapeGroup" mask="url(#mask-2)"></path>
                <path d="M299.654845,227.096774 C299.767071,225.806452 299.826409,225.652903 299.826409,225.171613 C299.826409,222.020645 297.272299,219.2 294.120941,219.2 C292.662002,219.2 291.330769,219.616774 290.320735,220.52 C289.279742,219.392258 287.789845,218.620645 286.133543,218.620645 C284.352116,218.620645 282.762893,219.405161 281.71545,220.683871 C280.680906,219.627097 279.236158,218.952258 277.639194,218.952258 C274.487836,218.952258 271.933726,222.027097 271.933726,225.181935 C271.933726,225.661935 271.994354,225.806452 272.10658,227.096774 L299.654845,227.096774 Z" id="Fill-177" fill="#FFFFFF" sketch:type="MSShapeGroup" mask="url(#mask-2)"></path>
                <path d="M318.997323,196.129032 C319.109549,194.83871 319.170177,194.75871 319.170177,194.277419 C319.170177,191.125161 316.616067,188.341935 313.463419,188.341935 C312.004481,188.341935 310.673248,188.778065 309.664503,189.67871 C308.62222,188.553548 307.131033,187.790968 305.477312,187.790968 C303.694595,187.790968 302.105371,188.578065 301.057928,189.859355 C300.023385,188.79871 298.578636,188.129032 296.981672,188.129032 C293.830314,188.129032 291.276204,191.131613 291.276204,194.283871 C291.276204,194.765161 291.336832,194.83871 291.449058,196.129032 L318.997323,196.129032 Z" id="Fill-178" fill="#FFFFFF" sketch:type="MSShapeGroup" mask="url(#mask-2)"></path>
                <path d="M268.956769,161.290323 C268.844543,161.290323 268.783916,162.089032 268.783916,162.570323 C268.783916,165.722581 271.339315,168.218065 274.490674,168.218065 C275.949612,168.218065 277.282135,167.642581 278.290879,166.740645 C279.333162,167.868387 280.823059,168.557419 282.478071,168.557419 C284.259498,168.557419 285.850011,167.734194 286.896164,166.454194 C287.931998,167.512258 289.375457,168.166452 290.97242,168.166452 C294.123779,168.166452 296.679178,165.723871 296.679178,162.571613 C296.679178,162.091613 296.61855,161.290323 296.506324,161.290323 L268.956769,161.290323 Z" id="Fill-179" fill="#FFFFFF" sketch:type="MSShapeGroup" mask="url(#mask-2)"></path>
                <path d="M361.054349,252.258065 C361.054349,254.059355 359.761815,255.483871 358.170011,255.483871 L339.067078,255.483871 C337.472694,255.483871 336.18145,254.059355 336.18145,252.258065 C336.18145,250.456774 337.472694,249.032258 339.067078,249.032258 L358.170011,249.032258 C359.761815,249.032258 361.054349,250.456774 361.054349,252.258065" id="Fill-180" fill="#B5B4A7" sketch:type="MSShapeGroup" mask="url(#mask-2)"></path>
                <path d="M361.187215,113.548387 L357.317352,113.548387 L357.317352,255.483871 L361.187215,255.483871 L361.187215,113.548387 Z" id="Fill-181" fill="#373E46" sketch:type="MSShapeGroup" mask="url(#mask-2)"></path>
                <path d="M416.655251,149.677419 L357.317352,149.677419 L357.317352,108.387097 L416.655251,108.387097 L416.655251,149.677419 Z" id="Fill-182" fill="#ED2D32" sketch:type="MSShapeGroup" mask="url(#mask-2)"></path>
                <path d="M390.856164,143.225806 L381.826484,143.225806 L381.826484,116.129032 L390.856164,116.129032 L390.856164,143.225806 Z" id="Fill-183" fill="#FFFFFF" sketch:type="MSShapeGroup" mask="url(#mask-2)"></path>
                <path d="M399.885845,134.193548 L372.796804,134.193548 L372.796804,125.16129 L399.885845,125.16129 L399.885845,134.193548 Z" id="Fill-184" fill="#FFFFFF" sketch:type="MSShapeGroup" mask="url(#mask-2)"></path>
            </g>
        </g>
    </g>
</svg>