<?xml version="1.0" encoding="UTF-8" standalone="no"?>
<svg width="1089px" height="578px" viewBox="0 0 1089 578" version="1.1" xmlns="http://www.w3.org/2000/svg" xmlns:xlink="http://www.w3.org/1999/xlink" xmlns:sketch="http://www.bohemiancoding.com/sketch/ns">
    <!-- Generator: Sketch 3.4.4 (17249) - http://www.bohemiancoding.com/sketch -->
    <title>Page 1</title>
    <desc>Created with Sketch.</desc>
    <defs></defs>
    <g id="Welcome" stroke="none" stroke-width="1" fill="none" fill-rule="evenodd" sketch:type="MSPage">
        <g id="main_-copy-2" sketch:type="MSArtboardGroup" transform="translate(-176.000000, -92.000000)">
            <g id="Page-1" sketch:type="MSLayerGroup" transform="translate(176.000000, 92.000000)">
                <path d="M385.283736,308.822359 L231.587281,264.639789 L231.913305,263.506139 L385.609759,307.690062 L385.283736,308.822359 Z" id="Fill-2" fill="#F7B817" sketch:type="MSShapeGroup"></path>
                <path d="M383.396451,312.358994 L229.70135,268.179129 L230.024668,267.04548 L383.722475,311.226697 L383.396451,312.358994 Z" id="Fill-3" fill="#F7B817" sketch:type="MSShapeGroup"></path>
                <g id="Group-209" sketch:type="MSShapeGroup">
                    <path d="M590.91778,327.072087 C589.547398,322.887865 648.477855,289.420854 648.477855,289.420854 L707.40696,336.831213 L796.489865,388.427148 L851.307825,357.748265 L886.940447,384.244279 L943.130141,343.803564 L962.318186,385.637667 L1007.54348,413.527068 L1022.61767,452.573043 L1039.45726,451.670723 L1060.67991,515.341783 L596.399305,508.349141 L590.91778,327.072087 Z" id="Fill-4" fill="#373E46"></path>
                    <path d="M657.420101,328.568829 L605.541764,276.180152 L566.5001,285.702537 L533.758402,275.108731 L477.099287,290.990647 L434.287383,259.217346 L402.810548,289.930049 L367.606763,330.174607 L364.527802,368.185687 L371.60292,392.23989 L680.060479,407.80525 L657.420101,328.568829 Z" id="Fill-6" fill="#FCFADF"></path>
                    <path d="M870.627903,502.528297 L1005.04703,455.83357 L1031.93112,479.887774 L1061.64391,465.740152 L1088.88785,507.65407 L873.45795,519.505984 L870.627903,502.528297 Z" id="Fill-8" fill="#8FB1B5"></path>
                    <path d="M41.4703375,502.46228 L89.5784344,383.606296 L133.44146,401.999016 L162.122068,363.065325 L231.93982,261.169441 L288.973658,316.294841 L314.023364,296.784705 L355.439183,337.935642 L552.7254,504.707934 L41.4703375,502.46228 Z" id="Fill-10" fill="#99AAA1"></path>
                    <path d="M237.850181,267.054543 L225.336827,297.964756 L234.272038,310.966553 L183.319013,347.059357 L214.956831,357.4056 L189.4837,369.670118 L108.344407,422.505221 L87.5871201,423.448125 L231.93982,261.169847 L237.850181,267.054543 Z" id="Fill-12" fill="#373E46"></path>
                    <path d="M231.940225,261.169171 L233.132038,279.143874 L250.23272,289.697096 L288.974064,316.29457 L231.940225,261.169171 Z" id="Fill-14" fill="#FEFFF6"></path>
                    <path d="M112.281988,466.731893 L138.791359,440.76753 L168.508207,443.243161 L216.269989,397.958056 L288.371258,380.378371 L243.865655,418.124301 L213.794374,424.490596 L174.169655,464.11557 L135.196983,460.288488 L112.281988,466.731893 Z" id="Fill-16" fill="#ABC9BA"></path>
                    <path d="M157.147435,503.628803 L220.118691,434.489709 L245.62023,434.489709 L318.485829,328.163394 L410.48536,441.995064 L445.161555,502.803593 L207.37942,503.433999 L157.147435,503.628803 Z" id="Fill-18" fill="#ABC9BA"></path>
                    <path d="M288.973658,316.29457 L314.977084,311.98589 L355.309315,348.073283 L360.09821,351.825961 L430.666762,407.155633 L426.774771,398.66679 L355.439183,337.935372 L314.023364,296.784435 L288.973658,316.29457 Z" id="Fill-20" fill="#FEFFF6"></path>
                    <path d="M530.295652,372.260196 L527.590062,372.260196 L527.590062,343.851318 L530.295652,343.851318 L530.295652,372.260196 Z" id="Fill-22" fill="#A37321"></path>
                    <path d="M756.046029,452.697907 L714.532807,388.539836 L657.925099,394.20132 L653.547455,390.724614 L682.890932,389.409689 L688.549673,346.964119 L647.515342,325.738629 L602.092543,349.84018 L545.641759,304.986619 L482.435117,341.364864 L396.241781,359.798168 L303.173542,503.645848 L771.141868,511.194493 L773.03037,499.871526 L756.046029,452.697907 Z" id="Fill-24" fill="#373E46"></path>
                    <path d="M687.219876,338.440103 L684.576514,338.440103 L684.707735,309.875652 L687.219876,309.285829 L687.219876,338.440103 Z" id="Fill-25" fill="#F06B39"></path>
                    <path d="M494.862027,351.018337 L494.614466,349.864395 L727.108525,300.106921 L727.356087,301.25951 L494.862027,351.018337 Z" id="Fill-26" fill="#F7B817"></path>
                    <path d="M494.862027,355.265599 L494.614466,354.110305 L727.108525,304.350125 L727.356087,305.505419 L494.862027,355.265599 Z" id="Fill-27" fill="#F7B817"></path>
                    <path d="M574.198045,410.389646 L613.560322,375.75787 L646.101806,374.332015 L699.281532,314.789711 L757.881907,268.200504 L803.161309,321.967688 L866.83196,330.455179 L896.546103,385.637396 L985.688532,430.964438 L1008.32756,510.245501 L558.386576,510.245501 L574.198045,410.389646 Z" id="Fill-28" fill="#ABC9BA"></path>
                    <path d="M743.733429,508.738748 L783.351385,364.413529 L820.139293,362.999849 L830.044458,333.285515 L851.268459,353.093267 L867.220618,330.830176 L893.796277,380.049234 L985.687585,430.966061 L1008.32796,510.24983 L895.132838,473.366989 L834.288176,494.591127 L822.96934,454.970211 L743.733429,508.738748 Z" id="Fill-29" fill="#99AAA1"></path>
                    <path d="M725.325406,310.707626 L757.792487,315.668357 L755.763294,309.128904 L754.859627,308.678421 L733.442176,305.070493 L725.325406,310.707626 Z" id="Fill-30" fill="#FCFADF"></path>
                    <path d="M699.281396,314.789847 L757.881771,268.200639 L795.774913,313.519564 L762.126842,289.422071 L743.732888,307.817496 L736.822811,303.492583 L709.775027,330.455314 L714.018745,312.059889 L699.281396,314.789847 Z" id="Fill-31" fill="#FCFADF"></path>
                    <path d="M847.091434,380.520957 L831.052696,366.840053 L801.334495,414.484448 C801.334495,414.484448 776.318609,452.67545 776.318609,455.03474 C776.318609,457.392677 868.792972,410.711478 868.792972,410.711478 L936.937316,422.1332 L985.68799,430.965656 L847.091434,380.520957 Z" id="Fill-32" fill="#DCE8E1"></path>
                    <path d="M538.105879,358.569687 L446.48513,334.557421 L401.898359,269.413157 L453.903858,321.065909 L538.105879,358.569687 Z" id="Fill-33" fill="#DCE8E1"></path>
                    <path d="M164.599036,473.734952 L116.179796,490.010533 L59.5964381,457.886856 L0.614574783,502.529379 L249.917113,509.683005 L240.296034,477.982755 L179.601533,486.472952 L164.599036,473.734952 Z" id="Fill-34" fill="#ABC9BA"></path>
                    <path d="M1089,507.54057 L2.70559006,507.54057 L2.70559006,553.414145 L1089,549.308386 L1089,507.54057 Z" id="Fill-35" fill="#E3EBEC"></path>
                    <path d="M300.847546,403.564886 L275.378474,430.449155 L299.432522,431.865541 L279.623545,458.748457 L265.473309,489.877823 L330.561689,450.259613 L319.2415,440.353031 L329.146665,417.715214 L317.827829,406.394952 L323.302591,378.71794 L300.847546,403.564886 Z" id="Fill-36" fill="#C7CCAC"></path>
                    <path d="M706.159006,308.678421 L754.859627,308.678421 L744.939581,302.816722 L713.148898,303.493124 L706.159006,308.678421 Z" id="Fill-37" fill="#99AAA1"></path>
                    <path d="M706.513033,509.306926 L649.902619,436.053956 L574.192092,408.455407 L538.106285,358.569417 L453.904264,321.066991 L401.897412,269.412886 L349.536127,255.616994 L340.284362,279.096255 L317.185387,330.620491 L267.85301,423.313251 L267.85301,455.527566 L247.845172,470.722258 L246.193409,508.364022 L706.513033,509.306926 Z" id="Fill-38" fill="#DCE8E1"></path>
                    <path d="M317.797797,347.97047 L348.932375,308.814918 L377.236905,311.174208 L400.824239,279.567302 L408.372836,316.834339 L353.177445,324.381631 L347.515998,368.726538 L339.025857,338.534664 L317.797797,347.97047 Z" id="Fill-39" fill="#FCFADF"></path>
                    <path d="M367.693342,368.317991 L398.59118,376.456458 L410.85562,366.548524 L416.280328,394.854589 L460.288103,395.257725 L491.16565,421.387129 L635.96883,430.975802 L464.985008,436.599407 L380.075475,398.037736 L392.104528,394.144367 L367.693342,368.317991 Z" id="Fill-40" fill="#99AAA1"></path>
                    <path d="M211.184021,527.232793 L331.985911,472.468592 L350.378513,483.764503 L409.806798,459.546611 L431.0308,477.778347 L464.980544,477.778347 L487.634449,469.395022 L582.443736,490.717914 L620.65749,528.126996" id="Fill-41" fill="#99AAA1"></path>
                    <path d="M650.374744,436.053415 L638.666303,463.899527 L649.669938,463.192011 L605.263089,512.666749 L702.503348,503.506915 L650.374744,436.053415 Z" id="Fill-42" fill="#99AAA1"></path>
                    <path d="M1089,577.886364 L1.12687826,578 L0.450480745,558.947112 L328.403169,558.947112 L434.562406,526.163266 L1089,525.577502 L1089,577.886364 Z" id="Fill-43" fill="#4F7C32"></path>
                    <path d="M711.570186,519.715804 L687.219876,519.715804 L687.219876,499.423748 L711.570186,499.423748 L711.570186,519.715804 Z" id="Fill-44" fill="#F7B817"></path>
                    <path d="M730.509317,519.715804 L711.570186,519.715804 L711.570186,507.54057 L725.57432,507.54057 L730.509317,512.893614 L730.509317,519.715804 Z" id="Fill-45" fill="#475A63"></path>
                    <path d="M686.871125,499.423748 L699.14774,485.516925 L711.427061,499.423748 L686.871125,499.423748 Z" id="Fill-46" fill="#ED2D32"></path>
                    <path d="M703.453416,511.598981 L695.336646,511.598981 L695.336646,504.834963 L703.453416,504.834963 L703.453416,511.598981 Z" id="Fill-47" fill="#FCFADF"></path>
                    <path d="M719.686957,514.304589 L715.628571,514.304589 L715.628571,511.598981 L719.686957,511.598981 L719.686957,514.304589 Z" id="Fill-48" fill="#FCFADF"></path>
                    <path d="M725.098137,514.304589 L722.392547,514.304589 L722.392547,511.598981 L725.098137,511.598981 L725.098137,514.304589 Z" id="Fill-49" fill="#FCFADF"></path>
                    <path d="M664.22236,518.363 L662.869565,518.363 L662.869565,510.246178 L664.22236,510.246178 L664.22236,518.363 Z" id="Fill-50" fill="#3A2309"></path>
                    <path d="M663.102111,498.195131 L668.468649,514.304318 L657.638172,514.304318 L663.102111,498.195131 Z" id="Fill-51" fill="#243F12"></path>
                    <path d="M662.977924,494.175004 L668.042789,508.893509 L657.819717,508.893509 L662.977924,494.175004 Z" id="Fill-52" fill="#33591B"></path>
                    <path d="M663.021484,490.598868 L668.010592,502.128814 L657.940386,502.128814 L663.021484,490.598868 Z" id="Fill-53" fill="#3D6821"></path>
                    <path d="M649.341615,518.363 L647.98882,518.363 L647.98882,510.246178 L649.341615,510.246178 L649.341615,518.363 Z" id="Fill-54" fill="#3A2309"></path>
                    <path d="M648.435378,498.195131 L653.801915,514.304318 L642.971438,514.304318 L648.435378,498.195131 Z" id="Fill-55" fill="#243F12"></path>
                    <path d="M648.311191,494.175004 L653.377408,508.893509 L643.152983,508.893509 L648.311191,494.175004 Z" id="Fill-56" fill="#33591B"></path>
                    <path d="M648.354751,490.598868 L653.343859,502.128814 L643.275006,502.128814 L648.354751,490.598868 Z" id="Fill-57" fill="#3D6821"></path>
                    <path d="M634.46087,518.363 L633.108075,518.363 L633.108075,510.246178 L634.46087,510.246178 L634.46087,518.363 Z" id="Fill-58" fill="#3A2309"></path>
                    <path d="M634.10292,498.195131 L639.469458,514.304318 L628.638981,514.304318 L634.10292,498.195131 Z" id="Fill-59" fill="#243F12"></path>
                    <path d="M633.978733,494.175004 L639.043598,508.893509 L628.819173,508.893509 L633.978733,494.175004 Z" id="Fill-60" fill="#33591B"></path>
                    <path d="M634.020941,490.598868 L639.011401,502.128814 L628.942548,502.128814 L634.020941,490.598868 Z" id="Fill-61" fill="#3D6821"></path>
                    <path d="M739.978882,518.363 L738.626087,518.363 L738.626087,510.246178 L739.978882,510.246178 L739.978882,518.363 Z" id="Fill-62" fill="#3A2309"></path>
                    <path d="M739.900961,498.195131 L745.267499,514.304318 L734.435669,514.304318 L739.900961,498.195131 Z" id="Fill-63" fill="#243F12"></path>
                    <path d="M739.775422,494.175004 L744.842992,508.893509 L734.617214,508.893509 L739.775422,494.175004 Z" id="Fill-64" fill="#33591B"></path>
                    <path d="M739.818982,490.598868 L744.809442,502.128814 L734.739236,502.128814 L739.818982,490.598868 Z" id="Fill-65" fill="#3D6821"></path>
                    <path d="M754.859627,518.363 L753.506832,518.363 L753.506832,510.246178 L754.859627,510.246178 L754.859627,518.363 Z" id="Fill-66" fill="#3A2309"></path>
                    <path d="M754.781706,498.195131 L760.148244,514.304318 L749.316414,514.304318 L754.781706,498.195131 Z" id="Fill-67" fill="#243F12"></path>
                    <path d="M754.656167,494.175004 L759.723737,508.893509 L749.49796,508.893509 L754.656167,494.175004 Z" id="Fill-68" fill="#33591B"></path>
                    <path d="M754.699727,490.598868 L759.690188,502.128814 L749.619982,502.128814 L754.699727,490.598868 Z" id="Fill-69" fill="#3D6821"></path>
                    <path d="M679.103106,518.363 L677.750311,518.363 L677.750311,510.246178 L679.103106,510.246178 L679.103106,518.363 Z" id="Fill-70" fill="#3A2309"></path>
                    <path d="M678.433337,498.195131 L683.80258,514.304318 L672.97075,514.304318 L678.433337,498.195131 Z" id="Fill-71" fill="#243F12"></path>
                    <path d="M678.310503,494.175004 L683.37672,508.893509 L673.152296,508.893509 L678.310503,494.175004 Z" id="Fill-72" fill="#33591B"></path>
                    <path d="M678.354063,490.598868 L683.343171,502.128814 L673.274318,502.128814 L678.354063,490.598868 Z" id="Fill-73" fill="#3D6821"></path>
                    <path d="M0.131491677,577.886364 L948.87235,577.886364 L834.339312,549.477486 L575.368348,549.477486 L462.208396,501.440778 L0.614439503,502.459439 L0.131491677,577.886364 Z" id="Fill-74" fill="#FCFADF"></path>
                    <path d="M783.35152,364.412852 L816.428711,341.129747 L830.044593,333.284838 L834.828076,359.05575 L812.654413,374.150334 L783.35152,364.412852 Z" id="Fill-75" fill="#99AAA1"></path>
                    <path d="M809.201268,324.912065 L817.251752,310.967364 L825.303588,324.912065 L809.201268,324.912065 Z" id="Fill-76" fill="#4F7C32"></path>
                    <path d="M812.875189,324.912065 L817.323179,317.069862 L821.773875,324.912065 L812.875189,324.912065 Z" id="Fill-77" fill="#373E46"></path>
                    <path d="M452.289973,420.961131 L461.566089,404.892528 L470.843557,420.961131 L452.289973,420.961131 Z" id="Fill-78" fill="#4F7C32"></path>
                    <path d="M456.52341,420.961131 L461.649151,411.923049 L466.774891,420.961131 L456.52341,420.961131 Z" id="Fill-79" fill="#373E46"></path>
                    <path d="M232.414515,379.024215 L240.565105,364.906355 L248.717048,379.024215 L232.414515,379.024215 Z" id="Fill-80" fill="#4F7C32"></path>
                    <path d="M236.133349,379.024215 L240.638156,371.08461 L245.142964,379.024215 L236.133349,379.024215 Z" id="Fill-81" fill="#373E46"></path>
                    <path d="M825.88529,327.617673 L833.344601,314.698397 L840.801208,327.617673 L825.88529,327.617673 Z" id="Fill-82" fill="#F7B817"></path>
                    <path d="M829.288516,327.617673 L833.410482,320.353117 L837.532449,327.617673 L829.288516,327.617673 Z" id="Fill-83" fill="#373E46"></path>
                    <path d="M841.914152,328.970477 L849.373464,316.052554 L856.83007,328.970477 L841.914152,328.970477 Z" id="Fill-84" fill="#ED2D32"></path>
                    <path d="M845.317243,328.970477 L849.43921,321.705921 L853.561176,328.970477 L845.317243,328.970477 Z" id="Fill-85" fill="#373E46"></path>
                    <path d="M426.28763,462.562551 L432.648472,471.014869 L456.018006,471.014869 L463.079596,461.95379 L426.28763,462.562551 Z" id="Fill-86" fill="#99AAA1"></path>
                    <path d="M444.555638,465.603654 L451.879671,452.919766 L459.203703,465.603654 L444.555638,465.603654 Z" id="Fill-87" fill="#F7B817"></path>
                    <path d="M447.896636,465.603654 L451.944199,458.47032 L455.990409,465.603654 L447.896636,465.603654 Z" id="Fill-88" fill="#373E46"></path>
                    <path d="M259.519387,364.143374 L268.485713,348.613187 L277.452038,364.143374 L259.519387,364.143374 Z" id="Fill-89" fill="#F7B817"></path>
                    <path d="M263.61078,364.143374 L268.566069,355.409673 L273.521357,364.143374 L263.61078,364.143374 Z" id="Fill-90" fill="#373E46"></path>
                    <path d="M429.536908,465.603654 L436.859587,452.919766 L444.18362,465.603654 L429.536908,465.603654 Z" id="Fill-91" fill="#14AEB4"></path>
                    <path d="M432.878582,465.603654 L436.924792,458.47032 L440.972355,465.603654 L432.878582,465.603654 Z" id="Fill-92" fill="#373E46"></path>
                    <path d="M427.04533,415.549916 L436.321446,399.484019 L445.596208,415.549916 L427.04533,415.549916 Z" id="Fill-93" fill="#F7B817"></path>
                    <path d="M431.277414,415.549916 L436.403154,406.513187 L441.528895,415.549916 L431.277414,415.549916 Z" id="Fill-94" fill="#373E46"></path>
                    <path d="M696.250865,391.199449 L705.52698,375.133551 L714.803096,391.199449 L696.250865,391.199449 Z" id="Fill-95" fill="#F7B817"></path>
                    <path d="M700.483625,391.199449 L705.609366,382.16272 L710.735106,391.199449 L700.483625,391.199449 Z" id="Fill-96" fill="#373E46"></path>
                    <path d="M363.965309,266.741505 L372.992511,252.606058 L382.021065,266.741505 L363.965309,266.741505 Z" id="Fill-97" fill="#F7B817"></path>
                    <path d="M368.084435,266.741505 L373.073543,258.791077 L378.061298,266.741505 L368.084435,266.741505 Z" id="Fill-98" fill="#373E46"></path>
                    <path d="M49.8763353,205.865336 C49.9209775,205.865336 49.9669725,205.735467 50.010262,205.670533 C50.0738434,205.735467 50.1387775,205.865336 50.2023589,205.865336 L121.091524,205.865336 C121.138872,205.865336 121.167281,204.618051 121.167281,204.227091 C121.167281,199.209542 117.099426,194.902215 112.081909,194.902215 C111.187712,194.902215 110.324628,194.911685 109.508893,195.152484 C107.591982,190.398731 102.935662,186.98696 97.4947204,186.98696 C96.7479775,186.98696 96.0161154,187.019428 95.3045452,187.139827 C95.3072508,186.949082 95.3113092,186.739397 95.3113092,186.548652 C95.3113092,172.023598 83.5392868,160.244736 69.0156794,160.244736 C57.2274235,160.244736 47.2505601,167.999007 43.911862,178.688862 C41.231975,177.148019 38.123252,176.265991 34.810257,176.265991 C24.7116421,176.265991 16.5272322,184.932051 16.5272322,195.028026 C16.5272322,198.872694 17.7149862,201.806925 19.7414732,205.865336 L49.8763353,205.865336 Z" id="Fill-99" fill="#FFFFFF"></path>
                    <path d="M275.70071,144.989168 C276.301351,143.636364 276.64496,142.571708 276.64496,141.258136 C276.64496,137.182138 273.337377,133.815009 269.260052,133.815009 C267.927549,133.815009 266.680272,134.139682 265.600742,134.757914 C264.028794,131.710047 260.852431,129.610495 257.18771,129.610495 C255.598175,129.610495 254.101984,129.997397 252.787067,130.68868 C250.818751,126.197371 246.335588,123.054808 241.11921,123.054808 C239.874639,123.054808 238.67471,123.234731 237.538362,123.566168 C234.731312,117.682825 228.72896,113.61765 221.776947,113.61765 C212.633405,113.61765 205.137568,120.649523 204.389472,129.59832 C204.377297,129.59832 204.365122,129.595614 204.352947,129.595614 C199.125747,129.595614 194.88744,133.951643 194.88744,139.177523 C194.88744,141.314953 195.596305,143.636364 196.78947,144.989168 L275.70071,144.989168 Z" id="Fill-100" fill="#FFFFFF"></path>
                    <path d="M1046.05674,144.989168 C1046.65603,143.636364 1046.99964,142.571708 1046.99964,141.258136 C1046.99964,137.182138 1043.69476,133.815009 1039.61473,133.815009 C1038.28358,133.815009 1037.03495,134.139682 1035.95542,134.757914 C1034.38482,131.710047 1031.20711,129.610495 1027.54239,129.610495 C1025.95421,129.610495 1024.45666,129.997397 1023.1431,130.68868 C1021.17343,126.197371 1016.69162,123.054808 1011.47389,123.054808 C1010.23067,123.054808 1009.02939,123.234731 1007.89304,123.566168 C1005.08734,117.682825 999.083637,113.61765 992.131624,113.61765 C982.989435,113.61765 975.493598,120.649523 974.744149,129.59832 C974.730621,129.59832 974.721152,129.595614 974.707624,129.595614 C969.479071,129.595614 965.24347,133.951643 965.24347,139.177523 C965.24347,141.314953 965.950981,143.636364 967.1455,144.989168 L1046.05674,144.989168 Z" id="Fill-101" fill="#FFFFFF"></path>
                    <path d="M886.815313,208.570944 C886.908656,208.570944 886.999293,208.373435 887.091283,208.271974 C887.188684,208.374787 887.290144,208.570944 887.391604,208.570944 L933.433983,208.570944 C934.770544,207.21814 935.570046,204.51118 935.570046,202.188416 C935.570046,196.710914 931.12882,192.150612 925.65,192.150612 C924.395959,192.150612 923.19603,192.326477 922.092149,192.751257 C919.930383,190.063236 916.617388,188.312708 912.899907,188.312708 C910.605566,188.312708 908.46815,188.95529 906.656758,190.087586 C904.233902,187.262932 900.640878,185.460998 896.625783,185.460998 C894.046002,185.460998 891.63938,186.200981 889.603424,187.480734 C886.600219,181.789488 880.628981,177.906942 873.74596,177.906942 C867.175435,177.906942 861.434173,181.441818 858.313275,186.713694 C856.868489,186.206393 855.315481,185.925009 853.694832,185.925009 C846.010957,185.925009 839.779983,192.394117 839.779983,200.079395 C839.779983,203.170551 840.789168,205.865336 842.493689,208.570944 L886.815313,208.570944 Z" id="Fill-102" fill="#FFFFFF"></path>
                    <path d="M398.845371,188.278888 C398.752028,188.278888 398.660038,188.081379 398.5694,187.979918 C398.471999,188.084084 398.369187,188.278888 398.26908,188.278888 L352.226701,188.278888 C350.89014,186.926084 350.090638,184.274589 350.090638,181.951825 C350.090638,176.47297 354.531864,171.94243 360.010684,171.94243 C361.264725,171.94243 362.463301,172.133175 363.567182,172.556603 C365.730301,169.871287 369.043296,168.126171 372.759424,168.126171 C375.053764,168.126171 377.192533,168.771458 379.003926,169.905107 C381.426782,167.077748 385.019805,165.278519 389.036254,165.278519 C391.616034,165.278519 394.021304,166.018502 396.055907,167.296902 C399.060465,161.607009 405.033055,157.725815 411.914723,157.725815 C418.483896,157.725815 424.225158,161.262044 427.347409,166.533921 C428.792194,166.025266 430.345203,165.745236 431.964499,165.745236 C439.649727,165.745236 445.880701,172.15482 445.880701,179.841451 C445.880701,182.93396 444.870163,185.57328 443.166994,188.278888 L398.845371,188.278888 Z" id="Fill-103" fill="#FFFFFF"></path>
                    <path d="M918.234789,98.9938411 C918.141446,98.9938411 918.049456,98.7963318 917.957466,98.6948715 C917.860065,98.7976846 917.757253,98.9938411 917.658499,98.9938411 L871.61612,98.9938411 C870.279558,97.6410374 869.478704,95.2871589 869.478704,92.9657477 C869.478704,87.4868925 873.91993,83.1051612 879.39875,83.1051612 C880.654143,83.1051612 881.851367,83.3703107 882.9566,83.7937383 C885.11972,81.1070701 888.431362,79.4011846 892.148843,79.4011846 C894.443183,79.4011846 896.581952,80.0640584 898.391992,81.1977079 C900.814848,78.3703481 904.409224,76.5805888 908.422967,76.5805888 C911.002747,76.5805888 913.410722,77.3246308 915.443973,78.605736 C918.448531,72.9158435 924.419768,69.0360023 931.302789,69.0360023 C937.874668,69.0360023 943.614577,72.5722313 946.735475,77.8427547 C948.18026,77.3354533 949.733269,77.0567757 951.352564,77.0567757 C959.037793,77.0567757 965.268767,83.1700958 965.268767,90.8553738 C965.268767,93.9465304 964.258229,96.2882336 962.55506,98.9938411 L918.234789,98.9938411 Z" id="Fill-104" fill="#FFFFFF"></path>
                    <path d="M392.944749,78.701785 C394.244785,75.9961776 395.003703,74.2456495 395.003703,71.7050841 C395.003703,64.7800818 389.390957,59.1104813 382.465999,59.1104813 C381.167316,59.1104813 379.914628,59.2795818 378.736343,59.6475444 C375.977994,56.245243 371.766743,54.0537009 367.046841,54.0537009 C364.622633,54.0537009 362.333703,54.6245841 360.304511,55.6432453 C357.015866,50.6432827 351.358477,47.3370304 344.925937,47.3370304 C336.783464,47.3370304 329.881503,52.626493 327.458647,59.9559836 C326.016568,59.3769836 324.441915,59.0536636 322.791505,59.0536636 C318.827815,59.0536636 315.295667,60.8948294 312.997269,63.7668318 C312.119305,63.5246799 311.196698,63.3934579 310.242978,63.3934579 C304.516597,63.3934579 299.87651,68.1499159 299.87651,73.8763341 C299.87651,75.57275 300.286406,77.3489813 301.008799,78.701785 L392.944749,78.701785 Z" id="Fill-105" fill="#FFFFFF"></path>
                    <path d="M696.007768,143.636364 C697.677117,140.930757 698.649776,137.981645 698.649776,134.695685 C698.649776,125.653544 691.324391,118.313231 682.285015,118.313231 C680.009614,118.313231 677.843789,118.769126 675.874119,119.609217 C672.274332,114.628194 666.418082,111.378759 659.800209,111.378759 C656.305939,111.378759 653.022705,112.285138 650.171014,113.873329 C645.905651,107.866881 638.892761,103.946456 630.965382,103.946456 C620.546155,103.946456 611.708345,110.718591 608.609092,120.100285 C606.371569,118.950402 603.836431,118.29835 601.147074,118.29835 C595.551914,118.29835 590.61286,121.108124 587.662414,125.3911 C586.194631,124.83104 584.602391,124.5226 582.939806,124.5226 C578.535105,124.5226 574.634997,126.670853 572.225669,129.9744 C571.63044,129.870234 571.014918,129.812063 570.387221,129.812063 C564.528266,129.812063 559.781308,134.592871 559.781308,140.450512 C559.781308,141.547636 559.947702,142.283561 560.257492,143.636364 L696.007768,143.636364 Z" id="Fill-106" fill="#FFFFFF"></path>
                    <path d="M1069.84415,287.033561 C1071.08602,284.327953 1071.77324,280.921593 1071.77324,277.546348 C1071.77324,264.091362 1060.8643,253.194528 1047.40805,253.194528 C1042.29583,253.194528 1037.55023,254.780014 1033.63253,257.469388 C1027.72217,242.727886 1013.30273,232.316708 996.448257,232.316708 C979.858932,232.316708 965.624823,242.407271 959.548067,256.783516 C954.749703,250.211596 946.988718,245.944853 938.22937,245.944853 C927.85208,245.944853 918.874932,251.936421 914.568985,260.645771 C911.14912,258.275659 906.998744,256.886329 902.526404,256.886329 C890.839608,256.886329 881.365984,266.334311 881.365984,278.021182 C881.365984,281.255736 882.093788,285.680757 883.389765,287.033561 L1069.84415,287.033561 Z" id="Fill-107" fill="#FFFFFF"></path>
                    <path d="M723.574889,35.4120654 C722.903903,34.0592617 722.531884,31.8014322 722.531884,29.9737944 C722.531884,22.6916519 728.434129,16.6446192 735.717578,16.6446192 C738.482691,16.6446192 741.051648,17.4251869 743.172831,18.8821565 C746.372191,10.9033201 754.175113,5.23101402 763.295657,5.23101402 C772.274158,5.23101402 779.976973,10.6733435 783.265617,18.4533178 C785.862984,14.8967967 790.063412,12.5780911 794.803606,12.5780911 C800.420411,12.5780911 805.276945,15.8153505 807.609164,20.5298715 C809.458435,19.2474136 811.702722,18.4939019 814.125578,18.4939019 C820.449894,18.4939019 825.576988,23.9078224 825.576988,30.2321799 C825.576988,31.9827079 825.183324,34.0592617 824.482576,35.4120654 L723.574889,35.4120654 Z" id="Fill-108" fill="#FFFFFF"></path>
                    <path d="M951.057114,509.324107 L951.057114,508.208043 L951.057114,494.138885 L922.763406,494.138885 C922.763406,494.138885 919.454469,494.186233 918.209898,498.555789 C916.775935,503.580102 915.639587,509.448564 917.331934,509.448564 L951.057114,509.324107 Z" id="Fill-109" fill="#F06B39"></path>
                    <path d="M918.302159,503.90491 L925.147301,503.90491 L925.147301,495.769148 L923.253388,495.769148 C921.437937,495.769148 919.381689,497.406041 918.302159,503.90491" id="Fill-110" fill="#FFFFFF"></path>
                    <path d="M923.183584,509.444236 L951.056573,509.323836 L951.052515,505.839014 L918.623312,505.839014 L923.183584,509.444236 Z" id="Fill-111" fill="#F7B817"></path>
                    <path d="M943.499183,509.30165 C943.499183,510.738328 944.665293,511.90715 946.104667,511.90715 C947.542688,511.90715 948.71015,510.738328 948.71015,509.30165 C948.71015,507.862267 947.542688,506.69615 946.104667,506.69615 C944.665293,506.69615 943.499183,507.862267 943.499183,509.30165" id="Fill-112" fill="#475A63"></path>
                    <path d="M944.659205,509.30165 C944.659205,510.098451 945.305841,510.746444 946.10399,510.746444 C946.902139,510.746444 947.551481,510.098451 947.551481,509.30165 C947.551481,508.503496 946.902139,507.855503 946.10399,507.855503 C945.305841,507.855503 944.659205,508.503496 944.659205,509.30165" id="Fill-113" fill="#FFFFFF"></path>
                    <path d="M923.075225,509.49713 C923.075225,510.935161 924.241335,512.10263 925.679356,512.10263 C927.11873,512.10263 928.284839,510.935161 928.284839,509.49713 C928.284839,508.056394 927.11873,506.89163 925.679356,506.89163 C924.241335,506.89163 923.075225,508.056394 923.075225,509.49713" id="Fill-114" fill="#475A63"></path>
                    <path d="M924.233759,509.448294 C924.233759,510.245095 924.881748,510.893088 925.678544,510.893088 C926.478046,510.893088 927.126035,510.245095 927.126035,509.448294 C927.126035,508.65014 926.478046,508.0035 925.678544,508.0035 C924.881748,508.0035 924.233759,508.65014 924.233759,509.448294" id="Fill-115" fill="#FFFFFF"></path>
                    <path d="M190.758033,533.920243 C190.758033,535.808757 189.495875,537.302252 187.940161,537.302252 L169.283765,537.302252 C167.726698,537.302252 166.465893,535.808757 166.465893,533.920243 C166.465893,532.031729 167.726698,530.538234 169.283765,530.538234 L187.940161,530.538234 C189.495875,530.538234 190.758033,532.031729 190.758033,533.920243" id="Fill-116" fill="#B5B4A7"></path>
                    <path d="M277.322981,533.920243 C277.322981,535.808757 276.060824,537.302252 274.505109,537.302252 L255.84736,537.302252 C254.291646,537.302252 253.030841,535.808757 253.030841,533.920243 C253.030841,532.031729 254.291646,530.538234 255.84736,530.538234 L274.505109,530.538234 C276.060824,530.538234 277.322981,532.031729 277.322981,533.920243" id="Fill-117" fill="#B5B4A7"></path>
                    <path d="M190.744099,537.302252 L182.627329,537.302252 L182.627329,485.89571 L190.744099,485.89571 L190.744099,537.302252 Z" id="Fill-118" fill="#3A2309"></path>
                    <path d="M187.146747,414.699138 L218.530239,508.893509 L155.193728,508.893509 L187.146747,414.699138 Z" id="Fill-119" fill="#33511B"></path>
                    <path d="M186.424084,390.356652 L216.046237,476.426084 L156.260813,476.426084 L186.424084,390.356652 Z" id="Fill-120" fill="#446D29"></path>
                    <path d="M186.680438,372.479486 L215.857522,439.900518 L156.970354,439.900518 L186.680438,372.479486 Z" id="Fill-121" fill="#4F7C32"></path>
                    <path d="M277.322981,537.302252 L267.853416,537.302252 L267.853416,485.89571 L277.322981,485.89571 L277.322981,537.302252 Z" id="Fill-122" fill="#3A2309"></path>
                    <path d="M273.004319,414.699138 L304.38781,508.893509 L241.0513,508.893509 L273.004319,414.699138 Z" id="Fill-123" fill="#33511B"></path>
                    <path d="M272.281655,390.356652 L301.903808,476.426084 L242.117032,476.426084 L272.281655,390.356652 Z" id="Fill-124" fill="#446D29"></path>
                    <path d="M272.537334,372.479486 L301.714417,439.900518 L242.827249,439.900518 L272.537334,372.479486 Z" id="Fill-125" fill="#4F7C32"></path>
                    <path d="M205.203449,439.900383 C205.321142,439.900383 205.383371,438.876311 205.383371,438.371715 C205.383371,435.068168 202.704837,432.35715 199.399958,432.35715 C197.869947,432.35715 196.473863,432.915857 195.415977,433.861467 C194.322919,432.681822 192.76044,431.932369 191.024804,431.932369 C189.155242,431.932369 187.488598,432.784636 186.390129,434.126617 C185.305187,433.017318 183.791409,432.324682 182.115296,432.324682 C178.810418,432.324682 176.131884,435.069521 176.131884,438.374421 C176.131884,438.879016 176.195465,439.900383 176.313158,439.900383 L205.203449,439.900383 Z" id="Fill-126" fill="#FFFFFF"></path>
                    <path d="M191.051319,476.426084 C191.169012,475.07328 191.231241,474.979937 191.231241,474.475341 C191.231241,471.170442 188.552707,468.24568 185.247828,468.24568 C183.717817,468.24568 182.321733,468.701575 181.262494,469.647185 C180.169436,468.466187 178.60831,467.665327 176.871322,467.665327 C175.003112,467.665327 173.336468,468.49189 172.237999,469.832519 C171.151704,468.72322 169.637927,468.018409 167.963166,468.018409 C164.658288,468.018409 161.979754,471.178558 161.979754,474.482105 C161.979754,474.986701 162.043335,475.07328 162.159676,476.426084 L191.051319,476.426084 Z" id="Fill-127" fill="#FFFFFF"></path>
                    <path d="M213.458881,508.893374 C213.576574,507.54057 213.638802,507.379586 213.638802,506.874991 C213.638802,503.571444 210.960268,500.614215 207.656743,500.614215 C206.125379,500.614215 204.729294,501.051171 203.671409,501.998133 C202.57835,500.815783 201.015872,500.006806 199.280236,500.006806 C197.410673,500.006806 195.74403,500.829311 194.646913,502.169939 C193.559266,501.061993 192.045488,500.354477 190.370728,500.354477 C187.067202,500.354477 184.387316,503.578208 184.387316,506.885813 C184.387316,507.389056 184.450897,507.54057 184.56859,508.893374 L213.458881,508.893374 Z" id="Fill-128" fill="#FFFFFF"></path>
                    <path d="M275.021606,508.893374 C275.1393,507.54057 275.201528,507.379586 275.201528,506.874991 C275.201528,503.571444 272.522994,500.614215 269.218116,500.614215 C267.688105,500.614215 266.29202,501.051171 265.232782,501.998133 C264.141076,500.815783 262.578598,500.006806 260.841609,500.006806 C258.973399,500.006806 257.306756,500.829311 256.208286,502.169939 C255.123344,501.061993 253.608214,500.354477 251.933454,500.354477 C248.628575,500.354477 245.950041,503.578208 245.950041,506.885813 C245.950041,507.389056 246.013623,507.54057 246.131316,508.893374 L275.021606,508.893374 Z" id="Fill-129" fill="#FFFFFF"></path>
                    <path d="M295.306362,476.426084 C295.424055,475.07328 295.487637,474.989407 295.487637,474.484811 C295.487637,471.179911 292.809102,468.261914 289.502871,468.261914 C287.97286,468.261914 286.576776,468.719161 285.51889,469.663418 C284.425832,468.483773 282.862001,467.684266 281.127717,467.684266 C279.258155,467.684266 277.591511,468.509477 276.493042,469.852811 C275.4081,468.740806 273.89297,468.038701 272.218209,468.038701 C268.913331,468.038701 266.234797,471.186675 266.234797,474.491575 C266.234797,474.996171 266.298378,475.07328 266.416071,476.426084 L295.306362,476.426084 Z" id="Fill-130" fill="#FFFFFF"></path>
                    <path d="M242.828061,439.900383 C242.710368,439.900383 242.646786,440.737769 242.646786,441.242364 C242.646786,444.547264 245.326673,447.163586 248.631552,447.163586 C250.161563,447.163586 251.559,446.560236 252.616886,445.614626 C253.709944,446.796977 255.272422,447.519374 257.008058,447.519374 C258.876268,447.519374 260.544265,446.656285 261.641381,445.314304 C262.727676,446.423603 264.241453,447.109474 265.916214,447.109474 C269.221092,447.109474 271.900979,444.548617 271.900979,441.243717 C271.900979,440.740474 271.837398,439.900383 271.719704,439.900383 L242.828061,439.900383 Z" id="Fill-131" fill="#FFFFFF"></path>
                    <path d="M569.619239,427.72515 L574.069935,420.016874 L578.519278,427.72515 L569.619239,427.72515 Z" id="Fill-132" fill="#F7B817"></path>
                    <path d="M571.730276,426.372346 L574.15719,422.167832 L576.585457,426.372346 L571.730276,426.372346 Z" id="Fill-133" fill="#F06B39"></path>
                    <path d="M576.655261,427.093661 L578.001293,424.76278 L579.345971,427.093661 L576.655261,427.093661 Z" id="Fill-134" fill="#F7B817"></path>
                    <path d="M577.294728,427.01831 L578.027943,425.748027 L578.76251,427.01831 L577.294728,427.01831 Z" id="Fill-135" fill="#F06B39"></path>
                    <path d="M580.349068,427.72515 L568.173913,427.72515 L568.173913,426.372346 L580.349068,426.372346 L580.349068,427.72515 Z" id="Fill-136" fill="#FCFADF"></path>
                    <path d="M580.349068,429.077953 L568.173913,429.077953 L568.173913,427.72515 L580.349068,427.72515 L580.349068,429.077953 Z" id="Fill-137" fill="#373E46"></path>
                    <path d="M554.892983,427.412111 C554.484439,428.625576 553.287215,429.319564 552.217155,428.961071 C551.145741,428.599872 550.610034,427.322826 551.018578,426.108008 L555.461157,412.908702 C555.869701,411.69659 557.068278,411.001249 558.138338,411.362447 C559.208399,411.722293 559.744106,413.000693 559.335562,414.212805 L554.892983,427.412111 Z" id="Fill-138" fill="#14AEB4"></path>
                    <path d="M533.001242,399.316271 L533.001242,429.077953 L535.706832,429.077953 L535.706832,403.374682 L558.704348,403.374682 L558.704348,429.077953 L562.762733,429.077953 L562.762733,399.316271 L533.001242,399.316271 Z" id="Fill-139" fill="#373E46"></path>
                    <path d="M549.234783,419.608327 L537.059627,419.608327 L537.059627,429.077953 L549.234783,429.077953 L549.234783,419.608327 Z" id="Fill-140" fill="#373E46"></path>
                    <path d="M541.118012,412.844308 L539.765217,412.844308 L539.765217,419.608327 L541.118012,419.608327 L541.118012,412.844308 Z" id="Fill-141" fill="#F7B817"></path>
                    <path d="M542.470807,412.844308 L541.118012,412.844308 L541.118012,419.608327 L542.470807,419.608327 L542.470807,412.844308 Z" id="Fill-142" fill="#CF2929"></path>
                    <path d="M539.765217,412.844308 L538.412422,412.844308 L538.412422,419.608327 L539.765217,419.608327 L539.765217,412.844308 Z" id="Fill-143" fill="#4F7C32"></path>
                    <path d="M526.237267,429.077953 L503.239752,429.077953 L503.239752,415.549916 L526.237267,415.549916 L526.237267,429.077953 Z" id="Fill-144" fill="#373E46"></path>
                    <path d="M528.942857,415.549916 L500.534161,415.549916 L500.534161,410.138701 L528.942857,410.138701 L528.942857,415.549916 Z" id="Fill-145" fill="#CF2929"></path>
                    <path d="M512.709317,429.077953 L505.945342,429.077953 L505.945342,416.90272 L512.709317,416.90272 L512.709317,429.077953 Z" id="Fill-146" fill="#99AAA1"></path>
                    <path d="M522.178882,423.666738 L515.414907,423.666738 L515.414907,416.90272 L522.178882,416.90272 L522.178882,423.666738 Z" id="Fill-147" fill="#DCE8E1"></path>
                    <path d="M343.4706,533.920243 C343.4706,535.808757 342.115099,537.302252 340.44575,537.302252 L320.412209,537.302252 C318.740154,537.302252 317.386006,535.808757 317.386006,533.920243 C317.386006,532.031729 318.740154,530.538234 320.412209,530.538234 L340.44575,530.538234 C342.115099,530.538234 343.4706,532.031729 343.4706,533.920243" id="Fill-148" fill="#B5B4A7"></path>
                    <path d="M343.609938,388.493841 L339.551553,388.493841 L339.551553,537.302252 L343.609938,537.302252 L343.609938,388.493841 Z" id="Fill-149" fill="#373E46"></path>
                    <path d="M401.780124,426.372346 L339.551553,426.372346 L339.551553,383.082626 L401.780124,383.082626 L401.780124,426.372346 Z" id="Fill-150" fill="#ED2D32"></path>
                    <path d="M374.724224,419.608327 L365.254658,419.608327 L365.254658,391.199449 L374.724224,391.199449 L374.724224,419.608327 Z" id="Fill-151" fill="#FFFFFF"></path>
                    <path d="M384.193789,410.138701 L355.785093,410.138701 L355.785093,400.669075 L384.193789,400.669075 L384.193789,410.138701 Z" id="Fill-152" fill="#FFFFFF"></path>
                    <path d="M278.675776,289.739168 L270.559006,289.739168 L270.559006,291.091972 L278.675776,291.091972 L278.675776,289.739168 Z" id="Fill-153" fill="#373E46"></path>
                    <path d="M274.797313,286.108243 L273.399876,286.108243 L273.399876,277.02146 L274.797313,277.02146 L274.797313,286.108243 Z" id="Fill-154" fill="#ED2D32"></path>
                    <path d="M275.496573,276.464782 C275.496573,277.15877 274.93381,277.722889 274.239826,277.722889 L273.958445,277.722889 C273.264461,277.722889 272.701698,277.15877 272.701698,276.464782 L272.701698,276.183398 C272.701698,275.488057 273.264461,274.925291 273.958445,274.925291 L274.239826,274.925291 C274.93381,274.925291 275.496573,275.488057 275.496573,276.183398 L275.496573,276.464782 Z" id="Fill-155" fill="#ED2D32"></path>
                    <path d="M278.292935,291.700734 L270.603648,291.700734 L270.603648,286.108243 L278.292935,286.108243 L278.292935,291.700734 Z M269.206211,293.797579 L279.690373,293.797579 L279.690373,284.710797 L269.206211,284.710797 L269.206211,293.797579 Z" id="Fill-156" fill="#ED2D32"></path>
                    <path d="M603.346584,341.14571 L595.229814,341.14571 L595.229814,342.498514 L603.346584,342.498514 L603.346584,341.14571 Z" id="Fill-157" fill="#373E46"></path>
                    <path d="M599.46812,337.514785 L598.070683,337.514785 L598.070683,328.428002 L599.46812,328.428002 L599.46812,337.514785 Z" id="Fill-158" fill="#ED2D32"></path>
                    <path d="M600.168057,327.871324 C600.168057,328.565312 599.605294,329.129431 598.909957,329.129431 L598.628576,329.129431 C597.935945,329.129431 597.373182,328.565312 597.373182,327.871324 L597.373182,327.58994 C597.373182,326.894599 597.935945,326.331833 598.628576,326.331833 L598.909957,326.331833 C599.605294,326.331833 600.168057,326.894599 600.168057,327.58994 L600.168057,327.871324 Z" id="Fill-159" fill="#ED2D32"></path>
                    <path d="M602.963743,343.107276 L595.274456,343.107276 L595.274456,337.514785 L602.963743,337.514785 L602.963743,343.107276 Z M593.877019,345.204121 L604.36118,345.204121 L604.36118,336.117339 L593.877019,336.117339 L593.877019,345.204121 Z" id="Fill-160" fill="#ED2D32"></path>
                    <path d="M619.580124,338.440103 L611.463354,338.440103 L611.463354,339.792907 L619.580124,339.792907 L619.580124,338.440103 Z" id="Fill-161" fill="#373E46"></path>
                    <path d="M615.701661,334.809178 L614.304224,334.809178 L614.304224,325.722395 L615.701661,325.722395 L615.701661,334.809178 Z" id="Fill-162" fill="#ED2D32"></path>
                    <path d="M616.401597,325.165716 C616.401597,325.859704 615.838834,326.423824 615.143498,326.423824 L614.862116,326.423824 C614.169485,326.423824 613.606722,325.859704 613.606722,325.165716 L613.606722,324.884333 C613.606722,324.188992 614.169485,323.626225 614.862116,323.626225 L615.143498,323.626225 C615.838834,323.626225 616.401597,324.188992 616.401597,324.884333 L616.401597,325.165716 Z" id="Fill-163" fill="#ED2D32"></path>
                    <path d="M619.197283,340.401668 L611.507996,340.401668 L611.507996,334.809178 L619.197283,334.809178 L619.197283,340.401668 Z M610.110559,342.498514 L620.59472,342.498514 L620.59472,333.411731 L610.110559,333.411731 L610.110559,342.498514 Z" id="Fill-164" fill="#ED2D32"></path>
                    <path d="M657.265477,29.1526425 C656.877224,26.5403785 654.753336,25.8382734 649.342156,25.985729 L649.342156,25.9681425 L611.09864,25.9424393 L530.296193,25.9424393 L530.296193,26.1331846 C530.296193,26.1331846 530.532932,26.0371355 530.528874,26.0371355 C530.461234,26.0371355 530.645214,25.9424393 530.578927,25.9424393 L530.404417,25.9424393 L530.401711,26.0398411 C521.662655,26.1845911 514.638944,31.0628014 514.638944,37.3790421 C514.638944,39.743743 515.625131,42.1760841 517.314772,43.5288879 L517.406762,43.5288879 C520.189462,47.5872991 530.001284,48.9401028 530.148739,48.9401028 L530.509935,48.9401028 L530.524816,48.9401028 L530.541049,48.9401028 L608.20907,48.9401028 C608.567561,48.9401028 608.938227,48.9103411 609.323773,48.8481121 L609.296718,49.1863131 L648.970137,35.3295444 C649.143295,35.2849019 649.156823,35.2362009 649.329981,35.1793832 C653.995771,33.6520678 657.637495,31.658035 657.265477,29.1526425" id="Fill-165" fill="#E5EBED"></path>
                    <path d="M541.782505,38.1930241 C541.782505,39.682461 540.574459,40.8891619 539.086385,40.8891619 C537.596958,40.8891619 536.390264,39.682461 536.390264,38.1930241 C536.390264,36.7022343 537.596958,35.4968862 539.086385,35.4968862 C540.574459,35.4968862 541.782505,36.7022343 541.782505,38.1930241" id="Fill-166" fill="#373E46"></path>
                    <path d="M550.789685,38.1930241 C550.789685,39.682461 549.581639,40.8891619 548.093565,40.8891619 C546.604137,40.8891619 545.397444,39.682461 545.397444,38.1930241 C545.397444,36.7022343 546.604137,35.4968862 548.093565,35.4968862 C549.581639,35.4968862 550.789685,36.7022343 550.789685,38.1930241" id="Fill-167" fill="#373E46"></path>
                    <path d="M560.144398,38.1930241 C560.144398,39.682461 558.936352,40.8891619 557.446925,40.8891619 C555.957498,40.8891619 554.750804,39.682461 554.750804,38.1930241 C554.750804,36.7022343 555.957498,35.4968862 557.446925,35.4968862 C558.936352,35.4968862 560.144398,36.7022343 560.144398,38.1930241" id="Fill-168" fill="#373E46"></path>
                    <path d="M569.150225,38.1930241 C569.150225,39.682461 567.942179,40.8891619 566.454105,40.8891619 C564.964677,40.8891619 563.757984,39.682461 563.757984,38.1930241 C563.757984,36.7022343 564.964677,35.4968862 566.454105,35.4968862 C567.942179,35.4968862 569.150225,36.7022343 569.150225,38.1930241" id="Fill-169" fill="#373E46"></path>
                    <path d="M578.61979,38.1930241 C578.61979,39.682461 577.411744,40.8891619 575.92367,40.8891619 C574.43289,40.8891619 573.226197,39.682461 573.226197,38.1930241 C573.226197,36.7022343 574.43289,35.4968862 575.92367,35.4968862 C577.411744,35.4968862 578.61979,36.7022343 578.61979,38.1930241" id="Fill-170" fill="#373E46"></path>
                    <path d="M587.955835,38.1930241 C587.955835,39.682461 586.747789,40.8891619 585.259714,40.8891619 C583.770287,40.8891619 582.563594,39.682461 582.563594,38.1930241 C582.563594,36.7022343 583.770287,35.4968862 585.259714,35.4968862 C586.747789,35.4968862 587.955835,36.7022343 587.955835,38.1930241" id="Fill-171" fill="#373E46"></path>
                    <path d="M596.96315,38.1930241 C596.96315,39.682461 595.755104,40.8891619 594.267029,40.8891619 C592.776249,40.8891619 591.570909,39.682461 591.570909,38.1930241 C591.570909,36.7022343 592.776249,35.4968862 594.267029,35.4968862 C595.755104,35.4968862 596.96315,36.7022343 596.96315,38.1930241" id="Fill-172" fill="#373E46"></path>
                    <path d="M617.339625,25.9424393 L640.373666,0.239168224 L647.919557,0.239168224 L641.16911,25.9424393 L617.339625,25.9424393 Z" id="Fill-173" fill="#B2B2B2"></path>
                    <path d="M606.432715,38.1930241 C606.432715,39.682461 605.224669,40.8891619 603.736595,40.8891619 C602.245815,40.8891619 601.039121,39.682461 601.039121,38.1930241 C601.039121,36.7022343 602.245815,35.4968862 603.736595,35.4968862 C605.224669,35.4968862 606.432715,36.7022343 606.432715,38.1930241" id="Fill-174" fill="#373E46"></path>
                    <path d="M637.16646,20.5312243 L634.46087,20.5312243 L634.46087,9.70879439 L637.16646,9.70879439 L637.16646,20.5312243 Z" id="Fill-175" fill="#E7E8EB"></path>
                    <path d="M641.224845,16.4728131 L630.402484,16.4728131 L630.402484,13.7672056 L641.224845,13.7672056 L641.224845,16.4728131 Z" id="Fill-176" fill="#E7E8EB"></path>
                    <path d="M528.88604,35.2290311 C528.88604,33.1835918 527.228866,31.3532484 525.184793,31.3532484 L517.000383,31.3532484 C514.822383,34.0588558 514.639755,35.353489 514.639755,37.5666759 C514.639755,38.021218 514.676281,38.5542227 514.746626,38.9952367 C514.8792,39.0087647 525.184793,38.9749446 525.184793,38.9749446 C527.228866,38.9749446 528.88604,37.2744703 528.88604,35.2290311" id="Fill-177" fill="#373E46"></path>
                    <path d="M623.168142,31.3536542 L642.744439,31.3536542 L656.057295,36.8460374 L650.171284,38.0026846 L623.168142,31.3536542 Z" id="Fill-178" fill="#B2B2B2"></path>
                    <path d="M564.217258,42.1760841 L599.115312,42.1760841 L623.868755,52.1760093 L613.169499,52.8848785 L564.217258,42.1760841 Z" id="Fill-179" fill="#B2B2B2"></path>
                    <path d="M619.434834,23.2368318 L641.922346,23.2368318 L646.826228,4.36116121 L636.398884,4.29757944 L619.434834,23.2368318 Z" id="Fill-180" fill="#ED2D32"></path>
                    <path d="M637.16646,19.1784206 L634.46087,19.1784206 L634.46087,11.0615981 L637.16646,11.0615981 L637.16646,19.1784206 Z" id="Fill-181" fill="#FFFFFF"></path>
                    <path d="M639.87205,16.4728131 L631.75528,16.4728131 L631.75528,13.7672056 L639.87205,13.7672056 L639.87205,16.4728131 Z" id="Fill-182" fill="#FFFFFF"></path>
                    <path d="M730.509317,308.678421 L711.570186,308.678421 L711.570186,297.855991 L730.509317,297.855991 L730.509317,308.678421 Z" id="Fill-183" fill="#373E46"></path>
                    <path d="M731.862112,297.855991 L708.864596,297.855991 L708.864596,292.444776 L731.862112,292.444776 L731.862112,297.855991 Z" id="Fill-184" fill="#CF2929"></path>
                    <path d="M714.275776,297.855991 L711.570186,297.855991 L711.570186,292.444776 L714.275776,292.444776 L714.275776,297.855991 Z" id="Fill-185" fill="#FCFADF"></path>
                    <path d="M719.686957,297.855991 L716.981366,297.855991 L716.981366,292.444776 L719.686957,292.444776 L719.686957,297.855991 Z" id="Fill-186" fill="#FCFADF"></path>
                    <path d="M725.098137,297.855991 L722.392547,297.855991 L722.392547,292.444776 L725.098137,292.444776 L725.098137,297.855991 Z" id="Fill-187" fill="#FCFADF"></path>
                    <path d="M730.509317,297.855991 L727.803727,297.855991 L727.803727,292.444776 L730.509317,292.444776 L730.509317,297.855991 Z" id="Fill-188" fill="#FCFADF"></path>
                    <path d="M733.214907,297.855991 L731.862112,297.855991 L731.862112,292.444776 L733.214907,292.444776 L733.214907,297.855991 Z" id="Fill-189" fill="#CF2929"></path>
                    <path d="M742.684472,307.325617 C742.684472,308.073717 742.079773,308.678421 741.331677,308.678421 C740.583581,308.678421 739.978882,308.073717 739.978882,307.325617 L739.978882,293.797579 C739.978882,293.049479 740.583581,292.444776 741.331677,292.444776 C742.079773,292.444776 742.684472,293.049479 742.684472,293.797579 L742.684472,307.325617 Z" id="Fill-190" fill="#F7B817"></path>
                    <path d="M747.051971,307.045586 C747.321177,307.870797 746.869343,308.759589 746.042786,309.028797 L745.866922,309.085614 C745.040365,309.356175 744.152931,308.901633 743.882372,308.076423 L739.845632,295.676624 C739.577778,294.846002 740.029612,293.959916 740.857522,293.690708 L741.029327,293.63389 C741.857238,293.364682 742.746024,293.817871 743.016583,294.643082 L747.051971,307.045586 Z" id="Fill-191" fill="#F06B39"></path>
                    <path d="M735.920497,292.444776 L735.244099,291.493755 L734.567702,292.444776 L734.567702,308.678421 L735.920497,308.678421 L735.920497,292.444776 Z" id="Fill-192" fill="#3D6821"></path>
                    <path d="M738.626087,292.444776 L737.949689,291.493755 L737.273292,292.444776 L737.273292,308.678421 L738.626087,308.678421 L738.626087,292.444776 Z" id="Fill-193" fill="#3D6821"></path>
                    <path d="M739.978882,391.199449 L665.575155,391.199449 L722.392547,410.138701 L739.978882,391.199449 Z" id="Fill-194" fill="#8DA096"></path>
                    <path d="M715.459472,301.745301 L712.922981,301.745301 L712.922981,299.208794 L715.459472,299.208794 L715.459472,301.745301 Z" id="Fill-195" fill="#ABC9BA"></path>
                    <path d="M719.517857,301.745301 L716.981366,301.745301 L716.981366,299.208794 L719.517857,299.208794 L719.517857,301.745301 Z" id="Fill-196" fill="#ABC9BA"></path>
                    <path d="M451.83354,395.25786 L450.480745,395.25786 L450.480745,387.141037 L451.83354,387.141037 L451.83354,395.25786 Z" id="Fill-197" fill="#3A2309"></path>
                    <path d="M450.713291,375.089991 L456.079829,391.199178 L445.249352,391.199178 L450.713291,375.089991 Z" id="Fill-198" fill="#243F12"></path>
                    <path d="M450.589104,371.069864 L455.653969,385.788369 L445.430897,385.788369 L450.589104,371.069864 Z" id="Fill-199" fill="#33591B"></path>
                    <path d="M450.632664,367.493728 L455.623125,379.023674 L445.551566,379.023674 L450.632664,367.493728 Z" id="Fill-200" fill="#3D6821"></path>
                    <path d="M436.952795,395.25786 L435.6,395.25786 L435.6,387.141037 L436.952795,387.141037 L436.952795,395.25786 Z" id="Fill-201" fill="#3A2309"></path>
                    <path d="M436.046558,375.089991 L441.413096,391.199178 L430.582619,391.199178 L436.046558,375.089991 Z" id="Fill-202" fill="#243F12"></path>
                    <path d="M435.922371,371.069864 L440.988588,385.788369 L430.764164,385.788369 L435.922371,371.069864 Z" id="Fill-203" fill="#33591B"></path>
                    <path d="M435.965931,367.493728 L440.956392,379.023674 L430.886186,379.023674 L435.965931,367.493728 Z" id="Fill-204" fill="#3D6821"></path>
                    <path d="M422.07205,395.25786 L420.719255,395.25786 L420.719255,387.141037 L422.07205,387.141037 L422.07205,395.25786 Z" id="Fill-205" fill="#3A2309"></path>
                    <path d="M421.7141,375.089991 L427.080638,391.199178 L416.250161,391.199178 L421.7141,375.089991 Z" id="Fill-206" fill="#243F12"></path>
                    <path d="M421.589914,371.069864 L426.654778,385.788369 L416.430353,385.788369 L421.589914,371.069864 Z" id="Fill-207" fill="#33591B"></path>
                    <path d="M421.632121,367.493728 L426.622582,379.023674 L416.553728,379.023674 L421.632121,367.493728 Z" id="Fill-208" fill="#3D6821"></path>
                </g>
            </g>
        </g>
    </g>
</svg>