<?xml version="1.0" encoding="UTF-8" standalone="no"?>
<svg width="1279px" height="552px" viewBox="0 0 1279 552" version="1.1" xmlns="http://www.w3.org/2000/svg" xmlns:xlink="http://www.w3.org/1999/xlink" xmlns:sketch="http://www.bohemiancoding.com/sketch/ns">
    <!-- Generator: Sketch 3.4.4 (17249) - http://www.bohemiancoding.com/sketch -->
    <title>Page 1</title>
    <desc>Created with Sketch.</desc>
    <defs>
        <path id="path-1" d="M0,0 L1279,0 L1279,552 L0,552 L0,0 Z"></path>
    </defs>
    <g id="Welcome" stroke="none" stroke-width="1" fill="none" fill-rule="evenodd" sketch:type="MSPage">
        <g id="advice_-copy-3" sketch:type="MSArtboardGroup" transform="translate(-81.000000, -115.000000)">
            <g id="Page-1" sketch:type="MSLayerGroup" transform="translate(81.000000, 115.000000)">
                <path d="M0,552 L1279,552 L1279,6 L0,6 L0,552 Z" id="Fill-1" fill="#D5D5D5" sketch:type="MSShapeGroup"></path>
                <path d="M0,493 L1278,493 L1278,0.001 L0,0.001 L0,493 Z" id="Fill-2" fill="#E3EBEC" sketch:type="MSShapeGroup"></path>
                <g id="Group-138">
                    <path d="M484,417.5654 C484,436.5834 468.582,452.0004 449.565,452.0004 L289.435,452.0004 C270.417,452.0004 255,436.5834 255,417.5654 L255,168.4344 C255,149.4174 270.417,134.0004 289.435,134.0004 L449.565,134.0004 C468.582,134.0004 484,149.4174 484,168.4344 L484,417.5654 Z" id="Fill-3" fill="#5FA283" sketch:type="MSShapeGroup"></path>
                    <path d="M480,379 L480,140 L346,140 L346,379 L346.747,379 C349.461,393 359.031,406.068 370.422,406.068 C379.92,406.068 388.147,398.002 392.194,386.283 C396.241,398.002 404.468,406.008 413.966,406.008 C423.172,406.008 431.186,398.457 435.355,387.324 C439.525,398.457 447.539,406.073 456.745,406.073 C468.136,406.073 477.706,393 480.42,379 L480,379 Z" id="Fill-5" fill="#346B6B" sketch:type="MSShapeGroup"></path>
                    <path d="M437,379 L437,140 L303,140 L303,379 L303.747,379 C306.461,393 316.031,406.068 327.422,406.068 C336.92,406.068 345.147,398.002 349.194,386.283 C353.241,398.002 361.468,406.008 370.966,406.008 C380.172,406.008 388.186,398.457 392.355,387.324 C396.525,398.457 404.539,406.073 413.745,406.073 C425.136,406.073 434.706,393 437.42,379 L437,379 Z" id="Fill-7" fill="#346B6B" sketch:type="MSShapeGroup"></path>
                    <path d="M393,379 L393,140 L259,144.905 L259,379 L259.747,379 C262.461,393 272.031,406.068 283.422,406.068 C292.92,406.068 301.147,398.002 305.194,386.283 C309.241,398.002 317.468,406.008 326.966,406.008 C336.172,406.008 344.186,398.457 348.355,387.324 C352.525,398.457 360.539,406.073 369.745,406.073 C381.136,406.073 390.706,393 393.42,379 L393,379 Z" id="Fill-9" fill="#346B6B" sketch:type="MSShapeGroup"></path>
                    <path d="M487,151.5752 C487,161.8342 434.841,170.1502 370.5,170.1502 C306.159,170.1502 254,161.8342 254,151.5752 C254,141.3162 306.159,133.0002 370.5,133.0002 C434.841,133.0002 487,141.3162 487,151.5752" id="Fill-11" fill="#2E5958" sketch:type="MSShapeGroup"></path>
                    <path d="M476,168.6143 C476,154.4683 464.532,143.0003 450.386,143.0003 L289.614,143.0003 C275.468,143.0003 264,154.4683 264,168.6143 L264,418.3853 C264,432.5323 275.468,444.0003 289.614,444.0003 L450.386,444.0003 C464.532,444.0003 476,432.5323 476,418.3853 L476,168.6143 Z M494,417.7453 C494,441.6353 474.634,461.0003 450.745,461.0003 L290.255,461.0003 C266.366,461.0003 247,441.6353 247,417.7453 L247,168.2553 C247,144.3653 266.366,125.0003 290.255,125.0003 L450.745,125.0003 C474.634,125.0003 494,144.3653 494,168.2553 L494,417.7453 Z" id="Fill-13" fill="#D5D5D5" sketch:type="MSShapeGroup"></path>
                    <path d="M1048,357.4795 C1048,382.0675 1028.067,401.9995 1003.479,401.9995 L604.521,401.9995 C579.933,401.9995 560,382.0675 560,357.4795 L560,179.5205 C560,154.9325 579.933,134.9995 604.521,134.9995 L1003.479,134.9995 C1028.067,134.9995 1048,154.9325 1048,179.5205 L1048,357.4795 Z" id="Fill-15" fill="#46949B" sketch:type="MSShapeGroup"></path>
                    <path d="M1048,352.4795 C1048,377.0675 1028.067,396.9995 1003.479,396.9995 L604.521,396.9995 C579.933,396.9995 560,377.0675 560,352.4795 L560,174.5205 C560,149.9325 579.933,129.9995 604.521,129.9995 L1003.479,129.9995 C1028.067,129.9995 1048,149.9325 1048,174.5205 L1048,352.4795 Z" id="Fill-17" fill="#7FBFC5" sketch:type="MSShapeGroup"></path>
                    <path d="M669.5049,132 L566.0649,132 C563.7299,132.783 562.0419,134.982 562.0419,137.586 C562.0419,140.846 564.6779,143.489 567.9309,143.489 C568.7699,143.489 569.5659,143.311 570.2879,142.995 C571.4529,146.315 575.0849,148.735 579.3849,148.735 C583.4189,148.735 586.8559,146.601 588.2289,143.596 C589.6939,145.521 591.9989,147.007 594.6009,147.007 C598.0479,147.007 600.9799,145 602.1109,142 L602.1399,142 C603.7809,143 606.3849,144.712 609.3259,144.712 C612.2189,144.712 614.7879,143.468 616.4339,141.728 C617.5439,143.077 619.2239,143.877 621.1059,143.877 C622.7069,143.877 624.1579,143.22 625.2409,142.203 C626.0639,142.622 626.9909,142.849 627.9779,142.849 C629.3299,142.849 630.5679,142.383 631.5749,141.633 C632.9729,144.279 636.0339,146.116 639.5949,146.116 C642.8089,146.116 645.6129,144.612 647.1579,142.375 C648.5379,143.862 650.6469,144.814 653.0099,144.814 C655.7519,144.814 658.1449,143.529 659.4599,141.617 C660.6899,142.381 662.1829,143.085 663.8089,143.085 C665.5059,143.085 667.0669,142 668.3249,142 L668.4439,142 C668.4419,141 668.4349,141.715 668.4309,141.692 C670.1939,140.491 671.3339,138.504 671.3339,136.4 C671.3339,134.764 670.6429,133.15 669.5049,132" id="Fill-19" fill="#88A39B" sketch:type="MSShapeGroup"></path>
                    <path d="M671.334,132.6729 C671.334,128.9879 667.901,125.9999 663.668,125.9999 C662.855,125.9999 662.072,126.1119 661.337,126.3159 C658.428,124.2179 654.843,122.9999 650.965,122.9999 C646.714,122.9999 642.824,124.4739 639.781,126.9559 C639.732,126.9799 639.684,127.0049 639.634,127.0279 C639.5,127.0199 639.366,127.0129 639.231,127.0099 C637.536,123.8779 634.238,121.7299 630.429,121.7299 C628.748,121.7299 627.163,122.1389 625.773,122.8699 C623.692,118.1189 618.948,114.7939 613.429,114.7939 C612.112,114.7939 610.843,114.9849 609.641,115.3349 C606.671,109.1119 600.321,104.8099 592.966,104.8099 C583.293,104.8099 575.363,112.2489 574.569,121.7169 C574.558,121.7169 574.545,121.7139 574.531,121.7139 C570.341,121.7139 566.756,124.3619 565.263,128.0499 C562.298,128.4139 560,130.9369 560,133.9999 C560,137.3139 562.686,139.9999 566,139.9999 C566.854,139.9999 567.665,139.8189 568.4,139.4969 C569.588,142.8719 573.287,145.3329 577.668,145.3329 C581.776,145.3329 585.278,143.1629 586.677,140.1079 C588.169,142.0649 590.518,143.3329 593.168,143.3329 C596.68,143.3329 599.665,141.1109 600.818,137.9999 L600.848,137.9999 C602.519,139.8179 605.172,140.9999 608.168,140.9999 C611.115,140.9999 613.731,139.8569 615.408,138.0879 C616.539,139.4589 618.251,140.3339 620.168,140.3339 C621.799,140.3339 623.277,139.6959 624.38,138.6619 C625.218,139.0879 626.163,139.3339 627.168,139.3339 C628.545,139.3339 629.807,138.8689 630.831,138.1059 C632.257,140.7949 635.375,142.6669 639.002,142.6669 C642.275,142.6669 645.133,141.1399 646.707,138.8649 C648.112,140.3769 650.26,141.3449 652.668,141.3449 C655.461,141.3449 657.898,140.0399 659.238,138.0959 C660.491,138.8739 662.012,139.3449 663.668,139.3449 C665.397,139.3449 666.987,138.8409 668.269,137.9999 L668.391,137.9999 C668.387,137.9759 668.381,137.9539 668.377,137.9299 C670.174,136.7089 671.334,134.8109 671.334,132.6729" id="Fill-21" fill="#FFFFFF" sketch:type="MSShapeGroup"></path>
                    <path d="M575,141.875 C575,145.948 571.698,149.25 567.625,149.25 C563.552,149.25 560.25,145.948 560.25,141.875 C560.25,137.802 563.552,134.5 567.625,134.5 C571.698,134.5 575,137.802 575,141.875" id="Fill-23" fill="#FFFFFF" sketch:type="MSShapeGroup"></path>
                    <path d="M572,150.375 C572,152.239 570.489,153.75 568.625,153.75 C566.761,153.75 565.25,152.239 565.25,150.375 C565.25,148.511 566.761,147 568.625,147 C570.489,147 572,148.511 572,150.375" id="Fill-25" fill="#FFFFFF" sketch:type="MSShapeGroup"></path>
                    <path d="M862.3164,135.6616 C862.3164,138.2126 858.9904,140.2806 854.8844,140.2806 C850.7814,140.2806 847.4534,138.2126 847.4534,135.6616 C847.4534,133.1106 850.7814,131.0416 854.8844,131.0416 C858.9904,131.0416 862.3164,133.1106 862.3164,135.6616" id="Fill-27" fill="#FFFFFF" sketch:type="MSShapeGroup"></path>
                    <path d="M865.9043,136 L771.8183,136 C771.8063,136 771.7883,136.379 771.7823,136.518 C771.6293,137.116 771.5393,137.794 771.5393,138.442 C771.5393,142.415 774.6213,145.662 778.4233,145.662 C780.6063,145.662 782.5483,144.612 783.8103,142.957 C784.7753,144.097 786.1693,144.791 787.7403,144.791 C789.6843,144.791 791.3633,144 792.2753,142 L792.6723,142 C793.6113,143 794.8613,143.482 796.2443,143.482 C797.6293,143.482 798.8793,143 799.8183,142 L801.1753,142 C802.1163,143 803.3673,143.528 804.7503,143.528 C805.8003,143.528 806.7763,143.221 807.5983,142.665 C808.8393,145.199 811.3573,146.948 814.2683,146.948 C816.9613,146.948 819.3143,145.466 820.6343,143.239 C822.0083,144.86 824.0903,145.898 826.4183,145.898 C828.3553,145.898 830.1153,145.178 831.4443,144.002 C832.7303,144.79 834.3613,145.266 836.1383,145.266 C838.8303,145.266 841.1813,144.182 842.5043,142.558 C843.7683,143.192 845.3503,143.575 847.0743,143.575 C848.4373,143.575 849.7143,143.333 850.8163,142.919 C852.5133,145.544 856.4083,147.382 860.9433,147.382 C867.0413,147.382 868.3343,143.177 868.3343,139.087 C868.3343,139.055 868.3353,139.118 868.3343,139.087 C861.0503,136.854 867.7563,134.978 866.5113,134.672 C861.9353,133.551 865.9133,136 865.9043,136" id="Fill-29" fill="#88A39B" sketch:type="MSShapeGroup"></path>
                    <path d="M870.2666,133.9063 C870.2666,126.8603 864.5546,121.1543 857.5076,121.1543 C854.8296,121.1543 852.3446,121.9833 850.2936,123.3923 C847.1976,115.6723 839.6466,110.2193 830.8206,110.2193 C822.1316,110.2193 814.6776,115.5033 811.4946,123.0323 C808.9826,119.5913 804.9176,117.3563 800.3316,117.3563 C794.8966,117.3563 790.1956,120.4943 787.9406,125.0563 C786.1496,123.8143 783.9746,123.0863 781.6326,123.0863 C775.6716,123.0863 770.8246,127.7853 770.5756,133.6853 C770.4236,134.2523 770.3336,134.8453 770.3336,135.4613 C770.3336,139.2323 773.3906,142.2893 777.1626,142.2893 C779.3266,142.2893 781.2516,141.2793 782.5036,139.7083 C783.4606,140.7903 784.8436,141.5483 786.4016,141.5483 C788.3296,141.5483 789.9946,140.0003 790.9006,139.0003 L791.2916,139.0003 C792.2236,140.0003 793.4636,140.4063 794.8356,140.4063 C796.2076,140.4063 797.4496,140.0003 798.3806,139.0003 L799.7266,139.0003 C800.6586,140.0003 801.8986,140.3433 803.2716,140.3433 C804.3136,140.3433 805.2816,139.9993 806.0966,139.4713 C807.3266,141.8773 809.8236,143.5103 812.7106,143.5103 C815.3806,143.5103 817.7156,142.0903 819.0256,139.9753 C820.3886,141.5163 822.4516,142.4933 824.7606,142.4933 C826.6826,142.4933 828.4276,141.8063 829.7456,140.6903 C831.0216,141.4393 832.6376,141.8883 834.4006,141.8883 C837.0696,141.8883 839.4026,140.8583 840.7126,139.3173 C841.9686,139.9193 843.5376,140.2813 845.2456,140.2813 C846.5986,140.2813 847.8656,140.0513 848.9576,139.6593 C850.6406,142.1513 854.5026,143.8963 859.0016,143.8963 C865.0476,143.8963 869.9466,140.7483 869.9466,136.8663 C869.9466,136.8363 869.9406,136.8083 869.9396,136.7783 C870.1486,135.8573 870.2666,134.8833 870.2666,133.9063" id="Fill-31" fill="#FFFFFF" sketch:type="MSShapeGroup"></path>
                    <path d="M861.1113,135.6616 C861.1113,138.2126 857.7853,140.2806 853.6803,140.2806 C849.5763,140.2806 846.2483,138.2126 846.2483,135.6616 C846.2483,133.1106 849.5763,131.0416 853.6803,131.0416 C857.7853,131.0416 861.1113,133.1106 861.1113,135.6616" id="Fill-33" fill="#FFFFFF" sketch:type="MSShapeGroup"></path>
                    <path d="M1027.334,139.3335 L932.334,136.6665 C934.482,129.0005 930.328,130.5555 930.334,130.6665 C930.324,130.8285 926.5,141.6495 926.5,141.8125 C926.5,146.3635 930.846,150.0525 936.207,150.0525 C939.389,150.0525 942.203,148.7485 943.973,146.7415 C945.744,148.7485 948.558,150.0525 951.739,150.0525 C955.725,150.0525 959.144,148.0125 960.64,145.0965 C962.416,147.0395 965.186,148.2945 968.307,148.2945 C971.228,148.2945 973.844,147.1925 975.623,145.4585 C977.297,146.5435 979.436,147.1965 981.767,147.1965 C983.703,147.1965 985.503,146.7415 987.018,145.9675 C988.501,146.6025 990.246,146.9765 992.121,146.9765 C993.885,146.9765 995.534,146.6465 996.96,146.0785 C997.363,148.5295 1000.373,150.4335 1004.029,150.4335 C1006.768,150.4335 1009.142,149.3645 1010.332,147.7995 C1011.482,148.3505 1012.877,148.6755 1014.383,148.6755 C1016.582,148.6755 1018.545,147.9865 1019.851,146.9065 C1020.764,147.3365 1021.867,147.5885 1023.055,147.5885 C1026.2,147.5885 1028.75,145.8285 1028.75,143.6565 C1028.75,143.1105 1028.588,142.5905 1028.297,142.1185 C1028.352,141.7475 1025.746,135.0565 1027.334,139.3335" id="Fill-35" fill="#88A39B" sketch:type="MSShapeGroup"></path>
                    <path d="M1026.8125,136.7227 C1026.8785,136.1857 1026.9255,135.6427 1026.9255,135.0967 C1026.9255,128.1427 1021.2895,122.5117 1014.3335,122.5117 C1011.6915,122.5117 1009.2385,123.3297 1007.2135,124.7197 C1004.1585,117.0997 996.7065,111.7197 987.9945,111.7197 C979.4195,111.7197 972.0645,116.9337 968.9225,124.3647 C966.4425,120.9687 962.4315,118.7637 957.9055,118.7637 C952.5415,118.7637 947.9015,121.8597 945.6755,126.3627 C943.9085,125.1367 941.7615,124.4177 939.4515,124.4177 C933.4115,124.4177 928.5145,129.3017 928.5145,135.3417 C928.5145,135.4977 928.5215,135.6627 928.5275,135.8267 C928.5175,136.0097 928.4995,136.1897 928.4995,136.3747 C928.4995,141.5527 932.6975,145.7497 937.8745,145.7497 C940.9475,145.7497 943.6645,144.2657 945.3745,141.9827 C947.0855,144.2657 949.8025,145.7497 952.8745,145.7497 C956.7235,145.7497 960.0275,143.4287 961.4705,140.1117 C963.1865,142.3217 965.8615,143.7497 968.8745,143.7497 C971.6975,143.7497 974.2225,142.4967 975.9415,140.5227 C977.5575,141.7577 979.6225,142.4997 981.8745,142.4997 C983.7455,142.4997 985.4835,141.9827 986.9465,141.1027 C988.3785,141.8257 990.0645,142.2497 991.8745,142.2497 C993.5785,142.2497 995.1705,141.8747 996.5475,141.2287 C996.9375,144.0167 999.8435,146.1837 1003.3755,146.1837 C1006.0195,146.1837 1008.3125,144.9677 1009.4615,143.1867 C1010.5735,143.8137 1011.9195,144.1837 1013.3745,144.1837 C1015.4975,144.1837 1017.3945,143.4007 1018.6555,142.1707 C1019.5375,142.6597 1020.6025,142.9467 1021.7505,142.9467 C1024.7875,142.9467 1027.2495,140.9447 1027.2495,138.4737 C1027.2495,137.8517 1027.0935,137.2607 1026.8125,136.7227" id="Fill-37" fill="#FFFFFF" sketch:type="MSShapeGroup"></path>
                    <path d="M558.1807,385.7871 C557.2847,386.6721 556.7577,387.7401 556.7577,388.8921 C556.7577,391.7161 559.9107,394.0391 563.9817,394.3771 C563.8457,394.8081 563.7717,395.2241 563.7717,395.6831 C563.7717,396.1461 563.8477,397.0001 563.9857,397.0001 L602.2317,397.0001 C603.1657,396.0001 603.7497,395.4081 603.7497,394.3901 C603.7497,392.1811 601.0817,390.4051 597.7877,390.4051 C597.7667,390.4051 597.7487,390.4181 597.7277,390.4181 C596.5217,387.6951 592.7697,385.7111 588.3187,385.7111 C587.1757,385.7111 586.0817,385.8511 585.0597,386.0941 C582.7847,384.4181 579.5137,383.3611 575.8697,383.3611 C573.6757,383.3611 571.6157,383.7481 569.8237,384.4161 C569.4827,384.2501 569.1217,384.1011 568.7437,383.9711 C570.2297,382.8331 571.1347,381.3471 571.1347,379.7151 C571.1347,377.5921 569.6067,375.7151 567.2537,374.5331 C568.3497,373.7711 569.0317,372.7381 569.0317,371.5961 C569.0317,369.2561 566.2047,367.3591 562.7197,367.3591 C559.2327,367.3591 556.4067,369.2561 556.4067,371.5961 C556.4067,372.4321 556.7787,373.2051 557.4017,373.8611 C554.1227,374.8941 554.7497,374.1591 554.7497,376.7501 C554.7497,379.5431 554.4887,384.8791 558.1807,385.7871" id="Fill-39" fill="#88A39B" sketch:type="MSShapeGroup"></path>
                    <path d="M592.4814,389.2129 C592.4624,389.2129 592.4424,389.2189 592.4234,389.2189 C591.2484,385.2679 587.5944,382.3849 583.2624,382.3849 C582.1484,382.3849 581.0824,382.5839 580.0884,382.9359 C577.8724,380.5039 574.6884,378.9699 571.1404,378.9699 C569.0034,378.9699 566.9974,379.5269 565.2524,380.4989 C564.9204,380.2579 564.5694,380.0409 564.2014,379.8529 C565.6474,378.2009 566.5304,376.0449 566.5304,373.6769 C566.5304,370.5979 565.0404,367.8719 562.7504,366.1589 C563.8174,365.0539 564.4814,363.5549 564.4814,361.8969 C564.4814,358.5019 561.7304,355.7499 558.3354,355.7499 C554.9404,355.7499 552.1894,358.5019 552.1894,361.8969 C552.1894,363.1079 552.5514,364.2309 553.1574,365.1839 C549.9654,366.6819 547.7504,369.9169 547.7504,373.6769 C547.7504,377.7289 550.3214,381.1699 553.9154,382.4859 C553.0424,383.7719 552.5304,385.3219 552.5304,386.9939 C552.5304,391.0899 555.6014,394.4619 559.5644,394.9509 C559.4314,395.5779 559.3594,396.2289 559.3594,396.8969 C559.3594,402.0819 563.5644,406.2869 568.7504,406.2869 C572.1164,406.2869 575.0614,404.5089 576.7184,401.8459 C577.4854,401.4479 578.2064,400.9769 578.8674,400.4299 C580.1834,401.1129 581.6764,401.5059 583.2624,401.5059 C585.4014,401.5059 587.3704,400.7949 588.9634,399.6079 C589.9424,400.3589 591.1524,400.8229 592.4814,400.8229 C595.6884,400.8229 598.2864,398.2249 598.2864,395.0189 C598.2864,391.8129 595.6884,389.2129 592.4814,389.2129" id="Fill-41" fill="#FFFFFF" sketch:type="MSShapeGroup"></path>
                    <path d="M1048,370.8506 L1048,279.7266 C1048,279.7156 1047.904,279.6976 1047.734,279.6926 C1047.004,279.5446 1046.36,279.4576 1045.565,279.4576 C1040.713,279.4576 1036.835,282.4246 1036.835,286.0856 C1036.835,288.1866 1038.166,290.0546 1040.188,291.2696 C1038.797,292.1996 1037.768,293.5406 1037.768,295.0526 C1037.768,296.9256 1039,298.5406 1041,299.4186 L1041,299.7996 C1040,300.7046 1039.187,301.9086 1039.187,303.2406 C1039.187,304.5726 1040,305.7756 1041,306.6816 L1041,307.9876 C1040,308.8916 1039.332,310.0956 1039.332,311.4266 C1039.332,312.4396 1039.81,313.3786 1040.49,314.1696 C1037.394,315.3656 1035.306,317.7866 1035.306,320.5896 C1035.306,323.1816 1037.142,325.4476 1039.864,326.7186 C1037.883,328.0426 1036.628,330.0446 1036.628,332.2856 C1036.628,334.1506 1037.511,335.8456 1038.948,337.1246 C1037.985,338.3616 1037.41,339.9316 1037.41,341.6426 C1037.41,344.2326 1038.735,346.4966 1040.721,347.7696 C1039.944,348.9886 1039.479,350.5096 1039.479,352.1686 C1039.479,353.4826 1039.773,354.7106 1040.28,355.7716 C1037.071,357.4066 1034.826,361.1546 1034.826,365.5206 C1034.826,371.3886 1038.876,376.1446 1043.874,376.1446 C1043.912,376.1446 1043.951,376.1386 1043.989,376.1376 C1045.174,376.3396 1047.938,372.0956 1048.127,370.8506 C1048.801,366.3836 1049,365.6546 1048,370.8506" id="Fill-43" fill="#88A39B" sketch:type="MSShapeGroup"></path>
                    <path d="M1071.1494,333.998 C1071.1494,328.879 1069.2524,324.207 1066.1304,320.631 C1067.6934,319.357 1068.7114,317.439 1068.7114,315.267 C1068.7114,312.047 1066.5104,309.363 1063.5374,308.572 C1063.9664,307.258 1064.2194,305.863 1064.2194,304.404 C1064.2194,301.067 1062.9984,298.02 1060.9824,295.675 C1061.9964,294.772 1062.6444,293.473 1062.6444,292.01 C1062.6444,289.588 1060.8924,287.584 1058.5914,287.168 C1058.6184,286.863 1058.6624,286.566 1058.6624,286.255 C1058.6624,280.766 1054.5564,276.258 1049.2464,275.602 C1049.8784,274.486 1050.2574,273.132 1050.2574,271.659 C1050.2574,267.889 1047.8244,264.834 1044.8224,264.834 C1041.8204,264.834 1039.3864,267.889 1039.3864,271.659 C1039.3864,274.05 1040.3694,276.147 1041.8514,277.365 C1040.7244,278.554 1040.0224,280.149 1040.0224,281.916 C1040.0224,284.018 1041.0034,285.885 1042.5254,287.102 C1041.4764,288.029 1041.6344,289.371 1041.6344,290.883 C1041.6344,292.755 1044.0004,294.372 1045.0004,295.25 L1045.0004,295.631 C1045.0004,296.535 1043.6364,297.738 1043.6364,299.07 C1043.6364,300.402 1045.0004,301.606 1045.0004,302.511 L1045.0004,303.818 C1045.0004,304.722 1042.8044,305.926 1042.8044,307.258 C1042.8044,308.269 1042.6924,309.209 1043.2024,310 C1040.8674,311.194 1039.0584,313.617 1039.0584,316.42 C1039.0584,319.012 1040.3284,321.278 1042.3804,322.549 C1040.8844,323.871 1039.8794,325.875 1039.8794,328.115 C1039.8794,329.981 1040.5174,331.676 1041.6024,332.955 C1040.8734,334.193 1040.4234,335.762 1040.4234,337.473 C1040.4234,340.064 1041.4184,342.328 1042.9144,343.601 C1042.3304,344.818 1041.9754,346.341 1041.9754,347.999 C1041.9754,349.312 1042.1944,350.542 1042.5774,351.603 C1040.1574,353.236 1038.4644,356.984 1038.4644,361.352 C1038.4644,367.221 1041.5184,371.976 1045.2874,371.976 C1045.3144,371.976 1045.3394,371.969 1045.3704,371.969 C1046.2644,372.17 1047.2124,372.286 1048.1584,372.286 C1054.9984,372.286 1060.5374,366.742 1060.5374,359.9 C1060.5374,357.302 1059.7294,354.891 1058.3634,352.899 C1065.8584,349.894 1071.1494,342.564 1071.1494,333.998" id="Fill-45" fill="#FFFFFF" sketch:type="MSShapeGroup"></path>
                    <path d="M549.0728,257.9707 C549.0728,260.4167 551.1388,262.4027 553.6888,262.4027 C553.9528,262.4027 554.2088,262.3677 554.4628,262.3267 C554.6808,264.3217 555.9358,266.0017 557.7168,266.8697 C557.4198,267.4837 557.2408,268.1597 557.2408,268.8827 C557.2408,271.5177 559.4648,273.6547 562.2118,273.6547 C564.9588,273.6547 567.1828,271.5177 567.1828,268.8827 C567.1828,268.7337 567.1518,268.5937 567.1378,268.4507 C569.7818,268.0227 571.8008,265.8297 571.8008,263.1697 C571.8008,260.2037 569.2958,257.7997 566.2068,257.7997 C565.7828,257.7997 565.3748,257.8537 564.9798,257.9397 C564.8858,257.8357 564.8088,257.7207 564.7098,257.6247 C567.4368,256.2157 569.3138,253.4827 569.3138,250.2987 C569.3138,247.8897 568.2378,245.7367 566.5398,244.2117 C568.3338,243.7967 569.6698,242.2557 569.6698,240.4087 C569.6698,238.8297 568.6918,237.4787 567.2918,236.8557 C569.1668,235.3237 570.3818,233.0707 570.3818,230.5207 C570.3818,225.9067 566.4858,222.1667 561.6788,222.1667 C556.8738,222.1667 552.9788,225.9067 552.9788,230.5207 C552.9788,233.4457 554.5498,236.0097 556.9178,237.5017 C555.2328,238.1617 554.0418,239.7477 554.0418,241.6037 C554.0418,242.5257 554.3378,243.3807 554.8398,244.0907 C553.0558,245.6197 551.9108,247.8207 551.9108,250.2987 C551.9108,251.4947 552.1838,252.6277 552.6558,253.6587 C550.6068,254.1097 549.0728,255.8647 549.0728,257.9707" id="Fill-47" fill="#88A39B" sketch:type="MSShapeGroup"></path>
                    <path d="M546.8457,262.3555 C547.0697,264.8655 549.1527,266.8395 551.7217,266.8395 C552.0037,266.8395 552.2757,266.8025 552.5467,266.7565 C552.7797,268.9705 554.1167,270.8355 556.0157,271.8005 C555.6987,272.4815 555.5087,273.2335 555.5087,274.0345 C555.5087,276.9605 557.8797,279.3345 560.8077,279.3345 C563.7357,279.3345 566.1067,276.9605 566.1067,274.0345 C566.1067,273.8705 566.0737,273.7145 566.0577,273.5545 C568.8777,273.0805 571.0297,270.6455 571.0297,267.6915 C571.0297,264.3985 568.3587,261.7295 565.0667,261.7295 C564.6147,261.7295 564.1787,261.7895 563.7577,261.8845 C563.6577,261.7705 563.5757,261.6425 563.4697,261.5365 C566.3777,259.9705 568.3787,256.9355 568.3787,253.4005 C568.3787,250.7265 567.2317,248.3355 565.4217,246.6425 C567.3337,246.1825 568.7577,244.4725 568.7577,242.4195 C568.7577,240.6685 567.7157,239.1685 566.2217,238.4765 C568.2207,236.7755 569.5167,234.2725 569.5167,231.4425 C569.5167,226.3195 565.3637,222.1665 560.2397,222.1665 C555.1177,222.1665 550.9647,226.3195 550.9647,231.4425 C550.9647,234.6885 552.6397,237.5355 555.1637,239.1935 C553.3677,239.9275 552.0987,241.6855 552.0987,243.7475 C552.0987,244.7705 552.4137,245.7205 552.9477,246.5085 C552.3407,247.0525 551.8347,247.6935 551.3847,248.3755 C550.5987,248.0915 549.7647,247.9105 548.8827,247.9105 C544.8047,247.9105 541.4997,251.2155 541.4997,255.2935 C541.4997,258.6585 543.7667,261.4665 546.8457,262.3555" id="Fill-49" fill="#FFFFFF" sketch:type="MSShapeGroup"></path>
                    <mask id="mask-2" sketch:name="Clip 52" fill="white">
                        <use xlink:href="#path-1"></use>
                    </mask>
                    <g id="Clip-52"></g>
                    <path d="M484,485 L256,485 L256,475 L484,475 L484,485 Z" id="Fill-51" fill="#88A39B" sketch:type="MSShapeGroup" mask="url(#mask-2)"></path>
                    <path d="M262,421.5654 C262,440.5834 246.583,456.0004 227.565,456.0004 L67.435,456.0004 C48.417,456.0004 33,440.5834 33,421.5654 L33,172.4344 C33,153.4174 48.417,138.0004 67.435,138.0004 L227.565,138.0004 C246.583,138.0004 262,153.4174 262,172.4344 L262,421.5654 Z" id="Fill-53" fill="#88A39B" sketch:type="MSShapeGroup" mask="url(#mask-2)"></path>
                    <path d="M262,417.5654 C262,436.5834 246.583,452.0004 227.565,452.0004 L67.435,452.0004 C48.417,452.0004 33,436.5834 33,417.5654 L33,168.4344 C33,149.4174 48.417,134.0004 67.435,134.0004 L227.565,134.0004 C246.583,134.0004 262,149.4174 262,168.4344 L262,417.5654 Z" id="Fill-54" fill="#D5D5D5" sketch:type="MSShapeGroup" mask="url(#mask-2)"></path>
                    <path d="M95,334.5 C95,338.643 90.411,342 84.75,342 C79.089,342 74.5,338.643 74.5,334.5 C74.5,330.357 79.089,327 84.75,327 C90.411,327 95,330.357 95,334.5" id="Fill-55" fill="#7C7C7C" sketch:type="MSShapeGroup" mask="url(#mask-2)"></path>
                    <path d="M85,332 C85,334.762 82.762,337 80,337 C77.238,337 75,334.762 75,332 L75,281 C75,278.238 77.238,276 80,276 C82.762,276 85,278.238 85,281 L85,332 Z" id="Fill-56" fill="#F6F6F6" sketch:type="MSShapeGroup" mask="url(#mask-2)"></path>
                    <path d="M95,332 C95,334.762 92.762,337 90,337 C87.238,337 85,334.762 85,332 L85,281 C85,278.238 87.238,276 90,276 C92.762,276 95,278.238 95,281 L95,332 Z" id="Fill-57" fill="#B5B5B5" sketch:type="MSShapeGroup" mask="url(#mask-2)"></path>
                    <path d="M1081.6084,245.6934 C1081.6084,292.0244 1119.1664,329.5824 1165.4964,329.5824 C1211.8264,329.5824 1249.3844,292.0244 1249.3844,245.6934 C1249.3844,199.3634 1211.8264,161.8054 1165.4964,161.8054 C1119.1664,161.8054 1081.6084,199.3634 1081.6084,245.6934" id="Fill-58" fill="#7FBFC5" sketch:type="MSShapeGroup" mask="url(#mask-2)"></path>
                    <path d="M1087.873,209.4819 C1104.44,223.0459 1132.943,231.9999 1165.334,231.9999 C1198.853,231.9999 1228.214,222.4109 1244.486,208.0489 C1232.18,180.3809 1201.912,160.8059 1166.496,160.8059 C1130.47,160.8059 1099.756,181.0559 1087.873,209.4819" id="Fill-59" fill="#D5D5D5" sketch:type="MSShapeGroup" mask="url(#mask-2)"></path>
                    <path d="M1091.7227,244.5039 C1091.7227,285.1839 1124.8177,318.2789 1165.4957,318.2789 C1206.1757,318.2789 1239.2717,285.1839 1239.2717,244.5039 C1239.2717,203.8239 1206.1757,170.7299 1165.4957,170.7299 C1124.8177,170.7299 1091.7227,203.8239 1091.7227,244.5039 M1071.4937,244.5039 C1071.4937,192.6709 1113.6637,150.5019 1165.4957,150.5019 C1217.3297,150.5019 1259.4987,192.6709 1259.4987,244.5039 C1259.4987,296.3369 1217.3297,338.5059 1165.4957,338.5059 C1113.6637,338.5059 1071.4937,296.3369 1071.4937,244.5039" id="Fill-60" fill="#ABC9BA" sketch:type="MSShapeGroup" mask="url(#mask-2)"></path>
                    <path d="M1239.1465,249 C1239.2235,247 1239.2715,246.068 1239.2715,244.671 C1239.2715,203.992 1206.1755,170.814 1165.4965,170.814 C1124.8175,170.814 1091.7225,204.034 1091.7225,244.713 C1091.7225,246.11 1091.7695,247 1091.8465,249 L1071.6005,249 C1071.5405,247 1071.4945,246.066 1071.4945,244.671 C1071.4945,192.839 1113.6645,150.586 1165.4965,150.586 C1217.3305,150.586 1259.4995,192.88 1259.4995,244.713 C1259.4995,246.108 1259.4535,247 1259.3925,249 L1239.1465,249 Z" id="Fill-61" fill="#FFFFFF" sketch:type="MSShapeGroup" mask="url(#mask-2)"></path>
                    <path d="M1089,249.667 C1089,253.533 1085.866,256.667 1082,256.667 C1078.135,256.667 1075,253.533 1075,249.667 C1075,245.801 1078.135,242.667 1082,242.667 C1085.866,242.667 1089,245.801 1089,249.667" id="Fill-62" fill="#88A39B" sketch:type="MSShapeGroup" mask="url(#mask-2)"></path>
                    <path d="M1270,22.1777 C1270,24.7337 1267.93,26.8047 1265.374,26.8047 C1262.819,26.8047 1260.748,24.7337 1260.748,22.1777 C1260.748,19.6227 1262.819,17.5517 1265.374,17.5517 C1267.93,17.5517 1270,19.6227 1270,22.1777" id="Fill-63" fill="#88A39B" sketch:type="MSShapeGroup" mask="url(#mask-2)"></path>
                    <path d="M1238.2773,22.1777 C1238.2773,24.7337 1236.2063,26.8047 1233.6513,26.8047 C1231.0953,26.8047 1229.0253,24.7337 1229.0253,22.1777 C1229.0253,19.6227 1231.0953,17.5517 1233.6513,17.5517 C1236.2063,17.5517 1238.2773,19.6227 1238.2773,22.1777" id="Fill-64" fill="#88A39B" sketch:type="MSShapeGroup" mask="url(#mask-2)"></path>
                    <path d="M1207.2148,22.1777 C1207.2148,24.7337 1205.1438,26.8047 1202.5888,26.8047 C1200.0338,26.8047 1197.9628,24.7337 1197.9628,22.1777 C1197.9628,19.6227 1200.0338,17.5517 1202.5888,17.5517 C1205.1438,17.5517 1207.2148,19.6227 1207.2148,22.1777" id="Fill-65" fill="#88A39B" sketch:type="MSShapeGroup" mask="url(#mask-2)"></path>
                    <path d="M1174.8311,22.1777 C1174.8311,24.7337 1172.7601,26.8047 1170.2051,26.8047 C1167.6501,26.8047 1165.5791,24.7337 1165.5791,22.1777 C1165.5791,19.6227 1167.6501,17.5517 1170.2051,17.5517 C1172.7601,17.5517 1174.8311,19.6227 1174.8311,22.1777" id="Fill-66" fill="#88A39B" sketch:type="MSShapeGroup" mask="url(#mask-2)"></path>
                    <path d="M1143.1084,22.1777 C1143.1084,24.7337 1141.0374,26.8047 1138.4824,26.8047 C1135.9274,26.8047 1133.8554,24.7337 1133.8554,22.1777 C1133.8554,19.6227 1135.9274,17.5517 1138.4824,17.5517 C1141.0374,17.5517 1143.1084,19.6227 1143.1084,22.1777" id="Fill-67" fill="#88A39B" sketch:type="MSShapeGroup" mask="url(#mask-2)"></path>
                    <path d="M1112.0459,22.1777 C1112.0459,24.7337 1109.9749,26.8047 1107.4199,26.8047 C1104.8649,26.8047 1102.7929,24.7337 1102.7929,22.1777 C1102.7929,19.6227 1104.8649,17.5517 1107.4199,17.5517 C1109.9749,17.5517 1112.0459,19.6227 1112.0459,22.1777" id="Fill-68" fill="#88A39B" sketch:type="MSShapeGroup" mask="url(#mask-2)"></path>
                    <path d="M1077.6797,22.1777 C1077.6797,24.7337 1075.6077,26.8047 1073.0527,26.8047 C1070.4977,26.8047 1068.4267,24.7337 1068.4267,22.1777 C1068.4267,19.6227 1070.4977,17.5517 1073.0527,17.5517 C1075.6077,17.5517 1077.6797,19.6227 1077.6797,22.1777" id="Fill-69" fill="#88A39B" sketch:type="MSShapeGroup" mask="url(#mask-2)"></path>
                    <path d="M1045.957,22.1777 C1045.957,24.7337 1043.885,26.8047 1041.33,26.8047 C1038.775,26.8047 1036.704,24.7337 1036.704,22.1777 C1036.704,19.6227 1038.775,17.5517 1041.33,17.5517 C1043.885,17.5517 1045.957,19.6227 1045.957,22.1777" id="Fill-70" fill="#88A39B" sketch:type="MSShapeGroup" mask="url(#mask-2)"></path>
                    <path d="M1014.8945,22.1777 C1014.8945,24.7337 1012.8225,26.8047 1010.2675,26.8047 C1007.7125,26.8047 1005.6415,24.7337 1005.6415,22.1777 C1005.6415,19.6227 1007.7125,17.5517 1010.2675,17.5517 C1012.8225,17.5517 1014.8945,19.6227 1014.8945,22.1777" id="Fill-71" fill="#88A39B" sketch:type="MSShapeGroup" mask="url(#mask-2)"></path>
                    <path d="M981.1885,22.1777 C981.1885,24.7337 979.1175,26.8047 976.5625,26.8047 C974.0075,26.8047 971.9355,24.7337 971.9355,22.1777 C971.9355,19.6227 974.0075,17.5517 976.5625,17.5517 C979.1175,17.5517 981.1885,19.6227 981.1885,22.1777" id="Fill-72" fill="#88A39B" sketch:type="MSShapeGroup" mask="url(#mask-2)"></path>
                    <path d="M949.4648,22.1777 C949.4648,24.7337 947.3938,26.8047 944.8398,26.8047 C942.2838,26.8047 940.2128,24.7337 940.2128,22.1777 C940.2128,19.6227 942.2838,17.5517 944.8398,17.5517 C947.3938,17.5517 949.4648,19.6227 949.4648,22.1777" id="Fill-73" fill="#88A39B" sketch:type="MSShapeGroup" mask="url(#mask-2)"></path>
                    <path d="M918.4033,22.1777 C918.4033,24.7337 916.3323,26.8047 913.7773,26.8047 C911.2223,26.8047 909.1503,24.7337 909.1503,22.1777 C909.1503,19.6227 911.2223,17.5517 913.7773,17.5517 C916.3323,17.5517 918.4033,19.6227 918.4033,22.1777" id="Fill-74" fill="#88A39B" sketch:type="MSShapeGroup" mask="url(#mask-2)"></path>
                    <path d="M886.0195,22.1777 C886.0195,24.7337 883.9485,26.8047 881.3925,26.8047 C878.8375,26.8047 876.7675,24.7337 876.7675,22.1777 C876.7675,19.6227 878.8375,17.5517 881.3925,17.5517 C883.9485,17.5517 886.0195,19.6227 886.0195,22.1777" id="Fill-75" fill="#88A39B" sketch:type="MSShapeGroup" mask="url(#mask-2)"></path>
                    <path d="M854.2969,22.1777 C854.2969,24.7337 852.2249,26.8047 849.6699,26.8047 C847.1149,26.8047 845.0439,24.7337 845.0439,22.1777 C845.0439,19.6227 847.1149,17.5517 849.6699,17.5517 C852.2249,17.5517 854.2969,19.6227 854.2969,22.1777" id="Fill-76" fill="#88A39B" sketch:type="MSShapeGroup" mask="url(#mask-2)"></path>
                    <path d="M823.2344,22.1777 C823.2344,24.7337 821.1634,26.8047 818.6074,26.8047 C816.0524,26.8047 813.9814,24.7337 813.9814,22.1777 C813.9814,19.6227 816.0524,17.5517 818.6074,17.5517 C821.1634,17.5517 823.2344,19.6227 823.2344,22.1777" id="Fill-77" fill="#88A39B" sketch:type="MSShapeGroup" mask="url(#mask-2)"></path>
                    <path d="M788.8672,22.1777 C788.8672,24.7337 786.7962,26.8047 784.2412,26.8047 C781.6862,26.8047 779.6152,24.7337 779.6152,22.1777 C779.6152,19.6227 781.6862,17.5517 784.2412,17.5517 C786.7962,17.5517 788.8672,19.6227 788.8672,22.1777" id="Fill-78" fill="#88A39B" sketch:type="MSShapeGroup" mask="url(#mask-2)"></path>
                    <path d="M757.1445,22.1777 C757.1445,24.7337 755.0735,26.8047 752.5175,26.8047 C749.9625,26.8047 747.8925,24.7337 747.8925,22.1777 C747.8925,19.6227 749.9625,17.5517 752.5175,17.5517 C755.0735,17.5517 757.1445,19.6227 757.1445,22.1777" id="Fill-79" fill="#88A39B" sketch:type="MSShapeGroup" mask="url(#mask-2)"></path>
                    <path d="M726.082,22.1777 C726.082,24.7337 724.012,26.8047 721.456,26.8047 C718.901,26.8047 716.83,24.7337 716.83,22.1777 C716.83,19.6227 718.901,17.5517 721.456,17.5517 C724.012,17.5517 726.082,19.6227 726.082,22.1777" id="Fill-80" fill="#88A39B" sketch:type="MSShapeGroup" mask="url(#mask-2)"></path>
                    <path d="M692.377,22.1777 C692.377,24.7337 690.306,26.8047 687.75,26.8047 C685.195,26.8047 683.123,24.7337 683.123,22.1777 C683.123,19.6227 685.195,17.5517 687.75,17.5517 C690.306,17.5517 692.377,19.6227 692.377,22.1777" id="Fill-81" fill="#88A39B" sketch:type="MSShapeGroup" mask="url(#mask-2)"></path>
                    <path d="M660.6533,22.1777 C660.6533,24.7337 658.5823,26.8047 656.0273,26.8047 C653.4723,26.8047 651.4003,24.7337 651.4003,22.1777 C651.4003,19.6227 653.4723,17.5517 656.0273,17.5517 C658.5823,17.5517 660.6533,19.6227 660.6533,22.1777" id="Fill-82" fill="#88A39B" sketch:type="MSShapeGroup" mask="url(#mask-2)"></path>
                    <path d="M629.5918,22.1777 C629.5918,24.7337 627.5198,26.8047 624.9648,26.8047 C622.4098,26.8047 620.3388,24.7337 620.3388,22.1777 C620.3388,19.6227 622.4098,17.5517 624.9648,17.5517 C627.5198,17.5517 629.5918,19.6227 629.5918,22.1777" id="Fill-83" fill="#88A39B" sketch:type="MSShapeGroup" mask="url(#mask-2)"></path>
                    <path d="M597.2075,22.1777 C597.2075,24.7337 595.1365,26.8047 592.5815,26.8047 C590.0265,26.8047 587.9555,24.7337 587.9555,22.1777 C587.9555,19.6227 590.0265,17.5517 592.5815,17.5517 C595.1365,17.5517 597.2075,19.6227 597.2075,22.1777" id="Fill-84" fill="#88A39B" sketch:type="MSShapeGroup" mask="url(#mask-2)"></path>
                    <path d="M565.4844,22.1777 C565.4844,24.7337 563.4134,26.8047 560.8584,26.8047 C558.3034,26.8047 556.2314,24.7337 556.2314,22.1777 C556.2314,19.6227 558.3034,17.5517 560.8584,17.5517 C563.4134,17.5517 565.4844,19.6227 565.4844,22.1777" id="Fill-85" fill="#88A39B" sketch:type="MSShapeGroup" mask="url(#mask-2)"></path>
                    <path d="M534.4224,22.1777 C534.4224,24.7337 532.3504,26.8047 529.7964,26.8047 C527.2414,26.8047 525.1694,24.7337 525.1694,22.1777 C525.1694,19.6227 527.2414,17.5517 529.7964,17.5517 C532.3504,17.5517 534.4224,19.6227 534.4224,22.1777" id="Fill-86" fill="#88A39B" sketch:type="MSShapeGroup" mask="url(#mask-2)"></path>
                    <path d="M502.6992,22.1777 C502.6992,24.7337 500.6282,26.8047 498.0732,26.8047 C495.5182,26.8047 493.4472,24.7337 493.4472,22.1777 C493.4472,19.6227 495.5182,17.5517 498.0732,17.5517 C500.6282,17.5517 502.6992,19.6227 502.6992,22.1777" id="Fill-87" fill="#88A39B" sketch:type="MSShapeGroup" mask="url(#mask-2)"></path>
                    <path d="M470.9761,22.1777 C470.9761,24.7337 468.9051,26.8047 466.3501,26.8047 C463.7951,26.8047 461.7231,24.7337 461.7231,22.1777 C461.7231,19.6227 463.7951,17.5517 466.3501,17.5517 C468.9051,17.5517 470.9761,19.6227 470.9761,22.1777" id="Fill-88" fill="#88A39B" sketch:type="MSShapeGroup" mask="url(#mask-2)"></path>
                    <path d="M445.2012,22.1777 C445.2012,24.7337 443.1302,26.8047 440.5752,26.8047 C438.0202,26.8047 435.9482,24.7337 435.9482,22.1777 C435.9482,19.6227 438.0202,17.5517 440.5752,17.5517 C443.1302,17.5517 445.2012,19.6227 445.2012,22.1777" id="Fill-89" fill="#88A39B" sketch:type="MSShapeGroup" mask="url(#mask-2)"></path>
                    <path d="M408.6792,22.1777 C408.6792,24.7337 406.6082,26.8047 404.0532,26.8047 C401.4982,26.8047 399.4272,24.7337 399.4272,22.1777 C399.4272,19.6227 401.4982,17.5517 404.0532,17.5517 C406.6082,17.5517 408.6792,19.6227 408.6792,22.1777" id="Fill-90" fill="#88A39B" sketch:type="MSShapeGroup" mask="url(#mask-2)"></path>
                    <path d="M376.9565,22.1777 C376.9565,24.7337 374.8845,26.8047 372.3305,26.8047 C369.7755,26.8047 367.7045,24.7337 367.7045,22.1777 C367.7045,19.6227 369.7755,17.5517 372.3305,17.5517 C374.8845,17.5517 376.9565,19.6227 376.9565,22.1777" id="Fill-91" fill="#88A39B" sketch:type="MSShapeGroup" mask="url(#mask-2)"></path>
                    <path d="M345.8945,22.1777 C345.8945,24.7337 343.8225,26.8047 341.2685,26.8047 C338.7125,26.8047 336.6415,24.7337 336.6415,22.1777 C336.6415,19.6227 338.7125,17.5517 341.2685,17.5517 C343.8225,17.5517 345.8945,19.6227 345.8945,22.1777" id="Fill-92" fill="#88A39B" sketch:type="MSShapeGroup" mask="url(#mask-2)"></path>
                    <path d="M312.1885,22.1777 C312.1885,24.7337 310.1175,26.8047 307.5625,26.8047 C305.0075,26.8047 302.9355,24.7337 302.9355,22.1777 C302.9355,19.6227 305.0075,17.5517 307.5625,17.5517 C310.1175,17.5517 312.1885,19.6227 312.1885,22.1777" id="Fill-93" fill="#88A39B" sketch:type="MSShapeGroup" mask="url(#mask-2)"></path>
                    <path d="M280.4653,22.1777 C280.4653,24.7337 278.3933,26.8047 275.8393,26.8047 C273.2843,26.8047 271.2133,24.7337 271.2133,22.1777 C271.2133,19.6227 273.2843,17.5517 275.8393,17.5517 C278.3933,17.5517 280.4653,19.6227 280.4653,22.1777" id="Fill-94" fill="#88A39B" sketch:type="MSShapeGroup" mask="url(#mask-2)"></path>
                    <path d="M249.4033,22.1777 C249.4033,24.7337 247.3313,26.8047 244.7773,26.8047 C242.2223,26.8047 240.1513,24.7337 240.1513,22.1777 C240.1513,19.6227 242.2223,17.5517 244.7773,17.5517 C247.3313,17.5517 249.4033,19.6227 249.4033,22.1777" id="Fill-95" fill="#88A39B" sketch:type="MSShapeGroup" mask="url(#mask-2)"></path>
                    <path d="M217.0195,22.1777 C217.0195,24.7337 214.9485,26.8047 212.3935,26.8047 C209.8375,26.8047 207.7675,24.7337 207.7675,22.1777 C207.7675,19.6227 209.8375,17.5517 212.3935,17.5517 C214.9485,17.5517 217.0195,19.6227 217.0195,22.1777" id="Fill-96" fill="#88A39B" sketch:type="MSShapeGroup" mask="url(#mask-2)"></path>
                    <path d="M185.2964,22.1777 C185.2964,24.7337 183.2254,26.8047 180.6704,26.8047 C178.1154,26.8047 176.0434,24.7337 176.0434,22.1777 C176.0434,19.6227 178.1154,17.5517 180.6704,17.5517 C183.2254,17.5517 185.2964,19.6227 185.2964,22.1777" id="Fill-97" fill="#88A39B" sketch:type="MSShapeGroup" mask="url(#mask-2)"></path>
                    <path d="M154.2344,22.1777 C154.2344,24.7337 152.1634,26.8047 149.6074,26.8047 C147.0524,26.8047 144.9814,24.7337 144.9814,22.1777 C144.9814,19.6227 147.0524,17.5517 149.6074,17.5517 C152.1634,17.5517 154.2344,19.6227 154.2344,22.1777" id="Fill-98" fill="#88A39B" sketch:type="MSShapeGroup" mask="url(#mask-2)"></path>
                    <path d="M119.8677,22.1777 C119.8677,24.7337 117.7957,26.8047 115.2417,26.8047 C112.6867,26.8047 110.6147,24.7337 110.6147,22.1777 C110.6147,19.6227 112.6867,17.5517 115.2417,17.5517 C117.7957,17.5517 119.8677,19.6227 119.8677,22.1777" id="Fill-99" fill="#88A39B" sketch:type="MSShapeGroup" mask="url(#mask-2)"></path>
                    <path d="M88.1445,22.1777 C88.1445,24.7337 86.0735,26.8047 83.5185,26.8047 C80.9635,26.8047 78.8925,24.7337 78.8925,22.1777 C78.8925,19.6227 80.9635,17.5517 83.5185,17.5517 C86.0735,17.5517 88.1445,19.6227 88.1445,22.1777" id="Fill-100" fill="#88A39B" sketch:type="MSShapeGroup" mask="url(#mask-2)"></path>
                    <path d="M57.0825,22.1777 C57.0825,24.7337 55.0115,26.8047 52.4565,26.8047 C49.9015,26.8047 47.8305,24.7337 47.8305,22.1777 C47.8305,19.6227 49.9015,17.5517 52.4565,17.5517 C55.0115,17.5517 57.0825,19.6227 57.0825,22.1777" id="Fill-101" fill="#88A39B" sketch:type="MSShapeGroup" mask="url(#mask-2)"></path>
                    <path d="M23.377,22.1777 C23.377,24.7337 21.306,26.8047 18.751,26.8047 C16.195,26.8047 14.124,24.7337 14.124,22.1777 C14.124,19.6227 16.195,17.5517 18.751,17.5517 C21.306,17.5517 23.377,19.6227 23.377,22.1777" id="Fill-102" fill="#88A39B" sketch:type="MSShapeGroup" mask="url(#mask-2)"></path>
                    <path d="M1270,477.1777 C1270,479.7337 1267.93,481.8047 1265.374,481.8047 C1262.819,481.8047 1260.748,479.7337 1260.748,477.1777 C1260.748,474.6227 1262.819,472.5517 1265.374,472.5517 C1267.93,472.5517 1270,474.6227 1270,477.1777" id="Fill-103" fill="#88A39B" sketch:type="MSShapeGroup" mask="url(#mask-2)"></path>
                    <path d="M1238.2773,477.1777 C1238.2773,479.7337 1236.2063,481.8047 1233.6513,481.8047 C1231.0953,481.8047 1229.0253,479.7337 1229.0253,477.1777 C1229.0253,474.6227 1231.0953,472.5517 1233.6513,472.5517 C1236.2063,472.5517 1238.2773,474.6227 1238.2773,477.1777" id="Fill-104" fill="#88A39B" sketch:type="MSShapeGroup" mask="url(#mask-2)"></path>
                    <path d="M1207.2148,477.1777 C1207.2148,479.7337 1205.1438,481.8047 1202.5888,481.8047 C1200.0338,481.8047 1197.9628,479.7337 1197.9628,477.1777 C1197.9628,474.6227 1200.0338,472.5517 1202.5888,472.5517 C1205.1438,472.5517 1207.2148,474.6227 1207.2148,477.1777" id="Fill-105" fill="#88A39B" sketch:type="MSShapeGroup" mask="url(#mask-2)"></path>
                    <path d="M1174.8311,477.1777 C1174.8311,479.7337 1172.7601,481.8047 1170.2051,481.8047 C1167.6501,481.8047 1165.5791,479.7337 1165.5791,477.1777 C1165.5791,474.6227 1167.6501,472.5517 1170.2051,472.5517 C1172.7601,472.5517 1174.8311,474.6227 1174.8311,477.1777" id="Fill-106" fill="#88A39B" sketch:type="MSShapeGroup" mask="url(#mask-2)"></path>
                    <path d="M1143.1084,477.1777 C1143.1084,479.7337 1141.0374,481.8047 1138.4824,481.8047 C1135.9274,481.8047 1133.8554,479.7337 1133.8554,477.1777 C1133.8554,474.6227 1135.9274,472.5517 1138.4824,472.5517 C1141.0374,472.5517 1143.1084,474.6227 1143.1084,477.1777" id="Fill-107" fill="#88A39B" sketch:type="MSShapeGroup" mask="url(#mask-2)"></path>
                    <path d="M1112.0459,477.1777 C1112.0459,479.7337 1109.9749,481.8047 1107.4199,481.8047 C1104.8649,481.8047 1102.7929,479.7337 1102.7929,477.1777 C1102.7929,474.6227 1104.8649,472.5517 1107.4199,472.5517 C1109.9749,472.5517 1112.0459,474.6227 1112.0459,477.1777" id="Fill-108" fill="#88A39B" sketch:type="MSShapeGroup" mask="url(#mask-2)"></path>
                    <path d="M1077.6797,477.1777 C1077.6797,479.7337 1075.6077,481.8047 1073.0527,481.8047 C1070.4977,481.8047 1068.4267,479.7337 1068.4267,477.1777 C1068.4267,474.6227 1070.4977,472.5517 1073.0527,472.5517 C1075.6077,472.5517 1077.6797,474.6227 1077.6797,477.1777" id="Fill-109" fill="#88A39B" sketch:type="MSShapeGroup" mask="url(#mask-2)"></path>
                    <path d="M1045.957,477.1777 C1045.957,479.7337 1043.885,481.8047 1041.33,481.8047 C1038.775,481.8047 1036.704,479.7337 1036.704,477.1777 C1036.704,474.6227 1038.775,472.5517 1041.33,472.5517 C1043.885,472.5517 1045.957,474.6227 1045.957,477.1777" id="Fill-110" fill="#88A39B" sketch:type="MSShapeGroup" mask="url(#mask-2)"></path>
                    <path d="M1014.8945,477.1777 C1014.8945,479.7337 1012.8225,481.8047 1010.2675,481.8047 C1007.7125,481.8047 1005.6415,479.7337 1005.6415,477.1777 C1005.6415,474.6227 1007.7125,472.5517 1010.2675,472.5517 C1012.8225,472.5517 1014.8945,474.6227 1014.8945,477.1777" id="Fill-111" fill="#88A39B" sketch:type="MSShapeGroup" mask="url(#mask-2)"></path>
                    <path d="M981.1885,477.1777 C981.1885,479.7337 979.1175,481.8047 976.5625,481.8047 C974.0075,481.8047 971.9355,479.7337 971.9355,477.1777 C971.9355,474.6227 974.0075,472.5517 976.5625,472.5517 C979.1175,472.5517 981.1885,474.6227 981.1885,477.1777" id="Fill-112" fill="#88A39B" sketch:type="MSShapeGroup" mask="url(#mask-2)"></path>
                    <path d="M949.4648,477.1777 C949.4648,479.7337 947.3938,481.8047 944.8398,481.8047 C942.2838,481.8047 940.2128,479.7337 940.2128,477.1777 C940.2128,474.6227 942.2838,472.5517 944.8398,472.5517 C947.3938,472.5517 949.4648,474.6227 949.4648,477.1777" id="Fill-113" fill="#88A39B" sketch:type="MSShapeGroup" mask="url(#mask-2)"></path>
                    <path d="M918.4033,477.1777 C918.4033,479.7337 916.3323,481.8047 913.7773,481.8047 C911.2223,481.8047 909.1503,479.7337 909.1503,477.1777 C909.1503,474.6227 911.2223,472.5517 913.7773,472.5517 C916.3323,472.5517 918.4033,474.6227 918.4033,477.1777" id="Fill-114" fill="#88A39B" sketch:type="MSShapeGroup" mask="url(#mask-2)"></path>
                    <path d="M886.0195,477.1777 C886.0195,479.7337 883.9485,481.8047 881.3925,481.8047 C878.8375,481.8047 876.7675,479.7337 876.7675,477.1777 C876.7675,474.6227 878.8375,472.5517 881.3925,472.5517 C883.9485,472.5517 886.0195,474.6227 886.0195,477.1777" id="Fill-115" fill="#88A39B" sketch:type="MSShapeGroup" mask="url(#mask-2)"></path>
                    <path d="M854.2969,477.1777 C854.2969,479.7337 852.2249,481.8047 849.6699,481.8047 C847.1149,481.8047 845.0439,479.7337 845.0439,477.1777 C845.0439,474.6227 847.1149,472.5517 849.6699,472.5517 C852.2249,472.5517 854.2969,474.6227 854.2969,477.1777" id="Fill-116" fill="#88A39B" sketch:type="MSShapeGroup" mask="url(#mask-2)"></path>
                    <path d="M823.2344,477.1777 C823.2344,479.7337 821.1634,481.8047 818.6074,481.8047 C816.0524,481.8047 813.9814,479.7337 813.9814,477.1777 C813.9814,474.6227 816.0524,472.5517 818.6074,472.5517 C821.1634,472.5517 823.2344,474.6227 823.2344,477.1777" id="Fill-117" fill="#88A39B" sketch:type="MSShapeGroup" mask="url(#mask-2)"></path>
                    <path d="M788.8672,477.1777 C788.8672,479.7337 786.7962,481.8047 784.2412,481.8047 C781.6862,481.8047 779.6152,479.7337 779.6152,477.1777 C779.6152,474.6227 781.6862,472.5517 784.2412,472.5517 C786.7962,472.5517 788.8672,474.6227 788.8672,477.1777" id="Fill-118" fill="#88A39B" sketch:type="MSShapeGroup" mask="url(#mask-2)"></path>
                    <path d="M757.1445,477.1777 C757.1445,479.7337 755.0735,481.8047 752.5175,481.8047 C749.9625,481.8047 747.8925,479.7337 747.8925,477.1777 C747.8925,474.6227 749.9625,472.5517 752.5175,472.5517 C755.0735,472.5517 757.1445,474.6227 757.1445,477.1777" id="Fill-119" fill="#88A39B" sketch:type="MSShapeGroup" mask="url(#mask-2)"></path>
                    <path d="M726.082,477.1777 C726.082,479.7337 724.012,481.8047 721.456,481.8047 C718.901,481.8047 716.83,479.7337 716.83,477.1777 C716.83,474.6227 718.901,472.5517 721.456,472.5517 C724.012,472.5517 726.082,474.6227 726.082,477.1777" id="Fill-120" fill="#88A39B" sketch:type="MSShapeGroup" mask="url(#mask-2)"></path>
                    <path d="M692.377,477.1777 C692.377,479.7337 690.306,481.8047 687.75,481.8047 C685.195,481.8047 683.123,479.7337 683.123,477.1777 C683.123,474.6227 685.195,472.5517 687.75,472.5517 C690.306,472.5517 692.377,474.6227 692.377,477.1777" id="Fill-121" fill="#88A39B" sketch:type="MSShapeGroup" mask="url(#mask-2)"></path>
                    <path d="M660.6533,477.1777 C660.6533,479.7337 658.5823,481.8047 656.0273,481.8047 C653.4723,481.8047 651.4003,479.7337 651.4003,477.1777 C651.4003,474.6227 653.4723,472.5517 656.0273,472.5517 C658.5823,472.5517 660.6533,474.6227 660.6533,477.1777" id="Fill-122" fill="#88A39B" sketch:type="MSShapeGroup" mask="url(#mask-2)"></path>
                    <path d="M629.5918,477.1777 C629.5918,479.7337 627.5198,481.8047 624.9648,481.8047 C622.4098,481.8047 620.3388,479.7337 620.3388,477.1777 C620.3388,474.6227 622.4098,472.5517 624.9648,472.5517 C627.5198,472.5517 629.5918,474.6227 629.5918,477.1777" id="Fill-123" fill="#88A39B" sketch:type="MSShapeGroup" mask="url(#mask-2)"></path>
                    <path d="M597.2075,477.1777 C597.2075,479.7337 595.1365,481.8047 592.5815,481.8047 C590.0265,481.8047 587.9555,479.7337 587.9555,477.1777 C587.9555,474.6227 590.0265,472.5517 592.5815,472.5517 C595.1365,472.5517 597.2075,474.6227 597.2075,477.1777" id="Fill-124" fill="#88A39B" sketch:type="MSShapeGroup" mask="url(#mask-2)"></path>
                    <path d="M565.4844,477.1777 C565.4844,479.7337 563.4134,481.8047 560.8584,481.8047 C558.3034,481.8047 556.2314,479.7337 556.2314,477.1777 C556.2314,474.6227 558.3034,472.5517 560.8584,472.5517 C563.4134,472.5517 565.4844,474.6227 565.4844,477.1777" id="Fill-125" fill="#88A39B" sketch:type="MSShapeGroup" mask="url(#mask-2)"></path>
                    <path d="M534.4224,477.1777 C534.4224,479.7337 532.3504,481.8047 529.7964,481.8047 C527.2414,481.8047 525.1694,479.7337 525.1694,477.1777 C525.1694,474.6227 527.2414,472.5517 529.7964,472.5517 C532.3504,472.5517 534.4224,474.6227 534.4224,477.1777" id="Fill-126" fill="#88A39B" sketch:type="MSShapeGroup" mask="url(#mask-2)"></path>
                    <path d="M217.0195,477.1777 C217.0195,479.7337 214.9485,481.8047 212.3935,481.8047 C209.8375,481.8047 207.7675,479.7337 207.7675,477.1777 C207.7675,474.6227 209.8375,472.5517 212.3935,472.5517 C214.9485,472.5517 217.0195,474.6227 217.0195,477.1777" id="Fill-127" fill="#88A39B" sketch:type="MSShapeGroup" mask="url(#mask-2)"></path>
                    <path d="M185.2964,477.1777 C185.2964,479.7337 183.2254,481.8047 180.6704,481.8047 C178.1154,481.8047 176.0434,479.7337 176.0434,477.1777 C176.0434,474.6227 178.1154,472.5517 180.6704,472.5517 C183.2254,472.5517 185.2964,474.6227 185.2964,477.1777" id="Fill-128" fill="#88A39B" sketch:type="MSShapeGroup" mask="url(#mask-2)"></path>
                    <path d="M154.2344,477.1777 C154.2344,479.7337 152.1634,481.8047 149.6074,481.8047 C147.0524,481.8047 144.9814,479.7337 144.9814,477.1777 C144.9814,474.6227 147.0524,472.5517 149.6074,472.5517 C152.1634,472.5517 154.2344,474.6227 154.2344,477.1777" id="Fill-129" fill="#88A39B" sketch:type="MSShapeGroup" mask="url(#mask-2)"></path>
                    <path d="M119.8677,477.1777 C119.8677,479.7337 117.7957,481.8047 115.2417,481.8047 C112.6867,481.8047 110.6147,479.7337 110.6147,477.1777 C110.6147,474.6227 112.6867,472.5517 115.2417,472.5517 C117.7957,472.5517 119.8677,474.6227 119.8677,477.1777" id="Fill-130" fill="#88A39B" sketch:type="MSShapeGroup" mask="url(#mask-2)"></path>
                    <path d="M88.1445,477.1777 C88.1445,479.7337 86.0735,481.8047 83.5185,481.8047 C80.9635,481.8047 78.8925,479.7337 78.8925,477.1777 C78.8925,474.6227 80.9635,472.5517 83.5185,472.5517 C86.0735,472.5517 88.1445,474.6227 88.1445,477.1777" id="Fill-131" fill="#88A39B" sketch:type="MSShapeGroup" mask="url(#mask-2)"></path>
                    <path d="M57.0825,477.1777 C57.0825,479.7337 55.0115,481.8047 52.4565,481.8047 C49.9015,481.8047 47.8305,479.7337 47.8305,477.1777 C47.8305,474.6227 49.9015,472.5517 52.4565,472.5517 C55.0115,472.5517 57.0825,474.6227 57.0825,477.1777" id="Fill-132" fill="#88A39B" sketch:type="MSShapeGroup" mask="url(#mask-2)"></path>
                    <path d="M23.377,477.1777 C23.377,479.7337 21.306,481.8047 18.751,481.8047 C16.195,481.8047 14.124,479.7337 14.124,477.1777 C14.124,474.6227 16.195,472.5517 18.751,472.5517 C21.306,472.5517 23.377,474.6227 23.377,477.1777" id="Fill-133" fill="#88A39B" sketch:type="MSShapeGroup" mask="url(#mask-2)"></path>
                    <path d="M1256,249.667 C1256,253.533 1252.866,256.667 1249,256.667 C1245.135,256.667 1242,253.533 1242,249.667 C1242,245.801 1245.135,242.667 1249,242.667 C1252.866,242.667 1256,245.801 1256,249.667" id="Fill-134" fill="#88A39B" sketch:type="MSShapeGroup" mask="url(#mask-2)"></path>
                    <path d="M456,459 L283,459 L283,442 L456,442 L456,459 Z" id="Fill-135" fill="#918A7E" sketch:type="MSShapeGroup" mask="url(#mask-2)"></path>
                    <path d="M446,442 L292,442 L292,426 L446,426 L446,442 Z" id="Fill-136" fill="#B7AE9E" sketch:type="MSShapeGroup" mask="url(#mask-2)"></path>
                    <path d="M476,475 L265,475 L265,458 L476,458 L476,475 Z" id="Fill-137" fill="#7C7C7C" sketch:type="MSShapeGroup" mask="url(#mask-2)"></path>
                </g>
            </g>
        </g>
    </g>
</svg>