<?xml version="1.0" encoding="UTF-8" standalone="no"?>
<svg width="310px" height="545px" viewBox="0 0 310 545" version="1.1" xmlns="http://www.w3.org/2000/svg" xmlns:xlink="http://www.w3.org/1999/xlink" xmlns:sketch="http://www.bohemiancoding.com/sketch/ns">
    <!-- Generator: Sketch 3.4.4 (17249) - http://www.bohemiancoding.com/sketch -->
    <title>pilot_</title>
    <desc>Created with Sketch.</desc>
    <defs>
        <path id="path-1" d="M0,1.25745455 L309.298354,1.25745455 L309.298354,546 L0,546"></path>
        <path id="path-3" d="M0,1.25745455 L309.298354,1.25745455 L309.298354,546 L0,546 L0,1.25745455 Z"></path>
    </defs>
    <g id="Welcome" stroke="none" stroke-width="1" fill="none" fill-rule="evenodd" sketch:type="MSPage">
        <g id="advice_" sketch:type="MSArtboardGroup" transform="translate(-282.000000, -117.000000)">
            <g id="pilot_" sketch:type="MSLayerGroup" transform="translate(282.000000, 116.000000)">
                <path d="M57.7293992,352.534382 C39.5580412,347.034927 27.6134733,328.999109 30.3600988,309.658745 C33.1067243,290.317109 45.2770947,275.291291 64.2636379,275.044382 L64.8275062,261.869109 C37.8651605,261.190745 19.8200988,281.032564 15.9444609,308.323655 C12.068823,335.6122 29.4658189,361.013291 55.555572,367.835109 L57.7293992,352.534382 Z" id="Fill-1" fill="#ED4E31" sketch:type="MSShapeGroup"></path>
                <path d="M269.546914,268.770473 C264.034527,286.896655 245.955021,298.814473 226.570453,296.074291 C207.183333,293.335382 192.122181,281.192291 191.874691,262.250291 L191.477942,262.232473 L189.586049,292.8632 C197.890988,301.185564 211.576914,308.525382 225.230947,310.456109 C252.583663,314.323927 278.045761,296.966473 284.882346,270.937927 L269.546914,268.770473 Z" id="Fill-3" fill="#ED4E31" sketch:type="MSShapeGroup"></path>
                <g id="Group-7">
                    <mask id="mask-2" sketch:name="Clip 6" fill="white">
                        <use xlink:href="#path-1"></use>
                    </mask>
                    <g id="Clip-6"></g>
                    <path d="M258.228724,134.874345 C258.228724,206.015982 200.422016,263.6858 129.114362,263.6858 C57.8067078,263.6858 0,206.015982 0,134.874345 C0,63.7352545 57.8067078,1.25707273 129.114362,1.25707273 C200.422016,1.25707273 258.228724,63.7352545 258.228724,134.874345" id="Fill-5" fill="#C24026" sketch:type="MSShapeGroup" mask="url(#mask-2)"></path>
                </g>
                <mask id="mask-4" sketch:name="Clip 9" fill="white">
                    <use xlink:href="#path-3"></use>
                </mask>
                <g id="Clip-9"></g>
                <path d="M154.496091,342.79 L97.0886831,342.79 L97.0886831,272.79 L154.496091,272.79 L154.496091,342.79 Z" id="Fill-8" fill="#E5E5E4" sketch:type="MSShapeGroup" mask="url(#mask-4)"></path>
                <path d="M115.985926,331.3926 L126.42642,289.088418 L138.633786,331.713327 L115.985926,331.3926 Z" id="Fill-10" fill="#000000" sketch:type="MSShapeGroup" mask="url(#mask-4)"></path>
                <path d="M184.35177,353.960727 L158.450823,353.960727 L158.450823,315.719091 L184.35177,315.719091 L184.35177,353.960727 Z" id="Fill-11" fill="#E5E5E4" sketch:type="MSShapeGroup" mask="url(#mask-4)"></path>
                <path d="M226.867695,99.0017636 C228.522305,92.4090364 229.533951,76.5394 214.415391,72.7606727 C203.228601,69.9644909 191.713951,77.4404909 188.694321,89.4588545 C185.677243,101.477218 192.29823,113.486673 203.483745,116.282855" id="Fill-12" fill="#916433" sketch:type="MSShapeGroup" mask="url(#mask-4)"></path>
                <path d="M184.544658,329.4984 L184.697745,321.653309" id="Fill-13" fill="#CCCBCB" sketch:type="MSShapeGroup" mask="url(#mask-4)"></path>
                <path d="M107.073235,260.973745 L95.8175556,274.880836" id="Fill-14" fill="#D5D5D5" sketch:type="MSShapeGroup" mask="url(#mask-4)"></path>
                <path d="M127.703416,426.776 L123.252428,426.776 L123.252428,415.868727 L127.703416,415.868727 L127.703416,426.776 Z" id="Fill-15" fill="#545456" sketch:type="MSShapeGroup" mask="url(#mask-4)"></path>
                <path d="M121.773358,236.962218 L122.323193,270.104036 L130.602617,284.280945 L136.70056,271.952036 L136.70056,236.962218" id="Fill-16" fill="#E8C599" sketch:type="MSShapeGroup" mask="url(#mask-4)"></path>
                <path d="M129.473733,251.975182 L129.883239,283.697909 L136.366449,266.267909 L136.863979,238.980636" id="Fill-17" fill="#DABB96" sketch:type="MSShapeGroup" mask="url(#mask-4)"></path>
                <path d="M225.74149,86.0147273 L225.383012,98.3932727 C226.187992,170.013455 237.207663,161.864182 225.935399,198.971818 C218.890872,222.162182 164.424,250.089636 132.110008,249.823636 C97.2279918,249.536 45.8049877,223.774727 35.2152346,198.335455 C12.8148642,144.516909 29.5842058,135.535273 29.1058107,92.7792727 L225.74149,86.0147273 Z" id="Fill-18" fill="#F2D2A7" sketch:type="MSShapeGroup" mask="url(#mask-4)"></path>
                <path d="M171.025597,412.262964 L87.3625926,411.621509 L89.4343621,437.790055 L89.4343621,437.842236 L95.1776543,543.880782 L103.288683,543.880782 L110.587078,437.856236 L147.965679,437.912236 L155.261523,543.880782 L163.372551,543.880782 L169.049506,437.839691 L171.025597,412.262964 Z" id="Fill-19" fill="#ED4E31" sketch:type="MSShapeGroup" mask="url(#mask-4)"></path>
                <path d="M103.773712,544.850345 C103.773712,544.850345 70.0066749,508.614527 57.6002963,544.850345" id="Fill-20" fill="#E9E6D5" sketch:type="MSShapeGroup" mask="url(#mask-4)"></path>
                <path d="M154.423247,544.210291 C154.423247,544.210291 188.190284,507.971927 200.596663,544.210291" id="Fill-21" fill="#E9E6D5" sketch:type="MSShapeGroup" mask="url(#mask-4)"></path>
                <path d="M111.120967,53.8809091 L111.120967,51.3354545 L122.602449,51.3354545 L122.602449,53.8809091" id="Fill-22" fill="#F7B817" sketch:type="MSShapeGroup" mask="url(#mask-4)"></path>
                <path d="M84.3433457,179.880909 C84.3433457,182.535818 81.6464733,184.971818 78.3193951,184.971818 L68.6826049,184.971818 C65.3568025,184.971818 62.6586543,182.535818 62.6586543,179.880909 C62.6586543,177.226 65.3568025,174.79 68.6826049,174.79 L78.3193951,174.79 C81.6464733,174.79 84.3433457,177.226 84.3433457,179.880909" id="Fill-23" fill="#E16C58" sketch:type="MSShapeGroup" mask="url(#mask-4)"></path>
                <path d="M188.265934,180.517273 C188.265934,183.172182 185.569062,184.971818 182.241984,184.971818 L172.605193,184.971818 C169.278115,184.971818 166.581243,183.172182 166.581243,180.517273 C166.581243,177.862364 169.278115,176.062727 172.605193,176.062727 L182.241984,176.062727 C185.569062,176.062727 188.265934,177.862364 188.265934,180.517273" id="Fill-24" fill="#E16C58" sketch:type="MSShapeGroup" mask="url(#mask-4)"></path>
                <path d="M199.145658,152.517273 C199.145658,160.601636 192.576975,167.153636 184.474877,167.153636 L169.166235,167.153636 C161.064136,167.153636 154.495453,160.601636 154.495453,152.517273 C154.495453,144.432909 161.064136,137.880909 169.166235,137.880909 L184.474877,137.880909 C192.576975,137.880909 199.145658,144.432909 199.145658,152.517273" id="Fill-25" fill="#FFFFFF" sketch:type="MSShapeGroup" mask="url(#mask-4)"></path>
                <path d="M182.138905,151.703236 C182.138905,153.229236 180.898905,154.466327 179.368041,154.466327 C177.838453,154.466327 176.598453,153.229236 176.598453,151.703236 C176.598453,150.177236 177.838453,148.938873 179.368041,148.938873 C180.898905,148.938873 182.138905,150.177236 182.138905,151.703236" id="Fill-26" fill="#000000" sketch:type="MSShapeGroup" mask="url(#mask-4)"></path>
                <path d="M94.5366049,152.517273 C94.5366049,160.601636 87.9679218,167.153636 79.865823,167.153636 L64.5571811,167.153636 C56.4550823,167.153636 49.8863992,160.601636 49.8863992,152.517273 C49.8863992,144.432909 56.4550823,137.880909 64.5571811,137.880909 L79.865823,137.880909 C87.9679218,137.880909 94.5366049,144.432909 94.5366049,152.517273" id="Fill-27" fill="#FFFFFF" sketch:type="MSShapeGroup" mask="url(#mask-4)"></path>
                <path d="M76.7711811,151.703236 C76.7711811,153.229236 75.5311811,154.466327 74.0003169,154.466327 C72.4707284,154.466327 71.2307284,153.229236 71.2307284,151.703236 C71.2307284,150.177236 72.4707284,148.938873 74.0003169,148.938873 C75.5311811,148.938873 76.7711811,150.177236 76.7711811,151.703236" id="Fill-28" fill="#000000" sketch:type="MSShapeGroup" mask="url(#mask-4)"></path>
                <path d="M153.355469,186.244545 C146.790613,195.153636 137.411519,199.842364 127.011848,199.842364 C116.612177,199.842364 107.233082,195.153636 100.668226,186.244545 L98.4229588,186.244545 C99.0263745,187.517273 99.6565802,187.845636 100.316128,188.620727 C107.438473,196.986364 116.91835,201.584727 127.011848,201.584727 C137.105346,201.584727 146.586498,196.988909 153.707568,188.624545 C154.367115,187.849455 154.998597,187.517273 155.602012,186.244545 L153.355469,186.244545 Z" id="Fill-29" fill="#000000" sketch:type="MSShapeGroup" mask="url(#mask-4)"></path>
                <path d="M136.863342,154.5432 L126.319514,137.9952 L116.088239,154.030291 C115.287086,155.599564 114.947745,157.376291 114.947745,159.258655 L114.947745,171.1612 C114.947745,177.533745 119.877128,182.426109 126.263383,182.426109 L126.268486,182.426109 C132.653465,182.426109 137.910708,177.533745 137.910708,171.1612 L137.910708,159.258655 C137.910708,157.578655 137.510132,155.982655 136.863342,154.5432" id="Fill-30" fill="#EDA769" sketch:type="MSShapeGroup" mask="url(#mask-4)"></path>
                <path d="M115.81651,171.991018 C115.475893,171.991018 115.146757,172.041927 114.836757,172.136109 C115.188856,174.4092 116.206881,176.463382 117.684165,178.093745 C118.573342,177.493018 119.160173,176.477382 119.160173,175.325564 C119.160173,173.483927 117.662477,171.991018 115.81651,171.991018" id="Fill-31" fill="#916433" sketch:type="MSShapeGroup" mask="url(#mask-4)"></path>
                <path d="M136.61228,172.792709 C136.952897,172.792709 137.280757,172.843618 137.590757,172.936527 C137.238658,175.210891 136.221909,177.265073 134.744626,178.894164 C133.854173,178.294709 133.268617,177.279073 133.268617,176.127255 C133.268617,174.285618 134.765037,172.792709 136.61228,172.792709" id="Fill-32" fill="#916433" sketch:type="MSShapeGroup" mask="url(#mask-4)"></path>
                <path d="M86.882284,128.213655 C86.882284,130.062927 85.2787037,131.545655 83.4250823,131.526564 L61.0438477,131.288564 C59.1902263,131.266927 57.5407202,129.752382 57.5407202,127.903109 L57.5407202,127.870018 C57.5407202,126.019473 59.2297737,124.538018 61.0821193,124.557109 L83.4225309,124.796382 C85.2761523,124.815473 86.882284,126.331291 86.882284,128.179291 L86.882284,128.213655 Z" id="Fill-33" fill="#916433" sketch:type="MSShapeGroup" mask="url(#mask-4)"></path>
                <path d="M190.215617,127.523836 C190.215617,129.370564 188.66179,130.924564 186.81072,130.994564 L164.488169,131.8142 C162.635823,131.882927 160.874053,130.440927 160.874053,128.592927 L160.874053,128.559836 C160.874053,126.710564 162.297757,125.157836 164.150103,125.089109 L186.53644,124.266927 C188.388786,124.199473 188.939897,125.642745 190.215617,127.489473 L190.215617,127.523836 Z" id="Fill-34" fill="#916433" sketch:type="MSShapeGroup" mask="url(#mask-4)"></path>
                <path d="M226.815391,85.2565636 C221.361687,48.2609273 175.933292,34.4772909 131.073868,34.4772909 C88.0795473,34.4772909 43.4905761,47.7594727 35.8400823,76.3742 C31.6174486,78.8152909 28.9282305,82.4603818 28.9282305,86.5382 C28.9282305,93.8831091 37.6299177,99.8382 48.3638272,99.8382 C53.3952675,99.8382 57.9648971,98.5196545 61.4157202,96.3725636 C64.425144,101.053655 71.2515226,104.324564 79.2030864,104.324564 C86.2297531,104.324564 92.3659671,101.765109 95.78107,97.9418364 C99.2880247,100.301473 104.093663,101.761291 109.400658,101.761291 C115.595556,101.761291 121.100288,99.7707455 124.659547,96.6818364 C128.218807,99.7707455 133.723539,101.761291 139.918436,101.761291 C145.164198,101.761291 149.917531,100.332018 153.41428,98.0182 C156.084362,103.182927 163.261564,106.889109 171.720864,106.889109 C179.12642,106.889109 185.561152,104.054745 188.842305,99.8852909 C192.381152,102.418018 197.356461,104.003836 202.882881,104.003836 C213.615514,104.003836 222.317202,98.0500182 222.317202,90.7038364 C222.317202,88.6942 221.647449,86.7965636 220.48144,85.0885636 L226.815391,85.2565636 Z" id="Fill-35" fill="#916433" sketch:type="MSShapeGroup" mask="url(#mask-4)"></path>
                <path d="M153.219733,256.244545 C153.219733,259.759818 150.363395,262.608182 146.841132,262.608182 L111.120967,262.608182 C107.598704,262.608182 104.742366,259.759818 104.742366,256.244545 C104.742366,252.729273 107.598704,249.880909 111.120967,249.880909 L146.841132,249.880909 C150.363395,249.880909 153.219733,252.729273 153.219733,256.244545" id="Fill-36" fill="#ED4E31" sketch:type="MSShapeGroup" mask="url(#mask-4)"></path>
                <path d="M187.783712,397.093455 L191.744823,261.335455 L62.6304609,261.335455 L67.9604198,397.415455 C67.854535,398.277091 67.799679,399.281273 67.799679,400.170909 C67.799679,412.028909 77.4364691,421.706727 89.3223539,421.706727 L166.420502,421.417818 C178.307663,421.417818 187.944453,411.692909 187.944453,399.833636 C187.944453,398.944 187.889597,397.955091 187.783712,397.093455" id="Fill-37" fill="#F06B39" sketch:type="MSShapeGroup" mask="url(#mask-4)"></path>
                <path d="M197.869938,250.555836 C197.869938,257.233836 191.617634,262.608564 184.33072,262.608564 L69.0796091,262.608564 C61.7926955,262.608564 54.9892798,257.233836 54.9892798,250.555836 L54.9892798,250.540564 C54.9892798,243.863836 61.7926955,238.426745 69.0796091,238.426745 L184.33072,238.426745 C191.617634,238.426745 197.869938,243.863836 197.869938,250.540564 L197.869938,250.555836 Z" id="Fill-38" fill="#C24026" sketch:type="MSShapeGroup" mask="url(#mask-4)"></path>
                <path d="M85.6065638,238.701018 C85.6065638,242.766109 82.3024486,246.062473 78.2265226,246.062473 L68.7479218,246.062473 C64.6719959,246.062473 61.3678807,242.766109 61.3678807,238.701018 L61.3678807,238.1512 C61.3678807,234.086109 64.6719959,230.789745 68.7479218,230.789745 L78.2265226,230.789745 C82.3024486,230.789745 85.6065638,234.086109 85.6065638,238.1512 L85.6065638,238.701018 Z" id="Fill-39" fill="#C24026" sketch:type="MSShapeGroup" mask="url(#mask-4)"></path>
                <path d="M197.869938,238.699745 C197.869938,242.766109 194.565823,246.062473 190.489897,246.062473 L177.184136,246.062473 C173.10821,246.062473 169.804095,242.766109 169.804095,238.699745 L169.804095,238.152473 C169.804095,234.086109 173.10821,230.789745 177.184136,230.789745 L190.489897,230.789745 C194.565823,230.789745 197.869938,234.086109 197.869938,238.152473 L197.869938,238.699745 Z" id="Fill-40" fill="#C24026" sketch:type="MSShapeGroup" mask="url(#mask-4)"></path>
                <path d="M129.115,226.196218 C75.7733128,226.196218 31.0848354,190.892036 31.0848354,137.448945 C31.0848354,84.0071273 75.7733128,51.2445818 129.115,51.2445818 C182.456687,51.2445818 224.251831,84.0071273 224.251831,137.448945 C224.251831,190.892036 182.456687,226.196218 129.115,226.196218 M128.151831,26.2507636 C63.9167695,26.2507636 12.8535185,71.8525818 12.8535185,136.209309 C12.8535185,200.566036 64.9271399,252.737673 129.162202,252.737673 C193.397263,252.737673 245.470885,200.566036 245.470885,136.209309 C245.470885,71.8525818 192.386893,26.2507636 128.151831,26.2507636" id="Fill-41" fill="#E9E6D5" sketch:type="MSShapeGroup" mask="url(#mask-4)"></path>
                <path d="M87.0903539,261.886036 C87.0903539,261.886036 91.9100247,279.195127 126.126115,279.195127 C126.126115,258.041127 127.57023,256.597855 127.57023,256.597855" id="Fill-42" fill="#C24026" sketch:type="MSShapeGroup" mask="url(#mask-4)"></path>
                <path d="M170.617621,261.886036 C170.617621,261.886036 165.799226,279.195127 131.58186,279.195127 C131.58186,258.041127 130.136469,256.597855 130.136469,256.597855" id="Fill-43" fill="#C24026" sketch:type="MSShapeGroup" mask="url(#mask-4)"></path>
                <path d="M103.466646,312.653473 C103.466646,313.833291 102.507305,314.790382 101.324712,314.790382 L100.5057,314.790382 C99.3218313,314.790382 98.3637654,313.833291 98.3637654,312.653473 L98.3637654,259.653291 C98.3637654,258.474745 99.3218313,257.517655 100.5057,257.517655 L101.324712,257.517655 C102.507305,257.517655 103.466646,258.474745 103.466646,259.653291 L103.466646,312.653473 Z" id="Fill-44" fill="#B5B5B5" sketch:type="MSShapeGroup" mask="url(#mask-4)"></path>
                <path d="M158.322613,312.653473 C158.322613,313.833291 157.363272,314.790382 156.180679,314.790382 L155.361667,314.790382 C154.179074,314.790382 153.219733,313.833291 153.219733,312.653473 L153.219733,259.653291 C153.219733,258.474745 154.179074,257.517655 155.361667,257.517655 L156.180679,257.517655 C157.363272,257.517655 158.322613,258.474745 158.322613,259.653291 L158.322613,312.653473 Z" id="Fill-45" fill="#B5B5B5" sketch:type="MSShapeGroup" mask="url(#mask-4)"></path>
                <path d="M130.257407,421.699091 L126.430247,421.699091 L126.430247,286.79 L130.257407,286.79 L130.257407,421.699091 Z" id="Fill-46" fill="#E9E6D5" sketch:type="MSShapeGroup" mask="url(#mask-4)"></path>
                <path d="M104.090856,259.781836 C104.090856,261.839836 102.418387,263.508382 100.356823,263.508382 C98.2939835,263.508382 96.6215144,261.839836 96.6215144,259.781836 C96.6215144,257.725109 98.2939835,256.055291 100.356823,256.055291 C102.418387,256.055291 104.090856,257.725109 104.090856,259.781836" id="Fill-47" fill="#E9E6D5" sketch:type="MSShapeGroup" mask="url(#mask-4)"></path>
                <path d="M158.702012,259.781836 C158.702012,261.839836 157.029543,263.508382 154.967979,263.508382 C152.90514,263.508382 151.233947,261.839836 151.233947,259.781836 C151.233947,257.725109 152.90514,256.055291 154.967979,256.055291 C157.029543,256.055291 158.702012,257.725109 158.702012,259.781836" id="Fill-48" fill="#E9E6D5" sketch:type="MSShapeGroup" mask="url(#mask-4)"></path>
                <path d="M56.9359012,366.055836 C56.6424856,367.935655 54.8768889,369.222382 52.9926502,368.929655 C51.1084115,368.636927 49.8173827,366.878018 50.1107984,364.995655 L52.1596049,351.854745 C52.4530206,349.973655 54.219893,348.686927 56.102856,348.979655 C57.9883704,349.271109 59.2781235,351.032564 58.9847078,352.912382 L56.9359012,366.055836 Z" id="Fill-49" fill="#E9E6D5" sketch:type="MSShapeGroup" mask="url(#mask-4)"></path>
                <path d="M283.260395,270.474527 C285.256897,270.785073 286.587473,272.891436 286.230272,275.181073 C285.87307,277.470709 283.964593,279.075618 281.968091,278.765073 L268.007885,276.597618 C266.011383,276.287073 264.682082,274.180709 265.038008,271.892345 C265.39521,269.602709 267.303687,268.000345 269.301465,268.309618 L283.260395,270.474527 Z" id="Fill-50" fill="#E9E6D5" sketch:type="MSShapeGroup" mask="url(#mask-4)"></path>
                <path d="M58.7902881,352.206145 C58.7902881,352.206145 63.6711934,353.284145 66.9242798,354.547964 C68.7689712,355.265782 72.690535,357.522327 73.1421399,359.446691 C73.7646914,362.106691 70.9912757,368.315055 68.4436626,369.323055 C64.3894239,370.926691 56.6164609,367.508145 56.6164609,367.508145 L58.7902881,352.206145 Z" id="Fill-51" fill="#E8C599" sketch:type="MSShapeGroup" mask="url(#mask-4)"></path>
                <path d="M176.183333,398.79 L150.66893,398.79 L150.66893,351.699091 L176.183333,351.699091 L176.183333,398.79 Z" id="Fill-52" fill="#C24026" sketch:type="MSShapeGroup" mask="url(#mask-4)"></path>
                <path d="M109.845885,398.79 L84.3314815,398.79 L84.3314815,351.699091 L109.845885,351.699091 L109.845885,398.79 Z" id="Fill-53" fill="#C24026" sketch:type="MSShapeGroup" mask="url(#mask-4)"></path>
                <path d="M255.118519,209.153636 C254.81107,209.153636 255.277984,210.882 255.277984,212.049091 L255.277984,533.822545 C255.277984,540.547636 260.653868,546 267.396049,546 C274.13823,546 279.516667,540.548909 279.516667,533.822545 L279.516667,212.049091 C279.516667,210.882 278.889012,209.153636 278.581564,209.153636 L255.118519,209.153636 Z" id="Fill-54" fill="#137777" sketch:type="MSShapeGroup" mask="url(#mask-4)"></path>
                <path d="M278.316342,212.013582 C278.778152,211.4574 279.057535,210.668309 279.057535,209.890673 C279.057535,208.119036 277.618523,206.608309 275.845272,206.608309 L258.015807,206.608309 C256.24128,206.608309 254.803543,208.119036 254.803543,209.890673 C254.803543,210.7854 255.172226,211.631764 255.765436,212.2134 L266.971362,231.598309 L278.316342,212.013582 Z" id="Fill-55" fill="#61B5B3" sketch:type="MSShapeGroup" mask="url(#mask-4)"></path>
                <path d="M243.038979,212.720709 C242.859103,213.713436 242.957333,214.8258 243.109144,215.985255 L284.985934,535.031255 C285.861078,541.701618 291.990914,546.400527 298.675687,545.526164 C305.360461,544.654345 310.069144,538.538891 309.194,531.871073 L267.315934,212.821255 C267.164123,211.663073 266.73293,210.593982 266.303012,209.680164 L243.038979,212.720709 Z" id="Fill-56" fill="#14AEB4" sketch:type="MSShapeGroup" mask="url(#mask-4)"></path>
                <path d="M266.458012,212.897236 C266.844556,212.2876 267.035914,211.602873 266.933856,210.8316 C266.704226,209.075236 265.098095,207.899236 263.338877,208.128327 L245.661222,210.438327 C243.902004,210.668691 242.65435,212.2176 242.885255,213.973964 C243.002621,214.861055 243.469535,215.585236 244.132909,216.084145 L257.762704,233.8196 L266.458012,212.897236 Z" id="Fill-57" fill="#6AD3D3" sketch:type="MSShapeGroup" mask="url(#mask-4)"></path>
                <path d="M282.067469,269.698927 C282.067469,274.920927 277.824424,279.154018 272.590144,279.154018 L264.754671,279.154018 C259.520391,279.154018 255.277346,274.920927 255.277346,269.698927 L255.277346,269.516927 C255.277346,264.2962 259.520391,260.063109 264.754671,260.063109 L272.590144,260.063109 C277.824424,260.063109 282.067469,264.2962 282.067469,269.516927 L282.067469,269.698927 Z" id="Fill-58" fill="#137777" sketch:type="MSShapeGroup" mask="url(#mask-4)"></path>
                <path d="M285.89463,265.240691 C285.89463,270.816509 281.364547,275.335964 275.776893,275.335964 L271.773683,275.335964 C266.186029,275.335964 261.655947,270.816509 261.655947,265.240691 L261.655947,265.066327 C261.655947,259.490509 266.186029,254.972327 271.773683,254.972327 L275.776893,254.972327 C281.364547,254.972327 285.89463,259.490509 285.89463,265.066327 L285.89463,265.240691 Z" id="Fill-59" fill="#E8C599" sketch:type="MSShapeGroup" mask="url(#mask-4)"></path>
                <path d="M284.334807,258.430836 L279.516412,247.885018 L279.516412,257.197564 L284.334807,258.430836 Z" id="Fill-60" fill="#E8C599" sketch:type="MSShapeGroup" mask="url(#mask-4)"></path>
                <path d="M109.917453,351.699091 L97.3439547,373.427091 L84.7691811,351.699091 L109.917453,351.699091 Z" id="Fill-61" fill="#ED4E31" sketch:type="MSShapeGroup" mask="url(#mask-4)"></path>
                <path d="M176.254901,351.699091 L163.681403,373.427091 L151.10663,351.699091 L176.254901,351.699091 Z" id="Fill-62" fill="#ED4E31" sketch:type="MSShapeGroup" mask="url(#mask-4)"></path>
            </g>
        </g>
    </g>
</svg>