<?xml version="1.0" encoding="UTF-8" standalone="no"?>
<svg width="280px" height="494px" viewBox="0 0 280 494" version="1.1" xmlns="http://www.w3.org/2000/svg" xmlns:xlink="http://www.w3.org/1999/xlink" xmlns:sketch="http://www.bohemiancoding.com/sketch/ns">
    <!-- Generator: Sketch 3.4.4 (17249) - http://www.bohemiancoding.com/sketch -->
    <title>pilot_</title>
    <desc>Created with Sketch.</desc>
    <defs></defs>
    <g id="Welcome" stroke="none" stroke-width="1" fill="none" fill-rule="evenodd" sketch:type="MSPage">
        <g id="advice_" sketch:type="MSArtboardGroup" transform="translate(-285.000000, -176.000000)">
            <g id="pilot_" sketch:type="MSLayerGroup" transform="translate(285.000000, 176.000000)">
                <path d="M52.1426831,318.605346 C35.7298436,313.619577 24.9412016,297.268423 27.4220247,279.734577 C29.9028477,262.199577 40.8954403,248.577269 58.0445761,248.353423 L58.5538765,236.408808 C34.2007901,235.793808 17.9020247,253.782269 14.4014486,278.524192 C10.9008724,303.263808 26.6142881,326.292269 50.1792263,332.476885 L52.1426831,318.605346 Z" id="Fill-1" fill="#ED4E31" sketch:type="MSShapeGroup"></path>
                <path d="M243.461728,242.665538 C238.482798,259.098615 222.152922,269.903231 204.64428,267.419 C187.133333,264.935923 173.529712,253.927077 173.306173,236.754385 L172.947819,236.738231 L171.239012,264.507846 C178.740247,272.052846 191.101728,278.707077 203.434403,280.457462 C228.140082,283.964 251.138107,268.227846 257.313086,244.630538 L243.461728,242.665538 Z" id="Fill-3" fill="#ED4E31" sketch:type="MSShapeGroup"></path>
                <g id="Group-7" fill="#C24026" sketch:type="MSShapeGroup">
                    <path d="M233.238848,121.276192 C233.238848,185.772731 181.026337,238.055808 116.619424,238.055808 C52.2125103,238.055808 0,185.772731 0,121.276192 C0,56.7819615 52.2125103,0.139653846 116.619424,0.139653846 C181.026337,0.139653846 233.238848,56.7819615 233.238848,121.276192" id="Fill-5"></path>
                </g>
                <path d="M139.544856,309.771154 L87.6930041,309.771154 L87.6930041,246.309615 L139.544856,246.309615 L139.544856,309.771154 Z" id="Fill-8" fill="#E5E5E4" sketch:type="MSShapeGroup"></path>
                <path d="M104.761481,299.438346 L114.191605,261.085654 L125.217613,299.729115 L104.761481,299.438346 Z" id="Fill-10" fill="#000000" sketch:type="MSShapeGroup"></path>
                <path d="M166.511276,319.898462 L143.116872,319.898462 L143.116872,285.228846 L166.511276,285.228846 L166.511276,319.898462 Z" id="Fill-11" fill="#E5E5E4" sketch:type="MSShapeGroup"></path>
                <path d="M204.912757,88.7543462 C206.407243,82.7774231 207.320988,68.3901154 193.665514,64.9643462 C183.561317,62.4293462 173.160988,69.2070385 170.43358,80.1028077 C167.708477,90.9985769 173.688724,101.886269 183.79177,104.421269" id="Fill-12" fill="#916433" sketch:type="MSShapeGroup"></path>
                <path d="M166.685498,297.721077 L166.82377,290.608769" id="Fill-13" fill="#CCCBCB" sketch:type="MSShapeGroup"></path>
                <path d="M96.7113086,235.597077 L86.5448889,248.205154" id="Fill-14" fill="#D5D5D5" sketch:type="MSShapeGroup"></path>
                <path d="M115.345021,385.912308 L111.324774,385.912308 L111.324774,376.023846 L115.345021,376.023846 L115.345021,385.912308 Z" id="Fill-15" fill="#545456" sketch:type="MSShapeGroup"></path>
                <path d="M109.98884,213.828385 L110.485465,243.874538 L117.963654,256.727231 L123.471473,245.549923 L123.471473,213.828385" id="Fill-16" fill="#E8C599" sketch:type="MSShapeGroup"></path>
                <path d="M116.944016,227.439038 L117.313893,256.198654 L123.169695,240.396731 L123.619078,215.658269" id="Fill-17" fill="#DABB96" sketch:type="MSShapeGroup"></path>
                <path d="M203.895539,76.9803846 L203.571753,88.2026923 C204.298831,153.133077 214.252082,145.745 204.070683,179.386538 C197.707885,200.410769 148.512,225.729615 119.325169,225.488462 C87.8188313,225.227692 41.3722469,201.872692 31.8073086,178.809615 C11.574716,130.018077 26.7212181,121.875385 26.2891193,83.1130769 L203.895539,76.9803846 Z" id="Fill-18" fill="#F2D2A7" sketch:type="MSShapeGroup"></path>
                <path d="M154.474733,372.754885 L78.9081481,372.173346 L80.7794239,395.897577 L80.7794239,395.944885 L85.9669136,492.078731 L93.2930041,492.078731 L99.8851029,395.957577 L133.64642,396.008346 L140.236214,492.078731 L147.562305,492.078731 L152.689877,395.942577 L154.474733,372.754885 Z" id="Fill-19" fill="#ED4E31" sketch:type="MSShapeGroup"></path>
                <path d="M93.7310947,492.957731 C93.7310947,492.957731 63.2318354,460.106577 52.0260741,492.957731" id="Fill-20" fill="#916433" sketch:type="MSShapeGroup"></path>
                <path d="M139.479062,492.377462 C139.479062,492.377462 169.978321,459.524 181.184082,492.377462" id="Fill-21" fill="#916433" sketch:type="MSShapeGroup"></path>
                <path d="M100.367325,47.8480769 L100.367325,45.5403846 L110.737695,45.5403846 L110.737695,47.8480769" id="Fill-22" fill="#F7B817" sketch:type="MSShapeGroup"></path>
                <path d="M76.1810864,162.078846 C76.1810864,164.485769 73.7452016,166.694231 70.7400988,166.694231 L62.0359012,166.694231 C59.0319506,166.694231 56.5949136,164.485769 56.5949136,162.078846 C56.5949136,159.671923 59.0319506,157.463462 62.0359012,157.463462 L70.7400988,157.463462 C73.7452016,157.463462 76.1810864,159.671923 76.1810864,162.078846" id="Fill-23" fill="#E16C58" sketch:type="MSShapeGroup"></path>
                <path d="M170.04665,162.655769 C170.04665,165.062692 167.610765,166.694231 164.605663,166.694231 L155.901465,166.694231 C152.896362,166.694231 150.460477,165.062692 150.460477,162.655769 C150.460477,160.248846 152.896362,158.617308 155.901465,158.617308 L164.605663,158.617308 C167.610765,158.617308 170.04665,160.248846 170.04665,162.655769" id="Fill-24" fill="#E16C58" sketch:type="MSShapeGroup"></path>
                <path d="M179.873498,137.271154 C179.873498,144.600385 173.940494,150.540385 166.622469,150.540385 L152.795309,150.540385 C145.477284,150.540385 139.54428,144.600385 139.54428,137.271154 C139.54428,129.941923 145.477284,124.001923 152.795309,124.001923 L166.622469,124.001923 C173.940494,124.001923 179.873498,129.941923 179.873498,137.271154" id="Fill-25" fill="#FFFFFF" sketch:type="MSShapeGroup"></path>
                <path d="M164.51256,136.533154 C164.51256,137.916615 163.39256,139.038154 162.009844,139.038154 C160.62828,139.038154 159.50828,137.916615 159.50828,136.533154 C159.50828,135.149692 160.62828,134.027 162.009844,134.027 C163.39256,134.027 164.51256,135.149692 164.51256,136.533154" id="Fill-26" fill="#000000" sketch:type="MSShapeGroup"></path>
                <path d="M85.3879012,137.271154 C85.3879012,144.600385 79.4548971,150.540385 72.1368724,150.540385 L58.3097119,150.540385 C50.9916872,150.540385 45.0586831,144.600385 45.0586831,137.271154 C45.0586831,129.941923 50.9916872,124.001923 58.3097119,124.001923 L72.1368724,124.001923 C79.4548971,124.001923 85.3879012,129.941923 85.3879012,137.271154" id="Fill-27" fill="#FFFFFF" sketch:type="MSShapeGroup"></path>
                <path d="M69.3417119,136.533154 C69.3417119,137.916615 68.2217119,139.038154 66.8389959,139.038154 C65.4574321,139.038154 64.3374321,137.916615 64.3374321,136.533154 C64.3374321,135.149692 65.4574321,134.027 66.8389959,134.027 C68.2217119,134.027 69.3417119,135.149692 69.3417119,136.533154" id="Fill-28" fill="#000000" sketch:type="MSShapeGroup"></path>
                <path d="M138.514617,167.848077 C132.58507,175.925 124.11363,180.175769 114.720379,180.175769 C105.327128,180.175769 96.8556872,175.925 90.9261399,167.848077 L88.8981564,167.848077 C89.443177,169.001923 90.0123951,169.299615 90.6081152,170.002308 C97.0412016,177.586538 105.603671,181.755385 114.720379,181.755385 C123.837086,181.755385 132.400708,177.588846 138.832642,170.005769 C139.428362,169.303077 139.998733,169.001923 140.543753,167.848077 L138.514617,167.848077 Z" id="Fill-29" fill="#000000" sketch:type="MSShapeGroup"></path>
                <path d="M123.618502,139.107846 L114.095045,124.105538 L104.853893,138.642846 C104.130272,140.065538 103.82377,141.676308 103.82377,143.382846 L103.82377,154.173615 C103.82377,159.950923 108.276115,164.386308 114.044346,164.386308 L114.048955,164.386308 C119.816033,164.386308 124.56451,159.950923 124.56451,154.173615 L124.56451,143.382846 C124.56451,141.859769 124.2027,140.412846 123.618502,139.107846" id="Fill-30" fill="#EDA769" sketch:type="MSShapeGroup"></path>
                <path d="M104.608461,154.925923 C104.300807,154.925923 104.003523,154.972077 103.723523,155.057462 C104.041547,157.118231 104.961053,158.980538 106.295374,160.458615 C107.098502,159.914 107.628543,158.993231 107.628543,157.949 C107.628543,156.279385 106.275786,154.925923 104.608461,154.925923" id="Fill-31" fill="#916433" sketch:type="MSShapeGroup"></path>
                <path d="M123.391737,155.652731 C123.699391,155.652731 123.995523,155.698885 124.275523,155.783115 C123.957498,157.845038 123.039144,159.707346 121.704823,161.184269 C120.900543,160.640808 120.371654,159.720038 120.371654,158.675808 C120.371654,157.006192 121.723259,155.652731 123.391737,155.652731" id="Fill-32" fill="#916433" sketch:type="MSShapeGroup"></path>
                <path d="M78.474321,115.237654 C78.474321,116.914192 77.0259259,118.258423 75.3516872,118.241115 L55.1363786,118.025346 C53.4621399,118.005731 51.9722634,116.632654 51.9722634,114.956115 L51.9722634,114.926115 C51.9722634,113.248423 53.4978601,111.905346 55.1709465,111.922654 L75.3493827,112.139577 C77.0236214,112.156885 78.474321,113.531115 78.474321,115.2065 L78.474321,115.237654 Z" id="Fill-33" fill="#916433" sketch:type="MSShapeGroup"></path>
                <path d="M171.807654,114.612269 C171.807654,116.2865 170.404198,117.695346 168.732263,117.758808 L148.569959,118.501885 C146.896872,118.564192 145.305597,117.256885 145.305597,115.5815 L145.305597,115.5515 C145.305597,113.874962 146.591523,112.467269 148.264609,112.404962 L168.484527,111.659577 C170.157613,111.598423 170.655391,112.906885 171.807654,114.581115 L171.807654,114.612269 Z" id="Fill-34" fill="#916433" sketch:type="MSShapeGroup"></path>
                <path d="M204.865514,76.2930385 C199.939588,42.7530385 158.90749,30.2568846 118.3893,30.2568846 C79.5557202,30.2568846 39.2818107,42.2984231 32.3716872,68.2403462 C28.5576955,70.4534231 26.1287243,73.7580385 26.1287243,77.4549615 C26.1287243,84.1138077 33.9883128,89.5126538 43.6834568,89.5126538 C48.2279835,89.5126538 52.3553909,88.3172692 55.4722634,86.3707308 C58.1904527,90.6145769 64.356214,93.5799615 71.5382716,93.5799615 C77.8849383,93.5799615 83.4273251,91.2595769 86.5119342,87.7934231 C89.6795062,89.9326538 94.0200823,91.2561154 98.8134979,91.2561154 C104.408889,91.2561154 109.380905,89.4515 112.59572,86.6511154 C115.810535,89.4515 120.782551,91.2561154 126.377942,91.2561154 C131.116049,91.2561154 135.409383,89.9603462 138.567737,87.8626538 C140.979424,92.5449615 147.462058,95.9049615 155.102716,95.9049615 C161.791605,95.9049615 167.603621,93.3353462 170.567243,89.5553462 C173.763621,91.8515 178.257449,93.2891923 183.249053,93.2891923 C192.943045,93.2891923 200.802634,87.8915 200.802634,81.2315 C200.802634,79.4095769 200.197695,77.6891923 199.144527,76.1407308 L204.865514,76.2930385 Z" id="Fill-35" fill="#916433" sketch:type="MSShapeGroup"></path>
                <path d="M138.392016,231.309615 C138.392016,234.496538 135.812099,237.078846 132.6307,237.078846 L100.367325,237.078846 C97.1859259,237.078846 94.6060082,234.496538 94.6060082,231.309615 C94.6060082,228.122692 97.1859259,225.540385 100.367325,225.540385 L132.6307,225.540385 C135.812099,225.540385 138.392016,228.122692 138.392016,231.309615" id="Fill-36" fill="#ED4E31" sketch:type="MSShapeGroup"></path>
                <path d="M169.611095,359.002308 L173.188872,235.925 L56.5694486,235.925 L61.3836049,359.294231 C61.2879671,360.075385 61.2384198,360.985769 61.2384198,361.792308 C61.2384198,372.542692 69.9426173,381.316538 80.6782551,381.316538 L150.315292,381.054615 C161.052082,381.054615 169.75628,372.238077 169.75628,361.486538 C169.75628,360.68 169.706733,359.783462 169.611095,359.002308" id="Fill-37" fill="#F06B39" sketch:type="MSShapeGroup"></path>
                <path d="M178.721235,226.152269 C178.721235,232.2065 173.073992,237.079192 166.492263,237.079192 L62.3944856,237.079192 C55.8127572,237.079192 49.6677366,232.2065 49.6677366,226.152269 L49.6677366,226.138423 C49.6677366,220.085346 55.8127572,215.156115 62.3944856,215.156115 L166.492263,215.156115 C173.073992,215.156115 178.721235,220.085346 178.721235,226.138423 L178.721235,226.152269 Z" id="Fill-38" fill="#C24026" sketch:type="MSShapeGroup"></path>
                <path d="M77.3220576,215.404769 C77.3220576,219.090154 74.3376955,222.078615 70.656214,222.078615 L62.0948971,222.078615 C58.4134156,222.078615 55.4290535,219.090154 55.4290535,215.404769 L55.4290535,214.906308 C55.4290535,211.220923 58.4134156,208.232462 62.0948971,208.232462 L70.656214,208.232462 C74.3376955,208.232462 77.3220576,211.220923 77.3220576,214.906308 L77.3220576,215.404769 Z" id="Fill-39" fill="#C24026" sketch:type="MSShapeGroup"></path>
                <path d="M178.721235,215.403615 C178.721235,219.090154 175.736872,222.078615 172.055391,222.078615 L160.037284,222.078615 C156.355802,222.078615 153.37144,219.090154 153.37144,215.403615 L153.37144,214.907462 C153.37144,211.220923 156.355802,208.232462 160.037284,208.232462 L172.055391,208.232462 C175.736872,208.232462 178.721235,211.220923 178.721235,214.907462 L178.721235,215.403615 Z" id="Fill-40" fill="#C24026" sketch:type="MSShapeGroup"></path>
                <path d="M116.62,204.068 C68.4404115,204.068 28.0766255,172.061462 28.0766255,123.610308 C28.0766255,75.1603077 68.4404115,45.458 116.62,45.458 C164.799588,45.458 202.550041,75.1603077 202.550041,123.610308 C202.550041,172.061462 164.799588,204.068 116.62,204.068 M115.750041,22.7987692 C57.7312757,22.7987692 11.6096296,64.1410769 11.6096296,122.486462 C11.6096296,180.831846 58.6438683,228.130308 116.662634,228.130308 C174.681399,228.130308 221.715638,180.831846 221.715638,122.486462 C221.715638,64.1410769 173.768807,22.7987692 115.750041,22.7987692" id="Fill-41" fill="#E9E6D5" sketch:type="MSShapeGroup"></path>
                <path d="M78.6622551,236.424154 C78.6622551,236.424154 83.0155062,252.116462 113.920362,252.116462 C113.920362,232.938385 115.224724,231.629923 115.224724,231.629923" id="Fill-42" fill="#C24026" sketch:type="MSShapeGroup"></path>
                <path d="M154.106239,236.424154 C154.106239,236.424154 149.75414,252.116462 118.848132,252.116462 C118.848132,232.938385 117.542617,231.629923 117.542617,231.629923" id="Fill-43" fill="#C24026" sketch:type="MSShapeGroup"></path>
                <path d="M93.4537449,282.449577 C93.4537449,283.519192 92.5872428,284.386885 91.5190947,284.386885 L90.7793416,284.386885 C89.7100412,284.386885 88.8446914,283.519192 88.8446914,282.449577 L88.8446914,234.399962 C88.8446914,233.3315 89.7100412,232.463808 90.7793416,232.463808 L91.5190947,232.463808 C92.5872428,232.463808 93.4537449,233.3315 93.4537449,234.399962 L93.4537449,282.449577 Z" id="Fill-44" fill="#B5B5B5" sketch:type="MSShapeGroup"></path>
                <path d="M143.00107,282.449577 C143.00107,283.519192 142.134568,284.386885 141.06642,284.386885 L140.326667,284.386885 C139.258519,284.386885 138.392016,283.519192 138.392016,282.449577 L138.392016,234.399962 C138.392016,233.3315 139.258519,232.463808 140.326667,232.463808 L141.06642,232.463808 C142.134568,232.463808 143.00107,233.3315 143.00107,234.399962 L143.00107,282.449577 Z" id="Fill-45" fill="#B5B5B5" sketch:type="MSShapeGroup"></path>
                <path d="M117.651852,381.309615 L114.195062,381.309615 L114.195062,259.001923 L117.651852,259.001923 L117.651852,381.309615 Z" id="Fill-46" fill="#E9E6D5" sketch:type="MSShapeGroup"></path>
                <path d="M94.0175473,234.5165 C94.0175473,236.382269 92.50693,237.894962 90.6448724,237.894962 C88.7816626,237.894962 87.2710453,236.382269 87.2710453,234.5165 C87.2710453,232.651885 88.7816626,231.138038 90.6448724,231.138038 C92.50693,231.138038 94.0175473,232.651885 94.0175473,234.5165" id="Fill-47" fill="#E9E6D5" sketch:type="MSShapeGroup"></path>
                <path d="M143.343753,234.5165 C143.343753,236.382269 141.833136,237.894962 139.971078,237.894962 C138.107868,237.894962 136.598403,236.382269 136.598403,234.5165 C136.598403,232.651885 138.107868,231.138038 139.971078,231.138038 C141.833136,231.138038 143.343753,232.651885 143.343753,234.5165" id="Fill-48" fill="#E9E6D5" sketch:type="MSShapeGroup"></path>
                <path d="M51.4259753,330.863808 C51.1609547,332.568038 49.5662222,333.734577 47.8643292,333.469192 C46.1624362,333.203808 44.9963457,331.609192 45.2613663,329.902654 L47.1119012,317.989192 C47.3769218,316.283808 48.9728066,315.117269 50.6735473,315.382654 C52.3765926,315.646885 53.5415309,317.243808 53.2765103,318.948038 L51.4259753,330.863808 Z" id="Fill-49" fill="#E9E6D5" sketch:type="MSShapeGroup"></path>
                <path d="M255.848099,244.210423 C257.651391,244.491962 258.853202,246.401577 258.530568,248.477346 C258.207934,250.553115 256.484148,252.008115 254.680856,251.726577 L242.071638,249.761577 C240.268346,249.480038 239.067687,247.570423 239.389169,245.495808 C239.711802,243.420038 241.435588,241.967346 243.240033,242.247731 L255.848099,244.210423 Z" id="Fill-50" fill="#E9E6D5" sketch:type="MSShapeGroup"></path>
                <path d="M53.1009053,318.307769 C53.1009053,318.307769 57.509465,319.285077 60.4477366,320.430846 C62.1139095,321.081615 65.6559671,323.127385 66.0638683,324.872 C66.6261728,327.283538 64.1211523,332.912 61.8200823,333.825846 C58.1581893,335.279692 51.1374486,332.180462 51.1374486,332.180462 L53.1009053,318.307769 Z" id="Fill-51" fill="#E8C599" sketch:type="MSShapeGroup"></path>
                <path d="M159.133333,360.540385 L136.088066,360.540385 L136.088066,317.848077 L159.133333,317.848077 L159.133333,360.540385 Z" id="Fill-52" fill="#C24026" sketch:type="MSShapeGroup"></path>
                <path d="M99.2156379,360.540385 L76.1703704,360.540385 L76.1703704,317.848077 L99.2156379,317.848077 L99.2156379,360.540385 Z" id="Fill-53" fill="#C24026" sketch:type="MSShapeGroup"></path>
                <path d="M230.42963,188.617308 C230.151934,188.617308 230.573663,190.184231 230.573663,191.242308 L230.573663,482.96 C230.573663,489.056923 235.4293,494 241.519012,494 C247.608724,494 252.466667,489.058077 252.466667,482.96 L252.466667,191.242308 C252.466667,190.184231 251.899753,188.617308 251.622058,188.617308 L230.42963,188.617308 Z" id="Fill-54" fill="#137777" sketch:type="MSShapeGroup"></path>
                <path d="M251.382502,191.210115 C251.799621,190.705885 252.051967,189.9905 252.051967,189.2855 C252.051967,187.679346 250.752214,186.309731 249.150568,186.309731 L233.046535,186.309731 C231.443737,186.309731 230.145136,187.679346 230.145136,189.2855 C230.145136,190.096654 230.47814,190.863962 231.013942,191.391269 L241.135424,208.9655 L251.382502,191.210115 Z" id="Fill-55" fill="#61B5B3" sketch:type="MSShapeGroup"></path>
                <path d="M219.519078,191.851192 C219.356609,192.751192 219.445333,193.759654 219.582453,194.810808 L257.40665,484.055808 C258.197103,490.103115 263.733728,494.363115 269.771588,493.570423 C275.809449,492.780038 280.062453,487.235808 279.272,481.190808 L241.44665,191.942346 C241.309531,190.892346 240.920066,189.923115 240.531753,189.094654 L219.519078,191.851192 Z" id="Fill-56" fill="#14AEB4" sketch:type="MSShapeGroup"></path>
                <path d="M240.671753,192.011231 C241.020889,191.458538 241.193728,190.837769 241.101547,190.138538 C240.89414,188.546231 239.44344,187.480077 237.854469,187.687769 L221.887556,189.782 C220.298584,189.990846 219.171671,191.395077 219.38023,192.987385 C219.486239,193.791615 219.907967,194.448154 220.507144,194.900462 L232.817926,210.979308 L240.671753,192.011231 Z" id="Fill-57" fill="#6AD3D3" sketch:type="MSShapeGroup"></path>
                <path d="M254.770617,243.507269 C254.770617,248.2415 250.938189,252.079192 246.210453,252.079192 L239.133251,252.079192 C234.405514,252.079192 230.573086,248.2415 230.573086,243.507269 L230.573086,243.342269 C230.573086,238.609192 234.405514,234.7715 239.133251,234.7715 L246.210453,234.7715 C250.938189,234.7715 254.770617,238.609192 254.770617,243.342269 L254.770617,243.507269 Z" id="Fill-58" fill="#137777" sketch:type="MSShapeGroup"></path>
                <path d="M258.227407,239.465462 C258.227407,244.520462 254.13572,248.617769 249.088807,248.617769 L245.473004,248.617769 C240.426091,248.617769 236.334403,244.520462 236.334403,239.465462 L236.334403,239.307385 C236.334403,234.252385 240.426091,230.156231 245.473004,230.156231 L249.088807,230.156231 C254.13572,230.156231 258.227407,234.252385 258.227407,239.307385 L258.227407,239.465462 Z" id="Fill-59" fill="#E8C599" sketch:type="MSShapeGroup"></path>
                <path d="M256.818535,233.291692 L252.466436,223.730923 L252.466436,232.173615 L256.818535,233.291692 Z" id="Fill-60" fill="#E8C599" sketch:type="MSShapeGroup"></path>
                <path d="M99.2802798,317.848077 L87.923572,337.546538 L76.5657119,317.848077 L99.2802798,317.848077 Z" id="Fill-61" fill="#ED4E31" sketch:type="MSShapeGroup"></path>
                <path d="M159.197975,317.848077 L147.841267,337.546538 L136.483407,317.848077 L159.197975,317.848077 Z" id="Fill-62" fill="#ED4E31" sketch:type="MSShapeGroup"></path>
            </g>
        </g>
    </g>
</svg>