<?xml version="1.0" encoding="UTF-8" standalone="no"?>
<svg width="280px" height="494px" viewBox="0 0 280 494" version="1.1" xmlns="http://www.w3.org/2000/svg" xmlns:xlink="http://www.w3.org/1999/xlink" xmlns:sketch="http://www.bohemiancoding.com/sketch/ns">
    <!-- Generator: Sketch 3.4.4 (17249) - http://www.bohemiancoding.com/sketch -->
    <title>pilot_2</title>
    <desc>Created with Sketch.</desc>
    <defs>
        <path id="path-1" d="M0,0.576859091 L248.851325,0.576859091 L248.851325,531 L0,531 L0,0.576859091 Z"></path>
    </defs>
    <g id="Welcome" stroke="none" stroke-width="1" fill="none" fill-rule="evenodd" sketch:type="MSPage">
        <g id="advice_-copy" sketch:type="MSArtboardGroup" transform="translate(-286.000000, -157.000000)">
            <g id="pilot_2" sketch:type="MSLayerGroup" transform="translate(286.000000, 157.000000)">
                <path d="M65.7380549,85.6262843 C65.7380549,99.3055684 56.8804238,110.393814 45.9534335,110.393814 C35.0264432,110.393814 29.0613218,98.6961252 29.0613218,85.0192548 C29.0613218,71.3399707 35.0264432,60.8599616 45.9534335,60.8599616 C56.8804238,60.8599616 65.7380549,71.9470002 65.7380549,85.6262843" id="Fill-1" fill="#916433" sketch:type="MSShapeGroup"></path>
                <mask id="mask-2" sketch:name="Clip 4" fill="white">
                    <use xlink:href="#path-1"></use>
                </mask>
                <g id="Clip-4"></g>
                <path d="M153.217194,301.562141 L98.8239903,301.562141 L98.8239903,235.187141 L153.217194,235.187141 L153.217194,301.562141 Z" id="Fill-3" fill="#E5E5E4" sketch:type="MSShapeGroup" mask="url(#mask-2)"></path>
                <path d="M117.025649,290.754722 L126.917959,250.641292 L138.484372,291.05884 L117.025649,290.754722 Z" id="Fill-5" fill="#000000" sketch:type="MSShapeGroup" mask="url(#mask-2)"></path>
                <path d="M181.801427,312.154384 L157.259214,312.154384 L157.259214,275.893118 L181.801427,275.893118 L181.801427,312.154384 Z" id="Fill-6" fill="#E5E5E4" sketch:type="MSShapeGroup" mask="url(#mask-2)"></path>
                <path d="M184.749781,83.9550825 C184.749781,95.7022507 193.607412,105.227667 204.534402,105.227667 C215.460183,105.227667 222.035717,95.7022507 222.035717,83.9550825 C222.035717,72.2067075 215.460183,62.6824984 204.534402,62.6824984 C193.607412,62.6824984 184.749781,72.2067075 184.749781,83.9550825" id="Fill-7" fill="#916433" sketch:type="MSShapeGroup" mask="url(#mask-2)"></path>
                <path d="M181.985276,288.958615 L182.129116,281.519787" id="Fill-8" fill="#CCCBCB" sketch:type="MSShapeGroup" mask="url(#mask-2)"></path>
                <path d="M108.581043,223.982558 L97.916349,237.16946" id="Fill-9" fill="#D5D5D5" sketch:type="MSShapeGroup" mask="url(#mask-2)"></path>
                <path d="M128.127422,381.198866 L123.910136,381.198866 L123.910136,370.856434 L128.127422,370.856434 L128.127422,381.198866 Z" id="Fill-10" fill="#545456" sketch:type="MSShapeGroup" mask="url(#mask-2)"></path>
                <path d="M118.400225,201.214485 L118.921191,232.64003 L126.7659,246.082778 L132.543667,234.39233 L132.543667,201.214485" id="Fill-11" fill="#E8C599" sketch:type="MSShapeGroup" mask="url(#mask-2)"></path>
                <path d="M125.696892,215.449992 L126.084897,245.529935 L132.227703,229.001353 L132.697902,203.128378" id="Fill-12" fill="#DABB96" sketch:type="MSShapeGroup" mask="url(#mask-2)"></path>
                <path d="M106.112196,223.089271 L99.8110456,237.157151 L127.045118,247.429587 L126.994351,234.989705 L106.112196,223.089271 Z" id="Fill-13" fill="#B5B5B5" sketch:type="MSShapeGroup" mask="url(#mask-2)"></path>
                <path d="M148.969327,222.930213 L154.209205,237.231008 L126.975133,247.504651 L126.994472,234.989947 L148.969327,222.930213 Z" id="Fill-14" fill="#E2E2E2" sketch:type="MSShapeGroup" mask="url(#mask-2)"></path>
                <path d="M217.840188,35.6105495 L216.216853,73.3562018 C216.893747,141.266275 216.878033,139.536904 217.243072,176.300206 C217.483611,200.371402 160.00329,217.245134 130.274383,217.021872 C98.183601,216.779302 37.0009165,204.158397 36.7096107,174.940122 C36.1584262,119.690779 36.0508485,108.744938 35.6471301,68.2030882 L217.840188,35.6105495 Z" id="Fill-15" fill="#F2D2A7" sketch:type="MSShapeGroup" mask="url(#mask-2)"></path>
                <path d="M71.6731995,74.5339357 C71.6731995,81.4996902 63.4283985,87.1463925 53.2592869,87.1463925 C43.0889665,87.1463925 34.8441655,81.4996902 34.8441655,74.5339357 C34.8441655,67.5681811 43.0889665,61.9238925 53.2592869,61.9238925 C63.4283985,61.9238925 71.6731995,67.5681811 71.6731995,74.5339357" id="Fill-16" fill="#916433" sketch:type="MSShapeGroup" mask="url(#mask-2)"></path>
                <path d="M100.893591,76.3582827 C100.893591,83.3228305 92.6487903,88.9695327 82.4796786,88.9695327 C72.3093583,88.9695327 64.0645573,83.3228305 64.0645573,76.3582827 C64.0645573,69.3925282 72.3093583,63.7458259 82.4796786,63.7458259 C92.6487903,63.7458259 100.893591,69.3925282 100.893591,76.3582827" id="Fill-17" fill="#916433" sketch:type="MSShapeGroup" mask="url(#mask-2)"></path>
                <path d="M129.5049,75.750167 C129.5049,82.7159216 121.260099,88.361417 111.090987,88.361417 C100.920667,88.361417 92.675866,82.7159216 92.675866,75.750167 C92.675866,68.7856193 100.920667,63.138917 111.090987,63.138917 C121.260099,63.138917 129.5049,68.7856193 129.5049,75.750167" id="Fill-18" fill="#916433" sketch:type="MSShapeGroup" mask="url(#mask-2)"></path>
                <path d="M158.420811,75.750167 C158.420811,82.7159216 150.17601,88.361417 140.006898,88.361417 C129.836578,88.361417 121.591777,82.7159216 121.591777,75.750167 C121.591777,68.7856193 129.836578,63.138917 140.006898,63.138917 C150.17601,63.138917 158.420811,68.7856193 158.420811,75.750167" id="Fill-19" fill="#916433" sketch:type="MSShapeGroup" mask="url(#mask-2)"></path>
                <path d="M188.554283,76.3582827 C188.554283,83.3228305 180.309482,88.9695327 170.139162,88.9695327 C159.97005,88.9695327 151.72404,83.3228305 151.72404,76.3582827 C151.72404,69.3925282 159.97005,63.7458259 170.139162,63.7458259 C180.309482,63.7458259 188.554283,69.3925282 188.554283,76.3582827" id="Fill-20" fill="#916433" sketch:type="MSShapeGroup" mask="url(#mask-2)"></path>
                <path d="M218.078672,73.6229086 C218.078672,80.5886632 209.833871,86.2341586 199.663551,86.2341586 C189.494439,86.2341586 181.249638,80.5886632 181.249638,73.6229086 C181.249638,66.6583609 189.494439,61.0116586 199.663551,61.0116586 C209.833871,61.0116586 218.078672,66.6583609 218.078672,73.6229086" id="Fill-21" fill="#916433" sketch:type="MSShapeGroup" mask="url(#mask-2)"></path>
                <path d="M169.174951,367.437156 L89.9361408,367.04494 L91.9293495,392.073142 L91.931767,392.073142 L97.3094417,492.239052 L104.995806,492.239052 L111.909786,391.705063 L147.325806,391.758163 L154.238578,492.239052 L161.923733,492.239052 L167.303825,391.689374 L169.174951,367.437156 Z" id="Fill-22" fill="#000000" sketch:type="MSShapeGroup" mask="url(#mask-2)"></path>
                <path d="M104.998465,492.09544 C104.998465,492.09544 73.0043825,457.734913 61.2494068,492.09544" id="Fill-23" fill="#1C1F27" sketch:type="MSShapeGroup" mask="url(#mask-2)"></path>
                <path d="M154.206183,492.09544 C154.206183,492.09544 186.199057,457.734913 197.955242,492.09544" id="Fill-24" fill="#1C1F27" sketch:type="MSShapeGroup" mask="url(#mask-2)"></path>
                <path d="M31.3999879,59.3285093 L0.424871359,37.3849343 L0.000604368932,23.7297866 C0.000604368932,23.7297866 47.4193908,0.562497955 124.393027,0.576979773 C161.381614,0.584220682 194.837061,5.97628432 248.85193,21.9243866 L248.85193,36.7923866 L220.180667,59.1004207 L31.3999879,59.3285093 Z" id="Fill-25" fill="#000000" sketch:type="MSShapeGroup" mask="url(#mask-2)"></path>
                <path d="M220.807761,58.5907814 C208.199416,41.3912086 171.446533,35.0843768 126.699057,35.0843768 C82.0228966,35.0843768 43.1027461,41.3513836 30.4339646,58.5075109 L31.0818481,68.3249768 C44.0092995,54.7156882 82.7553917,48.9410632 127.563304,48.9410632 C172.240673,48.9410632 206.580916,54.8448177 218.86411,68.3249768 L220.807761,58.5907814 Z" id="Fill-26" fill="#1C1F27" sketch:type="MSShapeGroup" mask="url(#mask-2)"></path>
                <path d="M218.864231,68.3254595 C218.864231,76.5438914 124.835304,76.2301186 124.835304,76.2301186 C124.835304,76.2301186 31.0819689,76.5438914 31.0819689,68.3254595 C31.0819689,60.1058209 71.1891,46.3565414 123.043954,46.3565414 C174.898809,46.3565414 218.864231,60.1058209 218.864231,68.3254595" id="Fill-27" fill="#000000" sketch:type="MSShapeGroup" mask="url(#mask-2)"></path>
                <path d="M134.18465,20.5253223 C134.18465,24.7455655 130.756669,28.166895 126.529713,28.166895 C122.301548,28.166895 118.874776,24.7455655 118.874776,20.5253223 C118.874776,16.3038723 122.301548,12.8825427 126.529713,12.8825427 C130.756669,12.8825427 134.18465,16.3038723 134.18465,20.5253223" id="Fill-28" fill="#F7B817" sketch:type="MSShapeGroup" mask="url(#mask-2)"></path>
                <path d="M122.998748,31.2348682 L110.911369,31.2348682 L110.911369,28.8212318 L122.998748,28.8212318 L122.998748,31.2348682 Z" id="Fill-29" fill="#F7B817" sketch:type="MSShapeGroup" mask="url(#mask-2)"></path>
                <path d="M118.163796,27.6144136 L98.8239903,27.6144136 L98.8239903,25.2007773 L118.163796,25.2007773 L118.163796,27.6144136 Z" id="Fill-30" fill="#F7B817" sketch:type="MSShapeGroup" mask="url(#mask-2)"></path>
                <path d="M115.74632,22.7871409 L93.9890388,22.7871409 L93.9890388,20.3735045 L115.74632,20.3735045 L115.74632,22.7871409 Z" id="Fill-31" fill="#F7B817" sketch:type="MSShapeGroup" mask="url(#mask-2)"></path>
                <path d="M194.479274,226.937211 C194.479274,226.937211 171.441939,224.440304 148.969085,222.930575 L127.293998,290.146727 L105.617701,222.930575 C83.1448471,224.440304 60.1075121,226.937211 60.1075121,226.937211 L72.572017,374.7833 L125.923289,374.646929 L184.902444,374.628827 L194.479274,226.937211 Z" id="Fill-32" fill="#1C1F27" sketch:type="MSShapeGroup" mask="url(#mask-2)"></path>
                <path d="M86.1313966,155.5369 C86.1313966,158.053115 83.5761248,160.364172 80.4237364,160.364172 L71.2929306,160.364172 C68.141751,160.364172 65.5852704,158.053115 65.5852704,155.5369 C65.5852704,153.01827 68.141751,150.709627 71.2929306,150.709627 L80.4237364,150.709627 C83.5761248,150.709627 86.1313966,153.01827 86.1313966,155.5369" id="Fill-33" fill="#E16C58" sketch:type="MSShapeGroup" mask="url(#mask-2)"></path>
                <path d="M184.59748,155.5369 C184.59748,158.054322 182.042208,160.364172 178.889819,160.364172 L169.759014,160.364172 C166.606625,160.364172 164.051353,158.054322 164.051353,155.5369 C164.051353,153.019477 166.606625,150.709627 169.759014,150.709627 L178.889819,150.709627 C182.042208,150.709627 184.59748,153.019477 184.59748,155.5369" id="Fill-34" fill="#E16C58" sketch:type="MSShapeGroup" mask="url(#mask-2)"></path>
                <path d="M43.6709738,124.979901 C43.6709738,130.686944 39.0378816,135.313885 33.3229689,135.313885 C27.6068476,135.313885 22.9737553,130.686944 22.9737553,124.979901 C22.9737553,119.274065 27.6068476,114.648331 33.3229689,114.648331 C39.0378816,114.648331 43.6709738,119.274065 43.6709738,124.979901" id="Fill-35" fill="#F2D2A7" sketch:type="MSShapeGroup" mask="url(#mask-2)"></path>
                <path d="M228.123284,124.979901 C228.123284,130.686944 223.488983,135.313885 217.77407,135.313885 C212.059158,135.313885 207.424857,130.686944 207.424857,124.979901 C207.424857,119.274065 212.059158,114.648331 217.77407,114.648331 C223.488983,114.648331 228.123284,119.274065 228.123284,124.979901" id="Fill-36" fill="#F2D2A7" sketch:type="MSShapeGroup" mask="url(#mask-2)"></path>
                <path d="M98.8243529,129.590309 C98.8243529,137.256018 92.6005617,143.468718 84.9238675,143.468718 L70.4190131,143.468718 C62.7423189,143.468718 56.5185277,137.256018 56.5185277,129.590309 C56.5185277,121.9246 62.7423189,115.7119 70.4190131,115.7119 L84.9238675,115.7119 C92.6005617,115.7119 98.8243529,121.9246 98.8243529,129.590309" id="Fill-37" fill="#FFFFFF" sketch:type="MSShapeGroup" mask="url(#mask-2)"></path>
                <path d="M194.314644,129.590309 C194.314644,137.256018 188.090853,143.468718 180.414159,143.468718 L165.909304,143.468718 C158.23261,143.468718 152.008819,137.256018 152.008819,129.590309 C152.008819,121.9246 158.23261,115.7119 165.909304,115.7119 L180.414159,115.7119 C188.090853,115.7119 194.314644,121.9246 194.314644,129.590309" id="Fill-38" fill="#FFFFFF" sketch:type="MSShapeGroup" mask="url(#mask-2)"></path>
                <path d="M80.4790966,119.762464 C80.4790966,121.210646 79.3042034,122.383673 77.853718,122.383673 C76.4032325,122.383673 75.2283393,121.210646 75.2283393,119.762464 C75.2283393,118.315489 76.4032325,117.141255 77.853718,117.141255 C79.3042034,117.141255 80.4790966,118.315489 80.4790966,119.762464" id="Fill-39" fill="#000000" sketch:type="MSShapeGroup" mask="url(#mask-2)"></path>
                <path d="M178.487793,118.54744 C178.487793,119.994415 177.3129,121.168649 175.863623,121.168649 C174.413138,121.168649 173.238245,119.994415 173.238245,118.54744 C173.238245,117.099258 174.413138,115.92623 175.863623,115.92623 C177.3129,115.92623 178.487793,117.099258 178.487793,118.54744" id="Fill-40" fill="#000000" sketch:type="MSShapeGroup" mask="url(#mask-2)"></path>
                <path d="M124.635137,288.475525 L112.50787,320.129159 L113.87737,374.701478 L125.923651,374.645964 L184.901598,374.629068 L194.479637,226.937453 C194.479637,226.937453 171.442302,224.439339 148.969448,222.929609 L124.635137,288.475525 Z" id="Fill-41" fill="#121419" sketch:type="MSShapeGroup" mask="url(#mask-2)"></path>
                <path d="M123.46532,325.524964 C123.46532,327.411221 121.932641,328.942673 120.040966,328.942673 C118.1505,328.942673 116.61782,327.411221 116.61782,325.524964 C116.61782,323.636294 118.1505,322.104841 120.040966,322.104841 C121.932641,322.104841 123.46532,323.636294 123.46532,325.524964" id="Fill-42" fill="#F7B817" sketch:type="MSShapeGroup" mask="url(#mask-2)"></path>
                <path d="M123.46532,341.022682 C123.46532,342.910145 121.932641,344.441598 120.040966,344.441598 C118.1505,344.441598 116.61782,342.910145 116.61782,341.022682 C116.61782,339.135218 118.1505,337.603766 120.040966,337.603766 C121.932641,337.603766 123.46532,339.135218 123.46532,341.022682" id="Fill-43" fill="#F7B817" sketch:type="MSShapeGroup" mask="url(#mask-2)"></path>
                <path d="M123.46532,355.154523 C123.46532,357.041986 121.932641,358.573439 120.040966,358.573439 C118.1505,358.573439 116.61782,357.041986 116.61782,355.154523 C116.61782,353.264645 118.1505,351.7344 120.040966,351.7344 C121.932641,351.7344 123.46532,353.264645 123.46532,355.154523" id="Fill-44" fill="#F7B817" sketch:type="MSShapeGroup" mask="url(#mask-2)"></path>
                <path d="M151.520126,162.777809 C145.30117,171.225536 136.41332,175.671454 126.559689,175.671454 C116.706058,175.671454 107.819417,171.225536 101.599252,162.777809 L99.4718738,162.777809 C100.043607,162.777809 100.640723,164.180131 101.265641,164.913877 C108.014024,172.846293 116.996155,177.147393 126.559689,177.147393 C136.123223,177.147393 145.106563,172.87767 151.853738,164.946461 C152.478655,164.212715 153.076981,162.777809 153.648714,162.777809 L151.520126,162.777809 Z" id="Fill-45" fill="#000000" sketch:type="MSShapeGroup" mask="url(#mask-2)"></path>
                <path d="M130.251175,31.2348682 L141.129816,31.2348682 L141.129816,28.8212318 L130.251175,28.8212318 L130.251175,31.2348682 Z" id="Fill-46" fill="#F7B817" sketch:type="MSShapeGroup" mask="url(#mask-2)"></path>
                <path d="M135.086126,27.6144136 L153.217194,27.6144136 L153.217194,25.2007773 L135.086126,25.2007773 L135.086126,27.6144136 Z" id="Fill-47" fill="#F7B817" sketch:type="MSShapeGroup" mask="url(#mask-2)"></path>
                <path d="M137.503602,22.7871409 L159.260883,22.7871409 L159.260883,20.3735045 L137.503602,20.3735045 L137.503602,22.7871409 Z" id="Fill-48" fill="#F7B817" sketch:type="MSShapeGroup" mask="url(#mask-2)"></path>
                <path d="M135.598148,132.484741 L125.756604,116.793691 L115.840118,131.997187 C115.081031,133.485194 114.538308,135.169912 114.538308,136.954796 L114.538308,148.242166 C114.538308,154.282291 119.799944,159.157837 125.850885,159.157837 L125.854512,159.157837 C131.905453,159.157837 136.295589,154.282291 136.295589,148.242166 L136.295589,136.954796 C136.295589,135.363003 136.210978,133.849653 135.598148,132.484741" id="Fill-49" fill="#CE9F67" sketch:type="MSShapeGroup" mask="url(#mask-2)"></path>
                <path d="M115.951443,149.78798 C115.62871,149.78798 115.318065,149.836252 115.024341,149.925557 C115.357953,152.080934 116.321317,154.028739 117.721035,155.573466 C118.564734,155.006262 119.119545,154.042014 119.119545,152.95105 C119.119545,151.203577 117.701696,149.78798 115.951443,149.78798" id="Fill-50" fill="#916433" sketch:type="MSShapeGroup" mask="url(#mask-2)"></path>
                <path d="M135.655442,149.78798 C135.978175,149.78798 136.290029,149.836252 136.583752,149.925557 C136.250141,152.080934 135.285568,154.028739 133.88585,155.573466 C133.04215,155.006262 132.48734,154.042014 132.48734,152.95105 C132.48734,151.203577 133.906398,149.78798 135.655442,149.78798" id="Fill-51" fill="#916433" sketch:type="MSShapeGroup" mask="url(#mask-2)"></path>
                <path d="M192.054788,313.347203 L189.254142,309.606067 L189.038987,313.891478 L192.054788,313.347203 Z" id="Fill-52" fill="#CE9F67" sketch:type="MSShapeGroup" mask="url(#mask-2)"></path>
                <path d="M190.167223,313.062032 C207.909077,310.081191 221.318815,294.560303 221.079485,276.039264 C220.840155,257.518225 211.222228,241.918893 193.409058,239.396643 L194.473956,226.937453 C219.896131,229.552628 234.450543,250.38955 234.78899,276.521991 C235.126228,302.654432 215.70181,324.444741 190.356995,327.714012 L190.167223,313.062032 Z" id="Fill-53" fill="#1C1F27" sketch:type="MSShapeGroup" mask="url(#mask-2)"></path>
                <path d="M194.314644,312.072079 C196.73212,311.504875 197.940858,310.786818 200.358333,309.929977 L200.358333,325.48345 C197.940858,326.095306 196.73212,326.604584 194.314644,327.011281 L194.314644,312.072079 Z" id="Fill-54" fill="#F7B817" sketch:type="MSShapeGroup" mask="url(#mask-2)"></path>
                <path d="M64.3528413,313.347203 L67.1534869,309.606067 L67.3686422,313.891478 L64.3528413,313.347203 Z" id="Fill-55" fill="#CE9F67" sketch:type="MSShapeGroup" mask="url(#mask-2)"></path>
                <path d="M64.5665461,313.062032 C46.8246917,310.081191 33.4137451,294.560303 33.654284,276.039264 C33.8936141,257.518225 43.5115413,241.918893 61.3247112,239.396643 L60.2598131,226.937453 C34.8388471,229.552628 20.2832257,250.38955 19.9459879,276.521991 C19.6075413,302.654432 39.0319587,324.444741 64.3767743,327.714012 L64.5665461,313.062032 Z" id="Fill-56" fill="#1C1F27" sketch:type="MSShapeGroup" mask="url(#mask-2)"></path>
                <path d="M60.1447413,312.072079 C57.7272655,311.504875 56.5185277,310.786818 54.1010519,309.929977 L54.1010519,325.48345 C56.5185277,326.095306 58.9360034,326.604584 60.1447413,327.011281 L60.1447413,312.072079 Z" id="Fill-57" fill="#F7B817" sketch:type="MSShapeGroup" mask="url(#mask-2)"></path>
                <path d="M64.6574432,313.347203 C64.6574432,313.347203 69.3739383,313.772003 72.5831374,314.56971 C74.4047053,315.022267 78.3645306,316.67078 79.0208752,318.424287 C79.9286374,320.853612 78.0732248,327.026487 75.8020063,328.280371 C72.1854626,330.277655 64.4676714,328.00039 64.4676714,328.00039 L64.6574432,313.347203 Z" id="Fill-58" fill="#E8C599" sketch:type="MSShapeGroup" mask="url(#mask-2)"></path>
                <path d="M190.164322,313.195144 C190.164322,313.195144 185.446618,313.619944 182.237419,314.417651 C180.41706,314.870208 176.457234,316.518721 175.80089,318.273435 C174.891919,320.701553 176.74854,326.873221 179.019759,328.128312 C182.636302,330.125596 190.354094,327.84833 190.354094,327.84833 L190.164322,313.195144 Z" id="Fill-59" fill="#E8C599" sketch:type="MSShapeGroup" mask="url(#mask-2)"></path>
                <path d="M176.491079,96.7586993 C177.833987,98.1006811 177.833987,100.276574 176.491079,101.617349 L167.131822,110.961742 C165.787705,112.302517 163.60956,112.302517 162.265443,110.961742 C160.922535,109.618554 160.922535,107.443867 162.265443,106.101886 L171.6247,96.7586993 C172.967608,95.4179243 175.146963,95.4179243 176.491079,96.7586993" id="Fill-60" fill="#916433" sketch:type="MSShapeGroup" mask="url(#mask-2)"></path>
                <path d="M172.457037,96.7586993 C173.799945,95.4179243 175.9793,95.4179243 177.323416,96.7586993 L186.681465,106.101886 C188.025581,107.443867 188.025581,109.618554 186.681465,110.961742 C185.337348,112.302517 183.159202,112.302517 181.815086,110.961742 L172.457037,101.617349 C171.112921,100.276574 171.112921,98.1006811 172.457037,96.7586993" id="Fill-61" fill="#916433" sketch:type="MSShapeGroup" mask="url(#mask-2)"></path>
                <path d="M88.377715,104.989561 C88.50705,106.738241 87.1943607,108.260039 85.4428995,108.390375 L64.4664626,109.94717 C62.7150015,110.078714 61.1895743,108.765695 61.0590306,107.018223 L61.0566131,106.984432 C60.9272782,105.236959 62.2399675,103.712748 63.9926374,103.583618 L84.9690743,102.025616 C86.7193267,101.896486 88.2447539,103.207091 88.3752976,104.958184 L88.377715,104.989561 Z" id="Fill-62" fill="#916433" sketch:type="MSShapeGroup" mask="url(#mask-2)"></path>
                <path d="M97.6152524,283.459868 L81.9016602,283.459868 L81.9016602,261.737141 L97.6152524,261.737141 L97.6152524,283.459868 Z" id="Fill-63" fill="#121419" sketch:type="MSShapeGroup" mask="url(#mask-2)"></path>
                <path d="M84.761534,260.530081 L89.7608738,255.81987 L94.7602136,260.530081 L84.761534,260.530081 Z" id="Fill-64" fill="#E5E5E4" sketch:type="MSShapeGroup" mask="url(#mask-2)"></path>
                <path d="M131.027064,245.930357 L132.704792,253.299189 L126.953617,257.47478 L121.202442,253.296775 L123.164224,246.03173 L127.045481,247.429225 L131.027064,245.930357 Z" id="Fill-65" fill="#000000" sketch:type="MSShapeGroup" mask="url(#mask-2)"></path>
            </g>
        </g>
    </g>
</svg>