<?xml version="1.0" encoding="UTF-8" standalone="no"?>
<svg width="530px" height="302px" viewBox="0 0 530 302" version="1.1" xmlns="http://www.w3.org/2000/svg" xmlns:xlink="http://www.w3.org/1999/xlink" xmlns:sketch="http://www.bohemiancoding.com/sketch/ns">
    <!-- Generator: Sketch 3.4.4 (17249) - http://www.bohemiancoding.com/sketch -->
    <title>table_</title>
    <desc>Created with Sketch.</desc>
    <defs>
        <path id="path-1" d="M0,0.523 L529.649,0.523 L529.649,302 L0,302"></path>
        <path id="path-3" d="M0,0.523 L529.649,0.523 L529.649,302 L0,302"></path>
        <path id="path-5" d="M0,0.523 L529.649,0.523 L529.649,302 L0,302"></path>
    </defs>
    <g id="Welcome" stroke="none" stroke-width="1" fill="none" fill-rule="evenodd" sketch:type="MSPage">
        <g id="advice_-copy-4" sketch:type="MSArtboardGroup" transform="translate(-889.000000, -54.000000)">
            <g id="table_" sketch:type="MSLayerGroup" transform="translate(889.000000, 54.000000)">
                <path d="M506.5,253.1924 C506.5,277.7804 486.567,297.7134 461.979,297.7134 L63.021,297.7134 C38.433,297.7134 18.5,277.7804 18.5,253.1924 L18.5,75.2334 C18.5,50.6454 38.433,30.7124 63.021,30.7124 L461.979,30.7124 C486.567,30.7124 506.5,50.6454 506.5,75.2334 L506.5,253.1924 Z" id="Fill-1" fill="#46949B" sketch:type="MSShapeGroup"></path>
                <path d="M506.5,248.1924 C506.5,272.7804 486.567,292.7134 461.979,292.7134 L63.021,292.7134 C38.433,292.7134 18.5,272.7804 18.5,248.1924 L18.5,70.2334 C18.5,45.6454 38.433,25.7124 63.021,25.7124 L461.979,25.7124 C486.567,25.7124 506.5,45.6454 506.5,70.2334 L506.5,248.1924 Z" id="Fill-3" fill="#7FBFC5" sketch:type="MSShapeGroup"></path>
                <path d="M128.0049,27.7129 L24.5649,27.7129 C22.2299,28.4959 20.5419,30.6949 20.5419,33.2989 C20.5419,36.5589 23.1779,39.2019 26.4309,39.2019 C27.2699,39.2019 28.0659,39.0239 28.7879,38.7079 C29.9529,42.0279 33.5849,44.4479 37.8849,44.4479 C41.9189,44.4479 45.3559,42.3139 46.7289,39.3089 C48.1939,41.2339 50.4989,42.7199 53.1009,42.7199 C56.5479,42.7199 59.4799,40.7129 60.6109,37.7129 L60.6399,37.7129 C62.2809,38.7129 64.8849,40.4249 67.8259,40.4249 C70.7189,40.4249 73.2879,39.1809 74.9339,37.4409 C76.0439,38.7899 77.7239,39.5899 79.6059,39.5899 C81.2069,39.5899 82.6579,38.9329 83.7409,37.9159 C84.5639,38.3349 85.4909,38.5619 86.4779,38.5619 C87.8299,38.5619 89.0679,38.0959 90.0749,37.3459 C91.4729,39.9919 94.5339,41.8289 98.0949,41.8289 C101.3089,41.8289 104.1129,40.3249 105.6579,38.0879 C107.0379,39.5749 109.1469,40.5269 111.5099,40.5269 C114.2519,40.5269 116.6449,39.2419 117.9599,37.3299 C119.1909,38.0939 120.6829,38.7979 122.3089,38.7979 C124.0059,38.7979 125.5669,37.7129 126.8249,37.7129 L126.9439,37.7129 C126.9419,36.7129 126.9349,37.4279 126.9309,37.4049 C128.6939,36.2039 129.8339,34.2169 129.8339,32.1129 C129.8339,30.4769 129.1429,28.8629 128.0049,27.7129" id="Fill-5" fill="#88A39B" sketch:type="MSShapeGroup"></path>
                <g id="Group-9">
                    <mask id="mask-2" sketch:name="Clip 8" fill="white">
                        <use xlink:href="#path-1"></use>
                    </mask>
                    <g id="Clip-8"></g>
                    <path d="M129.834,28.3858 C129.834,24.7008 126.401,21.7128 122.168,21.7128 C121.355,21.7128 120.572,21.8248 119.837,22.0288 C116.928,19.9308 113.343,18.7128 109.465,18.7128 C105.214,18.7128 101.324,20.1868 98.281,22.6688 C98.232,22.6928 98.184,22.7178 98.134,22.7408 C98,22.7328 97.866,22.7258 97.731,22.7228 C96.036,19.5908 92.738,17.4428 88.929,17.4428 C87.248,17.4428 85.663,17.8518 84.273,18.5828 C82.192,13.8318 77.448,10.5068 71.929,10.5068 C70.612,10.5068 69.343,10.6978 68.141,11.0488 C65.171,4.8248 58.821,0.5228 51.466,0.5228 C41.793,0.5228 33.863,7.9618 33.069,17.4298 C33.058,17.4298 33.045,17.4268 33.031,17.4268 C28.841,17.4268 25.256,20.0748 23.763,23.7628 C20.798,24.1268 18.5,26.6498 18.5,29.7128 C18.5,33.0268 21.186,35.7128 24.5,35.7128 C25.353,35.7128 26.165,35.5318 26.9,35.2098 C28.088,38.5848 31.787,41.0458 36.168,41.0458 C40.276,41.0458 43.778,38.8758 45.177,35.8208 C46.669,37.7778 49.018,39.0458 51.668,39.0458 C55.18,39.0458 58.165,36.8238 59.318,33.7128 L59.348,33.7128 C61.019,35.5318 63.672,36.7128 66.668,36.7128 C69.615,36.7128 72.231,35.5698 73.908,33.8008 C75.039,35.1718 76.751,36.0468 78.668,36.0468 C80.299,36.0468 81.777,35.4088 82.88,34.3748 C83.718,34.8008 84.663,35.0468 85.668,35.0468 C87.045,35.0468 88.307,34.5818 89.331,33.8188 C90.757,36.5078 93.875,38.3798 97.502,38.3798 C100.775,38.3798 103.633,36.8528 105.207,34.5778 C106.612,36.0898 108.76,37.0578 111.168,37.0578 C113.961,37.0578 116.398,35.7528 117.738,33.8088 C118.991,34.5868 120.512,35.0578 122.168,35.0578 C123.896,35.0578 125.487,34.5538 126.769,33.7128 L126.891,33.7128 C126.887,33.6888 126.881,33.6668 126.877,33.6428 C128.674,32.4218 129.834,30.5238 129.834,28.3858" id="Fill-7" fill="#FFFFFF" sketch:type="MSShapeGroup" mask="url(#mask-2)"></path>
                </g>
                <path d="M33.5,37.5879 C33.5,41.6609 30.198,44.9629 26.125,44.9629 C22.052,44.9629 18.75,41.6609 18.75,37.5879 C18.75,33.5149 22.052,30.2129 26.125,30.2129 C30.198,30.2129 33.5,33.5149 33.5,37.5879" id="Fill-10" fill="#FFFFFF" sketch:type="MSShapeGroup"></path>
                <path d="M30.5,46.0879 C30.5,47.9519 28.989,49.4629 27.125,49.4629 C25.261,49.4629 23.75,47.9519 23.75,46.0879 C23.75,44.2239 25.261,42.7129 27.125,42.7129 C28.989,42.7129 30.5,44.2239 30.5,46.0879" id="Fill-12" fill="#FFFFFF" sketch:type="MSShapeGroup"></path>
                <path d="M320.8164,31.3745 C320.8164,33.9255 317.4904,35.9935 313.3844,35.9935 C309.2814,35.9935 305.9534,33.9255 305.9534,31.3745 C305.9534,28.8235 309.2814,26.7545 313.3844,26.7545 C317.4904,26.7545 320.8164,28.8235 320.8164,31.3745" id="Fill-14" fill="#FFFFFF" sketch:type="MSShapeGroup"></path>
                <path d="M324.4043,31.7129 L230.3183,31.7129 C230.3063,31.7129 230.2883,32.0919 230.2823,32.2309 C230.1293,32.8289 230.0393,33.5069 230.0393,34.1549 C230.0393,38.1279 233.1213,41.3749 236.9243,41.3749 C239.1063,41.3749 241.0483,40.3249 242.3103,38.6699 C243.2753,39.8099 244.6693,40.5039 246.2403,40.5039 C248.1843,40.5039 249.8633,39.7129 250.7753,37.7129 L251.1723,37.7129 C252.1113,38.7129 253.3613,39.1949 254.7443,39.1949 C256.1293,39.1949 257.3793,38.7129 258.3183,37.7129 L259.6763,37.7129 C260.6163,38.7129 261.8673,39.2409 263.2503,39.2409 C264.3013,39.2409 265.2763,38.9339 266.0983,38.3779 C267.3403,40.9119 269.8573,42.6609 272.7683,42.6609 C275.4613,42.6609 277.8143,41.1789 279.1353,38.9519 C280.5093,40.5729 282.5913,41.6109 284.9183,41.6109 C286.8553,41.6109 288.6153,40.8909 289.9443,39.7149 C291.2303,40.5029 292.8613,40.9789 294.6383,40.9789 C297.3303,40.9789 299.6813,39.8949 301.0043,38.2709 C302.2683,38.9049 303.8503,39.2879 305.5743,39.2879 C306.9373,39.2879 308.2153,39.0459 309.3163,38.6319 C311.0133,41.2569 314.9083,43.0949 319.4433,43.0949 C325.5413,43.0949 326.8343,38.8899 326.8343,34.7999 C326.8343,34.7679 326.8353,34.8309 326.8343,34.7999 C319.5503,32.5669 326.2573,30.6909 325.0113,30.3849 C320.4353,29.2639 324.4133,31.7129 324.4043,31.7129" id="Fill-16" fill="#88A39B" sketch:type="MSShapeGroup"></path>
                <path d="M328.7666,29.6192 C328.7666,22.5732 323.0546,16.8672 316.0076,16.8672 C313.3306,16.8672 310.8446,17.6962 308.7936,19.1052 C305.6976,11.3852 298.1466,5.9322 289.3206,5.9322 C280.6316,5.9322 273.1776,11.2162 269.9956,18.7452 C267.4826,15.3042 263.4176,13.0692 258.8316,13.0692 C253.3966,13.0692 248.6956,16.2072 246.4406,20.7692 C244.6496,19.5272 242.4746,18.7992 240.1326,18.7992 C234.1716,18.7992 229.3246,23.4982 229.0756,29.3982 C228.9236,29.9652 228.8336,30.5582 228.8336,31.1742 C228.8336,34.9452 231.8906,38.0022 235.6626,38.0022 C237.8266,38.0022 239.7516,36.9922 241.0036,35.4212 C241.9606,36.5032 243.3436,37.2612 244.9016,37.2612 C246.8306,37.2612 248.4956,35.7132 249.4006,34.7132 L249.7916,34.7132 C250.7236,35.7132 251.9636,36.1192 253.3356,36.1192 C254.7076,36.1192 255.9496,35.7132 256.8806,34.7132 L258.2266,34.7132 C259.1586,35.7132 260.3986,36.0562 261.7716,36.0562 C262.8136,36.0562 263.7816,35.7122 264.5966,35.1842 C265.8276,37.5902 268.3236,39.2232 271.2106,39.2232 C273.8806,39.2232 276.2156,37.8032 277.5256,35.6882 C278.8886,37.2292 280.9526,38.2062 283.2606,38.2062 C285.1826,38.2062 286.9276,37.5192 288.2466,36.4032 C289.5216,37.1522 291.1376,37.6012 292.9006,37.6012 C295.5696,37.6012 297.9026,36.5712 299.2126,35.0302 C300.4686,35.6322 302.0376,35.9942 303.7466,35.9942 C305.0986,35.9942 306.3656,35.7652 307.4576,35.3722 C309.1406,37.8642 313.0026,39.6092 317.5016,39.6092 C323.5476,39.6092 328.4466,36.4612 328.4466,32.5792 C328.4466,32.5492 328.4406,32.5212 328.4396,32.4912 C328.6486,31.5702 328.7666,30.5962 328.7666,29.6192" id="Fill-18" fill="#FFFFFF" sketch:type="MSShapeGroup"></path>
                <path d="M319.6113,31.3745 C319.6113,33.9255 316.2853,35.9935 312.1803,35.9935 C308.0763,35.9935 304.7483,33.9255 304.7483,31.3745 C304.7483,28.8235 308.0763,26.7545 312.1803,26.7545 C316.2853,26.7545 319.6113,28.8235 319.6113,31.3745" id="Fill-20" fill="#FFFFFF" sketch:type="MSShapeGroup"></path>
                <path d="M485.834,35.0464 L390.834,32.3804 C392.982,24.7134 388.828,26.2684 388.834,26.3804 C388.824,26.5414 385,37.3624 385,37.5254 C385,42.0764 389.346,45.7654 394.707,45.7654 C397.889,45.7654 400.703,44.4614 402.473,42.4544 C404.244,44.4614 407.058,45.7654 410.239,45.7654 C414.225,45.7654 417.644,43.7254 419.14,40.8094 C420.916,42.7524 423.685,44.0074 426.807,44.0074 C429.728,44.0074 432.344,42.9054 434.123,41.1714 C435.797,42.2564 437.935,42.9094 440.267,42.9094 C442.203,42.9094 444.003,42.4544 445.518,41.6804 C447.001,42.3154 448.746,42.6894 450.621,42.6894 C452.385,42.6894 454.034,42.3594 455.46,41.7914 C455.863,44.2424 458.873,46.1464 462.529,46.1464 C465.268,46.1464 467.642,45.0774 468.832,43.5124 C469.982,44.0634 471.377,44.3884 472.883,44.3884 C475.082,44.3884 477.045,43.6994 478.351,42.6194 C479.264,43.0494 480.367,43.3014 481.555,43.3014 C484.7,43.3014 487.25,41.5414 487.25,39.3694 C487.25,38.8234 487.088,38.3034 486.797,37.8314 C486.852,37.4614 484.246,30.7694 485.834,35.0464" id="Fill-22" fill="#88A39B" sketch:type="MSShapeGroup"></path>
                <path d="M485.3125,32.4356 C485.3785,31.8986 485.4255,31.3556 485.4255,30.8096 C485.4255,23.8556 479.7895,18.2236 472.8335,18.2236 C470.1915,18.2236 467.7385,19.0426 465.7135,20.4326 C462.6585,12.8126 455.2065,7.4326 446.4945,7.4326 C437.9195,7.4326 430.5645,12.6466 427.4225,20.0776 C424.9425,16.6816 420.9315,14.4756 416.4055,14.4756 C411.0415,14.4756 406.4015,17.5726 404.1755,22.0756 C402.4085,20.8496 400.2615,20.1306 397.9515,20.1306 C391.9115,20.1306 387.0145,25.0146 387.0145,31.0546 C387.0145,31.2106 387.0215,31.3756 387.0275,31.5396 C387.0175,31.7226 387.0005,31.9026 387.0005,32.0876 C387.0005,37.2656 391.1975,41.4626 396.3755,41.4626 C399.4475,41.4626 402.1645,39.9786 403.8755,37.6956 C405.5855,39.9786 408.3025,41.4626 411.3755,41.4626 C415.2235,41.4626 418.5275,39.1416 419.9705,35.8246 C421.6865,38.0346 424.3615,39.4626 427.3755,39.4626 C430.1975,39.4626 432.7225,38.2096 434.4415,36.2356 C436.0575,37.4706 438.1235,38.2126 440.3755,38.2126 C442.2455,38.2126 443.9835,37.6956 445.4465,36.8156 C446.8785,37.5376 448.5645,37.9626 450.3755,37.9626 C452.0785,37.9626 453.6705,37.5876 455.0475,36.9416 C455.4375,39.7296 458.3435,41.8966 461.8755,41.8966 C464.5195,41.8966 466.8125,40.6806 467.9615,38.8996 C469.0735,39.5266 470.4195,39.8966 471.8755,39.8966 C473.9985,39.8966 475.8945,39.1136 477.1555,37.8836 C478.0375,38.3726 479.1025,38.6596 480.2505,38.6596 C483.2875,38.6596 485.7505,36.6576 485.7505,34.1866 C485.7505,33.5646 485.5935,32.9736 485.3125,32.4356" id="Fill-24" fill="#FFFFFF" sketch:type="MSShapeGroup"></path>
                <path d="M16.6807,281.5 C15.7847,282.385 15.2577,283.453 15.2577,284.605 C15.2577,287.429 18.4107,289.752 22.4817,290.09 C22.3457,290.521 22.2717,290.936 22.2717,291.396 C22.2717,291.859 22.3477,292.713 22.4857,292.713 L60.7317,292.713 C61.6657,291.713 62.2497,291.121 62.2497,290.102 C62.2497,287.894 59.5817,286.118 56.2877,286.118 C56.2667,286.118 56.2487,286.131 56.2277,286.131 C55.0217,283.408 51.2697,281.424 46.8187,281.424 C45.6757,281.424 44.5817,281.564 43.5597,281.807 C41.2847,280.131 38.0137,279.074 34.3697,279.074 C32.1757,279.074 30.1147,279.461 28.3237,280.129 C27.9827,279.963 27.6217,279.813 27.2437,279.684 C28.7297,278.546 29.6347,277.06 29.6347,275.428 C29.6347,273.305 28.1067,271.428 25.7537,270.246 C26.8497,269.484 27.5317,268.451 27.5317,267.309 C27.5317,264.969 24.7047,263.072 21.2197,263.072 C17.7327,263.072 14.9067,264.969 14.9067,267.309 C14.9067,268.145 15.2787,268.918 15.9017,269.574 C12.6227,270.607 13.2497,269.872 13.2497,272.463 C13.2497,275.256 12.9887,280.592 16.6807,281.5" id="Fill-26" fill="#88A39B" sketch:type="MSShapeGroup"></path>
                <path d="M50.9814,284.9258 C50.9614,284.9258 50.9434,284.9318 50.9234,284.9318 C49.7484,280.9808 46.0944,278.0978 41.7624,278.0978 C40.6484,278.0978 39.5824,278.2968 38.5894,278.6488 C36.3724,276.2168 33.1884,274.6828 29.6404,274.6828 C27.5034,274.6828 25.4974,275.2398 23.7524,276.2118 C23.4204,275.9708 23.0694,275.7538 22.7014,275.5658 C24.1474,273.9138 25.0304,271.7578 25.0304,269.3898 C25.0304,266.3108 23.5404,263.5848 21.2504,261.8718 C22.3174,260.7668 22.9814,259.2678 22.9814,257.6098 C22.9814,254.2148 20.2304,251.4628 16.8354,251.4628 C13.4404,251.4628 10.6894,254.2148 10.6894,257.6098 C10.6894,258.8218 11.0514,259.9438 11.6574,260.8968 C8.4654,262.3948 6.2504,265.6298 6.2504,269.3898 C6.2504,273.4418 8.8214,276.8828 12.4154,278.1988 C11.5424,279.4848 11.0304,281.0348 11.0304,282.7068 C11.0304,286.8028 14.1014,290.1748 18.0644,290.6638 C17.9314,291.2908 17.8604,291.9418 17.8604,292.6098 C17.8604,297.7948 22.0644,301.9998 27.2504,301.9998 C30.6164,301.9998 33.5614,300.2218 35.2184,297.5588 C35.9854,297.1608 36.7064,296.6898 37.3674,296.1428 C38.6834,296.8258 40.1764,297.2188 41.7624,297.2188 C43.9014,297.2188 45.8704,296.5078 47.4634,295.3208 C48.4424,296.0718 49.6524,296.5358 50.9814,296.5358 C54.1884,296.5358 56.7864,293.9378 56.7864,290.7318 C56.7864,287.5258 54.1884,284.9258 50.9814,284.9258" id="Fill-28" fill="#FFFFFF" sketch:type="MSShapeGroup"></path>
                <path d="M506.5,266.5635 L506.5,175.4395 C506.5,175.4285 506.404,175.4105 506.234,175.4055 C505.504,175.2575 504.86,175.1705 504.065,175.1705 C499.213,175.1705 495.335,178.1375 495.335,181.7985 C495.335,183.8995 496.666,185.7675 498.688,186.9825 C497.297,187.9125 496.268,189.2535 496.268,190.7655 C496.268,192.6385 497.5,194.2535 499.5,195.1315 L499.5,195.5125 C498.5,196.4175 497.686,197.6215 497.686,198.9535 C497.686,200.2855 498.5,201.4885 499.5,202.3945 L499.5,203.7005 C498.5,204.6045 497.832,205.8085 497.832,207.1395 C497.832,208.1525 498.31,209.0915 498.99,209.8825 C495.894,211.0785 493.806,213.5005 493.806,216.3025 C493.806,218.8945 495.642,221.1605 498.364,222.4315 C496.383,223.7555 495.128,225.7575 495.128,227.9985 C495.128,229.8635 496.011,231.5585 497.448,232.8375 C496.485,234.0745 495.91,235.6445 495.91,237.3555 C495.91,239.9455 497.235,242.2095 499.221,243.4825 C498.444,244.7015 497.979,246.2225 497.979,247.8815 C497.979,249.1955 498.273,250.4235 498.78,251.4845 C495.571,253.1195 493.326,256.8675 493.326,261.2335 C493.326,267.1015 497.376,271.8575 502.374,271.8575 C502.412,271.8575 502.451,271.8515 502.489,271.8505 C503.674,272.0525 506.437,267.8085 506.627,266.5635 C507.301,262.0965 507.5,261.3675 506.5,266.5635" id="Fill-30" fill="#88A39B" sketch:type="MSShapeGroup"></path>
                <g id="Group-34">
                    <mask id="mask-4" sketch:name="Clip 33" fill="white">
                        <use xlink:href="#path-3"></use>
                    </mask>
                    <g id="Clip-33"></g>
                    <path d="M529.6494,229.7109 C529.6494,224.5919 527.7524,219.9199 524.6314,216.3439 C526.1934,215.0699 527.2114,213.1519 527.2114,210.9799 C527.2114,207.7599 525.0104,205.0759 522.0374,204.2849 C522.4664,202.9709 522.7194,201.5759 522.7194,200.1169 C522.7194,196.7799 521.4984,193.7339 519.4824,191.3879 C520.4964,190.4839 521.1444,189.1859 521.1444,187.7229 C521.1444,185.3009 519.3924,183.2969 517.0914,182.8809 C517.1184,182.5759 517.1624,182.2789 517.1624,181.9679 C517.1624,176.4789 513.0564,171.9709 507.7464,171.3149 C508.3794,170.1989 508.7574,168.8449 508.7574,167.3719 C508.7574,163.6019 506.3244,160.5469 503.3224,160.5469 C500.3204,160.5469 497.8864,163.6019 497.8864,167.3719 C497.8864,169.7629 498.8694,171.8599 500.3514,173.0779 C499.2244,174.2669 498.5224,175.8619 498.5224,177.6289 C498.5224,179.7309 499.5034,181.5979 501.0254,182.8149 C499.9764,183.7419 500.1344,185.0839 500.1344,186.5959 C500.1344,188.4679 502.5004,190.0849 503.5004,190.9629 L503.5004,191.3439 C503.5004,192.2479 502.1364,193.4509 502.1364,194.7829 C502.1364,196.1149 503.5004,197.3189 503.5004,198.2239 L503.5004,199.5309 C503.5004,200.4349 501.3044,201.6389 501.3044,202.9709 C501.3044,203.9819 501.1924,204.9219 501.7024,205.7129 C499.3674,206.9069 497.5584,209.3299 497.5584,212.1329 C497.5584,214.7249 498.8284,216.9909 500.8814,218.2619 C499.3844,219.5839 498.3804,221.5879 498.3804,223.8279 C498.3804,225.6939 499.0174,227.3889 500.1024,228.6679 C499.3734,229.9059 498.9234,231.4749 498.9234,233.1859 C498.9234,235.7769 499.9184,238.0409 501.4144,239.3139 C500.8304,240.5309 500.4754,242.0539 500.4754,243.7119 C500.4754,245.0249 500.6944,246.2549 501.0774,247.3159 C498.6574,248.9489 496.9644,252.6969 496.9644,257.0649 C496.9644,262.9339 500.0184,267.6889 503.7874,267.6889 C503.8144,267.6889 503.8394,267.6819 503.8704,267.6819 C504.7644,267.8829 505.7134,267.9989 506.6584,267.9989 C513.4984,267.9989 519.0374,262.4549 519.0374,255.6129 C519.0374,253.0149 518.2294,250.6039 516.8634,248.6119 C524.3584,245.6069 529.6494,238.2779 529.6494,229.7109" id="Fill-32" fill="#FFFFFF" sketch:type="MSShapeGroup" mask="url(#mask-4)"></path>
                </g>
                <path d="M7.5728,153.6836 C7.5728,156.1296 9.6388,158.1156 12.1888,158.1156 C12.4528,158.1156 12.7088,158.0816 12.9628,158.0396 C13.1808,160.0346 14.4358,161.7146 16.2178,162.5826 C15.9198,163.1966 15.7408,163.8726 15.7408,164.5956 C15.7408,167.2306 17.9648,169.3676 20.7118,169.3676 C23.4588,169.3676 25.6828,167.2306 25.6828,164.5956 C25.6828,164.4466 25.6518,164.3066 25.6378,164.1636 C28.2818,163.7356 30.3008,161.5426 30.3008,158.8826 C30.3008,155.9166 27.7958,153.5126 24.7068,153.5126 C24.2828,153.5126 23.8748,153.5666 23.4798,153.6526 C23.3858,153.5486 23.3088,153.4336 23.2098,153.3376 C25.9368,151.9286 27.8138,149.1956 27.8138,146.0116 C27.8138,143.6026 26.7388,141.4496 25.0398,139.9246 C26.8338,139.5096 28.1698,137.9686 28.1698,136.1216 C28.1698,134.5426 27.1918,133.1916 25.7918,132.5686 C27.6668,131.0376 28.8818,128.7836 28.8818,126.2336 C28.8818,121.6196 24.9858,117.8796 20.1788,117.8796 C15.3738,117.8796 11.4788,121.6196 11.4788,126.2336 C11.4788,129.1586 13.0498,131.7226 15.4178,133.2146 C13.7328,133.8746 12.5418,135.4606 12.5418,137.3166 C12.5418,138.2386 12.8378,139.0936 13.3398,139.8036 C11.5558,141.3326 10.4108,143.5336 10.4108,146.0116 C10.4108,147.2076 10.6838,148.3406 11.1568,149.3716 C9.1068,149.8226 7.5728,151.5776 7.5728,153.6836" id="Fill-35" fill="#88A39B" sketch:type="MSShapeGroup"></path>
                <g id="Group-39">
                    <mask id="mask-6" sketch:name="Clip 38" fill="white">
                        <use xlink:href="#path-5"></use>
                    </mask>
                    <g id="Clip-38"></g>
                    <path d="M5.3457,158.0684 C5.5697,160.5784 7.6527,162.5524 10.2217,162.5524 C10.5037,162.5524 10.7757,162.5154 11.0467,162.4694 C11.2797,164.6834 12.6167,166.5484 14.5157,167.5134 C14.1987,168.1944 14.0087,168.9464 14.0087,169.7474 C14.0087,172.6734 16.3797,175.0464 19.3077,175.0464 C22.2357,175.0464 24.6067,172.6734 24.6067,169.7474 C24.6067,169.5834 24.5737,169.4274 24.5577,169.2674 C27.3777,168.7934 29.5297,166.3584 29.5297,163.4044 C29.5297,160.1114 26.8587,157.4424 23.5667,157.4424 C23.1147,157.4424 22.6787,157.5024 22.2577,157.5974 C22.1577,157.4834 22.0757,157.3554 21.9697,157.2494 C24.8777,155.6834 26.8787,152.6484 26.8787,149.1134 C26.8787,146.4394 25.7317,144.0484 23.9217,142.3554 C25.8337,141.8954 27.2577,140.1854 27.2577,138.1324 C27.2577,136.3814 26.2157,134.8814 24.7217,134.1894 C26.7217,132.4884 28.0167,129.9854 28.0167,127.1554 C28.0167,122.0324 23.8637,117.8794 18.7397,117.8794 C13.6177,117.8794 9.4647,122.0324 9.4647,127.1554 C9.4647,130.4014 11.1397,133.2484 13.6637,134.9064 C11.8677,135.6404 10.5987,137.3984 10.5987,139.4604 C10.5987,140.4834 10.9137,141.4334 11.4487,142.2214 C10.8407,142.7654 10.3347,143.4064 9.8847,144.0884 C9.0987,143.8044 8.2647,143.6234 7.3827,143.6234 C3.3047,143.6234 -0.0003,146.9284 -0.0003,151.0064 C-0.0003,154.3714 2.2667,157.1794 5.3457,158.0684" id="Fill-37" fill="#FFFFFF" sketch:type="MSShapeGroup" mask="url(#mask-6)"></path>
                </g>
            </g>
        </g>
    </g>
</svg>