<?xml version="1.0" encoding="UTF-8" standalone="no"?>
<svg width="149px" height="176px" viewBox="0 0 149 176" version="1.1" xmlns="http://www.w3.org/2000/svg" xmlns:xlink="http://www.w3.org/1999/xlink" xmlns:sketch="http://www.bohemiancoding.com/sketch/ns">
    <!-- Generator: Sketch 3.4.4 (17249) - http://www.bohemiancoding.com/sketch -->
    <title>thanks_</title>
    <desc>Created with Sketch.</desc>
    <defs>
        <path id="path-1" d="M0,0.0683547401 L148.801876,0.0683547401 L148.801876,176 L0,176"></path>
        <path id="path-3" d="M0,0.0683547401 L148.801876,0.0683547401 L148.801876,176 L0,176 L0,0.0683547401 Z"></path>
    </defs>
    <g id="Welcome" stroke="none" stroke-width="1" fill="none" fill-rule="evenodd" sketch:type="MSPage">
        <g id="how_3_" sketch:type="MSArtboardGroup" transform="translate(-654.000000, -243.000000)">
            <g id="thanks_" sketch:type="MSLayerGroup" transform="translate(654.000000, 243.000000)">
                <g id="Group-3">
                    <mask id="mask-2" sketch:name="Clip 2" fill="white">
                        <use xlink:href="#path-1"></use>
                    </mask>
                    <g id="Clip-2"></g>
                    <path d="M66.3239982,58.7587841 C94.9490965,58.7587841 118.244392,81.8153223 118.314685,110.182539 C118.279674,138.579359 94.9702659,161.747848 66.3248124,161.747848 C37.6953716,161.747848 14.3973625,138.632643 14.3338543,110.260044 C14.3623515,81.8567657 37.6739308,58.7587841 66.3239982,58.7587841 M132.571732,110.143249 C132.571732,109.693292 132.564404,109.282625 132.552734,108.848815 C132.547306,108.594772 132.53835,108.342075 132.529393,108.088301 C132.519623,107.795506 132.508495,107.482527 132.496825,107.131065 L132.492483,107.131065 C130.813587,72.3820991 101.777856,44.623885 66.3239982,44.623885 C30.8717687,44.623885 1.83576685,72.3820991 0.156327869,107.131065 L0.152256831,107.131065 C0.139500911,107.50594 0.127830601,107.834527 0.117245902,108.140509 C0.109918033,108.365218 0.101504554,108.589659 0.0963479053,108.814637 C0.0844061931,109.249793 0.0773497268,109.66046 0.0773497268,110.117145 C0.0773497268,110.149708 0.078435337,110.18227 0.078435337,110.215102 C0.078435337,110.247396 0.0773497268,110.279689 0.0773497268,110.311983 C0.0773497268,146.532729 29.7962004,176.000081 66.3239982,176.000081 C102.853696,176.000081 132.571732,146.532729 132.571732,110.311983 C132.571732,110.283726 132.570647,110.256007 132.570647,110.227481 C132.570647,110.199494 132.571732,110.171506 132.571732,110.143249" id="Fill-1" fill="#88A39B" sketch:type="MSShapeGroup" mask="url(#mask-2)"></path>
                </g>
                <path d="M10.291449,107.241859 C10.291449,138.532453 35.8724964,163.898251 67.4290137,163.898251 C98.985531,163.898251 124.567393,138.532453 124.567393,107.241859 C124.567393,75.9518043 98.985531,50.5862752 67.4290137,50.5862752 C35.8724964,50.5862752 10.291449,75.9518043 10.291449,107.241859" id="Fill-4" fill="#137777" sketch:type="MSShapeGroup"></path>
                <path d="M14.2557989,108.186393 C14.2557989,136.613084 37.5790485,159.739861 66.246757,159.739861 C94.9155512,159.739861 118.239615,136.613084 118.239615,108.186393 C118.239615,79.7597015 94.9155512,56.6329248 66.246757,56.6329248 C37.5790485,56.6329248 14.2557989,79.7597015 14.2557989,108.186393 M0.00010856102,108.186393 C0.00010856102,71.9656465 29.7189592,42.4982948 66.246757,42.4982948 C102.776455,42.4982948 132.494491,71.9656465 132.494491,108.186393 C132.494491,144.407408 102.776455,173.874221 66.246757,173.874221 C29.7189592,173.874221 0.00010856102,144.407408 0.00010856102,108.186393" id="Fill-6" fill="#E6EDF3" sketch:type="MSShapeGroup"></path>
                <path d="M33.910473,137.651376 L36.717861,133.989015 L35.8472016,138.90652 L33.910473,137.651376 Z" id="Fill-8" fill="#CE9F67" sketch:type="MSShapeGroup"></path>
                <path d="M62.0483495,35.4090202 C60.4866993,41.3058275 55.3764607,45.0849835 50.6337011,43.8502924 C45.8912129,42.6153321 44.6370617,36.8985615 46.1976264,31.0025615 C47.7595481,25.1057541 51.5453423,21.262011 56.2881018,22.496433 C61.0308614,23.7316624 63.609457,29.5122128 62.0483495,35.4090202" id="Fill-10" fill="#916433" sketch:type="MSShapeGroup"></path>
                <path d="M74.5776754,141.020807 L51.1284951,134.916245 L58.7663056,106.072697 L82.2152146,112.177529 L74.5776754,141.020807 Z" id="Fill-12" fill="#E5E5E4" sketch:type="MSShapeGroup"></path>
                <path d="M60.2060419,132.232594 L69.0790055,116.058087 L69.4855665,134.789169 L60.2060419,132.232594 Z" id="Fill-14" fill="#000000" sketch:type="MSShapeGroup"></path>
                <path d="M113.897364,48.1378838 C112.555821,53.202055 115.313271,58.3087462 120.056302,59.5439755 C124.798519,60.7786667 128.740098,57.4158287 130.081098,52.3513884 C131.422098,47.2866789 129.655268,42.4383364 124.913322,41.2033761 C120.169748,39.968685 115.238364,43.0731743 113.897364,48.1378838" id="Fill-16" fill="#916433" sketch:type="MSShapeGroup"></path>
                <path d="M64.1631182,102.494542 L58.0280636,106.97393" id="Fill-18" fill="#D5D5D5" sketch:type="MSShapeGroup"></path>
                <path d="M71.0241204,93.7890813 L67.6625284,107.395442 L69.5327634,114.076445 L73.3755521,109.69017 L77.1629747,95.3876135" id="Fill-20" fill="#E8C599" sketch:type="MSShapeGroup"></path>
                <path d="M72.5662568,100.750285 L69.3026412,114.202713 L73.6277122,108.8296 L77.0115592,96.2297223" id="Fill-22" fill="#DABB96" sketch:type="MSShapeGroup"></path>
                <path d="M66.18618,102.471936 L58.8520689,107.183031 L69.5010907,114.688597 L70.8985424,109.31979 L66.18618,102.471936 Z" id="Fill-24" fill="#B5B5B5" sketch:type="MSShapeGroup"></path>
                <path d="M79.3871186,106.635036 L82.4558672,113.362057 L69.4619273,114.713006 L70.8987324,109.319978 L79.3871186,106.635036 Z" id="Fill-26" fill="#E2E2E2" sketch:type="MSShapeGroup"></path>
                <path d="M133.778659,31.036981 L128.765311,47.1251034 C121.307441,76.4759291 122.426976,72.2196355 118.389049,88.1094214 C115.74586,98.5127976 87.3419545,101.375085 74.4630893,97.9188648 C60.5613078,94.1881492 36.9737122,79.7494214 40.182776,67.1212869 C46.2507942,43.2420697 46.5235537,42.0194887 50.9759126,24.4975315 L133.778659,31.036981 Z" id="Fill-28" fill="#F2D2A7" sketch:type="MSShapeGroup"></path>
                <path d="M65.8906497,31.2980746 C65.0948974,34.3011083 60.8721452,35.8032979 56.4583255,34.6541847 C52.0436916,33.5048024 49.1101015,30.1392734 49.9047681,27.1365089 C50.6999776,24.1340135 54.9230013,22.6315547 59.3376352,23.780937 C63.7517262,24.9303193 66.6861306,28.2953101 65.8906497,31.2980746" id="Fill-30" fill="#916433" sketch:type="MSShapeGroup"></path>
                <path d="M78.3659122,35.3866838 C77.5709741,38.3883719 73.3476791,39.8913688 68.933588,38.7422557 C64.5186827,37.5926043 61.5850925,34.226537 62.380302,31.2248489 C63.1749687,28.2220844 67.3982638,26.7190875 71.813169,27.8684697 C76.2272601,29.0175829 79.1611217,32.3839193 78.3659122,35.3866838" id="Fill-32" fill="#916433" sketch:type="MSShapeGroup"></path>
                <path d="M90.8546634,38.357693 C90.0594539,41.3601884 85.8361588,42.8629162 81.4217964,41.7132648 C77.0071625,40.5641517 74.0733009,37.1983535 74.868239,34.195589 C75.6634485,31.1933627 79.8867435,29.6911731 84.3013774,30.8402862 C88.7154685,31.9893994 91.6493301,35.3554667 90.8546634,38.357693" id="Fill-34" fill="#916433" sketch:type="MSShapeGroup"></path>
                <path d="M103.40543,41.6254263 C102.610221,44.6279217 98.3880111,46.1306495 93.9728344,44.9812673 C89.5590148,43.831885 86.6248818,40.466356 87.4200913,37.4635914 C88.2147579,34.461096 92.4383244,32.9583682 96.8524155,34.1077505 C101.266778,35.2571327 104.200368,38.6226618 103.40543,41.6254263" id="Fill-36" fill="#916433" sketch:type="MSShapeGroup"></path>
                <path d="M116.416061,45.2928734 C115.620852,48.2948306 111.397557,49.7978275 106.983194,48.6484453 C102.569103,47.499063 99.6344273,44.1327266 100.429365,41.1310385 C101.224303,38.128274 105.448413,36.6258153 109.862232,37.7749284 C114.277138,38.9243107 117.210728,42.290378 116.416061,45.2928734" id="Fill-38" fill="#916433" sketch:type="MSShapeGroup"></path>
                <path d="M129.543043,47.4502459 C128.747833,50.4527413 124.525352,51.9549309 120.11099,50.8058177 C115.696085,49.6564355 112.762494,46.2906373 113.557975,43.2881419 C114.352642,40.2853774 118.575937,38.7831878 122.990028,39.9323009 C127.404119,41.0819523 130.338252,44.4474813 129.543043,47.4502459" id="Fill-40" fill="#916433" sketch:type="MSShapeGroup"></path>
                <path d="M50.1450679,20.1921517 L39.2051026,7.23246972 L40.5802993,1.29771743 C40.5802993,1.29771743 63.8066581,-3.33075963 97.2157692,5.37424343 C113.270858,9.55733823 127.177254,15.6627083 148.801795,28.6412281 L147.104443,35.050696 L132.112709,41.4276012 L50.1450679,20.1921517 Z" id="Fill-42" fill="#000000" sketch:type="MSShapeGroup"></path>
                <path d="M132.443929,41.278378 C128.934694,32.4393566 113.701683,25.5678214 94.2782166,20.5106471 C74.886233,15.4618153 57.2773641,13.7650569 49.8200362,19.7291425 L48.9805882,24.0344147 C56.1450727,19.6284942 73.6231255,21.5179376 93.0712894,26.5813015 C112.46463,31.6304024 126.695623,38.055748 130.489288,45.2556012 L132.443929,41.278378 Z" id="Fill-44" fill="#B5B5B5" sketch:type="MSShapeGroup"></path>
                <path d="M130.489233,45.2555474 C129.551266,48.798422 88.7733044,38.0368563 88.7733044,38.0368563 C88.7733044,38.0368563 48.0417525,27.5777737 48.9805339,24.0343609 C49.9185011,20.4914862 68.89741,19.0964037 91.4050949,24.9563425 C113.913051,30.8165505 131.426929,41.7121346 130.489233,45.2555474" id="Fill-46" fill="#000000" sketch:type="MSShapeGroup"></path>
                <path d="M101.11045,113.474816 C101.11045,113.474816 88.9700712,109.825372 79.3871186,106.635036 L64.7327379,133.13084 L66.1860985,102.471856 C56.2592789,100.583489 42.7852279,98.2901064 42.7852279,98.2901064 L33.7133262,150.252357 L60.2548672,163.053262 L79.3480366,162.673544 L101.11045,113.474816 Z" id="Fill-48" fill="#1C1F27" sketch:type="MSShapeGroup"></path>
                <path d="M53.1504984,70.6493064 C52.8706823,71.7688171 51.4154219,72.7314349 50.003043,72.3848171 L45.9105639,71.3810251 C44.4987279,71.0346765 43.662808,69.5101505 43.9420812,68.3903706 C44.2218973,67.2695144 45.6774291,66.3082422 47.0892652,66.6548599 L51.1820157,67.658652 C52.5946659,68.0052697 53.4297716,69.5289884 53.1504984,70.6493064" id="Fill-50" fill="#E16C58" sketch:type="MSShapeGroup"></path>
                <path d="M114.759013,85.4069064 C114.480011,86.5277627 113.024208,87.4890349 111.611286,87.142148 L107.519621,86.138356 C106.106428,85.7922765 105.271594,84.2688269 105.55141,83.1479706 C105.830955,82.0273835 107.286215,81.0658422 108.698594,81.4121908 L112.791344,82.4159829 C114.203995,82.7631388 115.038286,84.2863193 114.759013,85.4069064" id="Fill-52" fill="#E16C58" sketch:type="MSShapeGroup"></path>
                <path d="M120.61113,78.7271682 C120.007531,81.1890153 117.566537,82.7148869 115.158382,82.134948 L45.3970703,65.3264098 C42.9883727,64.7462018 41.5260557,62.2795107 42.1291122,59.8173945 C42.7327115,57.3550092 45.173706,55.8294067 47.5818608,56.4096147 L117.343715,73.2178838 C119.75187,73.7983609 121.214458,76.2647829 120.61113,78.7271682" id="Fill-54" fill="#C1AA8E" sketch:type="MSShapeGroup"></path>
                <path d="M47.9786242,49.8798801 C47.3269867,52.3403817 44.7880158,53.811085 42.3063109,53.1649443 C39.8256916,52.5188037 38.3427481,50.0015193 38.994657,47.5407486 C39.6457517,45.0810544 42.1841798,43.6106202 44.6658847,44.2562226 C47.1467754,44.9023633 48.6297189,47.4199168 47.9786242,49.8798801" id="Fill-56" fill="#F2D2A7" sketch:type="MSShapeGroup"></path>
                <path d="M128.041589,70.7247388 C127.389409,73.1849713 124.849624,74.6551364 122.369005,74.0087266 C119.888385,73.3633933 118.40517,70.8453015 119.057079,68.3853382 C119.707903,65.9253749 122.246874,64.4549407 124.728307,65.1010813 C127.208384,65.7464147 128.692141,68.2642373 128.041589,70.7247388" id="Fill-58" fill="#F2D2A7" sketch:type="MSShapeGroup"></path>
                <path d="M70.8542224,59.224619 C69.9542515,62.6232489 66.4458308,64.6553223 63.0172024,63.762674 L56.4346049,62.0489615 C53.0062479,61.1563131 50.9574301,57.6772183 51.8574009,54.2785884 L51.9488636,53.9314324 C52.84992,50.5322642 56.3575266,48.5004599 59.7856122,49.3928391 L66.3692953,51.1068208 C69.7973809,51.9994691 71.8464701,55.4782948 70.9462279,58.8771939 L70.8542224,59.224619 Z" id="Fill-60" fill="#FFFFFF" sketch:type="MSShapeGroup"></path>
                <path d="M42.9368605,141.412125 C42.4757475,143.135794 40.6918186,144.162999 38.9534852,143.705238 L36.1308987,142.961947 C34.392294,142.504186 33.3571647,140.735843 33.8182776,139.011635 L33.8557311,138.872235 C34.3171155,137.148296 36.1010444,136.12136 37.8399206,136.579122 L40.6616929,137.322412 C42.4002976,137.780174 43.435427,139.548247 42.9737712,141.272724 L42.9368605,141.412125 Z" id="Fill-62" fill="#F2D2A7" sketch:type="MSShapeGroup"></path>
                <path d="M62.4491026,56.6974581 C62.2786617,57.3398312 61.6161681,57.7233174 60.9686016,57.5548526 C60.321578,57.3858495 59.9340151,56.7297517 60.1041845,56.0871095 C60.2740825,55.4452746 60.9371189,55.0612502 61.5846854,55.2294459 C62.2319805,55.3984489 62.6190005,56.0558924 62.4491026,56.6974581" id="Fill-64" fill="#000000" sketch:type="MSShapeGroup"></path>
                <path d="M114.190777,70.5071339 C113.291078,73.9063021 109.782657,75.9375682 106.354029,75.045189 L99.7711599,73.3314765 C96.3436171,72.4393664 94.2939851,68.9602716 95.1942273,65.5611034 L95.2865042,65.2139474 C96.1856608,61.8150483 99.6948958,59.783244 103.12271,60.6758924 L109.705579,62.3896049 C113.133393,63.2819841 115.183025,66.7608098 114.282783,70.159978 L114.190777,70.5071339 Z" id="Fill-66" fill="#FFFFFF" sketch:type="MSShapeGroup"></path>
                <path d="M106.167711,68.0795988 C105.997813,68.722241 105.335591,69.105189 104.687481,68.9367242 C104.039915,68.7685284 103.652623,68.1118924 103.823336,67.4687119 C103.992962,66.8279535 104.655999,66.4433908 105.303294,66.6118557 C105.951403,66.7803205 106.338152,67.4377639 106.167711,68.0795988" id="Fill-68" fill="#000000" sketch:type="MSShapeGroup"></path>
                <path d="M63.7693945,132.110121 L54.8923599,144.385717 L51.0465858,160.374806 L56.2822124,161.712568 L80.5409865,159.716286 L101.110314,113.474843 C101.110314,113.474843 88.9699355,109.825399 79.3872543,106.635063 L63.7693945,132.110121 Z" id="Fill-70" fill="#121419" sketch:type="MSShapeGroup"></path>
                <path d="M58.3112721,148.187533 C58.0965927,149.000524 57.2563304,149.487887 56.4350663,149.273943 C55.6146164,149.060267 55.1239206,148.226823 55.3394142,147.413563 C55.5551792,146.599765 56.3951701,146.112132 57.21562,146.326615 C58.0368842,146.54056 58.5273086,147.373196 58.3112721,148.187533" id="Fill-72" fill="#F7B817" sketch:type="MSShapeGroup"></path>
                <path d="M57.1103701,153.189243 C56.8954193,154.002234 56.0554284,154.489598 55.2341643,154.275653 C54.413443,154.061977 53.9230186,153.229072 54.1382408,152.415273 C54.3540058,151.601475 55.1942681,151.114111 56.014718,151.328056 C56.8357107,151.54227 57.3261352,152.374906 57.1103701,153.189243" id="Fill-74" fill="#F7B817" sketch:type="MSShapeGroup"></path>
                <path d="M55.9093324,158.429064 C55.694653,159.242055 54.8543907,159.729688 54.0331266,159.515474 C53.2121339,159.301798 52.7219809,158.468355 52.9372031,157.655364 C53.1529681,156.841297 53.9932304,156.353933 54.8136803,156.568147 C55.6349444,156.782092 56.1250974,157.614997 55.9093324,158.429064" id="Fill-76" fill="#F7B817" sketch:type="MSShapeGroup"></path>
                <path d="M90.1970821,79.962882 C86.4848381,82.7713468 81.9377597,83.9239584 77.5377816,82.7783437 C73.1372607,81.6324599 69.748257,78.4141358 67.9059765,74.1594569 L66.9560676,73.9118728 C67.2109146,73.9780746 67.3417306,74.5631266 67.5346978,74.9616832 C69.6155412,79.2631878 73.1364464,82.162882 77.4061514,83.2748575 C81.6761277,84.3862948 86.1678399,83.6163621 90.1129474,80.883518 C90.4779838,80.6308208 90.8918727,80.143726 91.1475339,80.2101969 L90.1970821,79.962882 Z" id="Fill-78" fill="#000000" sketch:type="MSShapeGroup"></path>
                <path d="M87.2606965,67.1878924 L84.4315964,59.0133113 L77.8224015,64.4989138 C77.2852958,65.0651278 76.7416765,65.722033 76.5321537,66.5137639 L75.2101519,71.5041982 C74.5007056,74.1834887 76.6211738,77.1418495 79.5246383,77.8415437 L79.5259953,77.842082 C82.4294597,78.541507 84.9790153,76.9120269 85.6884616,74.2321982 L87.0118204,69.2342287 C87.1990882,68.5280758 87.3934124,67.8690177 87.2606965,67.1878924" id="Fill-80" fill="#EDA769" sketch:type="MSShapeGroup"></path>
                <path d="M75.5722301,72.1604306 C75.4289295,72.1230239 75.2842719,72.1082226 75.1423284,72.1136049 C75.0381098,73.1085162 75.2403047,74.0840514 75.6840479,74.9320269 C76.1272483,74.7783633 76.4882137,74.4158679 76.6163157,73.9314642 C76.8217674,73.1569566 76.3541408,72.3638801 75.5722301,72.1604306" id="Fill-82" fill="#916433" sketch:type="MSShapeGroup"></path>
                <path d="M85.2466454,74.5435621 C85.3923885,74.574241 85.5286326,74.6251034 85.6521208,74.693189 C85.2954978,75.6286263 84.6731718,76.4109382 83.8934322,76.9712318 C83.5674778,76.6367242 83.4089787,76.1523205 83.5131973,75.6622654 C83.680924,74.8788771 84.4568639,74.3780575 85.2466454,74.5435621" id="Fill-84" fill="#916433" sketch:type="MSShapeGroup"></path>
                <path d="M34.8899377,135.920817 C27.5289577,132.63064 23.4801745,124.424034 25.6978047,116.467704 C27.9173348,108.510566 33.8719067,102.872646 41.8918521,103.799202 L42.8512601,98.3074104 C31.5185752,96.5627498 22.8212091,103.899851 19.6924805,115.126444 C16.5623949,126.353576 22.506925,137.941857 33.1353202,142.215643 L34.8899377,135.920817 Z" id="Fill-86" fill="#1C1F27" sketch:type="MSShapeGroup"></path>
                <path d="M33.0265692,134.979432 C32.2329882,134.379579 31.6340027,133.910784 30.7231758,133.291286 L28.8917514,140.019922 C29.8348752,140.648032 31.0504872,141.241965 31.3210756,141.41931 L33.0265692,134.979432 Z" id="Fill-88" fill="#F7B817" sketch:type="MSShapeGroup"></path>
                <path d="M66.8364605,48.6132991 C66.7132437,49.0877456 66.1318995,49.3501309 65.5364423,49.1983511 L58.5101016,47.4219352 C57.9157301,47.2712318 57.6000889,46.7860208 57.7566882,46.3234153 L57.759945,46.3148037 C57.9168157,45.8519291 58.3616444,45.5432563 58.957373,45.6939596 L66.0344659,47.4878679 C66.6296517,47.6385713 66.9868175,48.137507 66.8644149,48.6122226 L66.8364605,48.6132991 Z" id="Fill-90" fill="#916433" sketch:type="MSShapeGroup"></path>
                <path d="M104.499535,58.092433 C104.338593,58.5558459 104.678932,59.0911119 105.261091,59.2894483 L112.036655,61.6129713 C112.617728,61.8107694 113.070699,61.5569957 113.195544,61.0849713 L113.19853,61.0763596 C113.323103,60.6037969 113.202058,60.1242373 112.620442,59.9256318 L105.753144,57.578696 C105.172071,57.3800905 104.617324,57.6077602 104.456382,58.070904 L104.499535,58.092433 Z" id="Fill-92" fill="#916433" sketch:type="MSShapeGroup"></path>
                <path d="M71.4003386,114.491875 L71.2877066,117.858481 L68.3142202,119.008939 L66.2949852,116.557319 L67.9757812,113.647129 L69.501335,114.688597 L71.4003386,114.491875 Z" id="Fill-94" fill="#000000" sketch:type="MSShapeGroup"></path>
                <path d="M45.3582869,49.3750508 C45.0689718,50.464959 43.9448224,51.1159437 42.8459135,50.8301456 C41.7470046,50.5440783 41.0902104,49.4291425 41.3787113,48.3392343 C41.6666694,47.2506716 42.791633,46.5991486 43.8902705,46.8846777 C44.988908,47.1710141 45.6457022,48.2867572 45.3582869,49.3750508" id="Fill-96" fill="#C1AA8E" sketch:type="MSShapeGroup"></path>
                <path d="M125.629961,70.2740281 C125.342003,71.3642055 124.217853,72.0151902 123.11813,71.7285847 C122.019493,71.4430557 121.363513,70.328389 121.652285,69.2387498 C121.940514,68.1496489 123.064664,67.498126 124.16303,67.7839242 C125.262482,68.0702606 125.918733,69.1860037 125.629961,70.2740281" id="Fill-98" fill="#C1AA8E" sketch:type="MSShapeGroup"></path>
                <path d="M97.6153281,14.6703535 C97.1338599,16.4898275 95.2552115,17.5773138 93.4199874,17.0996379 C91.5855776,16.6219621 90.4885685,14.7596991 90.9705794,12.9404942 C91.4523189,11.120482 93.3304246,10.0332648 95.1648344,10.5106716 C97.0000585,10.9883474 98.0970676,12.8506104 97.6153281,14.6703535" id="Fill-100" fill="#F7B817" sketch:type="MSShapeGroup"></path>
                <path d="M108.162655,17.7847193 C108.098062,18.0285358 107.8462,18.1743951 107.600309,18.1100771 L100.179078,16.1781138 C99.9340015,16.1143339 99.7863585,15.8648661 99.8512237,15.6207804 C99.9155461,15.3769639 100.167679,15.2313737 100.41357,15.2954226 L107.833987,17.2271168 C108.079335,17.2911657 108.226978,17.5409028 108.162655,17.7847193" id="Fill-102" fill="#F7B817" sketch:type="MSShapeGroup"></path>
                <path d="M103.164506,18.6857639 C103.100184,18.9298495 102.848051,19.0751706 102.602431,19.0113908 L97.2593293,17.620345 C97.01371,17.556296 96.8668812,17.306559 96.9309322,17.0627425 C96.995526,16.8191951 97.2473876,16.6733358 97.4930069,16.7371156 L102.83638,18.1284306 C103.081728,18.1924795 103.2291,18.4419474 103.164506,18.6857639" id="Fill-104" fill="#F7B817" sketch:type="MSShapeGroup"></path>
                <path d="M97.5723922,19.4321223 C97.5086126,19.676208 97.2564796,19.8215291 97.0105889,19.7577492 L94.3391736,19.0620917 C94.0932829,18.9980428 93.9464541,18.748844 94.0110479,18.5050275 C94.0759131,18.261211 94.3269605,18.1153517 94.5728512,18.1791315 L97.2442665,18.874789 C97.4901572,18.9388379 97.6378002,19.1885749 97.5723922,19.4321223" id="Fill-106" fill="#F7B817" sketch:type="MSShapeGroup"></path>
                <path d="M88.5723851,12.6841908 C88.6364361,12.4403743 88.4890645,12.1909064 88.2431738,12.1268575 L80.8224852,10.1948942 C80.5768659,10.1308453 80.3252758,10.2767046 80.260682,10.520252 C80.196631,10.7643376 80.3434597,11.0140746 80.5893505,11.0778544 L88.010039,13.0098177 C88.2553869,13.0738667 88.5075199,12.9282765 88.5723851,12.6841908" id="Fill-108" fill="#F7B817" sketch:type="MSShapeGroup"></path>
                <path d="M90.4009055,15.3627009 C90.4654993,15.1188844 90.3183991,14.8694165 90.0725084,14.8053676 L84.7294064,13.4143217 C84.4832443,13.3502728 84.2324683,13.495863 84.1678745,13.7399486 C84.1027379,13.9837651 84.2501095,14.233233 84.4960002,14.297282 L89.8388308,15.6880587 C90.0847215,15.7523768 90.3360403,15.6065174 90.4009055,15.3627009" id="Fill-110" fill="#F7B817" sketch:type="MSShapeGroup"></path>
                <path d="M91.9331086,17.9640832 C91.9977024,17.7202667 91.8506022,17.4705297 91.6047115,17.4064807 L88.9335676,16.7110924 C88.6876769,16.6465052 88.4358153,16.7929028 88.3714929,17.0367193 C88.3066277,17.2802667 88.4537279,17.5300037 88.6990758,17.5940526 L91.3713053,18.289441 C91.6166532,18.3534899 91.8685148,18.2076306 91.9331086,17.9640832" id="Fill-112" fill="#F7B817" sketch:type="MSShapeGroup"></path>
                <path d="M54.9311976,145.462493 L60.5793561,101.492903 L66.1862614,102.471936 L64.7329007,133.369086 L54.9311976,145.462493 Z" id="Fill-114" fill="#121419" sketch:type="MSShapeGroup"></path>
                <path d="M61.7437002,113.682437 C61.1420007,114.320235 60.1817785,114.400161 59.59962,113.858975 C59.016376,113.319134 59.0323887,112.363244 59.634631,111.725715 L62.7389333,108.781886 C63.3409042,108.143012 64.3013978,108.064161 64.8840991,108.604272 C65.4670718,109.144651 65.2532066,109.963024 64.6509643,110.601091 C64.6509643,110.601091 63.1644925,111.641483 62.7883286,112.040308 C62.4376765,112.411684 61.7437002,113.682437 61.7437002,113.682437" id="Fill-116" fill="#F2D2A7" sketch:type="MSShapeGroup"></path>
                <path d="M60.3559375,116.349644 C59.8543856,117.27943 58.6078337,117.588641 57.5729758,117.03965 L54.5262107,115.425509 C53.4905386,114.87625 53.0609084,113.679234 53.5630031,112.74891 L55.2641543,109.592482 C55.7654348,108.662696 57.0076443,108.351063 58.0425022,108.899785 L61.0900814,110.514464 C62.1249393,111.063454 62.5586406,112.261815 62.0568173,113.192139 L60.3559375,116.349644 Z" id="Fill-118" fill="#F2D2A7" sketch:type="MSShapeGroup"></path>
                <path d="M63.5148189,116.164629 C65.3836969,123.953032 72.7473909,129.444017 81.0455239,128.786305 C89.3447424,128.129938 96.1474474,123.666158 96.744533,115.681571 L102.270289,115.512029 C101.858843,126.877216 92.9503253,133.960005 81.2409337,134.887638 C69.5309993,135.816617 59.175635,127.840103 56.9495913,116.684824 L63.5148189,116.164629 Z" id="Fill-120" fill="#1C1F27" sketch:type="MSShapeGroup"></path>
                <path d="M64.0835973,117.976433 C64.4100945,119.032433 64.9165317,119.824433 65.2674552,120.582256 L58.2750399,121.035173 C57.8796064,120.027883 57.6193313,119.50661 57.3642129,118.444421 L64.0835973,117.976433 Z" id="Fill-122" fill="#F7B817" sketch:type="MSShapeGroup"></path>
                <path d="M98.5286791,112.831743 C99.5382965,112.27737 102.131819,112.593309 102.270235,115.51211 C102.335914,116.897505 101.891899,118.322728 101.891899,118.322728 L99.694353,121.024624 L96.4462073,117.406936 C96.4462073,117.406936 96.8305133,115.14208 96.9930834,114.744869 C97.3860743,113.784135 97.8271035,113.217113 98.5286791,112.831743" id="Fill-124" fill="#1C1F27" sketch:type="MSShapeGroup"></path>
                <path d="M121.359876,53.295841 L53.50571,36.946948 C50.4958557,36.2216881 47.4626608,38.0532722 46.731231,41.0380061 L42.5595024,58.0610275 C41.8283439,61.0457615 43.6755097,64.0531009 46.6853639,64.7783609 L75.3595862,71.6870336 C75.3834696,71.4354128 75.4187519,71.1824465 75.4806317,70.9294801 L75.7126809,69.9835474 C76.3985151,67.185578 79.2417282,65.468367 82.0637719,66.1484159 L82.200016,66.1809786 C85.0215169,66.8610275 86.7533366,69.680526 86.0677738,72.4787645 L85.835996,73.4244281 C85.7741162,73.6776636 85.688353,73.9182508 85.5930907,74.1526483 L114.53953,81.1272538 C117.549655,81.8525138 120.58285,80.0209297 121.31428,77.0361957 L125.486009,60.0131743 C126.216624,57.0287095 124.370001,54.0211009 121.359876,53.295841" id="Fill-126" fill="#F7B817" sketch:type="MSShapeGroup"></path>
                <path d="M118.653287,59.1217101 C118.428565,60.039655 116.598498,60.386811 114.565421,59.896756 L99.8421046,56.3493064 C97.8092995,55.8597896 96.3439971,54.7184807 96.5689898,53.8005358 C96.7937111,52.8825908 98.6237785,52.5354349 100.657126,53.0252208 L115.380443,56.5726703 C117.413248,57.0624563 118.878551,58.203496 118.653287,59.1217101" id="Fill-128" fill="#F6F6F6" sketch:type="MSShapeGroup"></path>
                <path d="M116.423226,55.2542581 L106.733612,52.9194324 L97.7252189,50.7490349 L76.22878,45.5696832 L71.8526852,44.5152979 L57.5305013,41.0644599 C54.3032536,40.2867229 51.0469658,42.2695486 50.2574557,45.493255 L47.7540386,55.7069064 C46.9642572,58.9303437 48.9400678,62.1736954 52.1673155,62.9511633 L70.8650514,67.4563865 C74.0925705,68.2341235 77.2126142,66.2184661 78.0021242,62.9950287 L78.4426106,61.1981602 L78.4925486,60.9952489 L78.5025905,60.9979401 C79.236463,58.4698911 81.8525122,56.940252 84.4549913,57.5672856 L84.5909639,57.6001174 C87.1939858,58.2271511 88.8104594,60.7767291 88.2920805,63.3567168 L88.3029366,63.3591388 L88.2529985,63.561781 L87.8125122,65.3586495 C87.0224594,68.5820869 89.134514,71.8585394 92.3617617,72.6357382 L111.059769,77.1409615 C114.287288,77.9184294 117.543033,75.9358728 118.333357,72.7124355 L120.83596,62.498515 C121.626285,59.2750777 119.650474,56.0319951 116.423226,55.2542581" id="Fill-130" fill="#51CCC9" sketch:type="MSShapeGroup"></path>
                <path d="M116.423226,55.2542581 L106.733612,52.9194324 L97.7252189,50.7490349 L76.22878,45.5696832 L71.8526852,44.5152979 L57.5305013,41.0644599 C54.3032536,40.2867229 51.0469658,42.2695486 50.2574557,45.493255 L47.7540386,55.7069064 C46.9642572,58.9303437 48.9400678,62.1736954 52.1673155,62.9511633 L70.8650514,67.4563865 C74.0925705,68.2341235 77.2126142,66.2184661 78.0021242,62.9950287 L78.4426106,61.1981602 L78.4925486,60.9952489 L78.5025905,60.9979401 C79.236463,58.4698911 81.8525122,56.940252 84.4549913,57.5672856 L84.5909639,57.6001174 C87.1939858,58.2271511 88.8104594,60.7767291 88.2920805,63.3567168 L88.3029366,63.3591388 L88.2529985,63.561781 L87.8125122,65.3586495 C87.0224594,68.5820869 89.134514,71.8585394 92.3617617,72.6357382 L111.059769,77.1409615 C114.287288,77.9184294 117.543033,75.9358728 118.333357,72.7124355 L120.83596,62.498515 C121.626285,59.2750777 119.650474,56.0319951 116.423226,55.2542581 L116.423226,55.2542581 Z" id="Stroke-132" stroke="#FFFFFF" stroke-width="1.62" sketch:type="MSShapeGroup"></path>
                <path d="M116.88784,60.9462434 C116.503806,62.5130202 114.911215,63.4748306 113.331381,63.0943046 L101.613576,60.2705003 C100.033199,59.8899743 99.0632064,58.3110875 99.447241,56.7440416 C99.8312756,55.1772648 101.423866,54.2157235 103.0037,54.5962495 L114.721777,57.4195156 C116.301882,57.8005798 117.271603,59.3791976 116.88784,60.9462434" id="Fill-134" fill="#FFFFFF" sketch:type="MSShapeGroup"></path>
                <g id="Group-138">
                    <mask id="mask-4" sketch:name="Clip 137" fill="white">
                        <use xlink:href="#path-3"></use>
                    </mask>
                    <g id="Clip-137"></g>
                    <path d="M14.3432719,105.132577 C14.2889914,106.747256 14.2550661,107.239195 14.2550661,108.215807 C14.2550661,136.64196 37.5788585,159.855929 66.2476526,159.855929 C94.9153612,159.855929 118.238882,136.599171 118.238882,108.171941 C118.238882,107.195868 118.2055,106.747256 118.151219,105.132577 L132.419665,105.132577 C132.462276,106.747256 132.494572,107.24081 132.494572,108.215807 C132.494572,144.435746 102.775722,173.991097 66.2476526,173.991097 C29.717955,173.991097 -8.1420765e-05,144.392149 -8.1420765e-05,108.171941 C-8.1420765e-05,107.196944 0.0322154827,106.747256 0.0748256831,105.132577 L14.3432719,105.132577 Z" id="Fill-136" fill="#ABC9BA" sketch:type="MSShapeGroup" mask="url(#mask-4)"></path>
                </g>
            </g>
        </g>
    </g>
</svg>