<?xml version="1.0" encoding="UTF-8" standalone="no"?>
<svg width="89px" height="106px" viewBox="0 0 89 106" version="1.1" xmlns="http://www.w3.org/2000/svg" xmlns:xlink="http://www.w3.org/1999/xlink" xmlns:sketch="http://www.bohemiancoding.com/sketch/ns">
    <!-- Generator: Sketch 3.4.4 (17249) - http://www.bohemiancoding.com/sketch -->
    <title>thanks__</title>
    <desc>Created with Sketch.</desc>
    <defs>
        <path id="path-1" d="M0,0.0411681957 L88.8816576,0.0411681957 L88.8816576,106 L0,106"></path>
        <path id="path-3" d="M0,0.0411681957 L88.8816576,0.0411681957 L88.8816576,106 L0,106 L0,0.0411681957 Z"></path>
    </defs>
    <g id="Welcome" stroke="none" stroke-width="1" fill="none" fill-rule="evenodd" sketch:type="MSPage">
        <g id="m_how_3_" sketch:type="MSArtboardGroup" transform="translate(-119.000000, -174.000000)">
            <g id="thanks__" sketch:type="MSLayerGroup" transform="translate(119.000000, 174.000000)">
                <g id="Group-3">
                    <mask id="mask-2" sketch:name="Clip 2" fill="white">
                        <use xlink:href="#path-1"></use>
                    </mask>
                    <g id="Clip-2"></g>
                    <path d="M39.6163479,35.3888131 C56.714561,35.3888131 70.6292004,49.2751373 70.6711876,66.3599385 C70.650275,83.4625685 56.7272058,97.4163177 39.6168342,97.4163177 C22.5160273,97.4163177 8.59976685,83.4946602 8.56183242,66.4066174 C8.57885428,49.3000976 22.5032204,35.3888131 39.6163479,35.3888131 M79.1871421,66.3362749 C79.1871421,66.065278 79.182765,65.8179446 79.1757942,65.5566725 C79.1725519,65.4036694 79.1672022,65.2514768 79.1618525,65.0986358 C79.1560164,64.9222933 79.1493698,64.7337948 79.1423989,64.522119 L79.1398051,64.522119 C78.1369745,43.5937642 60.7934845,26.8757489 39.6163479,26.8757489 C18.440184,26.8757489 1.09653188,43.5937642 0.0933770492,64.522119 L0.0909453552,64.522119 C0.0833260474,64.7478957 0.0763551913,64.9457948 0.0700327869,65.1300792 C0.0656557377,65.2654156 0.0606302368,65.4005899 0.0575500911,65.5360884 C0.050417122,65.7981709 0.0462021858,66.0455043 0.0462021858,66.3205532 C0.0462021858,66.3401648 0.0468506375,66.3597765 0.0468506375,66.3795502 C0.0468506375,66.3989997 0.0462021858,66.4184492 0.0462021858,66.4378988 C0.0462021858,88.2526664 17.7977304,106.000049 39.6163479,106.000049 C61.4361002,106.000049 79.1871421,88.2526664 79.1871421,66.4378988 C79.1871421,66.4208804 79.1864936,66.4041862 79.1864936,66.3870058 C79.1864936,66.3701495 79.1871421,66.3532933 79.1871421,66.3362749" id="Fill-1" fill="#88A39B" sketch:type="MSShapeGroup" mask="url(#mask-2)"></path>
                </g>
                <path d="M6.14724135,64.5888471 C6.14724135,83.434318 21.4271958,98.7114465 40.2763907,98.7114465 C59.1255856,98.7114465 74.4060264,83.434318 74.4060264,64.5888471 C74.4060264,45.7437003 59.1255856,30.4667339 40.2763907,30.4667339 C21.4271958,30.4667339 6.14724135,45.7437003 6.14724135,64.5888471" id="Fill-4" fill="#137777" sketch:type="MSShapeGroup"></path>
                <path d="M8.51520874,65.1577138 C8.51520874,82.2783346 22.4465457,96.2069615 39.5702106,96.2069615 C56.6945239,96.2069615 70.6263472,82.2783346 70.6263472,65.1577138 C70.6263472,48.037093 56.6945239,34.1084661 39.5702106,34.1084661 C22.4465457,34.1084661 8.51520874,48.037093 8.51520874,65.1577138 M6.4845173e-05,65.1577138 C6.4845173e-05,43.3429462 17.7515931,25.5955639 39.5702106,25.5955639 C61.3899628,25.5955639 79.1410047,43.3429462 79.1410047,65.1577138 C79.1410047,86.9726434 61.3899628,104.719702 39.5702106,104.719702 C17.7515931,104.719702 6.4845173e-05,86.9726434 6.4845173e-05,65.1577138" id="Fill-6" fill="#E6EDF3" sketch:type="MSShapeGroup"></path>
                <path d="M20.255249,82.9036697 L21.9321452,80.6979297 L21.4120869,83.6596086 L20.255249,82.9036697 Z" id="Fill-8" fill="#CE9F67" sketch:type="MSShapeGroup"></path>
                <path d="M37.062437,21.3258872 C36.1296392,24.8773734 33.0772148,27.153456 30.2442913,26.4098352 C27.4115299,25.6660523 26.662406,22.2229972 27.5945554,18.6719972 C28.5275153,15.120511 30.7888286,12.8055294 33.6217521,13.5489881 C36.4546756,14.292933 37.9949106,17.7744009 37.062437,21.3258872" id="Fill-10" fill="#916433" sketch:type="MSShapeGroup"></path>
                <path d="M44.5463967,84.9329862 L30.5398393,81.2563746 L35.1020215,63.8846927 L49.1084168,67.5614664 L44.5463967,84.9329862 Z" id="Fill-12" fill="#E5E5E4" sketch:type="MSShapeGroup"></path>
                <path d="M35.9619982,79.6400853 L41.2619563,69.8986205 L41.5048015,81.1798407 L35.9619982,79.6400853 Z" id="Fill-14" fill="#000000" sketch:type="MSShapeGroup"></path>
                <path d="M68.0326537,28.9921346 C67.2313295,32.0421468 68.8783969,35.1177676 71.7114825,35.8617125 C74.5440818,36.6053333 76.8984479,34.5799878 77.6994479,31.5298135 C78.5004479,28.4794771 77.4450927,25.5594526 74.6126556,24.8156697 C71.7792457,24.0720489 68.8336537,25.9417982 68.0326537,28.9921346" id="Fill-16" fill="#916433" sketch:type="MSShapeGroup"></path>
                <path d="M38.3256209,61.7296673 L34.6610581,64.4274807" id="Fill-18" fill="#D5D5D5" sketch:type="MSShapeGroup"></path>
                <path d="M42.4238035,56.4866058 L40.4158727,64.6813459 L41.5329929,68.7051318 L43.8283499,66.0633979 L46.0906359,57.4493581" id="Fill-20" fill="#E8C599" sketch:type="MSShapeGroup"></path>
                <path d="M43.3449454,60.6791489 L41.3955373,68.7811795 L43.978969,65.5451 L46.0001931,57.9565373" id="Fill-22" fill="#DABB96" sketch:type="MSShapeGroup"></path>
                <path d="M39.534027,61.7160526 L35.1532492,64.5534165 L41.5140743,69.0738141 L42.3487938,65.8403278 L39.534027,61.7160526 Z" id="Fill-24" fill="#B5B5B5" sketch:type="MSShapeGroup"></path>
                <path d="M47.4191514,64.223374 L49.2521623,68.2748755 L41.4906814,69.0885147 L42.3489073,65.8404413 L47.4191514,64.223374 Z" id="Fill-26" fill="#E2E2E2" sketch:type="MSShapeGroup"></path>
                <path d="M79.9080583,18.6927272 L76.9135082,28.3821645 C72.4588069,46.0593664 73.1275228,43.4959168 70.7156066,53.0659015 C69.1367887,59.3315713 52.1706976,61.0554489 44.4779526,58.9738618 C36.174204,56.7269535 22.084969,48.0309015 24.0017923,40.4253205 C27.6263133,26.0435193 27.7892368,25.307192 30.4486995,14.7541951 L79.9080583,18.6927272 Z" id="Fill-28" fill="#F2D2A7" sketch:type="MSShapeGroup"></path>
                <path d="M39.3575022,18.8499768 C38.8821871,20.658622 36.3598719,21.5633498 33.7234293,20.8712703 C31.0865004,20.1790287 29.3342217,18.1520624 29.8088883,16.3435792 C30.2838792,14.5352581 32.8063565,13.6303682 35.4432854,14.3226098 C38.0798902,15.0148514 39.8326552,17.0414936 39.3575022,18.8499768" id="Fill-30" fill="#916433" sketch:type="MSShapeGroup"></path>
                <path d="M46.809169,21.3124346 C46.3343403,23.1202694 43.8117009,24.0254835 41.1750962,23.333404 C38.5380051,22.6410003 36.7857264,20.6137098 37.2607173,18.8058749 C37.735384,16.9973917 40.2580233,16.0921777 42.8951144,16.7844193 C45.5317191,17.4764988 47.2841599,19.5039514 46.809169,21.3124346" id="Fill-32" fill="#916433" sketch:type="MSShapeGroup"></path>
                <path d="M54.2688929,23.1017924 C53.793902,24.9101135 51.2712627,25.8151654 48.6344958,25.1227618 C45.9975668,24.4306823 44.245126,22.4035538 44.7199548,20.5950706 C45.1949457,18.7869116 47.7175851,17.8821838 50.354514,18.5742633 C52.9911188,19.2663428 54.7435596,21.2936333 54.2688929,23.1017924" id="Fill-34" fill="#916433" sketch:type="MSShapeGroup"></path>
                <path d="M61.7656596,25.069859 C61.2906687,26.8781801 58.7686778,27.7832321 56.1314246,27.0909905 C53.494982,26.3987489 51.7423791,24.3717826 52.2173699,22.5632994 C52.6920366,20.7549783 55.2148381,19.8499263 57.8514428,20.5421679 C60.4882097,21.2344095 62.2404883,23.2613758 61.7656596,25.069859" id="Fill-36" fill="#916433" sketch:type="MSShapeGroup"></path>
                <path d="M69.5371104,27.2786624 C69.0621195,29.0866593 66.5394801,29.9918734 63.9027133,29.2996318 C61.2661086,28.6073902 59.5131814,26.5799376 59.9880102,24.7721028 C60.462839,22.9636196 62.9859647,22.0587297 65.6224073,22.7508092 C68.2594984,23.4430508 70.011777,25.4703413 69.5371104,27.2786624" id="Fill-38" fill="#916433" sketch:type="MSShapeGroup"></path>
                <path d="M77.378059,28.577989 C76.9030681,30.3863101 74.3809151,31.2910379 71.7441483,30.5989584 C69.1070572,29.9067168 67.3547785,27.8795884 67.8299315,26.0712673 C68.3045982,24.2627841 70.8272375,23.3580563 73.4638423,24.0501358 C76.100447,24.7425394 77.8530499,26.7695058 77.378059,28.577989" id="Fill-40" fill="#916433" sketch:type="MSShapeGroup"></path>
                <path d="M29.9524231,12.1611823 L23.4178129,4.35591927 L24.2392392,0.781579817 C24.2392392,0.781579817 38.1127018,-2.00602569 58.0684796,3.23676024 C67.6584322,5.75612416 75.9649368,9.43322202 88.8816089,17.2498306 L87.8677546,21.1100783 L78.9129605,24.9507144 L29.9524231,12.1611823 Z" id="Fill-42" fill="#000000" sketch:type="MSShapeGroup"></path>
                <path d="M79.1108031,24.8608413 C77.0146829,19.5373398 67.9157703,15.3988015 56.3138341,12.3530034 C44.7307029,9.31222966 34.2126537,8.29031835 29.7582767,11.8823245 L29.2568614,14.4752725 C33.5363186,11.8217067 43.9762293,12.959667 55.5929179,16.009193 C67.1768596,19.0501287 75.6772512,22.9199391 77.9432658,27.2562144 L79.1108031,24.8608413 Z" id="Fill-44" fill="#B5B5B5" sketch:type="MSShapeGroup"></path>
                <path d="M77.9432333,27.256182 C77.382971,29.3899587 53.025665,22.9085612 53.025665,22.9085612 C53.025665,22.9085612 28.6960803,16.609341 29.256829,14.4752401 C29.8170913,12.3414633 41.1534865,11.5012431 54.5976741,15.0305245 C68.0420239,18.5599679 78.5033335,25.122081 77.9432333,27.256182" id="Fill-46" fill="#000000" sketch:type="MSShapeGroup"></path>
                <path d="M60.3948326,68.3427869 C60.3948326,68.3427869 53.1431969,66.1448266 47.4191514,64.223374 L38.6658636,80.1810743 L39.5339783,61.716004 C33.6045357,60.578692 25.556277,59.1974505 25.556277,59.1974505 L20.1374902,90.4928969 L35.9911623,98.202533 L47.3958071,97.9738388 L60.3948326,68.3427869 Z" id="Fill-48" fill="#1C1F27" sketch:type="MSShapeGroup"></path>
                <path d="M31.7476131,42.5501505 C31.5804747,43.2244012 30.7112251,43.8041596 29.8675894,43.5954012 L27.4230885,42.9908446 C26.579777,42.7822483 26.0804692,41.8640679 26.2472834,41.189655 C26.4144219,40.5145939 27.2838335,39.9356459 28.127145,40.1444043 L30.571808,40.7489609 C31.4156058,40.9577193 31.9144273,41.8754135 31.7476131,42.5501505" id="Fill-50" fill="#E16C58" sketch:type="MSShapeGroup"></path>
                <path d="M68.5473299,51.4382505 C68.3806778,52.1133116 67.511104,52.6922596 66.6671441,52.4833391 L64.2231295,51.8787826 C63.3790075,51.6703483 62.8803481,50.7528162 63.0474865,50.077755 C63.2144628,49.402856 64.0837124,48.8237459 64.9273481,49.0323422 L67.3720111,49.6368988 C68.2158089,49.8459813 68.7141441,50.7633514 68.5473299,51.4382505" id="Fill-52" fill="#E16C58" sketch:type="MSShapeGroup"></path>
                <path d="M72.04289,47.4152263 C71.6823508,48.8979297 70.2243071,49.8169205 68.7858791,49.4676391 L27.1163709,39.344315 C25.6776186,38.9948716 24.8041541,37.5092508 25.164369,36.0263853 C25.5249082,34.5433578 26.9829519,33.6245291 28.42138,33.9739725 L70.0912124,44.0971346 C71.5296404,44.4467401 72.403267,45.9321988 72.04289,47.4152263" id="Fill-54" fill="#C1AA8E" sketch:type="MSShapeGroup"></path>
                <path d="M28.6583729,30.0412914 C28.2691397,31.5231844 26.7525732,32.4089489 25.2702126,32.019796 C23.7885004,31.6306431 22.9027153,30.1145514 23.2921106,28.6324963 C23.6810195,27.1510896 25.1972617,26.2654872 26.6796224,26.6543159 C28.1614967,27.0434688 29.0472818,28.5597226 28.6583729,30.0412914" id="Fill-56" fill="#F2D2A7" sketch:type="MSShapeGroup"></path>
                <path d="M76.4812179,42.5955813 C76.0916605,44.0773122 74.5746077,44.9627526 73.0928954,44.5734376 C71.6111832,44.1847709 70.7252361,42.668193 71.1146313,41.1866242 C71.5033781,39.7050554 73.0199446,38.8194529 74.5021432,39.2086058 C75.9835311,39.5972725 76.8698026,41.1136884 76.4812179,42.5955813" id="Fill-58" fill="#F2D2A7" sketch:type="MSShapeGroup"></path>
                <path d="M42.3223208,35.6693728 C41.7847543,37.7162749 39.6891204,38.9401373 37.6411477,38.4025196 L33.7092607,37.3703972 C31.6614501,36.8327795 30.4376596,34.7374156 30.975226,32.6905135 L31.0298581,32.4814309 C31.568073,30.4342046 33.6632206,29.2105043 35.710869,29.7479599 L39.6434046,30.7802443 C41.691053,31.3178621 42.9150056,33.4130639 42.377277,35.4601281 L42.3223208,35.6693728 Z" id="Fill-60" fill="#FFFFFF" sketch:type="MSShapeGroup"></path>
                <path d="M25.6468495,85.1686661 C25.3714197,86.2067853 24.3058514,86.8254428 23.267518,86.5497456 L21.5815435,86.102082 C20.5430481,85.8263847 19.9247494,84.7613602 20.2001792,83.7229168 L20.2225508,83.6389596 C20.4981428,82.6006783 21.5637111,81.9821829 22.6023687,82.2578801 L24.2878568,82.7055437 C25.3263523,82.981241 25.944651,84.0461034 25.6688969,85.0847089 L25.6468495,85.1686661 Z" id="Fill-62" fill="#F2D2A7" sketch:type="MSShapeGroup"></path>
                <path d="M37.3018129,34.1473327 C37.200006,34.5342165 36.8042883,34.7651798 36.4174869,34.663718 C36.0310097,34.5619321 35.7995124,34.1667823 35.9011572,33.7797364 C36.0026399,33.3931768 36.3986818,33.1618893 36.7854832,33.263189 C37.1721226,33.3649749 37.4032956,33.7609352 37.3018129,34.1473327" id="Fill-64" fill="#000000" sketch:type="MSShapeGroup"></path>
                <path d="M68.207914,42.4645239 C67.6705097,44.5117502 65.5748758,45.7351263 63.5269031,45.1976706 L59.5948539,44.1655483 C57.5475297,43.6282547 56.3232528,41.5328908 56.8609814,39.4856645 L56.9160998,39.276582 C57.45318,37.2295177 59.5493002,36.0058174 61.5967865,36.5434352 L65.5288357,37.5755575 C67.576322,38.1130131 68.8005989,40.208215 68.2628703,42.2554413 L68.207914,42.4645239 Z" id="Fill-66" fill="#FFFFFF" sketch:type="MSShapeGroup"></path>
                <path d="M63.4156126,41.0024856 C63.3141299,41.3895315 62.9185743,41.6201706 62.5314486,41.5187089 C62.1446472,41.4174092 61.913312,41.0219352 62.0152811,40.6345651 C62.1166016,40.2486538 62.5126435,40.0170422 62.8992829,40.118504 C63.2864086,40.2199657 63.5174195,40.615926 63.4156126,41.0024856" id="Fill-68" fill="#000000" sketch:type="MSShapeGroup"></path>
                <path d="M38.0904437,79.5663229 L32.7880539,86.9595798 L30.4909137,96.5893719 L33.6182342,97.3950691 L48.1083745,96.1927633 L60.3947515,68.3428031 C60.3947515,68.3428031 53.1431158,66.1448428 47.4192324,64.2233902 L38.0904437,79.5663229 Z" id="Fill-70" fill="#121419" sketch:type="MSShapeGroup"></path>
                <path d="M34.830223,89.2493095 C34.7019916,89.7389517 34.20009,90.0324777 33.7095362,89.9036245 C33.2194689,89.7749333 32.9263687,89.2729731 33.0550863,88.7831688 C33.1839661,88.2930404 33.6857056,87.9993523 34.175773,88.1285297 C34.6663268,88.2573829 34.9592648,88.7588569 34.830223,89.2493095" id="Fill-72" fill="#F7B817" sketch:type="MSShapeGroup"></path>
                <path d="M34.1129056,92.2617031 C33.9845122,92.7513453 33.4827727,93.0448713 32.9922189,92.916018 C32.5019894,92.7873269 32.2090514,92.2856908 32.3376069,91.7955624 C32.4664867,91.3054339 32.9683883,91.011908 33.4584557,91.1407612 C33.9488474,91.2697765 34.2417854,91.7712505 34.1129056,92.2617031" id="Fill-74" fill="#F7B817" sketch:type="MSShapeGroup"></path>
                <path d="M33.3955073,95.4175046 C33.267276,95.9071468 32.7653743,96.2008349 32.2748206,96.0718196 C31.784429,95.9431284 31.491653,95.4411682 31.6202086,94.951526 C31.7490883,94.4612355 32.25099,94.1677095 32.7410574,94.2967248 C33.2316111,94.425578 33.5243871,94.9272141 33.3955073,95.4175046" id="Fill-76" fill="#F7B817" sketch:type="MSShapeGroup"></path>
                <path d="M53.8761095,48.159463 C51.6587288,49.8509248 48.9426887,50.5451113 46.3145138,49.8551388 C43.6860148,49.1650043 41.6617106,47.2266954 40.561288,44.6642183 L39.9938927,44.5151052 C40.1461168,44.5549768 40.2242552,44.9073376 40.3395175,45.1473774 C41.5824373,47.7380563 43.6855284,49.484463 46.2358891,50.1541755 C48.7864118,50.8235639 51.4693809,50.3598544 53.8258545,48.713937 C54.0438964,48.5617443 54.2911186,48.2683804 54.443829,48.3084141 L53.8761095,48.159463 Z" id="Fill-78" fill="#000000" sketch:type="MSShapeGroup"></path>
                <path d="M52.122161,40.4654352 L50.4322958,35.542108 L46.4845217,38.8459367 C46.1637002,39.186952 45.838988,39.5825881 45.7138368,40.059426 L44.9241847,43.0650284 C44.5004215,44.678692 45.7670098,46.4604321 47.501294,46.8818388 L47.5021046,46.882163 C49.2363887,47.3034076 50.7592776,46.3220162 51.1830408,44.7080284 L51.9735035,41.6978878 C52.0853614,41.2725911 52.2014342,40.8756584 52.122161,40.4654352" id="Fill-80" fill="#EDA769" sketch:type="MSShapeGroup"></path>
                <path d="M45.1404596,43.4602593 C45.0548639,43.4377303 44.9684577,43.4288159 44.8836727,43.4320575 C44.8214213,44.0312654 44.9421954,44.6188037 45.2072501,45.1295162 C45.4719805,45.0369688 45.6875907,44.8186477 45.764108,44.5269046 C45.8868275,44.0604398 45.6075069,43.5827914 45.1404596,43.4602593" id="Fill-82" fill="#916433" sketch:type="MSShapeGroup"></path>
                <path d="M50.9191372,44.8955544 C51.0061918,44.9140315 51.0875725,44.9446645 51.1613339,44.9856706 C50.9483175,45.549059 50.5765925,46.0202242 50.1108421,46.3576737 C49.9161444,46.1562089 49.8214705,45.8644657 49.8837219,45.569319 C49.9839077,45.0975055 50.4473885,44.7958755 50.9191372,44.8955544" id="Fill-84" fill="#916433" sketch:type="MSShapeGroup"></path>
                <path d="M20.8402984,81.8614012 C16.4434714,79.8798171 14.0250707,74.9372024 15.3496954,70.1453217 C16.675455,65.3529547 20.2322128,61.957389 25.0226499,62.5154287 L25.5957191,59.2078722 C18.8265315,58.1571107 13.6314605,62.5760465 11.7626226,69.3375174 C9.89297413,76.0993125 13.4437337,83.0786183 19.7922383,85.6526031 L20.8402984,81.8614012 Z" id="Fill-86" fill="#1C1F27" sketch:type="MSShapeGroup"></path>
                <path d="M19.7272796,81.2944309 C19.2532614,80.9331557 18.8954781,80.6508131 18.3514271,80.2777061 L17.2574891,84.3301801 C17.8208315,84.7084737 18.5469353,85.0661832 18.7085619,85.1729936 L19.7272796,81.2944309 Z" id="Fill-88" fill="#F7B817" sketch:type="MSShapeGroup"></path>
                <path d="M39.9224495,29.2784642 C39.8488503,29.5642104 39.5016044,29.7222379 39.1459286,29.6308251 L34.9489869,28.5609382 C34.5939596,28.4701737 34.4054222,28.1779443 34.4989614,27.8993297 L34.5009067,27.8941431 C34.594608,27.6153664 34.8603111,27.4294612 35.216149,27.5202257 L39.4434058,28.6006477 C39.7989195,28.6914122 40.0122601,28.9919076 39.9391472,29.2778159 L39.9224495,29.2784642 Z" id="Fill-90" fill="#916433" sketch:type="MSShapeGroup"></path>
                <path d="M62.4191854,34.9874881 C62.3230525,35.266589 62.5263421,35.5889651 62.8740743,35.7084177 L66.9212237,37.1078122 C67.2683075,37.2269407 67.538874,37.0740997 67.6134459,36.7898122 L67.6152291,36.7846257 C67.689639,36.5000141 67.6173366,36.2111884 67.2699286,36.0915737 L63.1679851,34.6780783 C62.8209013,34.5584636 62.4895424,34.6955829 62.3934095,34.9745217 L62.4191854,34.9874881 Z" id="Fill-92" fill="#916433" sketch:type="MSShapeGroup"></path>
                <path d="M42.6485244,68.9553339 L42.5812475,70.9829486 L40.8051383,71.6758385 L39.599018,70.1992942 L40.6029834,68.4465664 L41.5142202,69.0738141 L42.6485244,68.9553339 Z" id="Fill-94" fill="#000000" sketch:type="MSShapeGroup"></path>
                <path d="M27.0932049,29.7372465 C26.9203925,30.3936685 26.2489208,30.7857388 25.5925255,30.6136104 C24.9361302,30.4413199 24.5438169,29.7698245 24.716143,29.1134024 C24.8881448,28.4577908 25.5601029,28.0653963 26.2163361,28.2373627 C26.8725692,28.4098153 27.2648825,29.0817969 27.0932049,29.7372465" id="Fill-96" fill="#C1AA8E" sketch:type="MSShapeGroup"></path>
                <path d="M75.0407148,42.3241306 C74.8687129,42.9807147 74.1972412,43.372785 73.5403596,43.2001703 C72.8841264,43.028204 72.4922995,42.3568706 72.6647876,41.7006107 C72.8369515,41.0446749 73.5084233,40.6522804 74.1644944,40.8244089 C74.8212138,40.9968615 75.2132029,41.6688431 75.0407148,42.3241306" id="Fill-98" fill="#C1AA8E" sketch:type="MSShapeGroup"></path>
                <path d="M58.3071423,8.83555382 C58.0195539,9.93137339 56.8974082,10.5863367 55.8012005,10.2986456 C54.7054792,10.0109544 54.0502188,8.88936422 54.3381313,7.79370673 C54.6258818,6.697563 55.7477033,6.04276177 56.8434246,6.33029083 C57.9396322,6.61798196 58.5948927,7.73957217 58.3071423,8.83555382" id="Fill-100" fill="#F7B817" sketch:type="MSShapeGroup"></path>
                <path d="M64.6072237,10.7112514 C64.5686408,10.8580954 64.4182,10.9459425 64.2713257,10.9072055 L59.8385097,9.7436367 C59.6921217,9.70522385 59.6039322,9.55497615 59.6426772,9.40797003 C59.681098,9.26112599 59.8317009,9.17344098 59.9785752,9.2120159 L64.4109049,10.3754226 C64.557455,10.4139976 64.6456444,10.5644073 64.6072237,10.7112514" id="Fill-102" fill="#F7B817" sketch:type="MSShapeGroup"></path>
                <path d="M61.6217519,11.253926 C61.5833311,11.4009321 61.4327282,11.488455 61.286016,11.4500422 L58.0944987,10.6122532 C57.9477865,10.5736783 57.8600834,10.4232685 57.8983421,10.2764245 C57.936925,10.1297425 58.0873658,10.0418954 58.234078,10.0803083 L61.4257574,10.9182593 C61.5723075,10.9568343 61.6603348,11.107082 61.6217519,11.253926" id="Fill-104" fill="#F7B817" sketch:type="MSShapeGroup"></path>
                <path d="M58.281496,11.7034373 C58.2433995,11.8504434 58.0927965,11.9379664 57.9459222,11.8995535 L56.3502446,11.480578 C56.2033703,11.4420031 56.1156672,11.2919174 56.1542501,11.1450734 C56.1929951,10.9982294 56.3429495,10.9103823 56.4898239,10.9487951 L58.0855015,11.3677706 C58.2323758,11.4063456 58.3205652,11.5567554 58.281496,11.7034373" id="Fill-106" fill="#F7B817" sketch:type="MSShapeGroup"></path>
                <path d="M52.9056528,7.6393422 C52.9439115,7.49249817 52.8558842,7.34225046 52.7090098,7.30367554 L48.276518,6.14010673 C48.1298058,6.1015318 47.9795271,6.1893789 47.9409443,6.33606086 C47.9026856,6.48306697 47.9903887,6.63347676 48.137263,6.6718896 L52.5697548,7.83545841 C52.7163049,7.87403333 52.8669078,7.78634832 52.9056528,7.6393422" id="Fill-108" fill="#F7B817" sketch:type="MSShapeGroup"></path>
                <path d="M53.9978563,9.25253578 C54.0364392,9.10569174 53.948574,8.95544404 53.8016996,8.91686911 L50.6101823,8.07908012 C50.4631459,8.0405052 50.3133536,8.12819021 50.2747707,8.27519633 C50.2358636,8.42204037 50.3238909,8.57228807 50.4707652,8.610863 L53.6621204,9.44848991 C53.8089947,9.48722691 53.9591113,9.39937982 53.9978563,9.25253578" id="Fill-110" fill="#F7B817" sketch:type="MSShapeGroup"></path>
                <path d="M54.9130648,10.8192774 C54.9516477,10.6724333 54.8637825,10.5220235 54.7169082,10.4834486 L53.1213927,10.0646352 C52.9745184,10.0257361 52.8240776,10.1139073 52.7856568,10.2607514 C52.7469118,10.4074333 52.834777,10.5578431 52.9813271,10.596418 L54.5774911,11.0152315 C54.7240412,11.0538064 54.874482,10.9659593 54.9130648,10.8192774" id="Fill-112" fill="#F7B817" sketch:type="MSShapeGroup"></path>
                <path d="M32.8112523,87.6080924 L36.1849845,61.1264073 L39.5340756,61.7160526 L38.6659608,80.3245633 L32.8112523,87.6080924 Z" id="Fill-114" fill="#121419" sketch:type="MSShapeGroup"></path>
                <path d="M36.8804652,68.4678312 C36.5210608,68.8519596 35.9475053,68.9000972 35.599773,68.5741554 C35.2513923,68.2490239 35.260957,67.6733174 35.6206856,67.2893511 L37.4749333,65.5163633 C37.8344998,65.1315865 38.4082175,65.0840972 38.756274,65.4093908 C39.1044925,65.7348465 38.9767475,66.2277303 38.6170189,66.6120208 C38.6170189,66.6120208 37.7291264,67.2386202 37.5044379,67.478822 C37.294988,67.7024917 36.8804652,68.4678312 36.8804652,68.4678312" id="Fill-116" fill="#F2D2A7" sketch:type="MSShapeGroup"></path>
                <path d="M36.0515332,70.0742174 C35.7519485,70.6342021 35.0073638,70.8204315 34.3892271,70.4897893 L32.5693474,69.5176364 C31.9507244,69.1868321 31.6940996,68.4659024 31.9940086,67.9055936 L33.0101324,66.004563 C33.309555,65.4445783 34.0515459,65.2568902 34.6696825,65.5873703 L36.4900486,66.5598474 C37.1081852,66.8904896 37.3672417,67.6122297 37.0674949,68.1725385 L36.0515332,70.0742174 Z" id="Fill-118" fill="#F2D2A7" sketch:type="MSShapeGroup"></path>
                <path d="M37.9383818,69.9627878 C39.0546914,74.6535309 43.4531395,77.9606012 48.4097424,77.5644789 C53.3669938,77.169167 57.4303545,74.4807541 57.7870029,69.671855 L61.0876222,69.569745 C60.841859,76.4146869 55.5206641,80.6804575 48.5264638,81.2391456 C41.5319392,81.798644 35.3465202,76.9946073 34.0168699,70.2760875 L37.9383818,69.9627878 Z" id="Fill-120" fill="#1C1F27" sketch:type="MSShapeGroup"></path>
                <path d="M38.2781219,71.0539881 C38.4731437,71.6899881 38.7756464,72.1669881 38.9852585,72.623404 L34.8085809,72.8961838 C34.5723823,72.2895202 34.416916,71.9755722 34.2645299,71.3358443 L38.2781219,71.0539881 Z" id="Fill-122" fill="#F7B817" sketch:type="MSShapeGroup"></path>
                <path d="M58.8527009,67.9554817 C59.455761,67.6215979 61.0049122,67.8118792 61.0875898,69.5697936 C61.1268211,70.4041789 60.8616044,71.262552 60.8616044,71.262552 L59.548976,72.8898303 L57.6088084,70.7109954 C57.6088084,70.7109954 57.8383603,69.3469343 57.9354659,69.1077049 C58.1702055,68.529081 58.433639,68.1875795 58.8527009,67.9554817" id="Fill-124" fill="#1C1F27" sketch:type="MSShapeGroup"></path>
                <path d="M72.4901271,32.0986315 L31.9597865,22.2521391 C30.1619541,21.8153349 28.35018,22.918448 27.9132856,24.7160719 L25.4214477,34.9685734 C24.9847155,36.7661972 26.0880561,38.5774358 27.8858885,39.0142401 L45.0134441,43.1751453 C45.02771,43.0236009 45.0487847,42.8712462 45.0857464,42.7188914 L45.224353,42.149182 C45.6340124,40.4640413 47.3323075,39.4298119 49.0179577,39.8393869 L49.0993384,39.8589985 C50.7846645,40.2685734 51.8191071,41.9666804 51.4096098,43.6519832 L51.2711654,44.2215306 C51.2342036,44.3740474 51.182976,44.5189465 51.1260743,44.6601177 L68.4162291,48.8607324 C70.2142237,49.2975367 72.0259978,48.1944235 72.4628922,46.3967997 L74.9547301,36.1442982 C75.3911381,34.3468364 74.2881217,32.5354358 72.4901271,32.0986315" id="Fill-126" fill="#F7B817" sketch:type="MSShapeGroup"></path>
                <path d="M70.8734397,35.6073936 C70.7392102,36.1602468 69.6460827,36.3693294 68.4316947,36.0741826 L59.6372302,33.9376505 C58.4230044,33.6428278 57.5477566,32.9554486 57.6821483,32.4025954 C57.8163778,31.8497422 58.9095053,31.6406596 60.1240554,31.9356443 L68.9185199,34.0721765 C70.1327457,34.3671612 71.0079934,35.0543783 70.8734397,35.6073936" id="Fill-128" fill="#F6F6F6" sketch:type="MSShapeGroup"></path>
                <path d="M69.5413902,33.2781327 L63.7536342,31.8719309 L58.3727818,30.5647596 L45.532627,27.4453774 L42.918718,26.8103498 L34.3638565,24.7320043 C32.4361716,24.2635945 30.4911406,25.4577963 30.0195541,27.3993468 L28.5242244,33.5507505 C28.0524758,35.4921388 29.2326579,37.4455211 31.1603428,37.9137688 L42.3287891,40.6271419 C44.2566361,41.0955517 46.1202863,39.8815761 46.5918729,37.9401878 L46.8549821,36.8579829 L46.8848109,36.7357749 L46.8908091,36.7373957 C47.3291625,35.2148208 48.891769,34.2935609 50.4462699,34.6712061 L50.5274885,34.6909798 C52.0823137,35.0686251 53.0478583,36.6041664 52.7382226,38.1580226 L52.7447071,38.1594813 L52.7148783,38.2815272 L52.451769,39.3637321 C51.9798583,41.3051205 53.2414211,43.2784385 55.169106,43.7465242 L66.3377144,46.4598972 C68.2655614,46.928145 70.2102681,45.7341052 70.682341,43.7927168 L72.1771843,37.6411511 C72.6492572,35.6997627 71.469075,33.7465425 69.5413902,33.2781327" id="Fill-130" fill="#51CCC9" sketch:type="MSShapeGroup"></path>
                <path d="M69.5413902,33.2781327 L63.7536342,31.8719309 L58.3727818,30.5647596 L45.532627,27.4453774 L42.918718,26.8103498 L34.3638565,24.7320043 C32.4361716,24.2635945 30.4911406,25.4577963 30.0195541,27.3993468 L28.5242244,33.5507505 C28.0524758,35.4921388 29.2326579,37.4455211 31.1603428,37.9137688 L42.3287891,40.6271419 C44.2566361,41.0955517 46.1202863,39.8815761 46.5918729,37.9401878 L46.8549821,36.8579829 L46.8848109,36.7357749 L46.8908091,36.7373957 C47.3291625,35.2148208 48.891769,34.2935609 50.4462699,34.6712061 L50.5274885,34.6909798 C52.0823137,35.0686251 53.0478583,36.6041664 52.7382226,38.1580226 L52.7447071,38.1594813 L52.7148783,38.2815272 L52.451769,39.3637321 C51.9798583,41.3051205 53.2414211,43.2784385 55.169106,43.7465242 L66.3377144,46.4598972 C68.2655614,46.928145 70.2102681,45.7341052 70.682341,43.7927168 L72.1771843,37.6411511 C72.6492572,35.6997627 71.469075,33.7465425 69.5413902,33.2781327 L69.5413902,33.2781327 Z" id="Stroke-132" stroke="#FFFFFF" stroke-width="0.972" sketch:type="MSShapeGroup"></path>
                <path d="M69.8189113,36.7062602 C69.5895215,37.6498872 68.6382428,38.2291593 67.6945834,37.9999789 L60.6953576,36.2992786 C59.751374,36.0700982 59.1719823,35.1191777 59.4013721,34.1753887 C59.6307619,33.2317618 60.5820406,32.6526517 61.5257,32.8818321 L68.525088,34.5822083 C69.4689095,34.8117128 70.048139,35.7624713 69.8189113,36.7062602" id="Fill-134" fill="#FFFFFF" sketch:type="MSShapeGroup"></path>
                <g id="Group-138">
                    <mask id="mask-4" sketch:name="Clip 137" fill="white">
                        <use xlink:href="#path-3"></use>
                    </mask>
                    <g id="Clip-137"></g>
                    <path d="M8.56745774,63.3184841 C8.53503515,64.2909612 8.51477104,64.5872425 8.51477104,65.1754291 C8.51477104,82.2957257 22.4464322,96.2768664 39.5707455,96.2768664 C56.6944104,96.2768664 70.6259095,82.269955 70.6259095,65.1490101 C70.6259095,64.5611477 70.6059696,64.2909612 70.573547,63.3184841 L79.0963102,63.3184841 C79.1217619,64.2909612 79.1410534,64.588215 79.1410534,65.1754291 C79.1410534,86.9897104 61.3895251,104.790093 39.5707455,104.790093 C17.7509933,104.790093 -4.86338798e-05,86.9634535 -4.86338798e-05,65.1490101 C-4.86338798e-05,64.561796 0.0192428051,64.2909612 0.0446945355,63.3184841 L8.56745774,63.3184841 Z" id="Fill-136" fill="#ABC9BA" sketch:type="MSShapeGroup" mask="url(#mask-4)"></path>
                </g>
            </g>
        </g>
    </g>
</svg>