<?xml version="1.0" encoding="UTF-8" standalone="no"?>
<svg width="22px" height="18px" viewBox="0 0 22 18" version="1.1" xmlns="http://www.w3.org/2000/svg" xmlns:xlink="http://www.w3.org/1999/xlink" xmlns:sketch="http://www.bohemiancoding.com/sketch/ns">
    <!-- Generator: Sketch 3.4.4 (17249) - http://www.bohemiancoding.com/sketch -->
    <title>tw_</title>
    <desc>Created with Sketch.</desc>
    <defs></defs>
    <g id="Welcome" stroke="none" stroke-width="1" fill="none" fill-rule="evenodd" sketch:type="MSPage">
        <g id="m_main_-copy-3" sketch:type="MSArtboardGroup" transform="translate(-246.000000, -346.000000)" fill="#FFFFFF">
            <path d="M256.682255,350.788282 L256.729944,351.566833 L255.935133,351.4715 C253.042023,351.106058 250.514525,349.866732 248.368536,347.7853 L247.319386,346.752529 L247.04915,347.515191 C246.476886,349.215292 246.842499,351.010725 248.034715,352.218273 C248.670564,352.885602 248.527498,352.980935 247.430659,352.583715 C247.04915,352.456605 246.71533,352.361272 246.683537,352.408939 C246.572264,352.52016 246.953773,353.96604 247.255801,354.538037 C247.669102,355.332476 248.511602,356.111027 249.433582,356.571802 L250.212496,356.937244 L249.290516,356.953133 C248.400328,356.953133 248.368536,356.969022 248.463913,357.302686 C248.781837,358.335458 250.037638,359.431784 251.436505,359.908448 L252.42207,360.242113 L251.563675,360.750554 C250.291978,361.481438 248.797734,361.894547 247.303489,361.926324 C246.58816,361.942213 246,362.005768 246,362.053435 C246,362.212323 247.939338,363.102095 249.067969,363.451648 C252.453863,364.48442 256.475605,364.039534 259.495885,362.275878 C261.641874,361.020663 263.787863,358.526123 264.789324,356.111027 C265.329795,354.824035 265.870267,352.472494 265.870267,351.344389 C265.870267,350.613505 265.917955,350.518172 266.808143,349.644289 C267.332718,349.135848 267.825501,348.57974 267.920878,348.420852 C268.07984,348.118965 268.063944,348.118965 267.253237,348.389074 C265.902059,348.865738 265.711305,348.802183 266.378946,348.087187 C266.871728,347.578746 267.459888,346.657196 267.459888,346.387087 C267.459888,346.33942 267.221445,346.418864 266.951209,346.561863 C266.665077,346.720751 266.029229,346.959083 265.552342,347.102082 L264.693947,347.372192 L263.915032,346.847862 C263.485835,346.561863 262.881779,346.244088 262.563854,346.148755 C261.753147,345.926312 260.513243,345.958089 259.782017,346.21231 C257.79499,346.927306 256.539189,348.770405 256.682255,350.788282 L256.682255,350.788282 Z" id="tw_" sketch:type="MSShapeGroup"></path>
        </g>
    </g>
</svg>