<?xml version="1.0" encoding="UTF-8" standalone="no"?>
<svg width="26px" height="14px" viewBox="0 0 26 14" version="1.1" xmlns="http://www.w3.org/2000/svg" xmlns:xlink="http://www.w3.org/1999/xlink" xmlns:sketch="http://www.bohemiancoding.com/sketch/ns">
    <!-- Generator: Sketch 3.4.4 (17249) - http://www.bohemiancoding.com/sketch -->
    <title>vk_</title>
    <desc>Created with Sketch.</desc>
    <defs></defs>
    <g id="Welcome" stroke="none" stroke-width="1" fill="none" fill-rule="evenodd" sketch:type="MSPage">
        <g id="m_main_-copy-3" sketch:type="MSArtboardGroup" transform="translate(-147.000000, -348.000000)" fill="#FFFFFF">
            <path d="M159.721056,361.941288 L161.275103,361.941288 C161.275103,361.941288 161.744412,361.892464 161.984376,361.648777 C162.204931,361.424793 162.197882,361.004476 162.197882,361.004476 C162.197882,361.004476 162.167486,359.036317 163.135126,358.746485 C164.089399,358.460802 165.314491,360.648625 166.612917,361.489949 C167.59484,362.126386 168.34101,361.987087 168.34101,361.987087 L171.813217,361.941288 C171.813217,361.941288 173.629476,361.835517 172.768222,360.487636 C172.697725,360.377545 172.266503,359.490594 170.186475,357.668301 C168.009125,355.760977 168.301,356.069561 170.923581,352.77037 C172.52075,350.761165 173.15916,349.534608 172.959663,349.009299 C172.769596,348.508791 171.594767,348.641004 171.594767,348.641004 L167.685388,348.663817 C167.685388,348.663817 167.395343,348.626572 167.180556,348.747897 C166.970438,348.866543 166.835578,349.143759 166.835578,349.143759 C166.835578,349.143759 166.216578,350.698428 165.391671,352.020818 C163.650853,354.810772 162.954672,354.958453 162.67012,354.784934 C162.008089,354.381123 162.173528,353.163034 162.173528,352.297428 C162.173528,349.593542 162.608046,348.466189 161.327381,348.174369 C160.902476,348.077586 160.589451,348.013553 159.502607,348.003097 C158.10759,347.989703 156.927177,348.007159 156.258646,348.316261 C155.813874,348.521839 155.470727,348.979832 155.679838,349.006188 C155.938296,349.03868 156.52333,349.155252 156.833517,349.553619 C157.234251,350.068213 157.220243,351.223392 157.220243,351.223392 C157.220243,351.223392 157.450503,354.406269 156.682635,354.801525 C156.155738,355.072692 155.432823,354.519125 153.88079,351.987894 C153.085731,350.691342 152.485224,349.257998 152.485224,349.257998 C152.485224,349.257998 152.369591,348.990201 152.163044,348.846841 C151.91255,348.673149 151.562537,348.618104 151.562537,348.618104 L147.847436,348.641004 C147.847436,348.641004 147.289869,348.655694 147.08497,348.884604 C146.902685,349.088367 147.070413,349.509289 147.070413,349.509289 C147.070413,349.509289 149.978735,355.931731 153.272136,359.168271 C156.292246,362.136064 159.721056,361.941288 159.721056,361.941288" id="vk_" sketch:type="MSShapeGroup"></path>
        </g>
    </g>
</svg>