<?xml version="1.0" encoding="UTF-8" standalone="no"?>
<svg width="500px" height="188px" viewBox="0 0 500 188" version="1.1" xmlns="http://www.w3.org/2000/svg" xmlns:xlink="http://www.w3.org/1999/xlink" xmlns:sketch="http://www.bohemiancoding.com/sketch/ns">
    <!-- Generator: Sketch 3.4.4 (17249) - http://www.bohemiancoding.com/sketch -->
    <title>window_</title>
    <desc>Created with Sketch.</desc>
    <defs>
        <path id="path-1" d="M0,0.996 L188.005,0.996 L188.005,189 L0,189"></path>
        <path id="path-3" d="M0,0.996 L188.005,0.996 L188.005,189 L0,189 L0,0.996 Z"></path>
    </defs>
    <g id="Welcome" stroke="none" stroke-width="1" fill="none" fill-rule="evenodd" sketch:type="MSPage">
        <g id="advice_-copy-4" sketch:type="MSArtboardGroup" transform="translate(-146.000000, -55.000000)">
            <g id="window_" sketch:type="MSLayerGroup" transform="translate(146.000000, 54.000000)">
                <path d="M10.1143,96.1875 C10.1143,142.5185 47.6723,180.0765 94.0023,180.0765 C140.3323,180.0765 177.8903,142.5185 177.8903,96.1875 C177.8903,49.8575 140.3323,12.2995 94.0023,12.2995 C47.6723,12.2995 10.1143,49.8575 10.1143,96.1875" id="Fill-1" fill="#7FBFC5" sketch:type="MSShapeGroup"></path>
                <path d="M16.3789,59.976 C32.9459,73.539 61.4489,82.494 93.8399,82.494 C127.3589,82.494 156.7199,72.905 172.9919,58.543 C160.6859,30.875 130.4179,11.3 95.0019,11.3 C58.9759,11.3 28.2619,31.55 16.3789,59.976" id="Fill-3" fill="#D5D5D5" sketch:type="MSShapeGroup"></path>
                <g id="Group-7">
                    <mask id="mask-2" sketch:name="Clip 6" fill="white">
                        <use xlink:href="#path-1"></use>
                    </mask>
                    <g id="Clip-6"></g>
                    <path d="M20.2286,94.998 C20.2286,135.678 53.3236,168.773 94.0016,168.773 C134.6816,168.773 167.7776,135.678 167.7776,94.998 C167.7776,54.318 134.6816,21.224 94.0016,21.224 C53.3236,21.224 20.2286,54.318 20.2286,94.998 M-0.0004,94.998 C-0.0004,43.165 42.1696,0.996 94.0016,0.996 C145.8356,0.996 188.0046,43.165 188.0046,94.998 C188.0046,146.831 145.8356,189 94.0016,189 C42.1696,189 -0.0004,146.831 -0.0004,94.998" id="Fill-5" fill="#ABC9BA" sketch:type="MSShapeGroup" mask="url(#mask-2)"></path>
                </g>
                <g id="Group-10">
                    <mask id="mask-4" sketch:name="Clip 9" fill="white">
                        <use xlink:href="#path-3"></use>
                    </mask>
                    <g id="Clip-9"></g>
                    <path d="M167.6524,99.4941 C167.7294,97.4941 167.7774,96.5621 167.7774,95.1651 C167.7774,54.4861 134.6814,21.3081 94.0024,21.3081 C53.3234,21.3081 20.2284,54.5281 20.2284,95.2071 C20.2284,96.6041 20.2754,97.4941 20.3524,99.4941 L0.1064,99.4941 C0.0464,97.4941 0.0004,96.5601 0.0004,95.1651 C0.0004,43.3331 42.1704,1.0801 94.0024,1.0801 C145.8364,1.0801 188.0054,43.3741 188.0054,95.2071 C188.0054,96.6021 187.9594,97.4941 187.8984,99.4941 L167.6524,99.4941 Z" id="Fill-8" fill="#FFFFFF" sketch:type="MSShapeGroup" mask="url(#mask-4)"></path>
                </g>
                <path d="M17.5059,100.1611 C17.5059,104.0271 14.3719,107.1611 10.5059,107.1611 C6.6409,107.1611 3.5059,104.0271 3.5059,100.1611 C3.5059,96.2951 6.6409,93.1611 10.5059,93.1611 C14.3719,93.1611 17.5059,96.2951 17.5059,100.1611" id="Fill-11" fill="#88A39B" sketch:type="MSShapeGroup"></path>
            </g>
        </g>
    </g>
</svg>